<?xml version="1.0" encoding="UTF-8" standalone="no"?>
<!-- Created with Inkscape (http://www.inkscape.org/) -->

<svg
   xmlns:dc="http://purl.org/dc/elements/1.1/"
   xmlns:cc="http://creativecommons.org/ns#"
   xmlns:rdf="http://www.w3.org/1999/02/22-rdf-syntax-ns#"
   xmlns:svg="http://www.w3.org/2000/svg"
   xmlns="http://www.w3.org/2000/svg"
   xmlns:sodipodi="http://sodipodi.sourceforge.net/DTD/sodipodi-0.dtd"
   xmlns:inkscape="http://www.inkscape.org/namespaces/inkscape"
   width="768"
   height="1130.6666"
   viewBox="0 0 719.99999 1060"
   id="svg2"
   version="1.1"
   inkscape:version="0.92.4 (5da689c313, 2019-01-14)"
   sodipodi:docname="feast-famine.svg"
   inkscape:export-filename="C:\Users\Giltwist\Dropbox\Tarot\Majors\feast-famine.png"
   inkscape:export-xdpi="300"
   inkscape:export-ydpi="300">
  <defs
     id="defs4">
    <inkscape:path-effect
       effect="skeletal"
       id="path-effect5834"
       is_visible="true"
       pattern="m -2.144262,-2.6377767 c 0,-2.76 2.23999996,-5 5,-5 2.76,0 5,2.24 5,5 0,2.76 -2.24,5 -5,5 -2.76000004,0 -5,-2.24 -5,-5 z"
       copytype="single_stretched"
       prop_scale="1"
       scale_y_rel="false"
       spacing="0"
       normal_offset="0"
       tang_offset="0"
       prop_units="false"
       vertical_pattern="false"
       fuse_tolerance="0" />
    <inkscape:path-effect
       effect="powerstroke"
       id="path-effect4186"
       is_visible="true"
       offset_points="0,0.5"
       sort_points="true"
       interpolator_type="CubicBezierJohan"
       interpolator_beta="0.2"
       start_linecap_type="zerowidth"
       linejoin_type="round"
       miter_limit="4"
       end_linecap_type="zerowidth"
       cusp_linecap_type="round" />
    <inkscape:path-effect
       effect="skeletal"
       id="path-effect5834-8"
       is_visible="true"
       pattern="m -2.144262,-2.6377767 c 0,-2.76 2.23999996,-5 5,-5 2.76,0 5,2.24 5,5 0,2.76 -2.24,5 -5,5 -2.76000004,0 -5,-2.24 -5,-5 z"
       copytype="single_stretched"
       prop_scale="1"
       scale_y_rel="false"
       spacing="0"
       normal_offset="0"
       tang_offset="0"
       prop_units="false"
       vertical_pattern="false"
       fuse_tolerance="0" />
  </defs>
  <sodipodi:namedview
     id="base"
     pagecolor="#ffffff"
     bordercolor="#666666"
     borderopacity="1.0"
     inkscape:pageopacity="0.0"
     inkscape:pageshadow="2"
     inkscape:zoom="1.06"
     inkscape:cx="130.10671"
     inkscape:cy="544.87765"
     inkscape:document-units="px"
     inkscape:current-layer="layer1"
     showgrid="false"
     units="px"
     inkscape:window-width="2560"
     inkscape:window-height="1377"
     inkscape:window-x="-8"
     inkscape:window-y="-8"
     inkscape:window-maximized="1"
     borderlayer="true"
     showguides="false" />
  <metadata
     id="metadata7">
    <rdf:RDF>
      <cc:Work
         rdf:about="">
        <dc:format>image/svg+xml</dc:format>
        <dc:type
           rdf:resource="http://purl.org/dc/dcmitype/StillImage" />
        <dc:title></dc:title>
      </cc:Work>
    </rdf:RDF>
  </metadata>
  <g
     inkscape:label="Layer 1"
     inkscape:groupmode="layer"
     id="layer1"
     transform="translate(0,7.6377767)">
    <rect
       style="fill:#000000;fill-opacity:1;fill-rule:evenodd;stroke:#333333;stroke-width:2;stroke-linecap:round;stroke-linejoin:miter;stroke-miterlimit:4;stroke-dasharray:none;stroke-dashoffset:0;stroke-opacity:1"
       id="rect4826"
       width="1047.1698"
       height="1205.6604"
       x="-135.84906"
       y="-47.637775"
       ry="29.864" />
    <path
       style="fill:#ffffff;fill-opacity:1;fill-rule:evenodd;stroke:#000000;stroke-width:2;stroke-linecap:round;stroke-linejoin:miter;stroke-miterlimit:4;stroke-dasharray:none;stroke-dashoffset:0;stroke-opacity:1"
       id="path4216"
       sodipodi:type="arc"
       sodipodi:cx="24.574697"
       sodipodi:cy="585.24615"
       sodipodi:rx="33.354092"
       sodipodi:ry="45.361568"
       sodipodi:start="0.091009496"
       sodipodi:end="0.083407016"
       sodipodi:open="true"
       d="M 57.790753,589.36879 A 33.354092,45.361568 0 0 1 21.606484,630.42775 33.354092,45.361568 0 0 1 -8.6526409,581.29526 33.354092,45.361568 0 0 1 27.416606,540.04954 33.354092,45.361568 0 0 1 57.812839,589.02524"
       transform="rotate(-26.399894)" />
    <path
       style="fill:#ffffff;fill-opacity:1;fill-rule:evenodd;stroke:#000000;stroke-width:2;stroke-linecap:round;stroke-linejoin:miter;stroke-miterlimit:4;stroke-dasharray:none;stroke-dashoffset:0;stroke-opacity:1"
       id="path4230"
       sodipodi:type="arc"
       sodipodi:cx="412.88913"
       sodipodi:cy="290.25607"
       sodipodi:rx="30.018684"
       sodipodi:ry="44.027405"
       sodipodi:start="0.091009496"
       sodipodi:end="0.083407016"
       sodipodi:open="true"
       d="m 442.78358,294.25746 a 30.018684,44.027405 0 0 1 -32.56584,39.85134 30.018684,44.027405 0 0 1 -27.23322,-47.68742 30.018684,44.027405 0 0 1 32.46233,-40.03261 30.018684,44.027405 0 0 1 27.35661,47.53524"
       transform="rotate(8.2525404)" />
    <path
       style="fill:#ffffff;fill-opacity:1;fill-rule:evenodd;stroke:#333333;stroke-width:2;stroke-linecap:round;stroke-linejoin:miter;stroke-miterlimit:4;stroke-dasharray:none;stroke-dashoffset:0;stroke-opacity:1"
       id="path4401"
       sodipodi:type="arc"
       sodipodi:cx="406.92255"
       sodipodi:cy="532.10413"
       sodipodi:rx="26.083408"
       sodipodi:ry="38.583462"
       sodipodi:start="0.091009496"
       sodipodi:end="0.083407016"
       sodipodi:open="true"
       d="m 432.89801,535.61074 a 26.083408,38.583462 0 0 1 -28.29665,34.92377 26.083408,38.583462 0 0 1 -23.6631,-41.79092 26.083408,38.583462 0 0 1 28.2067,-35.08262 26.083408,38.583462 0 0 1 23.77032,41.65756" />
    <path
       style="fill:#ababab;fill-rule:evenodd;stroke:#000000;stroke-width:1px;stroke-linecap:butt;stroke-linejoin:miter;stroke-opacity:1;fill-opacity:1"
       d="m 428.65643,652.70572 c 2.63533,-1.44107 5.44556,-2.70919 7.56562,-4.90002 1.51319,-1.31079 2.53716,-3.34931 4.62165,-3.85889 1.62078,-0.55349 3.35186,-0.34901 5.0126,-0.6621 3.21375,-0.22942 6.78237,-0.2871 9.48094,1.75347 2.47821,1.79525 4.51044,4.50918 4.85549,7.61294 -0.11146,1.61029 0.14754,3.56241 -1.02188,4.84533 -1.96931,0.6771 -0.93376,-2.2341 -1.14596,-3.26889 -0.22841,-1.85762 -2.2175,-2.73332 -2.85986,-4.41699 -0.78729,-1.26041 -1.56194,-2.7845 -3.09984,-3.21668 -1.49331,-0.59874 -3.01192,-1.14795 -4.52642,-1.67954 -1.8474,-0.37355 -3.19438,1.18295 -4.31423,2.38518 -2.16697,2.22533 -4.87244,3.86499 -7.80893,4.85669 -2.52843,0.93308 -5.10906,2.01079 -7.85856,1.88364 -1.17551,0.41992 -1.3912,-0.97429 -0.25749,-1.15944 0.40452,-0.2218 0.91361,-0.41136 1.35687,-0.1747 z"
       id="path4424"
       inkscape:connector-curvature="0" />
    <path
       style="fill:#ababab;fill-rule:evenodd;stroke:#000000;stroke-width:1px;stroke-linecap:butt;stroke-linejoin:miter;stroke-opacity:1;fill-opacity:1"
       d="m 341.76902,629.35784 c -2.13057,-1.49923 -4.11391,-3.19844 -6.27524,-4.65509 -1.43701,-0.66493 -3.0639,-0.61885 -4.56688,-1.05432 -1.01698,-0.23073 -2.16823,-0.52834 -3.1194,0.081 -1.57542,0.83436 -2.72874,2.39 -3.10704,4.12752 -0.40498,0.58083 -0.69086,1.76421 0.39599,1.72031 0.65285,-0.23503 0.94765,-0.98931 1.5691,-1.3331 0.79254,-0.64935 1.7323,-1.08276 2.50235,-1.76072 1.24309,-0.97728 2.57688,-0.71061 4.17525,-0.78634 0.96293,-0.008 3.70217,2.02336 3.70217,2.02336 1.16708,0.7047 1.20482,-0.38006 2.36371,0.33874 0.74056,0.50821 1.52095,0.97332 2.35999,1.29867 z"
       id="path4455"
       inkscape:connector-curvature="0"
       sodipodi:nodetypes="ccccccccccccc" />
    <path
       style="fill:#ababab;fill-rule:evenodd;stroke:#000000;stroke-width:1px;stroke-linecap:butt;stroke-linejoin:miter;stroke-opacity:1;fill-opacity:1"
       d="m 336.59913,632.19294 c 1.85445,0.45461 2.6799,2.41628 4.25561,3.32169 2.02705,1.84139 3.40246,4.80127 2.49401,7.52733 -0.98255,2.93475 -4.19588,4.54597 -4.84471,7.64436 -0.46811,2.15729 1.10766,4.14218 2.83615,5.22733 1.24571,0.89 0.20874,2.61235 -0.9601,2.99017 -0.73623,0.78796 -2.90966,1.10399 -2.55288,-0.5318 0.35743,-1.12307 1.96762,-2.03706 1.2081,-3.35262 -0.61111,-1.01801 -1.77161,-1.81349 -1.74307,-3.1239 -0.15159,-3.01308 2.54532,-5.3993 2.11283,-8.44778 -0.11821,-1.94224 -1.06154,-3.69026 -1.99489,-5.34573 -0.82752,-2.28536 -0.19726,-4.86389 -1.31144,-7.07646"
       id="path4473"
       inkscape:connector-curvature="0" />
    <path
       style="fill:#ababab;fill-rule:evenodd;stroke:#000000;stroke-width:1px;stroke-linecap:butt;stroke-linejoin:miter;stroke-opacity:1;fill-opacity:1"
       d="m 299.13951,643.66071 c -0.62634,-3.16018 -0.5837,-6.4924 0.44897,-9.56298 0.39133,-2.12761 0.2286,-4.33884 0.89096,-6.41975 0.35112,-1.68255 0.69795,-3.58744 -0.18699,-5.16438 -0.8856,-1.13405 -2.23548,-1.77161 -3.17549,-2.85315 -1.47641,-1.28735 -3.2308,-2.49773 -5.2463,-2.60963 -1.40345,0.13134 -1.62898,2.53182 -0.12412,2.69065 1.23203,0.30534 2.80157,0.15645 3.58737,1.36785 1.43525,1.88204 0.98012,4.37463 0.96791,6.57262 -0.1138,3.87957 0.15922,7.75633 0.26951,11.63068 -0.0412,1.39409 -0.36268,2.94935 0.39708,4.20711 0.53092,0.5865 1.62724,0.8665 2.1711,0.14098 z"
       id="path4527"
       inkscape:connector-curvature="0" />
    <path
       style="fill:#ababab;fill-rule:evenodd;stroke:#000000;stroke-width:1px;stroke-linecap:butt;stroke-linejoin:miter;stroke-opacity:1;fill-opacity:1"
       d="m 305.03574,646.96259 c -0.58327,-1.98136 -3.57677,-2.64366 -4.89876,-1.02991 -1.65972,0.34484 -0.68468,3.31912 0.86516,2.57921 2.10142,-0.64266 4.63119,0.0105 5.90278,1.87108 2.96665,3.06679 4.48565,7.37425 4.3476,11.61713 0.038,2.29775 -0.55511,4.56756 -0.51583,6.85531 0.47562,2.27584 3.67445,3.66712 5.48024,2.01782 1.09085,-1.49166 -0.79058,-2.79034 -1.71135,-3.74585 -0.95272,-1.55382 -0.35311,-3.43723 -0.46908,-5.1474 -0.0221,-3.95173 -0.67298,-8.15413 -3.1363,-11.36931 -1.12085,-1.37164 -2.56687,-2.42493 -3.92866,-3.53865 -0.5324,-0.45231 -1.39818,-0.69199 -1.9358,-0.10943 z"
       id="path4561"
       inkscape:connector-curvature="0" />
    <path
       style="fill:#ffffff;fill-rule:evenodd;stroke:#000000;stroke-width:1px;stroke-linecap:butt;stroke-linejoin:miter;stroke-opacity:1"
       d="m 347.77275,581.49473 c -0.36131,-0.56395 -0.47854,-1.26039 -0.91851,-1.77778 -0.0787,-1.01419 -0.57223,-1.94465 -0.63406,-2.96258 -0.13859,-0.93096 -0.19975,-1.88877 -0.0606,-2.82235 0.20736,-1.11401 1.07664,-1.94807 2.00478,-2.5193 0.50284,-0.22793 0.65596,-0.82078 0.62301,-1.33023 -0.0116,-0.25213 -0.0423,-0.57651 0.0425,-0.1482 0.18327,0.9155 0.14123,1.85976 0.0932,2.78571 -0.10727,0.74157 -0.27816,1.49802 -0.71267,2.12296 -0.366,0.49896 -0.21041,1.11768 -0.27278,1.68678 -0.10611,0.50342 0.12282,0.91972 0.38128,1.32716 0.20741,0.42002 0.44457,0.83082 0.75353,1.18196 0.2461,0.49736 0.28887,1.08015 0.16948,1.61806 -0.3423,0.51598 -1.18316,0.25824 -1.46917,0.83781 z"
       id="path4627"
       inkscape:connector-curvature="0" />
    <path
       style="fill:#ababab;fill-rule:evenodd;stroke:#000000;stroke-width:1px;stroke-linecap:butt;stroke-linejoin:miter;stroke-opacity:1;fill-opacity:1"
       d="m 367.53574,572.4343 c -2.40688,-0.15169 -4.07824,1.89593 -6.13752,2.77304 -4.9818,2.65772 -10.94998,2.79065 -15.74456,5.87704 -1.88114,1.04601 -3.96152,1.63782 -6.04535,2.11084 -1.61593,0.50154 -3.2356,1.0359 -4.92077,1.24969 0.0765,1.44711 2.18074,1.2781 3.2412,1.61217 2.36686,0.3006 4.82258,0.0263 6.97552,-1.0425 3.00438,-1.13422 6.09744,-2.08136 8.90679,-3.66836 2.54727,-1.35303 5.55852,-1.13157 8.18568,-2.26051 1.76612,-0.66337 3.32067,-2.06702 3.76429,-3.94979 0.33189,-1.02947 0.72496,-2.1963 1.77472,-2.70162 z"
       id="path4430"
       inkscape:connector-curvature="0" />
    <path
       style="fill:#ababab;fill-rule:evenodd;stroke:#000000;stroke-width:1px;stroke-linecap:butt;stroke-linejoin:miter;stroke-opacity:1;fill-opacity:1"
       d="m 411.30833,669.59285 c 1.36183,2.81103 4.77252,3.68439 6.39685,6.2789 3.16089,3.06287 7.57728,5.64623 8.36711,10.35037 1.08271,4.16722 -0.21248,9.1721 -3.92562,11.62436 -1.79064,0.6961 -4.19393,1.17209 -4.99498,3.12391 0.71986,3.22596 4.87182,1.04473 6.35263,-0.48324 1.82876,-1.36714 3.88744,-2.56139 5.19181,-4.49796 -0.27615,-2.40431 3.49919,-5.2726 4.87011,-2.38776 1.85238,3.06479 5.7208,3.75122 8.93713,4.55551 3.69454,1.07807 8.35099,1.56552 11.3682,-1.3245 1.37692,-1.75387 -1.38879,-3.66534 -2.34656,-1.43587 -4.05208,2.67158 -9.34085,1.13512 -13.07527,-1.37203 -2.27457,-1.42605 -3.78125,-3.73249 -4.81487,-6.15317 -1.97886,-3.31622 -4.70158,-6.11033 -7.22235,-9.00253 -3.22183,-2.77578 -7.08351,-5.36194 -8.34064,-9.67463 -0.8473,-2.71513 0.58018,-6.77382 -2.9354,-8.01515 -2.63627,-0.64272 -4.42384,2.45975 -3.82849,4.77563 0.12114,1.20089 0.60962,2.48406 3.4e-4,3.63816 z"
       id="path4639"
       inkscape:connector-curvature="0" />
    <path
       style="fill:#ababab;fill-rule:evenodd;stroke:#000000;stroke-width:1px;stroke-linecap:butt;stroke-linejoin:miter;stroke-opacity:1;fill-opacity:1"
       d="m 324.13951,726.44374 c 0.41431,2.81505 -1.48018,6.08927 -4.48611,6.34867 -1.65583,0.32295 -3.81275,-0.0404 -4.57038,-1.74563 -0.70781,-2.17458 0.7258,-4.21807 1.07303,-6.31585 0.45249,-1.67274 1.2421,-3.43803 0.75339,-5.1854 -0.98697,-2.18166 -3.48452,-2.89983 -5.53829,-3.69728 -3.43289,-1.15592 -7.11626,-1.40835 -10.70866,-1.09597 -0.70421,1.15666 -3.3138,1.53537 -3.3134,-0.28634 -0.0472,-1.93171 1.9055,-3.74777 3.84494,-3.29712 1.29519,0.87509 3.08286,1.15505 4.49647,0.39585 2.84085,-0.39644 5.82781,-0.40975 8.56169,0.54164 2.73588,1.32084 4.52069,3.95459 5.99005,6.51134 0.6945,1.4514 1.43832,2.89985 2.54157,4.08892 0.86215,1.08265 1.17287,2.39974 1.3557,3.73717 z"
       id="path4671"
       inkscape:connector-curvature="0" />
    <path
       style="fill:#ababab;fill-rule:evenodd;stroke:#000000;stroke-width:1px;stroke-linecap:butt;stroke-linejoin:miter;stroke-opacity:1;fill-opacity:1"
       d="m 354.09234,678.33052 c -4.37137,2.6083 -7.79014,6.7866 -12.76158,8.36326 -5.99671,2.34387 -12.74894,3.67647 -19.07099,1.85719 -1.9901,-0.52423 -4.0039,-0.96907 -5.9626,-1.55406 -1.99747,-0.32417 -4.1014,1.31174 -4.03333,3.39012 -0.50057,2.72299 3.03881,3.92357 4.99487,2.53065 1.8475,-0.85654 3.87094,-1.07368 5.88049,-0.91601 3.52049,-0.0539 7.12251,0.42491 10.54473,-0.648 3.19865,-0.84477 6.34343,-1.86341 9.47531,-2.92309 1.32109,-0.55292 2.74582,-0.42651 4.05052,0.1082 1.62172,0.62343 3.44961,1.02164 5.10139,0.26057 2.51149,-0.58181 5.50313,-0.36026 7.36662,-2.48025 1.3999,-1.43447 2.17535,-3.8811 0.89615,-5.63449 -1.8696,-1.1733 -3.85592,-3.14344 -6.25757,-2.43545 l -0.22401,0.0813 c 0,0 0,4e-5 0,4e-5 z"
       id="path4705"
       inkscape:connector-curvature="0" />
    <path
       style="fill:#ababab;fill-rule:evenodd;stroke:#000000;stroke-width:1px;stroke-linecap:butt;stroke-linejoin:miter;stroke-opacity:1;fill-opacity:1"
       d="m 383.6284,735.09032 c 1.44974,1.7767 1.54926,4.17588 1.99378,6.3275 0.51568,5.93669 0.8661,12.21367 -1.6587,17.78089 -1.21536,3.13805 -3.05796,5.98809 -4.36618,9.07747 -0.74445,2.37927 -1.22989,4.96376 -2.92352,6.89216 -0.43822,1.73123 2.19519,0.17995 2.97351,-0.11133 3.22041,-1.42444 6.31284,-4.48242 6.0091,-8.26158 -0.1962,-2.12502 0.11666,-4.25144 0.90205,-6.23263 0.70381,-1.93134 1.22734,-3.94283 1.25438,-6.00535 0.41274,-2.28044 1.12629,-4.54733 0.90682,-6.89149 -0.0722,-2.5526 -1.55527,-4.77665 -1.91982,-7.27731 -0.41163,-1.60628 -1.16434,-3.22073 -2.53224,-4.22755 -0.28251,-0.3076 -0.52463,-0.66486 -0.63918,-1.07078 z"
       id="path4741"
       inkscape:connector-curvature="0" />
    <path
       style="fill:#ababab;fill-rule:evenodd;stroke:#000000;stroke-width:1px;stroke-linecap:butt;stroke-linejoin:miter;stroke-opacity:1;fill-opacity:1"
       d="m 344.18668,784.69844 c 0.007,4.08805 -0.0103,8.1761 0,12.26415 1.95542,1.60595 0.99334,4.72919 3.00017,6.35983 1.69344,1.96726 2.21516,4.54136 2.65588,7.01755 0.35219,2.2297 -0.0192,4.48 -0.36449,6.67518 0.82791,1.98347 2.88446,-0.27648 2.56873,-1.71136 0.51878,-2.88363 0.71116,-5.80708 1.42863,-8.65442 0.48399,-2.34754 0.0115,-4.7471 0.11013,-7.1218 -0.23539,-1.72636 0.59159,-3.68633 -0.51107,-5.17957 -1.35991,-1.82717 -2.71979,-3.69546 -3.2886,-5.93984 -1.48734,-4.95422 -0.6396,-10.17662 -0.91941,-15.25593 0.0146,-1.70929 0.30924,-3.45596 -0.127,-5.13577 -2.39115,0.60105 -1.78765,3.59342 -2.6555,5.35152 -0.67037,2.40048 -2.73073,3.94668 -3.89901,6.05443 -1.50802,2.05329 1.24217,2.80962 1.7444,4.39419 -0.73103,1.735 -3.17186,-2.65563 -3.62684,-0.003 0.31107,1.84601 2.67338,0.72706 3.88398,0.88517 z"
       id="path4762"
       inkscape:connector-curvature="0" />
    <path
       style="fill:#ababab;fill-opacity:1;fill-rule:evenodd;stroke:#000000;stroke-width:2;stroke-linecap:round;stroke-linejoin:miter;stroke-miterlimit:4;stroke-dasharray:none;stroke-dashoffset:0;stroke-opacity:1"
       d="m 380.21064,130.43677 c -18.27521,9.01573 -14.53313,27.24721 -14.03468,44.7935 4.38624,35.99075 8.41318,72.13047 9.32479,108.5029 1.55652,20.23217 4.33733,47.20833 -24.17551,39.63785 -24.53674,-0.23684 -51.07189,4.92369 -66.86851,25.66341 20.65536,-19.45368 -16.91431,17.83523 -12.12109,14.16406 -12.51881,15.97139 22.16561,-22.05229 -0.11321,1.80784 -7.93828,6.01881 -20.01563,27.94245 -1.89325,10.3502 7.41504,-5.96875 16.26573,-25.01627 3.00479,-7.35057 -13.47456,15.36919 32.4472,-35.96143 4.6169,-7.10044 -4.35213,4.05668 15.09824,-16.78973 7.87695,-8.39648 5.92788,-6.89374 13.24291,-14.1041 7.09571,-7.19727 -12.38803,13.23593 23.2893,-13.15426 34.14648,-6.0664 14.56027,-3.65378 -9.51581,16.14994 -2.39735,27.97762 1.29923,22.88274 -16.24274,65.59585 -23.1074,67.28315 12.72047,-13.06626 -2.60139,2.86861 -7.0993,7.37827 -10.85224,11.99248 -28.07617,36.49655 -6.58898,13.28698 -7.20887,5.18985 -27.00892,31.43306 -12.90463,17.57788 11.7259,-17.69601 7.08649,-4.66023 0,0 14.43702,-14.87855 5.30012,-5.0319 6.33534,-6.28333 7.35849,-8.16179 36.28538,-46.34566 12.8717,-20.10339 21.38014,-19.19217 44.13182,-46.80571 42.973,-81.11434 -1.70306,-22.96437 6.22048,-30.01222 27.37075,-29.79777 22.79749,-26.54634 5.66995,36.85178 9.21875,55.89258 -0.9962,29.01214 1.3805,57.7676 1.34375,86.77344 -6.46691,4.19429 -18.5732,33.18932 -7.37639,19.34627 -5.78507,5.47848 -16.88524,18.44932 -6.50643,5.351 -26.51451,22.26121 -63.49006,12.95813 -94.15292,25.16917 -13.24549,-6.19503 -39.53789,24.55735 -31.22012,21.31715 28.65243,-11.38818 60.25343,-15.85454 90.95778,-18.67197 18.19148,-2.0429 41.18875,-32.02645 46.97681,-32.61936 -4.29441,30.30594 -10.0404,60.30032 -13.36037,90.7718 5.43513,31.38805 -29.86985,44.10762 -54.07619,53.24225 -10.99219,-7.21199 -40.10555,13.85463 -29.91299,16.79899 30.55296,2.13994 51.236,-22.08844 77.01173,-32.24205 7.91374,3.72868 -3.1902,44.03977 0.31348,62.2594 1.50954,18.88967 -19.6178,28.28685 -34.66025,35.3711 -10.45918,7.98876 -21.12271,24.38212 0.81445,10.64844 -3.77989,11.07675 -8.61926,46.17918 -3.62229,44.18101 19.76382,-9.37557 10.33406,-33.37026 16.18832,-50.3707 5.82561,-7.62506 28.93137,-40.26913 19.2367,-10.61109 -4.58087,31.15488 -11.17483,61.89028 -22.49343,91.40789 -6.56426,18.73891 -26.35075,64.60368 -24.24485,66.34015 -1.77362,1.29859 -22.76074,25.19604 -5.02148,3.85938 -20.41556,18.36153 -50.98991,20.76563 -76.14192,19.86585 -21.81948,15.96033 1.51614,16.96618 18.58918,14.18883 26.40166,-3.12158 49.76984,-16.7747 66.43927,-37.58441 -7.83135,8.0884 -20.16172,20.71034 -4.61362,5.02296 23.49251,-25.79526 29.45857,-61.97706 42.46657,-93.46409 11.13858,-19.74385 12.11307,-63.41612 20.39692,-70.20684 19.61982,17.7941 20.75395,50.88391 51.72297,56.04684 16.82333,-12.65495 9.96687,-17.53095 -7.99575,-24.48669 -13.50877,-11.70646 -22.49443,-54.23118 -40.43278,-47.44884 -9.89259,9.11494 2.02539,-29.39675 -2.216,-37.47267 -11.55113,-36.83169 32.61695,-24.95279 44.41213,-3.92034 10.06093,16.72616 31.76293,27.04293 36.99217,6.30315 -24.33185,-19.34543 -44.1359,-46.14428 -78.73633,-42.47461 0.6874,-24.30695 4.28363,-48.40765 7.5873,-72.49206 4.02354,-34.01022 13.06106,-67.6113 11.1002,-102.22474 3.74356,-28.94045 7.78632,27.16587 9.28906,38.32422 10.77666,29.05624 34.7251,50.45033 55.47756,72.50155 8.36862,6.44154 26.11421,-16.92258 5.944,-20.61832 -22.06456,-25.26851 -53.85398,-51.62156 -49.3532,-88.88128 3.53644,-28.43926 -33.11783,-42.25539 -22.70508,-72.00586 -6.82969,-43.49204 36.64541,-8.3412 50.59766,6.62305 16.84503,5.40381 36.73719,2.10266 44.47825,-15.1156 -12.08463,5.60879 -47.12608,1.20299 -57.42942,-20.99377 -11.93641,-9.53835 -32.73745,-7.61199 -36.48047,-0.98243 2.30374,-12.23949 -7.84789,-56.93432 13.00018,-29.53907 21.42657,10.52463 46.84489,9.03291 70.10529,7.75782 11.02708,-1.89378 28.6993,-26.63851 5.13672,-13.96094 -24.42855,-1.33625 -55.98287,4.28585 -72.67188,-18.06641 -21.42082,-25.11782 -17.10854,-50.92775 -19.93462,-85.29733 -4.82608,-26.0059 -6.51268,-52.22113 -4.75092,-78.62649 z M 278.63837,469.10865 c -1.24531,-0.42958 -9.37088,11.3202 0,0 z m -2.04883,-2.22852 c 1.84555,-2.48307 -9.3044,10.16397 0,0 z m -2.9082,3.00977 c -1.52557,1.42322 -0.34333,0.50839 0,0 z m -0.70117,0.7246 c -1.32772,1.31984 -4.08373,4.2843 0,0 z m -0.1543,0.15429 c 4.13788,-4.57983 -8.04778,8.15716 0,0 z m 1.14844,-1.26756 c 0.70715,-0.63244 6.77789,-7.07419 0,0 z m 2.89844,-3.00196 c 6.70943,-6.34306 6.06077,-7.30297 0,0 z m 5.2207,-5.39062 c -0.27252,0.35856 7.73961,-7.93802 0,0 z m 0.0781,-0.0547 c -5.32783,5.48309 -7.2839,7.58234 0,0 z m 6.58399,-111.28125 c 1.79633,-2.72217 -7.15248,7.83065 0,0 z m -2.63477,2.57812 c -6.17067,6.16762 -7.46351,7.82669 0,0 z m -0.22265,0.11915 c 4.99873,-4.60199 -1.37323,0.7837 0,0 z m -0.0606,0.0332 c -0.12638,0.0712 -0.29015,0.35046 0,0 z m -0.15625,0.1582 c -7.19992,7.24734 -7.77915,8.18852 0,0 z m 1.65039,-1.68555 c 2.58463,0.93728 2.14027,-5.84491 0,0 z m 1.77148,-1.8457 c 8.24542,-5.43434 -0.27265,-2.88355 0,0 z m 0.002,0.0332 c -1.88124,3.22557 12.36665,-13.86248 0,0 z m -3.97656,3.73829 c -1.08273,0.64936 -2.60098,3.09906 0,0 z m -7.40235,3.98046 c 22.94835,-23.79158 -19.2444,15.6006 0,0 z m 3.27539,-3.52343 c -2.62817,3.20658 13.81439,-14.84386 0,0 z m 4.22266,-4.39453 c 6.20708,-6.19744 11.39631,-12.03737 0,0 z m 2.42578,-2.44727 c -13.6187,14.04562 1.18167,-0.8226 0,0 z m -6.96289,7.29297 c -0.0582,0.004 -0.49898,0.57925 0,0 z m -0.1875,0.19141 c 2.30552,-2.73456 -5.19964,5.48959 0,0 z m 108.62891,-49.01563 c 3.9069,1.13097 -2.92076,5.17877 0,0 z m -13.67579,15.66211 c -4.26928,8.45196 -7.69671,9.9948 0,0 z m -3.99023,6.18945 c -2.05077,2.11928 -1.76592,1.93653 0,0 z m 0.084,-0.0273 c 0.007,0.0125 0.0229,-0.0348 0,0 z m -33.70507,390.95312 -2.59571,2.66602 0.004,-0.01 2.5918,-2.65625 z m -0.72657,0.69336 -1.84179,1.88672 0.002,-0.008 1.83984,-1.87891 z m -15.6582,11.82813 c -0.10213,0.57326 -1.5077,1.14958 0,0 z"
       id="path4174"
       inkscape:connector-curvature="0" />
    <path
       style="fill:#ffffff;fill-opacity:1;fill-rule:evenodd;stroke:#000000;stroke-width:2;stroke-linecap:round;stroke-linejoin:miter;stroke-miterlimit:4;stroke-dasharray:none;stroke-dashoffset:0;stroke-opacity:1"
       id="path4212"
       sodipodi:type="arc"
       sodipodi:cx="277.56238"
       sodipodi:cy="454.5824"
       sodipodi:rx="30.018684"
       sodipodi:ry="32.019928"
       sodipodi:start="0.091009496"
       sodipodi:end="0.083407016"
       sodipodi:open="true"
       d="m 307.45683,457.49249 a 30.018684,32.019928 0 0 1 -32.56584,28.98279 30.018684,32.019928 0 0 1 -27.23322,-34.68175 30.018684,32.019928 0 0 1 32.46233,-29.11462 30.018684,32.019928 0 0 1 27.35661,34.57108" />
    <path
       style="fill:#ffffff;fill-opacity:1;fill-rule:evenodd;stroke:#000000;stroke-width:2;stroke-linecap:round;stroke-linejoin:miter;stroke-miterlimit:4;stroke-dasharray:none;stroke-dashoffset:0;stroke-opacity:1"
       id="path4160"
       sodipodi:type="arc"
       sodipodi:cx="303.57855"
       sodipodi:cy="405.21838"
       sodipodi:rx="41.359077"
       sodipodi:ry="53.36655"
       sodipodi:start="0.091009496"
       sodipodi:end="0.083407016"
       sodipodi:open="true"
       d="m 344.76646,410.06854 a 41.359077,53.36655 0 0 1 -44.86849,48.30466 41.359077,53.36655 0 0 1 -37.52132,-57.80292 41.359077,53.36655 0 0 1 44.72587,-48.52438 41.359077,53.36655 0 0 1 37.69133,57.61847" />
    <path
       style="fill:#ffffff;fill-opacity:1;fill-rule:evenodd;stroke:#000000;stroke-width:2;stroke-linecap:round;stroke-linejoin:miter;stroke-miterlimit:4;stroke-dasharray:none;stroke-dashoffset:0;stroke-opacity:1"
       id="path4162"
       sodipodi:type="arc"
       sodipodi:cx="300.91028"
       sodipodi:cy="354.52011"
       sodipodi:rx="36.022423"
       sodipodi:ry="38.69075"
       sodipodi:start="0.091009496"
       sodipodi:end="0.083407016"
       sodipodi:open="true"
       d="m 336.78362,358.03648 a 36.022423,38.69075 0 0 1 -39.07901,35.02087 36.022423,38.69075 0 0 1 -32.67986,-41.90712 36.022423,38.69075 0 0 1 38.95479,-35.18017 36.022423,38.69075 0 0 1 32.82793,41.77339" />
    <path
       style="fill:#ffffff;fill-opacity:1;fill-rule:evenodd;stroke:#000000;stroke-width:2;stroke-linecap:round;stroke-linejoin:miter;stroke-miterlimit:4;stroke-dasharray:none;stroke-dashoffset:0;stroke-opacity:1"
       id="path4164"
       sodipodi:type="arc"
       sodipodi:cx="478.35403"
       sodipodi:cy="342.51263"
       sodipodi:rx="26.683275"
       sodipodi:ry="28.017439"
       sodipodi:start="0.091009496"
       sodipodi:end="0.083407016"
       sodipodi:open="true"
       d="m 504.92688,345.05897 a 26.683275,28.017439 0 0 1 -28.94742,25.35994 26.683275,28.017439 0 0 1 -24.2073,-30.34653 26.683275,28.017439 0 0 1 28.8554,-25.4753 26.683275,28.017439 0 0 1 24.31699,30.2497" />
    <path
       style="fill:#ffffff;fill-opacity:1;fill-rule:evenodd;stroke:#000000;stroke-width:2;stroke-linecap:round;stroke-linejoin:miter;stroke-miterlimit:4;stroke-dasharray:none;stroke-dashoffset:0;stroke-opacity:1"
       id="path4170"
       sodipodi:type="arc"
       sodipodi:cx="122.59138"
       sodipodi:cy="555.01794"
       sodipodi:rx="30.685766"
       sodipodi:ry="44.694485"
       sodipodi:start="0.091009496"
       sodipodi:end="0.083407016"
       sodipodi:open="true"
       d="m 153.15015,559.07995 a 30.685766,44.694485 0 0 1 -33.28953,40.45515 30.685766,44.694485 0 0 1 -27.838396,-48.40995 30.685766,44.694485 0 0 1 33.183706,-40.63916 30.685766,44.694485 0 0 1 27.96454,48.25547"
       transform="rotate(-38.003574)" />
    <path
       style="fill:#ffffff;fill-opacity:1;fill-rule:evenodd;stroke:#000000;stroke-width:2;stroke-linecap:round;stroke-linejoin:miter;stroke-miterlimit:4;stroke-dasharray:none;stroke-dashoffset:0;stroke-opacity:1"
       id="path4232"
       sodipodi:type="arc"
       sodipodi:cx="120.38258"
       sodipodi:cy="534.03033"
       sodipodi:rx="27.350357"
       sodipodi:ry="37.356586"
       sodipodi:start="0.091009496"
       sodipodi:end="0.083407016"
       sodipodi:open="true"
       d="m 147.61975,537.42545 a 27.350357,37.356586 0 0 1 -29.6711,33.81326 27.350357,37.356586 0 0 1 -24.812486,-40.46205 27.350357,37.356586 0 0 1 29.576786,-33.96707 27.350357,37.356586 0 0 1 24.92491,40.33293"
       transform="rotate(-34.698362)" />
    <path
       style="fill:#ffffff;fill-opacity:1;fill-rule:evenodd;stroke:#000000;stroke-width:2;stroke-linecap:round;stroke-linejoin:miter;stroke-miterlimit:4;stroke-dasharray:none;stroke-dashoffset:0;stroke-opacity:1"
       id="path4224"
       sodipodi:type="arc"
       sodipodi:cx="342.94754"
       sodipodi:cy="531.58929"
       sodipodi:rx="36.689503"
       sodipodi:ry="46.028648"
       sodipodi:start="0.091009496"
       sodipodi:end="0.083407016"
       sodipodi:open="true"
       d="m 379.4852,535.77256 a 36.689503,46.028648 0 0 1 -39.8027,41.66276 36.689503,46.028648 0 0 1 -33.28503,-49.85502 36.689503,46.028648 0 0 1 39.67617,-41.85227 36.689503,46.028648 0 0 1 33.43586,49.69593"
       transform="rotate(-10.44776)" />
    <path
       style="fill:#ffffff;fill-opacity:1;fill-rule:evenodd;stroke:#000000;stroke-width:2;stroke-linecap:round;stroke-linejoin:miter;stroke-miterlimit:4;stroke-dasharray:none;stroke-dashoffset:0;stroke-opacity:1"
       id="path4166"
       sodipodi:type="arc"
       sodipodi:cx="459.67572"
       sodipodi:cy="413.89041"
       sodipodi:rx="38.69075"
       sodipodi:ry="42.026157"
       sodipodi:start="0.091009496"
       sodipodi:end="0.083407016"
       sodipodi:open="true"
       d="m 498.20635,417.70991 a 38.69075,42.026157 0 0 1 -41.97376,38.03992 38.69075,42.026157 0 0 1 -35.10059,-45.5198 38.69075,42.026157 0 0 1 41.84033,-38.21295 38.69075,42.026157 0 0 1 35.25964,45.37454" />
    <path
       style="fill:#ffffff;fill-opacity:1;fill-rule:evenodd;stroke:#000000;stroke-width:2;stroke-linecap:round;stroke-linejoin:miter;stroke-miterlimit:4;stroke-dasharray:none;stroke-dashoffset:0;stroke-opacity:1"
       id="path4220"
       sodipodi:type="arc"
       sodipodi:cx="301.57733"
       sodipodi:cy="482.59985"
       sodipodi:rx="31.352848"
       sodipodi:ry="40.024914"
       sodipodi:start="0.091009496"
       sodipodi:end="0.083407016"
       sodipodi:open="true"
       d="m 332.80043,486.23747 a 31.352848,40.024914 0 0 1 -34.01322,36.2285 31.352848,40.024914 0 0 1 -28.44358,-43.3522 31.352848,40.024914 0 0 1 33.9051,-36.39328 31.352848,40.024914 0 0 1 28.57246,43.21385" />
    <path
       style="fill:#ffffff;fill-opacity:1;fill-rule:evenodd;stroke:#000000;stroke-width:2;stroke-linecap:round;stroke-linejoin:miter;stroke-miterlimit:4;stroke-dasharray:none;stroke-dashoffset:0;stroke-opacity:1"
       id="path4214"
       sodipodi:type="arc"
       sodipodi:cx="488.91092"
       sodipodi:cy="379.34717"
       sodipodi:rx="31.352848"
       sodipodi:ry="47.362812"
       sodipodi:start="0.091009496"
       sodipodi:end="0.083407016"
       sodipodi:open="true"
       d="m 520.13401,383.65169 a 31.352848,47.362812 0 0 1 -34.01321,42.87037 31.352848,47.362812 0 0 1 -28.44358,-51.30009 31.352848,47.362812 0 0 1 33.90509,-43.06538 31.352848,47.362812 0 0 1 28.57246,51.13639"
       transform="rotate(23.590272)" />
    <path
       style="fill:#ffffff;fill-opacity:1;fill-rule:evenodd;stroke:#333333;stroke-width:2.12315512;stroke-linecap:round;stroke-linejoin:miter;stroke-miterlimit:4;stroke-dasharray:none;stroke-dashoffset:0;stroke-opacity:1"
       id="path4403"
       sodipodi:type="arc"
       sodipodi:cx="447.9082"
       sodipodi:cy="418.72003"
       sodipodi:rx="18.884501"
       sodipodi:ry="23.302542"
       sodipodi:start="0.091009496"
       sodipodi:end="0.083407016"
       sodipodi:open="true"
       d="m 466.71455,420.83786 a 18.884501,23.302542 0 0 1 -20.4869,21.09226 18.884501,23.302542 0 0 1 -17.13218,-25.23969 18.884501,23.302542 0 0 1 20.42177,-21.1882 18.884501,23.302542 0 0 1 17.20981,25.15914"
       transform="matrix(0.97168221,0.23629152,0,1,0,0)" />
    <path
       style="fill:#ffffff;fill-opacity:1;fill-rule:evenodd;stroke:#000000;stroke-width:2;stroke-linecap:round;stroke-linejoin:miter;stroke-miterlimit:4;stroke-dasharray:none;stroke-dashoffset:0;stroke-opacity:1"
       id="path4218"
       sodipodi:type="arc"
       sodipodi:cx="607.54651"
       sodipodi:cy="-198.38885"
       sodipodi:rx="42.762085"
       sodipodi:ry="27.419203"
       sodipodi:start="0.091009496"
       sodipodi:end="0.083407016"
       sodipodi:open="true"
       d="m 650.13162,-195.89689 a 42.762085,27.419203 0 0 1 -46.39055,24.81845 42.762085,27.419203 0 0 1 -38.79414,-29.69857 42.762085,27.419203 0 0 1 46.24309,-24.93134 42.762085,27.419203 0 0 1 38.96992,29.6038"
       transform="rotate(69.072759)" />
    <path
       style="fill:#ffffff;fill-opacity:1;fill-rule:evenodd;stroke:#000000;stroke-width:2;stroke-linecap:round;stroke-linejoin:miter;stroke-miterlimit:4;stroke-dasharray:none;stroke-dashoffset:0;stroke-opacity:1"
       id="path4208"
       sodipodi:type="arc"
       sodipodi:cx="340.26807"
       sodipodi:cy="519.95642"
       sodipodi:rx="39.35783"
       sodipodi:ry="40.024914"
       sodipodi:start="0.091009496"
       sodipodi:end="0.083407016"
       sodipodi:open="true"
       d="m 379.46301,523.59404 a 39.35783,40.024914 0 0 1 -42.69744,36.22849 39.35783,40.024914 0 0 1 -35.70576,-43.35219 39.35783,40.024914 0 0 1 42.56171,-36.39328 39.35783,40.024914 0 0 1 35.86755,43.21385" />
    <path
       style="fill:#ffffff;fill-opacity:1;fill-rule:evenodd;stroke:#000000;stroke-width:2;stroke-linecap:round;stroke-linejoin:miter;stroke-miterlimit:4;stroke-dasharray:none;stroke-dashoffset:0;stroke-opacity:1"
       id="path4228"
       sodipodi:type="arc"
       sodipodi:cx="-489.4751"
       sodipodi:cy="304.03271"
       sodipodi:rx="42.693241"
       sodipodi:ry="30.685766"
       sodipodi:start="0.091009496"
       sodipodi:end="0.083407016"
       sodipodi:open="true"
       d="m -446.95854,306.82156 a 42.693241,30.685766 0 0 1 -46.31587,27.77517 42.693241,30.685766 0 0 1 -38.73168,-33.23668 42.693241,30.685766 0 0 1 46.16864,-27.90151 42.693241,30.685766 0 0 1 38.90718,33.13062"
       transform="rotate(-100.79096)"
       inkscape:transform-center-x="194.78782"
       inkscape:transform-center-y="117.40635" />
    <path
       style="fill:#ffffff;fill-opacity:1;fill-rule:evenodd;stroke:#000000;stroke-width:2;stroke-linecap:round;stroke-linejoin:miter;stroke-miterlimit:4;stroke-dasharray:none;stroke-dashoffset:0;stroke-opacity:1"
       id="path4222"
       sodipodi:type="arc"
       sodipodi:cx="350.94141"
       sodipodi:cy="457.25073"
       sodipodi:rx="34.021175"
       sodipodi:ry="40.024914"
       sodipodi:start="0.091009496"
       sodipodi:end="0.083407016"
       sodipodi:open="true"
       d="m 384.82178,460.88835 a 34.021175,40.024914 0 0 1 -36.90795,36.22849 34.021175,40.024914 0 0 1 -30.86431,-43.35219 34.021175,40.024914 0 0 1 36.79063,-36.39328 34.021175,40.024914 0 0 1 31.00416,43.21385" />
    <path
       style="fill:#ffffff;fill-opacity:1;fill-rule:evenodd;stroke:#000000;stroke-width:2;stroke-linecap:round;stroke-linejoin:miter;stroke-miterlimit:4;stroke-dasharray:none;stroke-dashoffset:0;stroke-opacity:1"
       id="path4226"
       sodipodi:type="arc"
       sodipodi:cx="400.30542"
       sodipodi:cy="333.17349"
       sodipodi:rx="32.687012"
       sodipodi:ry="36.022423"
       sodipodi:start="0.091009496"
       sodipodi:end="0.083407016"
       sodipodi:open="true"
       d="m 432.85716,336.44735 a 32.687012,36.022423 0 0 1 -35.46059,32.60564 32.687012,36.022423 0 0 1 -29.65394,-39.01697 32.687012,36.022423 0 0 1 35.34786,-32.75396 32.687012,36.022423 0 0 1 29.78831,38.89247" />
    <path
       style="fill:#ffffff;fill-opacity:1;fill-rule:evenodd;stroke:#000000;stroke-width:2;stroke-linecap:round;stroke-linejoin:miter;stroke-miterlimit:4;stroke-dasharray:none;stroke-dashoffset:0;stroke-opacity:1"
       id="path4168"
       sodipodi:type="arc"
       sodipodi:cx="454.61081"
       sodipodi:cy="227.91823"
       sodipodi:rx="40.024914"
       sodipodi:ry="52.032387"
       sodipodi:start="0.091009496"
       sodipodi:end="0.083407016"
       sodipodi:open="true"
       d="m 494.47008,232.64714 a 40.024914,52.032387 0 0 1 -43.42113,47.09703 40.024914,52.032387 0 0 1 -36.31095,-56.35785 40.024914,52.032387 0 0 1 43.2831,-47.31126 40.024914,52.032387 0 0 1 36.47548,56.178"
       transform="rotate(21.476473)" />
    <path
       style="fill:#ababab;fill-rule:evenodd;stroke:#000000;stroke-width:1px;stroke-linecap:butt;stroke-linejoin:miter;stroke-opacity:1;fill-opacity:1"
       d="m 386.63027,624.35473 c 6.20133,-1.50804 10.73668,-10.14981 9.63477,-16.48135 -1.18312,-4.50387 -4.31536,-6.08708 -6.61692,-10.03241 -1.043,-1.32638 -2.31192,-2.75338 -2.25389,-4.55222 0.48118,-1.82118 3.73183,-1.48954 3.74554,0.42972 -0.0175,1.40695 -0.89141,3.30888 0.56497,4.2961 1.29514,0.8961 2.83512,1.78196 3.26596,3.41514 1.47858,2.713 3.55821,6.45785 3.23259,9.58805 0.10625,3.23764 -1.7467,5.83958 -3.50738,8.56575 -1.22614,2.40508 -3.2776,4.92749 -6.20493,5.00569 -0.62739,0.0284 -1.26103,-0.0456 -1.86071,-0.23447 z"
       id="path4344"
       inkscape:connector-curvature="0"
       sodipodi:nodetypes="ccccccccccc" />
    <path
       style="fill:#ababab;fill-rule:evenodd;stroke:#000000;stroke-width:1px;stroke-linecap:butt;stroke-linejoin:miter;stroke-opacity:1;fill-opacity:1"
       d="m 377.29113,630.02493 c 1.47222,-0.10888 3.06346,0.30255 4.14407,1.33515 0.74767,1.05186 0.91796,2.37859 0.88559,3.63471 0.14213,1.06031 -0.36429,2.02247 -0.78523,2.9508 -0.38597,1.09545 -0.94792,2.11226 -1.57597,3.08345 -0.57758,1.05186 -0.7739,2.25232 -0.85873,3.43268 -0.304,1.56601 -0.54629,3.26995 0.17902,4.76028 0.57168,0.86139 1.38242,1.65793 2.35826,2.03083 1.22051,0.34709 1.60897,-1.5507 0.46345,-1.93344 -1.15894,-0.73977 -2.13036,-2.10947 -1.82248,-3.54242 -0.0203,-1.07419 0.0784,-2.19825 0.81016,-3.05084 0.99311,-1.41657 2.36732,-2.7209 2.54922,-4.53752 0.21451,-1.32918 0.23325,-2.70034 0.0739,-4.03218 -0.53745,-1.44137 -1.09532,-2.89384 -1.89228,-4.21426 -0.4334,-0.72613 -1.2023,-1.21266 -2.05249,-1.25051 -0.94422,-0.2147 -2.34098,0.009 -2.50865,1.15517 -0.10575,0.40893 -0.19289,0.84352 -0.46816,1.17873"
       id="path4371"
       inkscape:connector-curvature="0" />
    <path
       style="fill:#ababab;fill-rule:evenodd;stroke:#000000;stroke-width:1px;stroke-linecap:butt;stroke-linejoin:miter;stroke-opacity:1;fill-opacity:1"
       d="m 401.97316,632.52648 c 3.76318,-1.67352 7.11003,-4.28746 9.6834,-7.49596 1.59502,-2.42018 1.89296,-5.43274 1.67579,-8.2563 0.0525,-1.50332 -0.41053,-3.23692 0.67911,-4.49512 1.11009,-1.53519 3.22933,-2.66402 5.09681,-1.85774 1.24699,0.72925 0.16343,3.18647 -1.19684,2.21761 -1.04109,-0.43001 -1.89349,-0.26284 -2.48352,0.8701 -1.20387,1.81717 -0.027,4.40828 -0.25827,6.45769 -0.22087,1.27924 -1.07374,3.0719 -1.07216,4.36876 -0.44358,2.30543 -2.81753,3.21555 -4.40115,4.86652 -2.13907,1.88989 -4.84834,2.94595 -7.52867,3.81367 -0.14534,0.0841 -0.27432,0.20033 -0.3617,0.34473"
       id="path4382"
       inkscape:connector-curvature="0"
       sodipodi:nodetypes="cccccccccccc" />
    <path
       style="fill:#ababab;fill-rule:evenodd;stroke:#000000;stroke-width:1px;stroke-linecap:butt;stroke-linejoin:miter;stroke-opacity:1;fill-opacity:1"
       d="m 402.47347,644.20042 c -0.32799,3.20916 -1.0114,7.28417 -1.61568,10.46207 -0.33067,2.14972 -1.06755,3.97487 -1.08995,6.15009 -0.18382,1.8855 0.27748,3.18469 0.24815,5.0961 -0.13962,1.64012 0.0206,3.28877 0.15353,4.91683 -0.25974,1.88147 -2.29623,2.82041 -2.71654,4.63444 -0.59157,1.60699 -2.45995,2.77428 -2.11372,4.66859 0.5657,1.8489 2.70009,2.45997 4.42806,2.5513 2.04751,-0.28057 0.61639,-2.60757 0.17985,-3.7228 -0.7524,-1.44648 -0.10617,-2.94114 1.07665,-3.86487 0.95872,-1.58281 0.48416,-3.52099 0.85751,-5.25373 0.15937,-2.35126 -0.38803,-4.67897 -0.26061,-7.03401 0.0659,-1.90372 -0.12212,-3.83766 0.3645,-5.69659 0.39137,-2.634 1.45184,-5.28139 1.32607,-7.95286 0.0874,-1.46955 -0.79616,-2.88948 -0.96252,-4.33023 l 0.0427,-0.31417 0.58211,-2.97849 z"
       id="path4405"
       inkscape:connector-curvature="0"
       sodipodi:nodetypes="cccccccccccccccccc" />
    <path
       style="fill:#ababab;fill-rule:evenodd;stroke:#000000;stroke-width:1px;stroke-linecap:butt;stroke-linejoin:miter;stroke-opacity:1;fill-opacity:1"
       d="m 436.82818,664.54642 c 2.54243,0.11309 4.88413,1.41233 7.44925,1.36076 2.9555,0.21429 6.02267,0.78432 8.42604,2.63732 1.864,1.26006 3.85762,2.57411 6.17846,2.68245 2.57057,0.44654 5.53817,0.79218 7.76279,-0.8841 1.04577,-0.34996 1.3531,-3.3876 2.59794,-2.01576 0.35562,2.15774 0.22107,4.50344 -0.80816,6.46609 -0.72078,1.65794 -2.62774,1.04929 -3.18012,-0.38139 -0.97256,-1.12428 -2.47857,0.27599 -3.68008,-0.45708 -1.40911,-0.48967 -2.76061,-1.29099 -4.3034,-1.2227 -3.91833,-0.26815 -7.23752,-2.60135 -10.75729,-4.09462 -3.27415,-1.2852 -6.26228,-3.28272 -9.67581,-4.20322 -0.6589,-0.14927 -1.33449,-0.23522 -2.01086,-0.22173"
       id="path4413"
       inkscape:connector-curvature="0" />
    <path
       style="fill:#ababab;fill-rule:evenodd;stroke:#000000;stroke-width:1px;stroke-linecap:butt;stroke-linejoin:miter;stroke-opacity:1;fill-opacity:1"
       d="m 352.9131,619.6041 c -1.29387,-1.86407 -3.28567,-3.05667 -4.81179,-4.7033 -1.20432,-1.02318 -2.67813,-2.16412 -2.7492,-3.88563 -0.0379,-1.05634 0.0878,-2.15774 -0.36844,-3.14935 -0.56865,-1.56051 -1.3858,-3.10135 -2.63547,-4.2189 -1.10209,-0.83626 -2.46603,-1.32731 -3.83049,-1.47751 -0.99431,0.13069 -1.16624,1.33667 -1.01028,2.14582 0.0508,0.88498 0.76227,1.60245 1.63643,1.69124 0.83908,0.12235 1.90998,-0.0194 2.32712,0.92639 1.14052,2.3094 1.52221,5.08487 3.43175,6.95611 1.01957,1.03202 2.46114,1.64872 3.16516,2.97861 0.80708,1.2455 1.69146,2.80211 3.32236,2.99414 0.51989,0.0506 1.03852,-0.0787 1.52285,-0.25762 z"
       id="path4441"
       inkscape:connector-curvature="0" />
    <path
       style="fill:#ababab;fill-rule:evenodd;stroke:#000000;stroke-width:1px;stroke-linecap:butt;stroke-linejoin:miter;stroke-opacity:1;fill-opacity:1"
       d="m 369.45292,596.00375 c 1.6853,2.3001 4.03597,4.27511 6.84822,4.96623 1.82456,0.22269 3.85393,-0.38879 5.49388,0.69814 1.69202,1.0697 3.49083,2.38532 4.0752,4.40019 0.26057,1.06206 -0.70145,2.22143 -1.80994,1.93958 -1.19116,-0.0858 -2.47971,-0.68589 -3.61164,-0.0308 -0.99354,0.72244 -2.59156,-0.81291 -1.45583,-1.63594 0.78691,-0.32241 2.41575,-0.81776 1.63872,-1.95277 -0.93107,-0.72687 -1.93017,0.86202 -2.8389,0.15453 -0.74459,-0.63444 -1.04822,-1.87717 -2.20072,-1.93507 -1.08859,-0.0833 -2.17263,-0.21624 -3.26618,-0.16895 -1.35272,-0.0217 -1.83595,-1.7471 -3.17532,-1.83484 -1.34806,-0.42445 -2.81134,-1.46578 -2.81081,-3.0214 -0.0209,-1.12518 1.15662,-2.23926 2.2885,-1.83003 0.4338,0.0838 0.93123,0.18421 1.32514,-0.0826"
       id="path4492"
       inkscape:connector-curvature="0" />
    <path
       style="fill:#ababab;fill-rule:evenodd;stroke:#000000;stroke-width:1px;stroke-linecap:butt;stroke-linejoin:miter;stroke-opacity:1;fill-opacity:1"
       d="m 308.33763,645.5475 c -0.0907,-1.57178 1.33694,-2.63882 1.63835,-4.10321 1.23935,-2.38112 1.72061,-5.05709 2.35424,-7.63848 0.24691,-1.82811 0.65872,-3.6326 0.97278,-5.44508 0.0818,-1.46028 -0.14279,-2.92738 0.0489,-4.3832 -0.75046,-2.69583 -1.39336,-5.45054 -2.54215,-8.01016 -0.31404,-1.13475 -2.31178,-2.72198 -2.79171,-0.883 -0.15267,1.47799 1.08483,2.53827 1.54042,3.84864 0.71328,1.45111 0.96194,3.07007 0.89074,4.67367 0.0784,3.81674 -0.0842,7.63749 0.0334,11.45177 -0.076,1.40752 -0.82557,2.63411 -1.23882,3.95424 -0.59282,1.73764 -1.74521,3.39783 -1.57291,5.30275 0.0691,0.47209 0.29818,0.92371 0.66671,1.23207 z"
       id="path4515"
       inkscape:connector-curvature="0" />
    <path
       style="fill:#ababab;fill-rule:evenodd;stroke:#000000;stroke-width:1px;stroke-linecap:butt;stroke-linejoin:miter;stroke-opacity:1;fill-opacity:1"
       d="m 298.43197,645.07581 c -0.7859,0.87987 -2.03762,0.18205 -3.01084,0.51505 -1.15862,-0.40629 -1.22855,-1.81297 -1.89576,-2.67437 -0.62578,-1.16526 -1.32193,-2.53276 -2.71469,-2.89073 -2.16885,-0.70428 -4.47116,-0.23627 -6.70158,-0.37649 -1.54334,0.049 -2.97408,0.71152 -4.47801,0.99729 -0.88764,0.0529 -1.63673,0.7073 -2.54393,0.57414 -1.34893,-0.33269 -0.40472,-2.0296 0.3082,-2.57942 1.34788,-1.19349 3.12742,-1.73083 4.81696,-2.24616 2.55265,-0.64207 5.35898,-0.33601 7.63343,1.02403 1.17585,0.58619 2.40536,1.10378 3.7087,1.31965 1.29195,0.70185 1.50641,2.30604 2.3562,3.38919 0.59129,1.01917 1.15675,2.16798 2.2638,2.71646 0.0921,0.0697 0.17993,0.14578 0.25752,0.23136 z"
       id="path4549"
       inkscape:connector-curvature="0" />
    <path
       style="fill:#ababab;fill-rule:evenodd;stroke:#000000;stroke-width:1px;stroke-linecap:butt;stroke-linejoin:miter;stroke-opacity:1;fill-opacity:1"
       d="m 319.65838,639.88712 c 1.89908,0.28325 3.35296,2.50139 2.59678,4.32854 -0.76759,1.09372 -2.44832,1.60019 -2.50983,3.12253 -0.12393,2.11894 -0.74289,4.47369 0.45097,6.4072 1.2606,2.18051 3.62951,3.44279 4.87926,5.62015 0.67015,1.54412 0.30371,3.25173 0.27457,4.87152 0.64944,1.70781 2.39507,-0.0482 2.84775,-1.01394 0.8185,-1.07271 0.67406,-2.59008 -0.19613,-3.58168 -0.81345,-1.09085 -1.77926,-2.14255 -2.05595,-3.52033 -1.06576,-2.77698 -3.48831,-5.018 -3.69843,-8.10842 -0.29226,-2.33526 2.72884,-3.67335 3.72899,-5.6572 0.53633,-1.25655 -0.99326,-3.74023 -2.25266,-4.61477 -1.21185,-0.8733 -2.78266,-1.22756 -4.25317,-1.12576 -1.24634,0.2126 -2.62803,2.0739 -1.47093,3.08865 0.56228,0.34016 1.58622,0.27386 1.65977,1.12735"
       id="path4582"
       inkscape:connector-curvature="0"
       sodipodi:nodetypes="ccccccccccccccc" />
    <path
       style="fill:#ababab;fill-rule:evenodd;stroke:#000000;stroke-width:1px;stroke-linecap:butt;stroke-linejoin:miter;stroke-opacity:1;fill-opacity:1"
       d="m 362.28178,672.55139 c 3.55637,0.10156 7.14149,2.30018 8.37005,5.7214 0.47089,2.76114 0.86272,5.72324 2.71046,7.95814 2.1459,3.233 5.56339,5.33156 9.02743,6.91146 -0.14022,0.11241 -1.10509,-1.15147 -1.41188,-1.68774 -0.77621,-1.07191 -1.27114,-2.35488 -1.22012,-3.69167 -0.0373,-1.35824 -0.7067,-2.57061 -1.68612,-3.47552 -1.76533,-1.94539 -3.76784,-3.78421 -4.80975,-6.25075 -1.14604,-1.86907 -1.74687,-5.00005 -3.76531,-5.84294 -1.01906,-0.89031 -3.00002,-0.61358 -4.48862,-0.71537 -1.13615,-0.22669 -2.49072,-1.00924 -3.53026,-0.12346 -0.80537,0.46625 0.18187,2.28032 0.80412,1.19645 z"
       id="path4605"
       inkscape:connector-curvature="0"
       sodipodi:nodetypes="cccccccccccc" />
    <path
       style="fill:#ababab;fill-rule:evenodd;stroke:#000000;stroke-width:1px;stroke-linecap:butt;stroke-linejoin:miter;stroke-opacity:1;fill-opacity:1"
       d="m 332.39423,719.6041 c 0.80875,1.33496 2.6412,2.14865 2.61205,3.9048 0.30086,4.00784 -0.86185,7.94913 -0.71249,11.9542 0.48366,2.81101 3.02448,4.51242 4.40906,6.82678 0.52437,1.73359 -1.00136,3.12632 -1.97395,4.3476 -0.91351,0.94423 -0.43002,3.41542 1.19575,2.5345 2.26488,-1.52444 4.4649,-3.39306 5.5699,-5.96287 0.734,-1.80174 1.05484,-3.83343 0.75655,-5.76533 -0.41244,-2.04175 -2.51416,-2.96799 -4.07051,-4.0318 -1.30661,-0.8907 -3.02421,-2.06103 -2.79995,-3.86945 0.48866,-2.30084 2.23188,-4.06919 3.02565,-6.25801 0.82681,-1.97727 0.71918,-4.5395 -0.76867,-6.1767 -1.08987,-1.13352 -2.70641,-0.48166 -3.95241,-0.0414 -0.97955,0.48487 -2.1581,0.59071 -2.99837,1.30966 -0.31678,0.31259 -0.49374,0.80347 -0.29261,1.22807 z"
       id="path4650"
       inkscape:connector-curvature="0" />
    <path
       style="fill:#ababab;fill-rule:evenodd;stroke:#000000;stroke-width:1px;stroke-linecap:butt;stroke-linejoin:miter;stroke-opacity:1;fill-opacity:1"
       d="m 320.83763,747.90599 c -1.48952,0.2461 -3.02229,0.41865 -4.39681,1.08718 -1.78597,0.61852 -3.59385,1.20131 -5.43011,1.6424 -1.02537,0.14559 -1.97683,0.60604 -2.98844,0.78462 -1.12938,0.0844 -2.25917,0.1732 -3.38499,0.2838 -1.08613,0.0474 -2.1802,-0.0987 -3.261,-10e-4 -0.96346,0.29164 -1.43451,1.84759 -0.46965,2.41757 1.09695,0.25372 2.21385,0.42988 3.32076,0.62162 1.71646,0.0976 3.43477,-0.0886 5.15228,0.004 1.01901,-0.0314 2.06794,0.15937 3.0168,-0.27554 0.96939,-0.20825 2.02688,-0.15747 2.89112,-0.71271 1.10329,-0.41588 2.27678,-0.76467 3.16766,-1.57545 1.04369,-0.66522 2.5158,-0.86101 3.10451,-2.08193 0.45062,-0.72122 0.31597,-2.10417 -0.72213,-2.19437 z"
       id="path4690"
       inkscape:connector-curvature="0" />
    <path
       style="fill:#ababab;fill-rule:evenodd;stroke:#000000;stroke-width:1px;stroke-linecap:butt;stroke-linejoin:miter;stroke-opacity:1;fill-opacity:1"
       d="m 373.62218,719.4139 c -1.50751,1.31771 -0.76839,3.48433 -1.32062,5.17819 -0.21039,3.93467 0.6171,8.09415 -1.11249,11.80245 -1.14924,3.5446 -3.33365,6.62474 -4.76365,10.04183 -0.87934,2.8624 -0.92432,5.92217 -1.94081,8.74633 -0.57371,1.64544 1.34145,3.26749 2.38408,1.45739 1.92236,-1.69113 4.32217,-3.32867 4.7816,-6.04272 0.16624,-2.0315 -2.35039,-3.03257 -2.18401,-5.08532 -0.0439,-1.24961 1.12028,-2.59434 2.53133,-5.61598 0.91702,-2.58147 2.42972,-3.34392 3.81832,-5.67979 0.80152,-1.74695 -0.80283,-3.19064 -10e-4,-4.94251 0.82704,-2.09941 1.47523,-4.78607 0.0112,-6.75567 -0.77231,-1.00029 -1.90932,-1.80809 -2.20378,-3.1042 z"
       id="path4715"
       inkscape:connector-curvature="0"
       sodipodi:nodetypes="cccccccccccccc" />
    <path
       style="fill:#ababab;fill-rule:evenodd;stroke:#000000;stroke-width:1px;stroke-linecap:butt;stroke-linejoin:miter;stroke-opacity:1;fill-opacity:1"
       d="m 384.62903,714.07725 c 0.19329,-1.08044 1.25942,-1.66039 2.13471,-2.14285 0.96591,-0.30532 1.97832,-0.45616 2.89086,-0.91447 0.9743,-0.34678 2.01752,-0.2993 3.02963,-0.25594 0.97746,-0.23626 1.92617,0.005 2.632,0.70444 1.09455,0.54872 2.33717,0.1336 3.4941,0.31425 0.83035,0.0572 1.68777,-0.22451 2.22456,-0.87834 0.89076,-0.61182 1.45863,-1.5224 2.06351,-2.37072 0.35418,-0.61523 0.67006,-1.33703 0.58712,-2.05765 -0.10168,0.74194 -0.0202,1.99964 -0.0443,2.93904 -0.14172,0.94104 0.36028,2.10753 -0.39561,2.8396 -0.85411,1.00346 -1.85013,1.99706 -3.11901,2.43579 -1.10211,0.28426 -2.22964,-0.14157 -3.34003,0.0892 -1.16722,0.13903 -2.30084,0.4978 -3.31478,1.0952 -0.94684,0.42976 -1.92712,1.0358 -3.00433,0.9389 -0.9882,-0.1332 -1.79692,-0.88721 -2.80144,-0.92141 -0.85606,0.30079 -1.72666,0.97193 -2.6602,0.42097 -0.69917,-0.23963 -1.54212,-1.04778 -0.88337,-1.76788 0.13683,-0.18655 0.31149,-0.3459 0.50657,-0.46812 z"
       id="path4729"
       inkscape:connector-curvature="0" />
    <path
       style="fill:#ababab;fill-rule:evenodd;stroke:#000000;stroke-width:1px;stroke-linecap:butt;stroke-linejoin:miter;stroke-opacity:1;fill-opacity:1"
       d="m 391.63339,737.75864 c 2.4646,0.55563 3.78249,2.93425 5.449,4.59438 1.81966,2.65819 3.1792,5.79548 2.94349,9.08098 7.9e-4,2.02604 -0.51346,4.0018 -1.15768,5.90228 -0.33545,1.94593 -0.17542,4.02381 -1.12824,5.81958 -0.86463,2.45648 -2.39642,4.59883 -3.96643,6.64889 -1.13176,0.42674 -1.25814,2.38888 0.29328,1.374 2.77934,-0.50765 5.89828,-1.05846 7.71945,-3.45829 1.21894,-1.4285 2.42524,-3.03368 2.82439,-4.89509 0.29082,-2.44253 -0.0115,-4.93395 -0.94924,-7.21294 -0.82244,-2.34803 -1.25527,-4.84141 -1.0013,-7.32833 0.083,-2.86092 -0.62181,-5.81074 -2.49951,-8.036 -1.73781,-2.31118 -3.82719,-4.46218 -4.75591,-7.26536 -0.86171,-2.05764 -3.73764,-3.2352 -5.56162,-1.69642 -1.53889,1.26382 -2.17353,3.43217 -1.94354,5.36085 0.39963,1.88839 2.34936,2.28452 3.73386,1.11147 z"
       id="path4752"
       inkscape:connector-curvature="0" />
  </g>
</svg>
