<?xml version="1.0" encoding="UTF-8" standalone="no"?>
<!-- Created with Inkscape (http://www.inkscape.org/) -->

<svg
   xmlns:dc="http://purl.org/dc/elements/1.1/"
   xmlns:cc="http://creativecommons.org/ns#"
   xmlns:rdf="http://www.w3.org/1999/02/22-rdf-syntax-ns#"
   xmlns:svg="http://www.w3.org/2000/svg"
   xmlns="http://www.w3.org/2000/svg"
   xmlns:sodipodi="http://sodipodi.sourceforge.net/DTD/sodipodi-0.dtd"
   xmlns:inkscape="http://www.inkscape.org/namespaces/inkscape"
   width="210mm"
   height="297mm"
   viewBox="0 0 210 297"
   version="1.1"
   id="svg8"
   inkscape:version="0.92.4 (5da689c313, 2019-01-14)"
   sodipodi:docname="incense-perfume.svg"
   inkscape:export-filename="C:\Users\Giltwist\Dropbox\Tarot\Majors\incense-perfume.png"
   inkscape:export-xdpi="300"
   inkscape:export-ydpi="300">
  <defs
     id="defs2" />
  <sodipodi:namedview
     id="base"
     pagecolor="#ffffff"
     bordercolor="#666666"
     borderopacity="1.0"
     inkscape:pageopacity="0.0"
     inkscape:pageshadow="2"
     inkscape:zoom="0.98994949"
     inkscape:cx="-10.006253"
     inkscape:cy="401.47067"
     inkscape:document-units="mm"
     inkscape:current-layer="layer1"
     showgrid="false"
     inkscape:window-width="2560"
     inkscape:window-height="1377"
     inkscape:window-x="-8"
     inkscape:window-y="-8"
     inkscape:window-maximized="1" />
  <metadata
     id="metadata5">
    <rdf:RDF>
      <cc:Work
         rdf:about="">
        <dc:format>image/svg+xml</dc:format>
        <dc:type
           rdf:resource="http://purl.org/dc/dcmitype/StillImage" />
        <dc:title></dc:title>
      </cc:Work>
    </rdf:RDF>
  </metadata>
  <g
     inkscape:label="Layer 1"
     inkscape:groupmode="layer"
     id="layer1">
    <rect
       style="opacity:1;fill:#000000;fill-opacity:1;fill-rule:nonzero;stroke:#000000;stroke-width:0.26499999;stroke-linecap:square;stroke-linejoin:miter;stroke-miterlimit:4;stroke-dasharray:none;stroke-dashoffset:0;stroke-opacity:1;paint-order:markers fill stroke"
       id="rect1153"
       width="241.61165"
       height="319.11981"
       x="-31.49444"
       y="-11.588927" />
    <path
       style="fill:#545454;fill-opacity:1;stroke:#000000;stroke-width:0.28409135;stroke-opacity:1"
       d="m 53.844299,249.55813 c 0,-0.076 -0.553546,-1.0931 -1.230104,-2.26025 -0.676556,-1.16715 -1.148891,-2.23607 -1.049629,-2.37538 0.09926,-0.13931 -0.01193,-0.25329 -0.24705,-0.25329 -0.235138,0 -0.689357,-0.43398 -1.009375,-0.96441 -0.320019,-0.53043 -1.0465,-1.41955 -1.614401,-1.97582 l -1.032553,-1.01139 -0.894373,0.97617 c -0.491906,0.53689 -1.26266,1.54495 -1.71279,2.24012 -0.450126,0.69518 -0.977145,1.26408 -1.171152,1.26423 -0.202518,1.6e-4 -0.284799,0.22563 -0.193202,0.52944 0.109987,0.36482 0.0093,0.52916 -0.324021,0.52916 -0.290749,0 -0.417764,0.14873 -0.318545,0.373 0.09076,0.20515 -0.03342,0.71116 -0.275967,1.12448 -0.242542,0.41331 -0.536256,1.01937 -0.652701,1.3468 l -0.211721,0.59531 h 5.968793 c 3.282836,0 5.968791,-0.0622 5.968791,-0.13817 z"
       id="path1048"
       inkscape:connector-curvature="0" />
    <path
       style="fill:#ffffff;stroke-width:0.26458335;fill-opacity:1;stroke:#000000;stroke-opacity:1"
       d="m 81.49168,243.93378 c 1.597012,-0.74469 3.502361,-2.54529 4.712626,-4.45354 1.151623,-1.81579 3.491934,-7.14706 3.81154,-8.68275 l 0.24779,-1.19063 -1.277125,0.0917 -1.277123,0.0917 v 1.65283 c 0,1.94788 -0.527909,3.60377 -2.417545,7.58314 l -1.369391,2.88379 h -2.16525 c -4.068225,0 -8.702421,-1.7318 -11.129846,-4.15923 -0.636315,-0.63631 -1.819783,-2.16345 -2.629927,-3.39365 -1.598306,-2.427 -1.563402,-2.4097 -3.910439,-1.93834 l -1.485651,0.29836 0.948465,1.88445 c 2.367143,4.70314 6.554039,8.35256 10.932364,9.52895 2.335369,0.62747 5.428084,0.54067 7.009512,-0.19675 z"
       id="path1044" />
    <path
       style="fill:#000000;stroke-width:0.26458335;fill-opacity:0;stroke:#000000;stroke-opacity:1"
       d="m 83.11193,241.17833 c 0.387115,-0.25308 2.38107,-4.23364 3.169335,-6.32699 l 0.615556,-1.63469 -0.718195,-0.14323 c -3.45089,-0.68819 -16.501738,-0.8715 -17.61687,-0.24744 -0.365085,0.20432 -0.264363,0.47531 0.724559,1.94945 2.453696,3.6576 5.140749,5.20901 11.147031,6.43591 0.916152,0.18715 2.369228,0.16924 2.678584,-0.033 z"
       id="path1042" />
    <path
       style="fill:#ffffff;stroke-width:0.26458335;fill-opacity:1;stroke:#000000;stroke-opacity:1"
       d="m 59.182856,232.27234 c 6.882083,-1.70026 11.774234,-2.36105 25.616116,-3.45999 17.512568,-1.39038 22.455508,-2.22209 27.119788,-4.5633 2.01511,-1.01147 4.20513,-2.43151 4.02607,-2.61057 -0.0617,-0.0617 -1.40951,0.29411 -2.99516,0.79065 -5.61744,1.75912 -10.15097,2.46622 -21.403823,3.33839 -3.929063,0.30452 -8.09625,0.6632 -9.260417,0.79704 -10.50547,1.20784 -14.073339,1.64847 -16.007293,1.97689 -5.38376,0.91425 -10.635181,3.04441 -13.096875,5.31256 l -1.322917,1.21891 1.768261,-0.93237 c 1.12395,-0.59263 3.148518,-1.27337 5.55625,-1.86821 z"
       id="path1040" />
    <path
       style="fill:#ffffff;stroke-width:0.26458335;fill-opacity:1;stroke:#000000;stroke-opacity:1"
       d="m 109.66981,232.94346 c 2.76533,-0.93401 5.6413,-2.46369 7.27604,-3.86999 l 1.05833,-0.91044 -1.4897,0.79079 c -3.42937,1.82044 -9.23287,2.60833 -15.64605,2.12414 -3.578225,-0.27015 -5.837063,-0.52211 -8.566973,-0.9556 -0.810032,-0.12862 -0.840361,-0.0968 -1.154295,1.21184 -0.177324,0.73916 -0.267121,1.39922 -0.199554,1.46679 0.38663,0.38662 9.178622,1.13802 12.504492,1.06868 3.35697,-0.07 3.93976,-0.1568 6.21771,-0.92621 z"
       id="path1038" />
    <path
       style="fill:#ffffff;stroke-width:0.26458335;fill-opacity:1;stroke:#000000;stroke-opacity:1"
       d="m 53.939076,231.34032 c 0.366059,-0.13918 1.476394,-0.63529 2.467414,-1.10247 0.991021,-0.46718 2.606123,-1.10726 3.589113,-1.42239 0.982994,-0.31514 1.70729,-0.65294 1.609551,-0.75068 -0.09774,-0.0977 -0.927307,-0.17771 -1.843479,-0.17771 -2.913542,0 -5.837778,1.54014 -8.008788,4.21808 l -0.952875,1.17537 1.236752,-0.84358 c 0.680215,-0.46397 1.536253,-0.95745 1.902312,-1.09662 z"
       id="path1036" />
    <path
       style="fill:#ffffff;stroke-width:0.26458335;fill-opacity:1;stroke:#000000;stroke-opacity:1"
       d="m 86.651055,231.19436 v -1.19062 l -1.124479,0.003 c -3.380251,0.01 -17.101056,1.49474 -17.528647,1.89709 -0.16565,0.15587 0.279543,0.16866 1.190625,0.0342 1.902921,-0.28083 12.307584,-0.18941 14.684376,0.12903 2.989403,0.4005 2.778125,0.46689 2.778125,-0.87295 z"
       id="path1034" />
    <path
       style="fill:#000000;stroke-width:0.26458335;fill-opacity:0;stroke:#000000;stroke-opacity:1"
       d="m 109.68941,230.14792 c 3.59835,-0.54243 5.9102,-1.37079 7.761,-2.78086 2.98553,-2.27456 4.57019,-5.44784 4.82719,-9.66645 l 0.14508,-2.38125 -1.01863,1.69621 c -2.64422,4.40317 -8.16481,8.27725 -13.94906,9.78879 -2.39209,0.6251 -7.959054,1.43931 -13.109349,1.91734 -2.166331,0.20107 -3.297139,0.39719 -2.900984,0.50314 0.565116,0.15114 6.295673,0.87595 8.964733,1.13389 2.44478,0.23626 7.00091,0.13276 9.28002,-0.21081 z"
       id="path1032" />
    <path
       style="fill:#fffffe;stroke-width:0.26458335;fill-opacity:1;stroke:#000000;stroke-opacity:1"
       d="m 119.3271,227.09332 c 0.56839,-0.58208 0.9739,-1.05833 0.90114,-1.05833 -0.0728,0 -0.59734,0.47625 -1.16573,1.05833 -0.56838,0.58208 -0.9739,1.05833 -0.90114,1.05833 0.0728,0 0.59734,-0.47625 1.16573,-1.05833 z"
       id="path1030" />
    <path
       style="fill:#ffffff;stroke-width:0.26458335;fill-opacity:1;stroke:#000000;stroke-opacity:1"
       d="m 122.77652,222.56085 c 1.20368,-1.95735 2.21039,-4.65285 2.65513,-7.1092 0.52071,-2.876 0.51412,-15.98582 -0.009,-18.47404 -1.52454,-7.24743 -6.0015,-14.11618 -11.73429,-18.00326 -2.41969,-1.64067 -3.98433,-2.32502 -8.29299,-3.62723 -5.431308,-1.64151 -8.699401,-2.94472 -9.380098,-3.74048 l -0.55795,-0.65226 -0.301945,1.19913 c -0.525982,2.08887 -0.431885,2.41376 0.957244,3.30517 1.79162,1.14968 3.228509,1.74143 6.546019,2.69584 5.44782,1.56727 9.17123,3.73954 12.6487,7.37936 5.27959,5.52609 7.84782,11.95746 7.86049,19.68431 0.002,1.43826 0.15943,2.85974 0.38526,3.48659 0.49309,1.36868 0.4993,2.95113 0.0196,4.98366 -0.21172,0.89701 -0.49792,2.98746 -0.63599,4.64546 -0.22719,2.72804 -0.35205,3.21837 -1.31387,5.15937 -0.81738,1.64951 -0.91263,1.96153 -0.41248,1.35109 0.3577,-0.43656 1.06262,-1.46414 1.5665,-2.28351 z"
       id="path1028" />
    <path
       style="fill:#000000;stroke-width:0.26458335;fill-opacity:0;stroke:#000000;stroke-opacity:1"
       d="m 101.07085,224.1683 c 5.63136,-0.70129 14.19248,-2.87142 15.80783,-4.00708 1.37113,-0.96395 2.13802,-2.69774 2.26522,-5.12121 0.1,-1.90457 0.0315,-2.36126 -0.54144,-3.61278 -0.36073,-0.78794 -1.40071,-2.22884 -2.31106,-3.20201 -1.63939,-1.75251 -2.12126,-2.07856 -2.12626,-1.43867 -10e-4,0.1819 -0.29481,0.95843 -0.65198,1.72561 -0.87579,1.88116 -3.10036,4.17161 -5.03398,5.18305 -1.53645,0.8037 -1.69386,0.83014 -4.89479,0.82236 l -3.30729,-0.008 -4.894795,-1.63854 c -7.210679,-2.41378 -9.749023,-2.60923 -11.474474,-0.88352 -1.743612,1.74388 -0.834742,4.20088 2.919638,7.89284 2.47296,2.43184 3.527753,3.83189 3.527753,4.68249 v 0.57063 l 4.167188,-0.33429 c 2.291953,-0.18386 5.23875,-0.46774 6.54844,-0.63084 z"
       id="path1026" />
    <path
       style="fill:#ffffff;stroke-width:0.26458335;fill-opacity:1;stroke:#000000;stroke-opacity:1"
       d="m 89.505481,224.59167 c 0.251769,-0.25176 -0.776849,-1.55754 -3.240548,-4.1137 -1.506271,-1.5628 -2.944596,-3.32883 -3.28671,-4.03555 -1.124543,-2.32299 -0.676455,-4.61871 1.11796,-5.72772 0.701283,-0.43342 1.324615,-0.55386 2.850684,-0.5508 2.408854,0.005 4.299622,0.43993 9.243696,2.1272 4.917727,1.67827 7.711347,2.08687 9.934217,1.453 3.00329,-0.85642 5.45365,-2.99871 6.83147,-5.9726 l 0.66753,-1.44079 -0.9848,-1.01672 c -0.54164,-0.5592 -1.20217,-1.13537 -1.46785,-1.28039 -0.43467,-0.23726 -0.45173,-0.20516 -0.17039,0.32054 0.48377,0.90394 0.40916,3.41994 -0.13546,4.56763 -0.2619,0.55193 -0.8717,1.30517 -1.35509,1.67387 -1.80049,1.3733 -3.78042,1.12943 -12.011218,-1.47939 -2.692135,-0.85329 -5.331666,-1.62596 -5.865622,-1.71704 -1.333654,-0.22749 -4.446601,0.46522 -6.1067,1.3589 -1.882373,1.01333 -4.214371,3.40466 -5.056839,5.18549 -1.373814,2.904 -0.77784,4.82288 2.741661,8.8274 l 1.984375,2.25785 2.105385,-0.16916 c 1.157962,-0.093 2.149872,-0.21364 2.204249,-0.26802 z"
       id="path1024" />
    <path
       style="fill:#ffffff;stroke-width:0.26458335;fill-opacity:1;stroke:#000000;stroke-opacity:1"
       d="m 121.44603,215.1259 c 1.03179,-2.06111 1.18836,-2.59387 1.18836,-4.04365 0,-2.88403 -0.74515,-3.89739 -8.20208,-11.15441 -7.85147,-7.64098 -8.71769,-8.25139 -13.44935,-9.4776 -4.992266,-1.29375 -6.454534,-2.16529 -7.616039,-4.53932 -0.696328,-1.42324 -0.7035,-1.49454 -0.549656,-5.46368 0.0972,-2.50765 0.364816,-5.00466 0.710883,-6.63288 0.631163,-2.96956 2.119879,-7.5995 3.073802,-9.55958 0.566341,-1.1637 0.578202,-1.24331 0.09856,-0.66146 -0.945391,1.14683 -2.878969,4.55232 -3.687604,6.49475 -1.189871,2.8582 -2.100205,6.25065 -2.694604,10.04171 -0.823804,5.25422 -0.393788,8.17605 1.534922,10.42932 1.261591,1.47388 2.626328,2.11895 5.073438,2.39805 4.266818,0.48664 7.393788,2.33969 12.498808,7.40682 1.83618,1.82255 4.58723,4.5119 6.11344,5.97634 3.59509,3.44958 4.31736,4.7968 4.31736,8.05301 0,1.23693 -0.0968,2.59717 -0.21507,3.02277 -0.39854,1.43389 0.53106,0.25431 1.80484,-2.29019 z"
       id="path1022" />
    <path
       style="fill:#000000;stroke-width:0.26458335;fill-opacity:0;stroke:#000000;stroke-opacity:1"
       d="m 122.29697,203.34697 c -0.16989,-4.00572 -0.72182,-6.17168 -2.54515,-9.98802 -2.11073,-4.41789 -5.23407,-8.10574 -9.12453,-10.77371 -1.97752,-1.35613 -5.39151,-2.95484 -7.43978,-3.48391 -0.87312,-0.22553 -2.46665,-0.70981 -3.541182,-1.07616 l -1.953683,-0.66611 0.165989,1.21103 c 0.384304,2.80379 3.144796,6.64305 8.071996,11.22644 2.38187,2.21565 4.08547,4.10348 3.2208,3.56909 -0.16977,-0.10493 2.70514,2.84728 6.3887,6.56046 3.68356,3.71318 6.74295,6.76093 6.79865,6.77278 0.0557,0.0119 0.0369,-1.4965 -0.0418,-3.35189 z"
       id="path1020" />
    <path
       style="fill:#ffffff;stroke-width:0.26458335;fill-opacity:1;stroke:#000000;stroke-opacity:1"
       d="m 102.62777,187.58912 c -3.706395,-3.85036 -5.61792,-7.08936 -5.651366,-9.57601 -0.0086,-0.64175 -0.21006,-0.9076 -1.051851,-1.38826 -0.655749,-0.37443 -1.103545,-0.4936 -1.209656,-0.3219 -0.09266,0.14994 -0.23326,1.13184 -0.312434,2.18201 -0.169817,2.25252 0.31192,4.44169 1.481265,6.73135 1.443281,2.82604 1.873269,3.14707 5.451702,4.07015 1.74625,0.45046 3.35359,0.92235 3.57188,1.04864 0.21828,0.1263 0.44264,0.23325 0.49859,0.23767 0.0559,0.004 -1.19421,-1.33822 -2.77813,-2.98365 z"
       id="path1018" />
    <path
       style="fill:#ffffff;stroke-width:0.26458335;fill-opacity:1;stroke:#000000;stroke-opacity:1"
       d="m 92.067865,165.80004 c -1.641296,-4.10259 -1.543678,-7.91991 0.263104,-10.28872 0.963774,-1.26357 1.700853,-1.58242 5.172588,-2.23762 3.178663,-0.59988 3.895233,-0.85819 4.416643,-1.59215 0.17611,-0.2479 0.67357,-0.59709 1.10547,-0.77599 1.1577,-0.47953 1.27962,-1.07153 0.21969,-1.06666 -2.4602,0.0113 -5.963574,1.39054 -8.657442,3.40834 -4.367094,3.27112 -6.074191,6.29737 -6.081639,10.78123 -0.0036,2.17157 0.747906,4.94656 1.791108,6.61374 l 0.685651,1.09576 0.875009,-2.13761 0.875009,-2.1376 z"
       id="path1014" />
    <path
       style="fill:#ffffff;stroke-width:0.26458335;fill-opacity:1;stroke:#000000;stroke-opacity:1"
       d="m 101.54859,164.23269 c 2.53695,-4.41587 3.09413,-5.73918 3.09413,-7.34864 v -1.08648 l -0.70456,1.0536 c -0.38752,0.57949 -1.07996,1.47616 -1.53876,1.99261 -0.70399,0.79243 -0.88284,1.28293 -1.14579,3.14235 -0.32181,2.27559 -0.56506,2.8323 -3.039853,6.95702 -1.08286,1.8048 -1.174075,2.07131 -0.783677,2.28979 0.369017,0.20651 0.555853,-0.0211 1.133782,-1.38108 0.380577,-0.89558 1.723698,-3.42421 2.984728,-5.61917 z"
       id="path1012" />
    <path
       style="fill:#fffffe;stroke-width:0.26458335;fill-opacity:1;stroke:#000000;stroke-opacity:1"
       d="m 103.4481,155.02496 c 1.07514,-2.10566 1.20013,-3.07331 0.39698,-3.07331 -0.72814,0 -1.45267,1.25815 -2.28548,3.96875 -0.38004,1.23693 -0.75276,2.42756 -0.82827,2.64584 -0.34304,0.99163 1.88551,-1.91327 2.71677,-3.54128 z"
       id="path1006" />
    <path
       style="fill:#ffffff;fill-opacity:0.99909584;stroke:#000000;stroke-width:0.26523557;stroke-opacity:1"
       d="m 108.35258,146.47967 c -2.34007,-0.3365 -5.12004,-1.80541 -6.71017,-3.54561 -2.323948,-2.54325 -3.200144,-5.12564 -3.422514,-10.08708 -0.134775,-3.00701 -0.199777,-3.30377 -1.174835,-5.3635 -3.619675,-7.64627 -5.180202,-15.55637 -4.931793,-24.99862 0.206362,-7.844129 1.087618,-12.07015 4.067799,-19.506973 l 0.744094,-1.856827 0.01737,-6.896789 c 0.01703,-6.758906 0.03206,-6.944517 0.751558,-9.284139 3.202491,-10.413578 10.332121,-16.695292 21.746481,-19.160175 3.34408,-0.722143 12.11894,-0.647413 15.63417,0.133145 7.96997,1.769734 14.87194,5.379063 20.35902,10.646583 1.44366,1.385894 3.33131,2.884086 4.43586,3.520655 1.35319,0.779853 2.25686,1.693405 2.25686,1.693405 0,0 -0.45087,0.773384 -6.6986,0.588453 l -6.66521,-0.197289 -2.21985,0.56906 c -4.69249,1.51281 -7.35329,3.180303 -10.65016,6.674329 -5.54005,5.871346 -7.58031,13.762609 -7.14328,27.628428 0.16639,5.278524 0.22931,5.785994 1.20064,9.682034 1.74651,7.00529 1.99746,8.83503 1.98283,14.45673 -0.0118,4.55446 -0.0787,5.28272 -0.69357,7.55995 -1.02314,3.78911 -1.70648,5.06275 -3.06691,5.71628 -0.96643,0.46427 -1.37151,0.94873 -2.77246,3.31576 -0.90237,1.52465 -2.2014,3.33309 -2.88675,4.01878 -2.53409,2.53537 -5.90888,4.18416 -9.62133,4.70061 -2.27746,0.31683 -2.28604,0.31682 -4.53925,-0.007 z"
       id="path1004"
       inkscape:connector-curvature="0"
       sodipodi:nodetypes="ccsssscccsssccsccscscccccccc" />
    <path
       style="fill:#ffffff;fill-opacity:0.99909584;stroke:#000000;stroke-width:0.26458335;stroke-opacity:1"
       d="m 115.24127,145.31031 c 4.14879,-1.2402 7.74101,-4.33796 9.67059,-8.21982 3.95652,-5.90539 5.37956,-13.54041 3.35959,-20.41817 -0.83114,-3.09871 -2.17461,-6.16421 -4.00904,-8.71603 -3.4991,-4.60329 -4.94106,-10.491822 -5.60539,-16.153068 -0.459,-5.65775 -0.40163,-11.619369 1.8679,-16.868661 2.22492,-6.54501 7.83445,-12.391974 14.94578,-13.34333 8.15563,-1.218667 16.38816,0.579537 24.55735,0.05894 -1.35475,-1.009531 -4.98437,-3.098152 -4.47096,-3.386144 -2.57984,0.579105 -6.28266,-1.990351 -9.39519,-2.214851 3.46448,1.629059 7.33524,2.591595 10.44897,4.903762 -2.32629,0.99131 -7.10723,-1.946262 -10.4736,-1.476246 -8.16755,-0.73054 -17.25949,0.662838 -23.11888,6.916916 -2.42481,1.968209 -4.09059,5.12421 -5.75523,7.34369 -0.94346,3.354743 -2.66504,6.559949 -2.69286,10.181221 -0.40221,4.883106 -0.34492,10.040684 1.81572,14.541394 0.34628,1.964514 3.02386,5.602214 3.93541,7.802324 2.80304,4.52784 5.29957,9.83265 4.40132,15.30556 -0.91123,5.49345 -4.58663,10.68325 -9.69472,12.98822 -3.88998,1.32326 -8.38178,-1.1684 -8.81301,-5.3774 -1.12527,-4.31564 -2.54918,-8.55756 -3.51654,-12.90628 -1.4176,2.57417 -2.30926,5.51669 -2.963369,8.45281 -0.983012,4.81576 -1.339641,10.00283 0.521849,14.63993 2.06857,4.16301 6.55729,7.22488 11.32959,6.47943 1.22062,-0.10534 2.48495,-0.14032 3.65472,-0.5342 z"
       id="path1002"
       inkscape:connector-curvature="0" />
    <path
       style="fill:#ffffff;fill-opacity:0.99909584;stroke:#000000;stroke-width:0.26458335;stroke-opacity:1"
       d="m 115.21167,133.44279 c 2.68255,-1.46407 5.25354,-3.82878 6.71504,-6.40745 2.55078,-4.25341 2.75872,-9.62928 0.73769,-14.14294 -1.06324,-3.23129 -2.93993,-6.06134 -4.59582,-8.987 -1.14553,-3.04413 -3.09841,-5.61638 -3.60625,-8.834316 -1.18615,-2.609495 -0.8961,-6.289816 -0.87619,-9.404703 0.27091,-9.95375 5.84486,-20.00507 14.92976,-24.443918 3.57967,-1.453262 7.31172,-2.691873 11.21269,-2.712563 3.41889,-0.203122 6.83322,0.190038 10.24876,0.273919 -2.75706,-1.392179 -5.29992,-2.646096 -8.35911,-3.19715 -5.71912,-1.486256 -11.88603,-2.482573 -17.69836,-1.026561 -3.3432,1.018501 -6.39488,1.230707 -8.61127,4.211726 -4.11953,3.852454 -7.0565,8.809409 -9.70097,13.747973 -3.50014,7.101595 -6.207205,14.890545 -5.54715,22.921939 0.44633,11.803054 4.0414,23.181594 7.37455,34.413714 0.78639,3.54346 4.58845,5.19344 7.77663,3.58733 z"
       id="path998"
       inkscape:connector-curvature="0" />
    <path
       style="fill:#ffffff;fill-opacity:0.99909584;stroke:#000000;stroke-width:0.26458335;stroke-opacity:1"
       d="m 129.26607,132.44642 c 2.06261,-4.59316 2.45551,-9.70697 2.03468,-14.66998 -0.69557,-7.8229 -3.32676,-15.28423 -5.12251,-22.890617 -1.23497,-5.110757 -2.22401,-10.384822 -1.57702,-15.657208 0.0759,-2.809445 0.88934,-5.525873 1.81891,-8.157156 1.13445,-1.630379 1.57282,-3.884271 3.42344,-5.35179 1.4514,-2.933731 -2.38516,0.39661 -3.0923,1.369837 -2.2705,1.182354 -2.66612,3.534282 -4.38821,5.365878 -1.18342,2.000105 -1.33709,4.407513 -2.20097,6.572161 -1.2467,4.177046 -0.7478,8.60552 -0.64405,12.893267 0.56068,5.207672 2.2022,10.396258 5.0283,14.810728 5.05412,6.51344 6.50472,15.39693 4.58629,23.32402 -0.17709,1.15448 -2.14838,5.18034 -0.0727,2.84897 l 0.20618,-0.45811 z"
       id="path996"
       inkscape:connector-curvature="0" />
    <path
       style="fill:#ffffff;fill-opacity:0.99909584;stroke:#000000;stroke-width:0.26458335;stroke-opacity:1"
       d="m 98.554139,126.10584 c 0.374081,-5.36251 4.812841,-10.25552 2.644471,-15.77142 -2.591127,-11.660788 -3.393956,-24.449923 2.25022,-35.390465 3.34431,-7.277342 7.38113,-15.041721 14.48963,-19.213058 9.64755,-4.994564 20.58961,-1.755483 30.60953,-0.0135 2.60098,0.527657 8.83627,3.306764 4.08482,-0.258673 -12.32497,-10.653059 -32.4003,-13.147577 -45.69989,-2.888052 -7.297647,5.764791 -10.396541,15.564036 -9.052789,24.619703 0.329899,6.603658 -3.960256,12.113067 -4.440516,18.580244 -1.436022,10.719331 -0.344391,22.139271 4.762113,31.808041 0.152343,-0.48339 0.266859,-0.97339 0.352411,-1.47282 z"
       id="path990"
       inkscape:connector-curvature="0" />
    <path
       style="fill:#ffffff;fill-opacity:0.99909584;stroke:#000000;stroke-width:0.26458335;stroke-opacity:1"
       d="m 128.08679,93.4356 c -0.0388,-5.581771 0.64724,-11.203775 2.31599,-16.53907 1.06572,-2.390871 2.18356,-4.797438 3.90414,-6.8015 3.0181,-3.732468 7.24271,-6.452406 11.84256,-7.786323 -1.77921,-0.67675 -3.7229,-0.225027 -5.57429,-0.292473 -2.98317,0.07936 -6.39462,0.152629 -8.60592,2.470843 -1.89692,1.824531 -3.24742,4.135418 -4.43142,6.451032 -1.21846,1.288925 -0.75115,3.352128 -1.64692,4.943873 -0.94773,3.994101 -0.66085,8.15917 -0.17326,12.196592 0.5001,3.442658 1.32057,6.830204 2.26709,10.174939 0.16561,-1.596366 0.0547,-3.214199 0.10203,-4.817913 z"
       id="path964"
       inkscape:connector-curvature="0" />
    <path
       style="fill:#ffffff;stroke-width:0.26458335;fill-opacity:1;stroke:#000000;stroke-opacity:1"
       d="m 164.70278,61.406837 c 0,-4.005516 -0.95663,-5.377934 -9.74474,-13.980184 -8.31973,-8.143777 -11.7807,-11.832312 -14.58093,-15.539672 -6.64817,-8.801833 -6.30301,-14.770141 1.01448,-17.541907 2.98093,-1.129134 10.61119,-2.297349 10.61119,-1.624603 0,0.184425 0.43,0.163589 1.28644,-0.06234 1.80962,-0.477367 23.15637,-0.471513 24.96975,0.0068 0.69326,0.18288 1.26048,0.224223 1.26048,0.09187 0,-0.646332 6.942,0.361192 10.1317,1.470459 2.19954,0.764924 4.31361,2.154144 5.13667,3.37546 1.80896,2.684269 1.23121,6.587264 -1.68596,11.389431 -2.05004,3.374736 -5.52255,7.265935 -14.93275,16.733216 -8.39693,8.447865 -9.83237,10.00729 -10.44658,11.34891 -0.39163,0.855435 -0.7683,2.054297 -0.83704,2.664135 l -0.12497,1.108797 3.6813,0.308438 c 9.34146,0.782667 14.54391,0.01582 16.26524,-2.397553 0.50042,-0.701596 0.63532,-1.280451 0.71098,-3.050847 0.0797,-1.865606 0.0349,-2.162514 -0.30685,-2.031379 -0.52251,0.20051 -1.724,-0.438181 -2.6006,-1.382434 -1.26482,-1.362446 -1.65737,-2.445414 -1.66291,-4.587685 -0.004,-1.703567 0.10499,-2.185215 0.77306,-3.403645 0.78254,-1.427207 2.23458,-2.681771 3.10388,-2.681771 0.25726,0 0.46775,0.133641 0.46775,0.296979 0,0.205594 0.10177,0.213667 0.33073,0.02622 0.1819,-0.148913 0.87767,-0.251341 1.54616,-0.227624 3.86398,0.137102 5.8497,6.209655 3.26282,9.978047 -0.71122,1.036047 -2.57274,2.225079 -3.14172,2.006742 -0.28152,-0.108026 -0.37905,0.358889 -0.45099,2.159122 -0.11358,2.84203 -0.69494,4.103762 -2.36471,5.132179 -2.28245,1.405768 -3.64281,1.596252 -11.82696,1.656074 -5.25645,0.03842 -7.57662,0.146035 -7.79198,0.361398 -0.16868,0.16869 -0.69959,0.306697 -1.17981,0.306697 h -0.87313 z"
       id="path900" />
    <path
       style="fill:#ababab;stroke-width:0.26458335;fill-opacity:1;stroke:#000000;stroke-opacity:1"
       d="m 177.25552,45.456844 c 4.84382,-4.802187 9.54745,-9.609148 10.45249,-10.682131 10.09964,-11.973735 9.84873,-17.827998 -0.8803,-20.539607 -3.4782,-0.879066 -4.0445,-0.871054 -2.67332,0.03782 2.99408,1.984612 3.70483,3.278918 3.68466,6.709956 -0.0128,2.183376 -0.12547,2.792915 -0.85755,4.640408 -1.39578,3.52244 -3.77754,7.200537 -10.09179,15.584546 -6.80404,9.034351 -7.82198,10.482008 -8.94121,12.715671 -1.14423,2.283542 -1.32851,3.143345 -0.34025,1.5875 0.46217,-0.727604 4.80344,-5.251979 9.64727,-10.054167 z"
       id="path892" />
    <path
       style="fill:#ababab;stroke-width:0.26458335;fill-opacity:1;stroke:#000000;stroke-opacity:1"
       d="m 164.32132,55.709449 c -0.37998,-1.586767 -2.87902,-5.331744 -8.92049,-13.367941 -3.47614,-4.623851 -6.85843,-9.246619 -7.5162,-10.272819 -1.6031,-2.500995 -3.40823,-6.129732 -3.92625,-7.892679 -0.47544,-1.618067 -0.55118,-4.438245 -0.15726,-5.856249 0.33497,-1.205806 1.89331,-3.02798 3.41468,-3.992805 1.43096,-0.90749 1.07036,-0.942911 -2.21211,-0.217285 -8.55078,1.890242 -10.70405,6.399863 -6.47584,13.562461 2.66452,4.513707 5.90712,8.184089 16.17943,18.313879 4.57462,4.511146 8.60574,8.707181 8.95805,9.324525 0.74797,1.310614 0.89586,1.400548 0.65599,0.398913 z"
       id="path890" />
    <path
       style="fill:#ababab;stroke-width:0.26458335;fill-opacity:1;stroke:#000000;stroke-opacity:1"
       d="m 163.52497,47.821793 c -0.52344,-1.564277 -2.36921,-5.772417 -4.10169,-9.35142 -4.82915,-9.976122 -5.6457,-12.324442 -5.66665,-16.296862 -0.0106,-2.013552 0.0918,-2.605955 0.6631,-3.836459 0.79572,-1.713751 2.38189,-3.372901 4.28576,-4.482927 1.53726,-0.896287 1.49492,-0.908809 -1.80792,-0.53461 -11.75237,1.331502 -14.05031,6.050134 -7.97124,16.368274 0.89168,1.513477 4.248,6.234768 7.45849,10.491758 3.21048,4.256987 6.29615,8.406297 6.85705,9.220687 0.56089,0.81439 1.06818,1.432333 1.1273,1.373206 0.0591,-0.05913 -0.32076,-1.387369 -0.8442,-2.951647 z"
       id="path878" />
    <path
       style="fill:#ababab;stroke-width:0.26458335;fill-opacity:1;stroke:#000000;stroke-opacity:1"
       d="m 174.86497,40.445014 c 5.19698,-6.815595 7.73729,-10.55271 9.12133,-13.418614 1.12293,-2.325242 1.88414,-4.819332 1.88167,-6.165249 -0.008,-4.174375 -3.87444,-6.724493 -11.43132,-7.538882 -3.40484,-0.366932 -3.43439,-0.36237 -2.0864,0.3221 1.7123,0.869452 3.65953,2.727622 4.47185,4.26734 0.66153,1.253874 0.71235,1.580481 0.70432,4.526385 -0.008,2.878667 -0.0884,3.405698 -0.86301,5.646756 -0.4699,1.359466 -2.26827,5.407591 -3.99638,8.995834 -1.72811,3.588242 -3.44056,7.238452 -3.80545,8.111577 -0.6848,1.638633 -1.77755,5.009766 -1.77755,5.48376 0,0.147753 0.80367,-0.851782 1.78594,-2.221191 0.98227,-1.369409 3.68002,-4.973828 5.995,-8.009816 z"
       id="path874" />
    <path
       style="fill:#ababab;stroke-width:0.26458335;fill-opacity:1;stroke:#000000;stroke-opacity:1"
       d="m 166.40833,46.2506 c 0.25835,-0.727604 2.06068,-4.669864 4.00519,-8.760579 1.9445,-4.090712 3.9105,-8.555556 4.36888,-9.921875 1.07556,-3.205955 1.30424,-6.161989 0.63302,-8.182825 -0.88568,-2.666533 -3.93844,-4.904479 -8.12107,-5.953459 -1.73129,-0.4342 -1.82114,-0.43082 -3.69749,0.139105 -3.91277,1.188467 -6.32212,2.94039 -7.35919,5.351119 -0.50834,1.181673 -0.57235,1.709026 -0.47293,3.896532 0.15681,3.450416 0.99527,5.788256 5.20046,14.500302 1.87947,3.893778 3.69592,7.879149 4.03653,8.85638 0.34062,0.977231 0.69076,1.691606 0.77809,1.5875 0.0873,-0.104106 0.37016,-0.784595 0.62851,-1.5122 z"
       id="path864" />
    <path
       style="fill:#fffffe;stroke-width:0.26458335;fill-opacity:1;stroke:#000000;stroke-opacity:1"
       d="m 74.714433,278.4886 6.759541,-3.9026 -18.115106,-0.1937 c -9.96331,-0.10655 -25.00528,-0.16608 -33.426603,-0.13229 l -15.311495,0.0614 6.97712,4.03082 6.977121,4.03082 19.68994,0.004 19.689941,0.004 6.759541,-3.90261 z"
       id="path836" />
    <path
       style="fill:#ababab;fill-opacity:1;stroke:#000000;stroke-width:0.26458335;stroke-opacity:1"
       d="m 61.125972,272.51661 c -0.108984,-0.98227 -0.222118,-2.02406 -0.251407,-2.3151 -0.02929,-0.29105 -0.130482,-0.7673 -0.224869,-1.05834 -0.09439,-0.29104 -0.234448,-0.82682 -0.311246,-1.19062 -0.0768,-0.3638 -0.23922,-1.13771 -0.360939,-1.71979 -0.121719,-0.58209 -0.357029,-1.31057 -0.522907,-1.61886 -0.16588,-0.30829 -0.238008,-0.62412 -0.160284,-0.70184 0.07772,-0.0777 0.02561,-0.36127 -0.115814,-0.6301 -0.141419,-0.26883 -0.409241,-1.02457 -0.595156,-1.67941 -0.185917,-0.65485 -0.419333,-1.30969 -0.518702,-1.45521 -0.09937,-0.14552 -0.55816,-1.39568 -1.01953,-2.77813 -0.46137,-1.38244 -1.018453,-2.83801 -1.237964,-3.23459 -0.219512,-0.39658 -0.379439,-0.75377 -0.355397,-0.79375 0.02405,-0.04 -0.320688,-0.87637 -0.766066,-1.85863 l -0.809784,-1.78594 h -5.984598 -5.984594 l -0.566013,1.25677 c -0.311309,0.69122 -0.587505,1.37583 -0.613767,1.52135 -0.02627,0.14552 -0.279689,0.80037 -0.563161,1.45521 -0.538326,1.24358 -1.348554,3.51674 -1.526346,4.28231 -0.05695,0.24522 -0.23512,0.6917 -0.395936,0.99219 -0.160814,0.30048 -0.224481,0.54633 -0.141481,0.54633 0.083,0 0.01934,0.24586 -0.141481,0.54634 -0.160816,0.30049 -0.339105,0.78891 -0.396202,1.08539 -0.0571,0.29648 -0.354873,1.39008 -0.661723,2.43022 -1.054839,3.57562 -1.521677,5.83683 -1.742401,8.43962 l -0.173889,2.05052 h 13.169906 13.169908 z"
       id="path832"
       inkscape:connector-curvature="0" />
    <path
       style="opacity:1;fill:#ababab;fill-opacity:1;fill-rule:nonzero;stroke:#000000;stroke-width:1.02035713;stroke-linecap:square;stroke-linejoin:miter;stroke-miterlimit:4;stroke-dasharray:none;stroke-dashoffset:0;stroke-opacity:1;paint-order:markers fill stroke"
       d="m 285.66706,925.94334 c -3.19001,-0.42447 -7.21945,-1.72957 -12.9888,-4.20693 -7.1408,-3.06629 -12.39321,-6.65685 -19.06244,-13.03113 -6.3055,-6.02665 -11.01375,-12.21159 -14.90229,-19.57627 -2.21336,-4.19198 -3.74152,-5.83055 -5.79733,-6.21623 -0.77554,-0.14549 -2.91714,-0.009 -5.09692,0.32459 -21.92067,3.35575 -20.44934,3.0326 -31.97365,7.0226 -2.51055,0.86921 -5.27789,1.56962 -6.68107,1.69096 -2.28805,0.19786 -2.41324,0.16791 -2.79441,-0.66868 -0.50479,-1.10789 0.48656,-4.26026 2.56418,-8.15377 4.0808,-7.64749 13.40547,-16.68987 21.19701,-20.5553 7.7186,-3.82924 17.97444,-4.57968 25.60468,-1.87355 3.22113,1.1424 3.48953,1.17784 8.68104,1.14624 4.28058,-0.0261 8.51507,-0.43838 21.07143,-2.05174 8.64285,-1.11053 21.82143,-2.74205 29.28571,-3.6256 17.58585,-2.08166 22.32108,-2.70687 23.30357,-3.07689 1.18255,-0.44535 1.01485,-1.77451 -0.46916,-3.71868 -0.7,-0.91705 -3.34182,-4.06706 -5.87069,-7.00002 -6.26558,-7.26674 -7.98055,-9.59761 -9.82363,-13.3516 -1.65746,-3.37591 -2.6758,-7.71458 -2.6758,-11.40032 0,-5.83415 5.18874,-15.66985 11.75212,-22.27713 8.55301,-8.61021 19.91213,-13.28684 32.27257,-13.28684 6.05814,0 9.38566,0.78629 24.87823,5.87869 25.23927,8.29614 36.33068,10.29863 41.91344,7.56724 2.63207,-1.28775 5.73435,-4.66267 7.28237,-7.92234 2.30385,-4.85125 1.99895,-8.49628 -1.48801,-17.78915 -1.04341,-2.78072 -2.16056,-5.96298 -2.48256,-7.07167 -0.70662,-2.43298 -3.3961,-5.63173 -9.30673,-11.06903 -7.65571,-7.04262 -13.47894,-11.3264 -19.75444,-14.53205 -5.90148,-3.01458 -9.93413,-4.24025 -20.06699,-6.09904 -11.43887,-2.09838 -15.99786,-4.43243 -19.75161,-10.11221 -5.08621,-7.6959 -6.67696,-13.25467 -6.67696,-23.33213 0,-8.77394 1.95512,-22.44589 5.22352,-36.52739 0.69872,-3.01036 1.2811,-6.18094 1.29417,-7.04573 0.0216,-1.4281 -0.14056,-1.73411 -1.76729,-3.33539 -3.54818,-3.49265 -8.15919,-14.23037 -9.60178,-22.3598 -0.81812,-4.61035 -0.82872,-12.68327 -0.0226,-17.2227 1.7143,-9.65383 5.70376,-17.56637 12.34605,-24.48669 10.01723,-10.43654 24.35905,-18.75754 36.4565,-21.15174 3.9632,-0.78436 10.63957,-1.08679 12.25105,-0.55495 1.74479,0.57583 2.04375,1.70523 1.013,3.82682 -0.99945,2.05718 -0.9643,2.55231 0.21809,3.07179 0.54018,0.23733 1.10022,0.59549 1.24453,0.79592 0.44236,0.61435 0.29266,3.81099 -0.29303,6.25727 -0.80079,3.34473 -0.69839,5.27999 0.41846,7.90789 1.16435,2.73968 1.5027,6.47288 0.87727,9.67947 -0.97665,5.00733 -4.77416,13.44425 -10.88339,24.17963 -5.22293,9.17795 -6.52504,11.58765 -9.8985,18.31833 -3.53399,7.05098 -5.03887,10.68953 -4.74157,11.46429 0.45203,1.17795 11.24388,5.34845 24.0798,9.3056 17.95433,5.53508 22.80033,7.37859 28.92857,11.00495 20.90575,12.37089 37.47597,32.51836 46.3511,56.35757 3.3814,9.08268 5.16473,16.73654 5.78253,24.81798 1.06498,13.93109 0.75063,46.78963 -0.55566,58.08197 -2.22385,19.22442 -9.41264,34.49827 -22.823,48.49149 -17.37773,18.13304 -39.82511,27.89083 -64.16166,27.89083 -8.98487,0 -31.28271,-1.98598 -46.39513,-4.13221 -2.64906,-0.37622 -3.16362,0.29397 -8.87666,11.56158 -8.17539,16.12402 -12.73808,22.36099 -19.99947,27.33827 -2.6314,1.80368 -6.71592,3.69771 -9.40853,4.36286 -2.76156,0.68214 -15.29843,0.9891 -19.19923,0.47007 z m 15.8251,-1.56147 c 5.69355,-0.85818 9.46614,-2.70132 14.62724,-7.14625 3.5693,-3.07402 7.24581,-7.26034 9.80878,-11.16891 3.4521,-5.26453 10.64787,-20.80349 13.69382,-29.57122 1.05724,-3.04325 2.39249,-8.92435 2.09397,-9.22286 -0.18637,-0.18637 -9.8395,0.44033 -10.60248,0.68833 -0.33099,0.10758 -0.44643,1.53727 -0.44643,5.52851 0,3.47216 -0.19658,6.33509 -0.55369,8.06401 -1.0924,5.28864 -4.05415,12.64221 -10.46737,25.98887 l -2.89316,6.02101 -7.95361,-0.16645 c -6.35838,-0.13305 -8.66991,-0.3216 -11.52503,-0.94009 -12.43295,-2.69326 -22.12967,-7.23978 -28.73947,-13.47512 -3.3054,-3.11815 -6.14975,-6.67482 -11.36221,-14.2077 -4.8675,-7.03436 -5.86501,-7.90713 -8.97298,-7.85097 -1.64653,0.0297 -10.47367,1.56895 -12.09291,2.10864 -0.50085,0.16694 2.84312,7.13175 5.93272,12.35665 10.70582,18.10488 28.24201,30.93405 45.27084,33.1193 3.92742,0.504 10.38374,0.44675 14.18197,-0.12575 z m 13.67282,-13.17956 c 1.34032,-1.55053 7.04812,-12.60582 9.60802,-18.60954 2.2005,-5.16084 4.51123,-11.32331 4.31824,-11.5163 -0.0843,-0.0843 -0.76872,-0.29609 -1.52089,-0.47061 -12.5345,-2.9082 -62.45807,-3.77923 -68.63696,-1.19753 -1.15235,0.48148 -1.20707,0.58381 -1.02761,1.92178 0.34264,2.55459 6.50165,11.22441 11.21091,15.7812 7.178,6.94562 16.98099,11.37722 32.68542,14.77598 3.20399,0.69341 4.88691,0.85667 8.10563,0.78634 l 4.06212,-0.0888 z M 212.09563,881.91113 c 9.2641,-3.03232 25.05225,-6.71497 38.41861,-8.96129 15.09517,-2.53687 30.17198,-4.15864 68.00996,-7.31567 29.05363,-2.42411 41.3517,-3.55969 52.33294,-4.83234 30.78976,-3.56832 44.41197,-7.43098 60.59988,-17.18345 5.00496,-3.01526 7.42432,-4.93916 7.42432,-5.90389 0,-0.68326 -0.14464,-0.7347 -1.53132,-0.54463 -0.84222,0.11543 -4.09669,0.96033 -7.23214,1.87754 -12.81355,3.74832 -15.58505,4.50276 -20.87939,5.68363 -15.43358,3.44236 -29.29632,5.13916 -67.14286,8.2183 -25.99948,2.11529 -27.84765,2.29674 -51.07143,5.01421 -26.36437,3.08496 -38.00367,4.63138 -44.46428,5.90758 -16.87785,3.334 -33.43152,9.88112 -42.85625,16.95003 -4.17319,3.13006 -8.20257,7.074 -7.93626,7.76799 0.19852,0.51734 1.01076,0.20479 5.69061,-2.18975 3.5063,-1.79407 7.31145,-3.39955 10.63761,-4.48826 z m 188.21429,2.28876 c 5.2349,-0.44746 8.30213,-1.12263 14.09516,-3.10272 11.73924,-4.01252 21.56914,-9.30416 28.94055,-15.57929 1.76786,-1.50494 3.41875,-2.73857 3.66866,-2.7414 0.24991,-0.003 2.14576,-1.71508 4.21302,-3.805 3.59491,-3.63433 4.28633,-4.79796 2.99832,-5.046 -0.53774,-0.10356 -4.44576,3.43949 -6.80794,6.17215 -1.46361,1.69317 -9.32851,5.87045 -14.4292,7.66377 -4.38689,1.54236 -10.72734,3.05712 -16.36728,3.91021 -16.00369,2.42072 -37.73799,1.74076 -63.54826,-1.98813 -7.30481,-1.05535 -7.6335,-0.98882 -8.46228,1.71273 -1.51109,4.92566 -1.83809,8.63888 -0.80925,9.1895 1.89687,1.01517 20.11858,2.92101 35.61564,3.7251 5.25038,0.27242 17.14688,0.20926 20.89286,-0.11092 z m -203.30737,-5.04191 c 5.47949,-3.5892 18.76865,-9.73994 28.39182,-13.14083 5.49301,-1.94127 7.14088,-2.6631 7.74707,-3.39351 0.43244,-0.52106 0.41798,-0.68444 -0.10706,-1.20951 -0.52236,-0.52239 -1.41484,-0.60559 -6.3979,-0.59637 -5.19469,0.01 -6.15582,0.11158 -9.33606,0.99046 -6.1214,1.69169 -12.49365,5.31029 -17.61611,10.00363 -2.39641,2.19566 -8.37741,9.47867 -8.12265,9.89088 0.40036,0.6478 0.98294,0.37532 5.44089,-2.54475 z m 130.49452,-1.24816 c 0.5863,-0.53059 0.66999,-1.15706 0.66999,-5.01526 v -4.40894 l -1.33929,0.002 c -12.84399,0.0176 -64.91839,5.37873 -69.62424,7.16789 -0.9969,0.37902 -1.09128,1.60517 -0.14264,1.85324 0.37374,0.0977 1.77999,0.0339 3.125,-0.14196 1.345,-0.17582 9.36511,-0.41792 17.82248,-0.53799 17.41233,-0.24721 33.57119,0.26168 41.40869,1.30409 5.49793,0.73125 7.07372,0.68778 8.08001,-0.22291 z m 78.7057,-6.58332 c 16.80983,-1.24562 29.43012,-4.99882 37.71012,-11.21476 8.52166,-6.39737 14.21068,-14.81132 16.91634,-25.01897 1.32384,-4.99443 2.07094,-11.01556 2.39282,-19.2847 0.13284,-3.41242 -0.62549,-3.07708 -3.38593,1.49731 -3.26229,5.406 -5.38315,8.33321 -8.87679,12.25167 -10.32187,11.57702 -26.73141,21.72999 -42.41804,26.24508 -9.36006,2.69411 -27.13578,5.46301 -50.42116,7.85404 -12.01721,1.23397 -13.7776,1.61147 -13.30145,2.85231 0.29644,0.77249 15.09412,2.77607 36.56266,4.95051 2.95331,0.29913 20.24207,0.20684 24.82143,-0.13249 z m -51.07143,-20.88644 c 22.86613,-1.83033 32.13129,-2.9877 45.71429,-5.71048 18.24565,-3.65743 35.29951,-8.58752 40.74552,-11.77909 3.41075,-1.99884 6.96329,-7.27745 8.1726,-12.14344 1.33808,-5.38408 1.69711,-14.02418 0.73462,-17.67857 -1.51399,-5.74839 -8.8098,-15.89067 -15.60055,-21.68715 -2.71126,-2.31429 -3.33792,-2.10712 -4.56329,1.50858 -2.02048,5.96181 -4.65248,10.14106 -9.64953,15.32213 -4.28665,4.44451 -8.11644,7.32412 -12.74439,9.58247 l -3.61931,1.76614 -5.30926,0.35413 c -2.9201,0.19477 -8.68427,0.25364 -12.80927,0.13083 l -7.5,-0.2233 -13.39285,-4.42784 c -22.84538,-7.55298 -28.4429,-8.92321 -36.42858,-8.91744 -6.43871,0.005 -8.1627,0.56537 -11.58696,3.7686 -4.78181,4.47316 -5.28165,9.52575 -1.61485,16.32376 2.2307,4.13558 5.02491,7.56782 12.25992,15.05931 10.23095,10.59363 12.72761,14.04921 12.72761,17.61603 0,1.05544 0.10121,2.0202 0.22491,2.1439 0.1237,0.1237 0.8871,0.14678 1.69643,0.0513 0.80933,-0.0955 6.45366,-0.57243 12.54294,-1.05985 z m 104.74826,-1.85599 c 5.18814,-6.99914 9.11508,-14.5928 11.87112,-22.95559 3.8386,-11.64766 4.09491,-14.55376 4.09491,-46.42857 0,-27.70321 -0.17442,-30.8736 -2.13637,-38.83242 -6.06871,-24.61829 -21.16263,-47.82029 -40.36363,-62.04596 -5.55693,-4.11702 -9.31881,-6.43253 -14.26901,-8.78284 -5.30174,-2.51723 -8.78905,-3.77978 -21.08813,-7.63477 -16.65248,-5.21953 -24.46814,-8.05874 -30.59915,-11.11583 -1.86564,-0.93026 -3.23948,-1.96972 -4.79357,-3.62686 l -2.17843,-2.32287 -1.10302,4.41292 c -2.37075,9.48486 -2.06716,10.66065 3.75715,14.55126 5.49078,3.66781 11.52867,6.18716 23.66702,9.87519 11.29811,3.43274 15.83512,5.1801 23.30071,8.9739 8.56733,4.35369 16.09288,9.91946 23.70605,17.53263 16.6644,16.66441 26.88854,36.77227 29.91657,58.83708 0.79153,5.76784 0.91014,7.33702 1.28222,16.96428 0.31405,8.12584 0.41961,9.05571 1.47988,13.03572 1.59361,5.98206 1.60311,10.26319 0.0408,18.39285 -1.32076,6.8728 -1.63261,9.13353 -2.57809,18.68962 -0.88846,8.97968 -1.3127,10.65503 -4.35627,17.20324 -3.01725,6.49156 -3.28012,7.17897 -3.01226,7.87702 0.33921,0.88396 1.36994,0.0867 3.36148,-2.6 z m -124.22459,1.36476 c 3.04787,-0.39517 3.7592,-0.95026 3.18094,-2.48231 -0.61872,-1.63928 -4.08413,-5.86651 -10.06305,-12.27529 -14.8943,-15.96513 -17.03152,-19.51997 -16.60631,-27.62128 0.19445,-3.70472 1.63271,-6.8941 4.08061,-9.04882 3.36911,-2.96561 7.02351,-3.84434 14.45458,-3.47569 8.16564,0.40508 13.34039,1.61044 28.89385,6.73032 16.78816,5.52631 23.88603,7.27335 31.13461,7.66334 10.06986,0.54178 19.27359,-3.03863 27.22651,-10.59159 4.00952,-3.80787 6.68898,-7.5966 9.7276,-13.75474 l 2.64338,-5.35715 -4.56248,-4.47643 c -4.55173,-4.46589 -6.53506,-5.8367 -7.31552,-5.05623 -0.28442,0.28441 -0.16759,0.91069 0.426,2.2837 0.65494,1.51491 0.85006,2.74568 0.9794,6.17753 0.26752,7.0985 -0.83241,10.822 -4.3427,14.701 -2.4561,2.71408 -5.30671,4.26527 -8.85081,4.81626 -5.11809,0.79569 -14.60032,-1.20513 -33.31599,-7.02993 -27.35056,-8.51219 -28.1431,-8.68111 -35.197,-7.50161 -11.00004,1.83933 -17.85447,5.26748 -25.37886,12.69286 -7.93388,7.82948 -11.75251,15.02636 -11.74133,22.1286 0.0116,7.36276 3.24325,12.88371 16.11163,27.52502 l 4.56095,5.18933 5.64373,-0.44558 c 3.10406,-0.24507 6.84367,-0.60116 8.31026,-0.79131 z m 118.58017,-27.25669 c 1.78464,-2.36521 5.83978,-9.90338 7.74255,-14.39277 2.01238,-4.74801 2.59684,-8.78753 2.00122,-13.8316 -0.97323,-8.24211 -3.96107,-12.38459 -21.70245,-30.08929 -19.82171,-19.78072 -32.19331,-31.24119 -38.9596,-36.09035 -3.69491,-2.64801 -9.10371,-5.40405 -13.18556,-6.71865 -1.57142,-0.5061 -6.35476,-1.88761 -10.62962,-3.07004 -12.92252,-3.57433 -17.35331,-5.59381 -21.53355,-9.81459 -3.35699,-3.38954 -6.05453,-8.63089 -6.57671,-12.77859 -0.64106,-5.09204 0.5151,-25.33194 1.97437,-34.56349 1.6319,-10.32367 7.58065,-29.6803 12.37924,-40.28082 1.77218,-3.9149 1.92637,-5.06867 0.60671,-4.53973 -1.58176,0.634 -8.02634,11.00526 -12.64915,20.35626 -5.75817,11.64761 -9.56614,24.11842 -12.49365,40.9158 -4.08111,23.4164 -1.8977,36.16165 7.73923,45.17653 4.1465,3.87885 8.60133,5.68334 17.13157,6.93937 10.89426,1.60413 17.24577,4.00221 25.83728,9.75517 7.29301,4.88347 10.8531,8.08043 32.32215,29.02528 20.93948,20.42821 22.59569,22.22826 25.23357,27.42512 2.27365,4.47928 2.71809,6.95455 2.70198,15.04844 -0.01,4.8051 -0.18688,8.01538 -0.54178,9.80875 -0.29016,1.46625 -0.44503,2.88099 -0.34415,3.14389 0.34633,0.90251 1.67525,0.25992 2.94635,-1.42469 z m 8.86875,-44.03182 c 0.16357,-4.04294 -0.56968,-17.15502 -1.2081,-21.60327 -2.159,-15.04296 -10.52478,-33.26149 -21.81158,-47.5 -3.85428,-4.86225 -12.65523,-13.40362 -17.69173,-17.16992 -9.6682,-7.22988 -21.53666,-13.08142 -33.30268,-16.4193 -2.76646,-0.78481 -8.45637,-2.56382 -12.64424,-3.95335 -4.18788,-1.38953 -7.69589,-2.44484 -7.79559,-2.34514 -0.32421,0.3242 0.92563,7.70779 1.69079,9.98862 1.57174,4.68509 4.97943,10.64597 9.44034,16.51347 4.33987,5.70828 8.46405,10.13431 20.49861,21.99891 9.66269,9.52623 11.81588,11.82293 11.81588,12.60343 0,0.78618 4.38715,5.3609 24.88929,25.95339 15.18597,15.2529 25.1065,24.95755 25.44643,24.89271 0.4374,-0.0834 0.58195,-0.71946 0.67258,-2.95955 z m -64.42927,-58.26593 c 0.265,-0.69058 0.43585,-0.4865 -7.12533,-8.51138 -12.3377,-13.09433 -16.78116,-18.7953 -20.63736,-26.47776 -2.22059,-4.42393 -3.06644,-7.0928 -3.64508,-11.50119 -0.4264,-3.2485 -0.6196,-3.86751 -1.49127,-4.7781 -1.15964,-1.21141 -4.22212,-3.0384 -5.89946,-3.51945 -2.4388,-0.69944 -2.81399,0.007 -3.52274,6.62911 -1.12173,10.48119 0.93004,19.77808 6.73321,30.50938 4.14722,7.66909 6.90228,9.75444 16.33043,12.36082 12.4527,3.4425 16.05291,4.51787 17.25993,5.15546 1.62349,0.85758 1.71726,0.86383 1.99767,0.13311 z m -33.0076,-9.39648 c 0,-0.38609 -0.89792,-2.07952 -1.99537,-3.76316 -3.87542,-5.94543 -6.79224,-13.02734 -8.50758,-20.65607 -0.47875,-2.12917 -0.97636,-3.97713 -1.10581,-4.10658 -0.12945,-0.12944 -0.47877,0.0858 -0.77627,0.47837 -0.45034,0.59421 -0.51124,1.70046 -0.3637,6.60658 0.0975,3.24107 0.37348,6.77679 0.61337,7.85714 1.03475,4.66014 3.34425,8.02071 8.38536,12.20154 2.61771,2.171 3.75,2.58834 3.75,1.38218 z m -18.01244,-69.35524 3.50868,-8.62866 -0.75059,-1.99634 c -0.41282,-1.09798 -1.4054,-3.70568 -2.20572,-5.79488 -4.91012,-12.81755 -5.21437,-24.65558 -0.86018,-33.46779 1.38242,-2.79778 4.33201,-6.30422 6.35459,-7.55424 2.11897,-1.3096 6.25141,-2.48632 14.46566,-4.11912 4.41964,-0.87852 9.62117,-2.10338 11.55896,-2.72192 3.20872,-1.02421 3.71248,-1.3115 5.64305,-3.21823 1.21895,-1.20391 3.13661,-2.60615 4.51247,-3.29964 2.79075,-1.40665 3.74591,-2.33421 3.58208,-3.47855 -0.51538,-3.59974 -14.03019,-1.11648 -25.47513,4.6809 -14.16573,7.17558 -26.14347,18.68891 -30.66617,29.47714 -5.69249,13.57861 -4.12555,31.20331 3.97651,44.72682 1.32217,2.2069 2.50365,4.01493 2.62552,4.01786 0.12188,0.003 1.80049,-3.87758 3.73027,-8.62335 z m 22.2962,6.12971 c 0.36596,-0.19585 2.43685,-3.93246 4.60197,-8.30357 2.16514,-4.37111 6.52633,-12.52783 9.69155,-18.12604 6.27581,-11.09982 9.16078,-16.75826 10.59711,-20.7847 0.80871,-2.26705 0.95114,-3.33216 1.08907,-8.14388 l 0.15867,-5.53571 -2.581,3.75 c -2.93088,4.25835 -3.9784,5.64836 -6.72859,8.92857 -2.72473,3.24984 -3.4742,5.12386 -4.51347,11.28587 -0.49361,2.9267 -1.13765,6.28556 -1.43121,7.46413 -0.75846,3.04503 -3.40823,8.34812 -8.36795,16.74711 -6.06949,10.2783 -6.36766,11.02244 -4.94685,12.34612 0.87057,0.81107 1.44591,0.89914 2.4307,0.3721 z m -4.18372,-5.09033 c 0.65638,-1.03125 2.92267,-4.7358 5.0362,-8.23235 7.72108,-12.77343 10.2209,-19.08061 10.2209,-25.78778 0,-4.17496 -0.89326,-4.05795 -4.93878,0.64693 -6.87744,7.99837 -9.59505,12.98109 -13.84328,25.38151 -2.20679,6.44153 -2.09322,7.8794 0.74635,9.44991 1.20131,0.66442 1.54105,0.48613 2.77861,-1.45822 z m -10.90013,-13.03571 c 0.57511,-0.73661 2.06247,-2.86607 3.30525,-4.73215 3.81013,-5.72105 8.1811,-11.29954 13.57204,-17.32142 2.86698,-3.20253 5.21093,-6.35604 6.23827,-8.39286 0.44584,-0.88393 1.56704,-3.9375 2.49156,-6.78572 0.92453,-2.84821 2.29601,-7.05926 3.04775,-9.35788 1.76788,-5.40574 1.82408,-5.3509 -4.00276,-3.90648 -2.41326,0.59822 -6.79845,1.5818 -9.74488,2.18574 -6.95342,1.42525 -13.13061,3.07317 -14.8963,3.97397 -8.36024,4.26507 -11.31664,20.96316 -6.37562,36.01024 1.88014,5.72567 3.92544,9.66584 5.01742,9.66584 0.16589,0 0.77217,-0.60268 1.34727,-1.33928 z m 28.29313,-31.07143 c 5.68078,-6.35437 11.80247,-17.76686 11.7872,-21.97457 -0.007,-1.81889 -0.24422,-2.24147 -1.53673,-2.73289 -2.04238,-0.77651 -4.32868,1.01999 -6.28591,4.93925 -2.02265,4.05027 -7.40055,20.35361 -7.03133,21.31579 0.36304,0.94606 1.2274,0.50989 3.06677,-1.54758 z"
       id="path1058"
       inkscape:connector-curvature="0"
       transform="scale(0.26458333)" />
    <path
       style="opacity:1;fill:#ffffff;fill-opacity:1;fill-rule:nonzero;stroke:#000000;stroke-width:0.09018768;stroke-linecap:square;stroke-linejoin:miter;stroke-miterlimit:4;stroke-dasharray:none;stroke-dashoffset:0;stroke-opacity:1;paint-order:markers fill stroke"
       d="m 381.43282,598.81172 c 0,-0.0138 0.19783,-0.6525 0.43962,-1.41928 0.57832,-1.83398 1.19233,-3.805 2.08148,-6.68168 1.28721,-4.16454 1.86848,-5.87209 2.76708,-8.12857 1.28447,-3.22548 2.48308,-5.38531 3.67499,-6.62218 0.53427,-0.55442 0.95611,-0.85063 1.48002,-1.03927 0.22161,-0.0798 0.82335,-0.11309 1.07996,-0.0598 0.71702,0.14901 1.00718,0.66199 0.9659,1.70764 -0.0674,1.70819 -1.11307,4.57541 -3.13127,8.5863 -0.52674,1.04682 -0.78742,1.52876 -1.33181,2.46225 -1.66034,2.84702 -4.34295,6.74475 -6.45266,9.37547 -0.7066,0.8811 -1.57331,1.8832 -1.57331,1.81908 z"
       id="path1060"
       inkscape:connector-curvature="0"
       transform="scale(0.26458333)" />
    <path
       style="opacity:1;fill:#ffffff;fill-opacity:1;fill-rule:nonzero;stroke:#000000;stroke-width:0.265;stroke-linecap:square;stroke-linejoin:miter;stroke-miterlimit:4;stroke-dasharray:none;stroke-dashoffset:0;stroke-opacity:1;paint-order:markers fill stroke"
       d="m 28.57501,282.38306 39.379882,0.008 0,4.26025 -39.379882,-0.008 z"
       id="rect1066"
       inkscape:connector-curvature="0"
       sodipodi:nodetypes="ccccc" />
    <rect
       style="opacity:1;fill:#ababab;fill-opacity:1;fill-rule:nonzero;stroke:#000000;stroke-width:0.26499999;stroke-linecap:square;stroke-linejoin:miter;stroke-miterlimit:4;stroke-dasharray:none;stroke-dashoffset:0;stroke-opacity:1;paint-order:markers fill stroke"
       id="rect1069"
       width="1.6060486"
       height="1.445155"
       x="163.08492"
       y="61.190102" />
    <path
       style="fill:none;stroke:#000000;stroke-width:0.26458332px;stroke-linecap:butt;stroke-linejoin:miter;stroke-opacity:1"
       d="m 166.76052,60.847207 c -0.18146,0.685851 -0.18605,1.455206 0.16288,2.091076"
       id="path1071"
       inkscape:connector-curvature="0" />
    <path
       style="opacity:1;fill:#545454;fill-opacity:1;fill-rule:nonzero;stroke:#000000;stroke-width:0.08942632;stroke-linecap:square;stroke-linejoin:miter;stroke-miterlimit:4;stroke-dasharray:none;stroke-dashoffset:0;stroke-opacity:1;paint-order:markers fill stroke"
       d="m 630.99616,236.82238 c -0.56235,-1.30722 -0.76735,-3.35569 -0.51051,-5.10144 0.0831,-0.56474 0.18169,-1.05798 0.21913,-1.09611 0.0374,-0.0381 3.41991,0.21185 7.5166,0.5555 14.21585,1.19251 19.17873,1.47959 27.31461,1.58002 4.6831,0.0578 8.65487,-0.0332 12.45535,-0.28535 11.86026,-0.78696 20.12989,-3.07768 25.08929,-6.94983 0.84902,-0.66289 2.1515,-1.99231 2.80864,-2.86673 2.21425,-2.94638 2.7166,-5.13164 3.04795,-13.25893 0.11492,-2.81865 0.0713,-5.23447 -0.10794,-5.97614 -0.0822,-0.34014 -0.21766,-0.59067 -0.45339,-0.83847 l -0.33617,-0.35339 -0.5599,0.0739 c -1.04605,0.13797 -2.02798,0.0912 -2.65812,-0.12672 -2.94062,-1.01673 -6.33034,-3.72117 -8.96691,-7.15413 -1.86245,-2.42502 -3.01578,-4.85503 -3.61336,-7.61319 -0.46656,-2.15347 -0.68222,-5.29213 -0.60263,-8.77074 0.0742,-3.24523 0.23206,-4.58438 0.74092,-6.28701 0.49517,-1.65682 1.84242,-4.38688 3.11009,-6.30228 3.0144,-4.55463 7.5371,-8.16964 10.22095,-8.16964 0.70044,0 1.18937,0.24836 1.23645,0.62807 0.0855,0.68966 0.40785,1.06836 0.90933,1.06836 0.21915,0 0.82253,-0.29472 1.21486,-0.59339 0.32983,-0.2511 1.29647,-0.51143 2.40209,-0.64692 1.02901,-0.1261 3.57692,-0.12746 4.47614,-0.002 6.81845,0.94836 12.46593,7.44857 14.26704,16.42127 0.42115,2.09804 0.53022,3.27166 0.53104,5.71429 9.8e-4,2.93148 -0.21269,4.60705 -0.93257,7.31251 -0.68433,2.57184 -2.10082,5.60841 -3.50274,7.50891 -2.18083,2.95646 -7.0877,6.479 -9.91438,7.11734 -0.5287,0.1194 -0.71196,0.12416 -1.18212,0.0307 -0.48979,-0.0974 -0.5952,-0.0922 -0.88014,0.043 -0.96142,0.45622 -1.20514,1.88894 -1.57143,9.23752 -0.48038,9.63755 -2.40643,14.07924 -7.67477,17.69892 -1.92404,1.32193 -4.80577,2.85817 -6.90512,3.6811 -4.62486,1.81289 -10.58633,2.56921 -22.87167,2.90169 -3.91242,0.10588 -7.78761,0.16255 -18.83928,0.27547 -13.62318,0.13921 -20.08329,0.34581 -23.73297,0.75902 -0.62903,0.0712 -1.2356,0.15255 -1.34793,0.18074 -0.17709,0.0444 -0.22979,-0.008 -0.39643,-0.3955 z"
       id="path1089"
       inkscape:connector-curvature="0"
       transform="scale(0.26458333)" />
    <path
       style="opacity:1;fill:#ababab;fill-opacity:0.94117647;fill-rule:nonzero;stroke:#000000;stroke-width:0.35770527;stroke-linecap:square;stroke-linejoin:miter;stroke-miterlimit:4;stroke-dasharray:none;stroke-dashoffset:0;stroke-opacity:1;paint-order:markers fill stroke"
       d="m 416.73106,553.78975 c -0.6875,-0.0515 -2.69643,-0.26975 -4.46429,-0.48493 -18.03976,-2.19582 -32.68793,-14.30182 -37.53467,-31.02059 -1.38866,-4.79013 -2.24152,-10.90413 -2.81911,-20.20965 -0.74779,-12.04753 -0.91079,-12.76547 -4.82322,-21.24444 -9.42933,-20.43509 -14.70125,-39.53544 -17.1799,-62.24334 -0.5683,-5.20643 -0.79417,-10.11365 -0.93539,-20.32263 -0.47931,-34.64887 2.73094,-52.84062 14.64914,-83.0132 l 3.40289,-8.61489 0.16531,-25.31368 c 0.18367,-28.12573 0.11355,-27.2078 2.72938,-35.72734 4.05914,-13.22023 10.64469,-25.99717 18.47095,-35.83635 2.941,-3.69743 9.69966,-10.50817 13.33891,-13.4417 12.31978,-9.93073 26.8584,-16.90106 44.5389,-21.35355 9.46185,-2.38278 16.64151,-3.06189 32.3706,-3.06189 16.29474,0 26.1154,0.88919 35.56815,3.22043 28.27339,6.97278 50.94305,19.10846 72.34378,38.72754 7.12242,6.52947 11.47893,10.00594 17.5,13.96487 5.36934,3.53041 7.63841,5.30461 7.26815,5.68298 -0.49455,0.50537 -6.07804,1.25382 -11.07958,1.48518 -2.882,0.13332 -12.68557,0.0401 -21.78572,-0.20725 l -16.54571,-0.44965 -4.42626,1.1276 c -12.8902,3.28378 -26.04304,9.79442 -34.68088,17.16699 -20.5687,17.55579 -30.79621,37.10248 -34.97053,66.83524 -1.81821,12.95078 -2.46026,29.62236 -1.84785,47.98178 0.64331,19.28552 0.82264,20.64805 5.02853,38.20724 6.55788,27.37857 6.93621,30.49141 6.70711,55.18562 -0.16004,17.24966 -0.18137,17.47374 -2.46581,25.89286 -3.60033,13.26878 -6.27862,18.31018 -10.99793,20.70164 -3.53002,1.78879 -5.50657,4.04769 -10.01119,11.44122 -5.77542,9.47933 -9.93992,15.02828 -13.99273,18.64457 -9.67447,8.63236 -21.54158,13.92536 -34.9496,15.58836 -5.60323,0.69496 -7.00749,0.80814 -8.57143,0.69096 z m 7.5,-2.07864 c 3.04464,-0.2999 6.47588,-0.71115 7.62497,-0.9139 5.90691,-1.04214 15.25991,-5.2305 21.25932,-9.52017 6.26131,-4.4769 12.6785,-11.20665 16.26198,-17.05404 8.87997,-14.49 11.94004,-20.63595 14.98277,-30.09188 1.40828,-4.37652 2.84596,-10.57361 3.63985,-15.68946 0.77923,-5.02138 1.05683,-15.80427 0.54534,-21.18295 -1.1126,-11.70007 -5.31958,-25.96518 -10.9989,-37.29538 -2.50079,-4.98905 -4.37683,-8.06813 -8.83222,-14.49599 -8.73773,-12.60604 -14.56924,-27.88589 -17.85347,-46.78006 -2.81312,-16.18388 -3.35667,-35.10247 -1.43143,-49.82142 1.12914,-8.63258 2.60114,-14.41054 6.05059,-23.75 7.05358,-19.09773 17.00922,-32.45454 31.21598,-41.88039 9.35132,-6.20438 17.84328,-9.01227 32.35665,-10.69881 6.54654,-0.76074 30.82641,-0.56586 45.75457,0.36725 15.789,0.98692 27.90279,1.31852 35.59646,0.9744 5.06867,-0.22671 5.93003,-0.34504 5.58022,-0.76654 -0.22752,-0.27415 -3.72686,-2.7077 -7.7763,-5.4079 -4.04944,-2.70019 -8.0759,-5.59248 -8.94768,-6.4273 -1.57871,-1.51177 -1.5959,-1.51787 -4.28902,-1.52036 -3.6172,-0.003 -7.04359,-0.87447 -16.05888,-4.08279 -11.06437,-3.93753 -16.44582,-5.13925 -16.73663,-3.73741 -0.12857,0.61977 3.27852,2.13917 16.34154,7.28752 10.8025,4.25744 21.82963,9.95447 21.20961,10.95768 -0.46305,0.74924 -6.16162,0.0445 -11.92389,-1.47456 -18.13205,-4.78007 -15.77977,-4.33031 -24.82143,-4.74594 -10.63045,-0.48866 -22.80042,-0.47058 -28.21429,0.0419 -20.23485,1.91551 -37.56861,8.01484 -50.57653,17.79666 -6.41144,4.82134 -15.05628,13.30228 -19.2166,18.85229 -4.96176,6.61916 -12.48789,17.98791 -12.88548,19.46443 -0.22228,0.82548 -1.67509,5.10249 -3.22847,9.50446 -5.07805,14.39016 -5.85439,17.76589 -6.60183,28.70653 -1.52016,22.25127 0.19822,37.8859 5.57994,50.76883 0.60361,1.44495 1.49494,3.83254 1.98073,5.30575 0.95827,2.90609 4.43723,9.75653 7.98042,15.71429 1.22661,2.0625 3.55658,6.24107 5.1777,9.28571 1.62113,3.04464 3.79081,6.98214 4.82152,8.75 6.11262,10.48427 10.28702,20.85406 12.38608,30.7688 0.86969,4.10789 0.9721,5.33629 0.97808,11.7312 0.006,6.07593 -0.11242,7.68972 -0.79058,10.80401 -3.79582,17.43122 -13.79903,32.48738 -27.83364,41.89331 -6.77121,4.53804 -10.2403,5.76187 -16.26537,5.73816 -11.63608,-0.0458 -21.54856,-7.93204 -23.83169,-18.96019 -0.88895,-4.29385 -1.32956,-5.92474 -5.93708,-21.97529 -2.25549,-7.85714 -4.97712,-17.80984 -6.04806,-22.11711 -1.07094,-4.30726 -2.00625,-7.89047 -2.07846,-7.96268 -0.35037,-0.35038 -3.65996,6.44844 -5.86291,12.04408 -3.79629,9.64279 -7.03687,23.11913 -8.50214,35.35714 -0.74636,6.23355 -0.85157,18.62446 -0.20016,23.57143 1.00542,7.63538 3.38275,16.0819 5.66063,20.11189 6.66111,11.78468 18.17437,20.33243 30.34936,22.53211 3.73291,0.67443 7.72814,0.68071 14.40883,0.0225 z m 6.62139,-45.00188 c 9.21214,-2.37804 23.11722,-14.0116 29.75671,-24.8957 5.82693,-9.55207 8.62288,-19.37401 8.66735,-30.44767 0.0362,-9.01842 -1.0047,-14.28459 -4.89592,-24.76946 -2.90868,-7.83742 -6.58855,-15.34311 -12.72015,-25.94483 -2.61295,-4.51786 -5.30104,-9.5 -5.97353,-11.07143 -0.6725,-1.57143 -2.55141,-5.52838 -4.17536,-8.79323 -4.01366,-8.06922 -6.06131,-12.96379 -7.13397,-17.05266 -0.49632,-1.8919 -1.28884,-4.64518 -1.76117,-6.11839 -2.4789,-7.7318 -2.79008,-11.06661 -2.57505,-27.59604 0.14657,-11.26721 0.29113,-14.06001 0.94708,-18.29682 2.06477,-13.33644 5.92995,-25.28344 11.80656,-36.4932 5.202,-9.92292 10.51225,-17.09465 18.7357,-25.30344 6.10308,-6.0922 10.39861,-9.61043 16.20399,-13.27177 10.61943,-6.69747 29.18437,-12.91443 43.10351,-14.43436 7.41402,-0.80959 28.67809,-0.52757 43.83929,0.58142 2.25885,0.16523 2.41071,0.12962 2.41071,-0.56529 0,-0.60713 -1.11716,-1.2809 -6.16071,-3.71553 -10.91284,-5.26785 -15.50268,-6.85286 -28.83929,-9.95906 -17.93104,-4.17627 -28.1654,-5.58521 -40.58716,-5.58755 -11.32229,-0.002 -16.74891,0.81795 -30.66284,4.63382 -15.30197,4.19654 -17.28257,5.32314 -26.80909,15.24941 -11.24797,11.71996 -16.86549,19.02646 -25.21336,32.79412 -10.35139,17.07193 -17.92547,33.11815 -23.46737,49.71726 -6.47229,19.38584 -8.88092,35.69159 -7.9487,53.81027 1.6064,31.22169 6.29543,56.71759 17.93959,97.5439 5.99005,21.00208 11.19766,38.03362 12.23052,40 2.38272,4.53628 7.9168,8.74678 13.16733,10.01811 2.6351,0.63805 7.58052,0.62246 10.11533,-0.0319 z m 56.26401,-2.74801 c 2.97638,-2.97638 7.3855,-16.41738 9.05224,-27.59536 1.02846,-6.89736 1.37465,-13.38448 1.16263,-21.78572 -0.47832,-18.95274 -3.20385,-33.41874 -13.62602,-72.32143 -10.01956,-37.39988 -12.6847,-51.96891 -12.6915,-69.37826 -0.004,-11.36119 0.98569,-21.32106 2.8964,-29.13547 1.4654,-5.99315 4.13393,-14.17466 5.14645,-15.77859 0.45713,-0.72413 1.98711,-3.63049 3.39997,-6.45857 3.12506,-6.25534 5.20933,-9.46814 7.38445,-11.38276 1.81708,-1.59946 3.11865,-4.51659 2.62086,-5.874 -0.80472,-2.19438 -5.20295,0.1291 -11.07182,5.849 -1.81276,1.76675 -3.83511,3.5455 -4.49411,3.95279 -2.25685,1.3948 -6.01538,5.90273 -8.91495,10.69246 -1.57143,2.5958 -3.61435,5.66279 -4.53982,6.81553 -2.82383,3.5173 -4.38439,7.23862 -6.58057,15.69203 -0.68976,2.655 -1.87398,6.75584 -2.63161,9.11299 -3.0236,9.40713 -3.7513,15.3168 -3.69415,30 0.0759,19.4924 0.89773,27.98244 3.87045,39.98294 3.39287,13.69661 9.37619,27.81166 15.74486,37.14321 5.28746,7.74733 7.31154,11.07963 9.77214,16.08813 7.10245,14.45692 10.38013,29.00465 10.38013,46.07143 0,12.17348 -1.39077,21.36129 -4.85089,32.04629 -1.06415,3.28617 -1.93483,6.29158 -1.93483,6.67868 0,0.89828 1.03105,1.50034 1.83371,1.07077 0.33118,-0.17724 1.12587,-0.84598 1.76598,-1.48609 z M 372.57604,479.223 c 0.28909,-1.375 0.78638,-4.22179 1.10507,-6.32619 0.70601,-4.6619 1.92228,-8.79814 5.36225,-18.23574 4.90114,-13.44634 6.25491,-19.00069 6.25769,-25.67451 0.001,-3.69301 -0.63502,-7.71576 -1.77024,-11.18705 -0.78802,-2.40963 -2.7307,-11.9132 -4.08935,-20.00508 -5.42973,-32.33853 -4.95453,-61.3384 1.40547,-85.77146 2.7096,-10.40939 4.90336,-16.16449 11.41378,-29.94283 8.7537,-18.52591 13.1989,-26.7417 19.99975,-36.96428 9.47906,-14.24829 18.68303,-23.88415 29.82774,-31.22741 14.2089,-9.36225 33.60306,-13.64704 56.15868,-12.40723 12.62609,0.69401 21.94108,2.02862 46.69846,6.69076 17.54668,3.30427 18.78466,3.5805 25.53572,5.69775 10.30352,3.23138 12.651,3.65585 13.34637,2.4133 0.50492,-0.90223 -0.42283,-2.261 -2.97277,-4.35384 -1.18762,-0.97474 -3.8182,-3.13182 -5.84572,-4.79349 -20.9748,-17.19012 -47.38239,-28.59737 -74.88503,-32.34796 -16.48751,-2.24844 -31.44341,-1.8452 -47.14285,1.27107 -24.65156,4.89323 -47.5188,17.45964 -61.22634,33.6462 -12.09035,14.27689 -19.60339,31.26333 -22.53346,50.94656 -0.94457,6.3453 -1.30854,18.41518 -0.72157,23.92857 1.68832,15.8584 0.62114,22.41609 -7.20589,44.27925 -6.41871,17.92929 -7.6162,22.51814 -8.99539,34.47075 -1.60221,13.88539 -1.81335,17.55246 -1.79934,31.25 0.0141,13.76828 0.39939,19.74753 1.97928,30.71429 2.78849,19.35627 8.3333,37.57809 16.33958,53.69649 2.33159,4.69401 2.375,4.75214 2.80039,3.75 0.23765,-0.55986 0.66862,-2.14292 0.95772,-3.51792 z M 484.49271,366.36142 c 0.59052,-35.50794 1.7319,-47.53487 6.20214,-65.35271 2.06043,-8.21262 3.19339,-11.34566 6.58087,-18.19846 5.1601,-10.43875 9.64139,-16.79966 17.01747,-24.15527 9.9011,-9.87359 23.29872,-17.92935 36.45572,-21.92018 1.71875,-0.52133 3.125,-1.06952 3.125,-1.21819 0,-0.42218 -3.47545,-1.41192 -6.42857,-1.83074 -3.46173,-0.49094 -24.18402,0.14855 -29.68759,0.91616 -8.77014,1.22323 -13.9223,3.51214 -19.14566,8.50572 -5.48003,5.23893 -9.68336,10.93861 -14.38663,19.50811 -1.23979,2.25892 -2.78822,4.91071 -3.44096,5.89285 -1.52405,2.29316 -2.41074,5.03443 -3.33134,10.299 -0.40659,2.32516 -1.13223,5.16122 -1.61252,6.30236 -3.5707,8.4836 -3.9521,30.78454 -0.86743,50.72007 1.50081,9.69939 5.81998,28.69233 8.02625,35.29426 0.0869,0.26005 0.43974,0.41877 0.78409,0.3527 0.55626,-0.10672 0.63534,-0.67718 0.70916,-5.11568 z"
       id="path1137"
       inkscape:connector-curvature="0"
       transform="scale(0.26458333)" />
  </g>
</svg>
