<?xml version="1.0" encoding="UTF-8" standalone="no"?>
<!-- Created with Inkscape (http://www.inkscape.org/) -->

<svg
   xmlns:dc="http://purl.org/dc/elements/1.1/"
   xmlns:cc="http://creativecommons.org/ns#"
   xmlns:rdf="http://www.w3.org/1999/02/22-rdf-syntax-ns#"
   xmlns:svg="http://www.w3.org/2000/svg"
   xmlns="http://www.w3.org/2000/svg"
   xmlns:sodipodi="http://sodipodi.sourceforge.net/DTD/sodipodi-0.dtd"
   xmlns:inkscape="http://www.inkscape.org/namespaces/inkscape"
   width="768"
   height="1130.6666"
   viewBox="0 0 719.99999 1060"
   id="svg2"
   version="1.1"
   inkscape:version="0.92.4 (5da689c313, 2019-01-14)"
   sodipodi:docname="pain-pleasure.svg"
   inkscape:export-filename="C:\Users\Giltwist\Dropbox\Tarot\Majors\pain-pleasure.png"
   inkscape:export-xdpi="300"
   inkscape:export-ydpi="300">
  <defs
     id="defs4">
    <inkscape:path-effect
       effect="skeletal"
       id="path-effect5834"
       is_visible="true"
       pattern="m -2.144262,-2.6377767 c 0,-2.76 2.23999996,-5 5,-5 2.76,0 5,2.24 5,5 0,2.76 -2.24,5 -5,5 -2.76000004,0 -5,-2.24 -5,-5 z"
       copytype="single_stretched"
       prop_scale="1"
       scale_y_rel="false"
       spacing="0"
       normal_offset="0"
       tang_offset="0"
       prop_units="false"
       vertical_pattern="false"
       fuse_tolerance="0" />
    <inkscape:path-effect
       effect="powerstroke"
       id="path-effect4186"
       is_visible="true"
       offset_points="0,0.5"
       sort_points="true"
       interpolator_type="CubicBezierJohan"
       interpolator_beta="0.2"
       start_linecap_type="zerowidth"
       linejoin_type="round"
       miter_limit="4"
       end_linecap_type="zerowidth"
       cusp_linecap_type="round" />
    <inkscape:path-effect
       effect="skeletal"
       id="path-effect5834-8"
       is_visible="true"
       pattern="m -2.144262,-2.6377767 c 0,-2.76 2.23999996,-5 5,-5 2.76,0 5,2.24 5,5 0,2.76 -2.24,5 -5,5 -2.76000004,0 -5,-2.24 -5,-5 z"
       copytype="single_stretched"
       prop_scale="1"
       scale_y_rel="false"
       spacing="0"
       normal_offset="0"
       tang_offset="0"
       prop_units="false"
       vertical_pattern="false"
       fuse_tolerance="0" />
  </defs>
  <sodipodi:namedview
     id="base"
     pagecolor="#ffffff"
     bordercolor="#666666"
     borderopacity="1.0"
     inkscape:pageopacity="0.0"
     inkscape:pageshadow="2"
     inkscape:zoom="0.5"
     inkscape:cx="-194.36763"
     inkscape:cy="1193.8848"
     inkscape:document-units="px"
     inkscape:current-layer="layer1"
     showgrid="false"
     units="px"
     inkscape:window-width="2560"
     inkscape:window-height="1377"
     inkscape:window-x="-8"
     inkscape:window-y="-8"
     inkscape:window-maximized="1"
     borderlayer="true" />
  <metadata
     id="metadata7">
    <rdf:RDF>
      <cc:Work
         rdf:about="">
        <dc:format>image/svg+xml</dc:format>
        <dc:type
           rdf:resource="http://purl.org/dc/dcmitype/StillImage" />
        <dc:title></dc:title>
      </cc:Work>
    </rdf:RDF>
  </metadata>
  <g
     inkscape:label="Layer 1"
     inkscape:groupmode="layer"
     id="layer1"
     transform="translate(0,7.6377767)">
    <rect
       style="fill:#ffffff;fill-opacity:1;fill-rule:evenodd;stroke:#ffffff;stroke-width:2;stroke-linecap:round;stroke-linejoin:miter;stroke-miterlimit:4;stroke-dasharray:none;stroke-opacity:1"
       id="rect4761"
       width="1049.0566"
       height="707.54718"
       x="-141.50943"
       y="491.98486"
       ry="29.864" />
    <rect
       style="fill:#000000;fill-opacity:1;fill-rule:evenodd;stroke:#ffffff;stroke-width:2.83177328;stroke-linecap:round;stroke-linejoin:miter;stroke-miterlimit:4;stroke-dasharray:none;stroke-opacity:1"
       id="rect4700"
       width="954.71698"
       height="1236.8837"
       x="-92.452827"
       y="-72.166077"
       ry="59.869408" />
    <path
       style="fill:#ababab;fill-rule:evenodd;stroke:#000000;stroke-width:2.24595332;stroke-linecap:butt;stroke-linejoin:miter;stroke-miterlimit:4;stroke-dasharray:none;stroke-opacity:1;fill-opacity:1"
       d="m 539.39386,161.18076 c -8.20928,-5.91958 -3.27853,-19.90998 5.86553,-21.9034 14.68652,-7.77697 29.81429,-15.77288 41.49598,-27.77174 12.97989,-14.912381 16.24246,-35.50916 15.48858,-54.626141 -1.24436,-9.012325 7.58906,-14.358769 14.71851,-8.929228 8.78317,0.08653 9.47468,-12.790514 16.78323,-16.656318 6.45226,-8.478587 17.42301,-0.282782 12.7378,8.568807 -1.66995,6.376274 -7.71159,15.241965 -1.2753,20.61498 7.29138,-4.169306 18.57372,-7.849625 24.79349,0.857231 6.63438,8.54368 -4.80296,17.201328 -13.33434,15.367767 -9.23142,-1.311761 -10.33495,14.637731 0.0426,12.306638 9.3089,0.972405 18.38825,5.555149 22.51066,14.238104 5.78994,8.86961 8.95204,19.05561 13.42337,28.57907 -7.41032,8.2702 -12.42954,-7.65512 -19.84837,-8.54742 -5.71593,-2.47213 -16.75379,-11.5264 -21.02641,-5.54466 0.53524,7.95239 10.78462,13.4928 7.25739,21.97186 -4.50494,6.42219 4.75458,17.52917 -3.44783,21.84111 -6.76001,-7.00102 -10.74987,-16.23759 -18.27995,-22.58998 -7.23191,-7.47016 -14.36975,-15.28903 -22.81582,-21.36932 -9.24083,-3.78748 -18.95743,2.53925 -24.45302,9.70336 -12.7426,12.49005 -29.81082,18.94075 -46.24478,25.07606 -2.85765,1.85997 -5.15979,5.2916 -4.39137,8.81322 z"
       id="path4525"
       inkscape:connector-curvature="0" />
    <path
       style="fill:#ababab;fill-rule:evenodd;stroke:#000000;stroke-width:2.24595332;stroke-linecap:butt;stroke-linejoin:miter;stroke-miterlimit:4;stroke-dasharray:none;stroke-opacity:1;fill-opacity:1"
       d="m 508.32365,155.03106 c 18.66583,-9.82828 38.15664,-19.33193 52.77623,-34.91501 16.14682,-13.7673 25.03335,-36.43007 19.64906,-57.290686 -2.90453,-13.753606 -9.65156,-26.49166 -16.84772,-38.378995 -7.83978,-8.642683 3.9455,-17.3228495 12.49934,-17.2267744 8.41134,-3.1677525 20.01052,-0.5129193 22.86044,8.8129104 -0.004,5.996691 4.13434,19.591231 10.25445,9.410898 1.63621,-5.80833 5.82777,-18.7287172 13.56512,-11.117039 5.80791,7.388072 3.70097,17.39592 1.60799,25.744616 -1.84368,6.269749 -4.62521,12.206109 -6.82443,18.350693 7.80387,7.305352 12.30891,-7.81558 19.72254,-8.90141 10.28437,-0.08759 6.92935,13.118387 1.65397,17.606553 -7.72156,12.118893 -18.82561,21.538938 -28.43135,32.077725 -11.84009,9.663219 -25.56823,16.771399 -37.09906,26.842219 -17.39156,12.50252 -35.7805,23.83103 -55.21711,32.86238 -3.7322,1.13975 -8.80004,0.30781 -10.16947,-3.87808 z"
       id="path4495"
       inkscape:connector-curvature="0" />
    <path
       style="fill:#ababab;fill-rule:evenodd;stroke:#000000;stroke-width:2.24595332;stroke-linecap:butt;stroke-linejoin:miter;stroke-miterlimit:4;stroke-dasharray:none;stroke-opacity:1;fill-opacity:1"
       d="m 544.93725,187.02233 c 1.87,-10.4568 -0.86344,-20.92984 -1.37674,-31.37452 1.45336,-7.39316 9.90898,-9.30392 16.37515,-9.10299 9.74381,0.75986 18.485,-4.79154 26.5713,-9.49892 7.16553,-4.39877 14.20555,-9.08835 19.59151,-15.63785 7.18487,-8.02224 16.12313,-15.8599 27.47795,-16.359 9.34668,-0.64806 18.95652,2.91875 28.05968,-0.56248 7.72858,-2.34973 17.89428,-0.85165 21.69102,7.09564 4.46871,8.24081 5.37877,17.82884 9.53587,26.22319 2.51544,4.97052 3.86339,15.65216 4.86141,18.09556 -3.16258,-9.7899 -12.12988,-15.93079 -19.84997,-22.05566 -8.52699,2.0955 2.8351,11.54811 2.68281,17.05302 3.12786,7.94288 6.17018,15.92143 8.94952,23.99262 -0.43195,8.89128 -8.47167,-1.02215 -9.96495,-4.64165 -10.00044,-12.87766 -18.92724,-26.55662 -28.60818,-39.6461 -7.89933,-8.39838 -20.47008,-8.73418 -31.15785,-7.50097 -9.17547,1.14 -17.60872,5.7299 -24.00655,12.27803 -14.27219,11.16085 -30.41542,19.83856 -47.36052,26.24702 -6.15236,5.05692 -3.09822,13.56532 -3.33449,20.31409 0.20707,1.75109 -1.02903,3.45593 -0.13697,5.08097 z"
       id="path4510"
       inkscape:connector-curvature="0" />
    <g
       id="g4410"
       transform="matrix(-0.99092234,0.53138786,0.5338524,0.98634772,563.5946,-157.35284)">
      <path
         sodipodi:nodetypes="ccccccccccccccccc"
         inkscape:connector-curvature="0"
         id="path4183"
         d="m 154.71698,180.66411 c -24.93192,27.67664 -15.44393,71.08789 5.01747,98.45627 19.2543,24.76131 52.58153,26.86611 81.45881,26.28088 16.64915,-0.44171 32.59504,-6.0445 48.24402,-10.64619 26.26652,-0.22178 48.39117,19.77029 75.02319,17.19623 25.0413,3.69855 51.71064,8.39215 76.02507,-1.32165 28.67098,-1.0747 53.42246,18.09023 81.99588,18.10366 28.45362,5.93756 56.13589,-6.68935 84.14581,-8.15379 26.74225,1.72358 53.91879,10.29925 80.09255,-1.21049 56.22573,-2.35836 1.03824,-32.08226 -19.96405,-30.16061 -21.99699,-7.41564 -34.79414,2.19189 -51.22125,-17.63369 -24.98761,-20.52864 -58.54054,-25.95784 -89.93789,-22.85385 -23.08381,0.84819 -50.35311,-0.82586 -65.29805,-21.17431 -21.32547,-21.20178 -53.43128,-16.81814 -80.69228,-19.97044 -27.0833,-7.84301 -46.32864,-34.29307 -76.46808,-33.96583 -28.09479,-4.42912 -54.72777,15.74566 -82.2025,3.04345 -17.66457,-2.94381 -57.7473,-16.97364 -66.2187,4.01036 z"
         style="fill:#ffffff;fill-rule:evenodd;stroke:#000000;stroke-width:3;stroke-linecap:butt;stroke-linejoin:miter;stroke-miterlimit:4;stroke-dasharray:none;stroke-opacity:1" />
      <path
         inkscape:connector-curvature="0"
         id="path4209"
         d="m 237.73585,180.66411 c -4.10881,-1.00509 -4.76411,4.48905 -4.3375,7.37532 -0.30009,4.68657 -0.76164,9.37837 -0.36213,14.07519 0.0429,5.37555 -0.34927,10.82993 1.05761,16.08518 0.6714,3.00603 1.01173,6.08828 1.02521,9.1545 0.95874,4.40002 2.74416,8.58955 4.6981,12.62277 1.82529,3.47562 5.66217,5.29666 7.38939,8.77261 1.13695,2.20386 2.01687,4.60226 3.73818,6.44273"
         style="fill:none;fill-rule:evenodd;stroke:#000000;stroke-width:3;stroke-linecap:butt;stroke-linejoin:miter;stroke-miterlimit:4;stroke-dasharray:none;stroke-opacity:1" />
      <path
         inkscape:connector-curvature="0"
         id="path4233"
         d="m 292.45283,293.59534 c 0.22457,-7.06036 -4.63574,-12.82451 -6.01056,-19.52515 -3.22537,-9.45929 -5.0892,-19.58424 -4.09722,-29.58444 0.77311,-3.36104 3.51166,-6.41882 2.47719,-10.04633 -0.93976,-4.20608 -3.33332,-7.93504 -4.10942,-12.19824 -0.24403,-1.0449 -0.42832,-2.10485 -0.5242,-3.17399"
         style="fill:none;fill-rule:evenodd;stroke:#000000;stroke-width:3;stroke-linecap:butt;stroke-linejoin:miter;stroke-miterlimit:4;stroke-dasharray:none;stroke-opacity:1" />
      <path
         inkscape:connector-curvature="0"
         id="path4263"
         d="m 376.41509,205.91671 c 0.0519,4.29257 -0.10598,8.58766 0.0832,12.87829 -2.42922,1.74175 -1.39423,5.51371 -3.80099,7.27267 -1.54475,1.99734 -2.1336,4.52703 -3.52109,6.6179 -1.37886,4.54158 0.77411,9.314 3.79011,12.68127 1.73693,2.31104 3.82052,4.81286 3.55898,7.89651 -0.0619,2.67002 -0.36668,5.34098 -0.0796,8.00672 -1.9e-4,0.41697 -0.009,0.834 -0.0306,1.25042"
         style="fill:none;fill-rule:evenodd;stroke:#000000;stroke-width:2;stroke-linecap:butt;stroke-linejoin:miter;stroke-miterlimit:4;stroke-dasharray:none;stroke-opacity:1" />
      <path
         inkscape:connector-curvature="0"
         id="path4279"
         d="m 440.09434,309.43769 c -2.85601,-2.60326 -5.85116,-5.28428 -7.66558,-8.73752 -0.77073,-2.97308 -0.48294,-6.12517 0.0875,-9.1017 1.42678,-4.53323 5.28423,-7.57875 8.13317,-11.18093 3.73558,-5.13008 5.24779,-11.39631 7.58444,-17.18963 0.099,-0.17563 0.23092,-0.32768 0.35136,-0.48836"
         style="fill:none;fill-rule:evenodd;stroke:#000000;stroke-width:2;stroke-linecap:butt;stroke-linejoin:miter;stroke-miterlimit:4;stroke-dasharray:none;stroke-opacity:1" />
      <path
         inkscape:connector-curvature="0"
         id="path4330"
         d="m 499.0566,246.23014 c -0.26749,2.1421 -2.28629,3.69147 -2.21388,5.91884 -1.07582,3.40647 -0.31874,7.03856 -1.00909,10.50711 -0.12901,2.52364 -0.0236,5.07349 -0.62689,7.55013 -0.60255,4.00687 -0.80014,8.20493 0.51684,12.09506 0.73118,3.01911 1.8173,5.95451 3.45461,8.6037 0.7758,1.44477 1.56031,2.887 2.23708,4.38177"
         style="fill:none;fill-rule:evenodd;stroke:#000000;stroke-width:2;stroke-linecap:butt;stroke-linejoin:miter;stroke-miterlimit:4;stroke-dasharray:none;stroke-opacity:1" />
      <path
         inkscape:connector-curvature="0"
         id="path4354"
         d="m 605.18868,319.34335 c -0.62893,-0.4717 -1.25786,-0.94339 -1.88679,-1.41509 -0.43767,-0.54749 -1.32461,-0.9842 -1.04272,-1.73061 -0.76154,-0.55085 -0.96087,-1.4211 -1.17959,-2.2455 -0.37476,-1.20355 -0.025,-2.47039 -0.13753,-3.70162 2.9e-4,-3.32427 0.008,-6.64855 -0.005,-9.97281 0.90392,-0.52867 0.17016,-1.7514 0.81385,-2.44863 0.31037,-0.47405 0.75,-0.98824 0.60746,-1.59895"
         style="fill:none;fill-rule:evenodd;stroke:#000000;stroke-width:1px;stroke-linecap:butt;stroke-linejoin:miter;stroke-opacity:1" />
      <path
         inkscape:connector-curvature="0"
         id="path4364"
         d="m 625,281.6075 c -0.31447,0.62893 -0.62893,1.25786 -0.9434,1.88679 -0.75543,-0.19471 -0.23261,1.14142 -0.93152,1.10194 0.17036,0.67758 -0.53605,0.78377 -0.48938,1.35992 -0.45933,0.49807 -0.58279,1.07901 -0.4299,1.71845 -0.36044,0.64095 -0.68276,1.26302 -0.505,2.0113 -0.46047,0.6535 -0.61063,1.3524 -0.47805,2.13661 0.0105,1.9409 -6.1e-4,3.88182 0.003,5.82273 0.37749,0.22284 -0.36294,0.38284 -0.005,0.0497 0.82737,0.22969 0.21741,1.5113 0.98321,1.79704 0.0548,0.48616 -0.13419,0.9708 -0.035,1.45513"
         style="fill:none;fill-rule:evenodd;stroke:#000000;stroke-width:1px;stroke-linecap:butt;stroke-linejoin:miter;stroke-opacity:1" />
      <path
         inkscape:connector-curvature="0"
         id="path4372"
         d="m 665.56604,288.21128 c -0.31447,0.62893 -0.62893,1.25786 -0.9434,1.88679 -0.97949,0.0544 -0.81791,1.28278 -1.21224,1.90665 -0.51605,0.82832 0.0743,1.79756 -0.33637,2.62205 -0.51735,0.73191 -0.39302,1.59552 -0.33935,2.42824 0.0152,1.99251 -0.0257,3.98538 0.0107,5.97792 0.84253,0.44099 0.23066,1.51932 0.65522,2.15915 0.25737,0.307 0.63044,0.54078 0.75004,0.94368"
         style="fill:none;fill-rule:evenodd;stroke:#000000;stroke-width:1px;stroke-linecap:butt;stroke-linejoin:miter;stroke-opacity:1" />
      <path
         inkscape:connector-curvature="0"
         id="path4385"
         d="m 687.26415,317.92826 c -0.70011,0.12736 -1.4233,0.33671 -2.13422,0.15941 -0.4308,-0.47568 0.0448,-1.10832 0.41925,-1.44918 0.45558,-0.43973 0.2461,-1.05612 -0.15874,-1.41605 -0.11188,-0.51086 0.0681,-1.03545 0.0104,-1.55411 -0.0537,-0.99852 9.1e-4,-1.99898 -0.0444,-2.9982 -0.22423,-0.54493 0.32542,-0.95435 0.50022,-1.41811 0.15528,-0.41241 -0.14083,-0.83312 -0.0408,-1.25763 0.0658,-0.65745 0.88757,-0.29466 1.17102,-0.77023 0.48761,-0.25103 0.0261,-0.87907 0.46789,-1.10854 0.40748,0.0466 0.91538,0.20935 0.75245,-0.45149"
         style="fill:none;fill-rule:evenodd;stroke:#000000;stroke-width:1px;stroke-linecap:butt;stroke-linejoin:miter;stroke-opacity:1" />
    </g>
    <path
       style="fill:#fffffe;fill-opacity:1;fill-rule:evenodd;stroke:#000000;stroke-width:2.24137449;stroke-linecap:round;stroke-linejoin:miter;stroke-miterlimit:4;stroke-dasharray:none;stroke-opacity:1"
       d="m 582.44811,560.71267 c 15.64363,-10.19658 36.75367,-6.26273 47.32955,8.8198 l 60.71957,86.59379 c 10.57589,15.08251 6.49448,35.43371 -9.14913,45.6303 L 277.54235,964.95892 c -15.64361,10.19661 -36.75059,6.26327 -47.32645,-8.81924 L 218.40134,939.29062 88.528588,1023.3326 c -0.223315,0.3829 -0.427239,0.7611 -0.660061,1.1463 -18.617334,30.7918 -46.019512,32.1788 -65.283745,4.3486 l -0.436201,-0.5953 c -19.6078518,-27.6062 -8.061683,-51.60593 28.512918,-56.78841 0.457392,-0.0645 0.897406,-0.1063 1.34921,-0.1633 L 181.3096,886.39322 169.49629,869.54594 c -10.57587,-15.08254 -6.49756,-35.43427 9.14606,-45.63085 L 582.4481,560.71269 Z M 39.840396,998.34597 a 16.15106,15.571795 0 0 0 -0.889048,0.64703 16.15106,15.571795 0 0 0 -2.426503,21.8742 l 0.07617,0.092 a 16.15106,15.571795 0 0 0 22.703152,2.2154 16.15106,15.571795 0 0 0 2.340476,-21.8857 16.15106,15.571795 0 0 0 -21.804119,-2.9441 z"
       id="rect4561"
       inkscape:connector-curvature="0"
       inkscape:transform-center-x="-307.0915"
       inkscape:transform-center-y="-208.67474" />
    <path
       style="fill:none;stroke:#000000;stroke-width:0.9375px;stroke-linecap:butt;stroke-linejoin:miter;stroke-opacity:1"
       d="m 52.010709,971.28051 36.517879,52.05209"
       id="path833"
       inkscape:connector-curvature="0" />
    <path
       style="fill:none;stroke:#000000;stroke-width:0.9375px;stroke-linecap:butt;stroke-linejoin:miter;stroke-opacity:1"
       d="m 182.46546,886.91353 35.92123,51.22715"
       id="path835"
       inkscape:connector-curvature="0"
       sodipodi:nodetypes="cc" />
    <path
       style="opacity:1;fill:#ababab;fill-opacity:1;fill-rule:nonzero;stroke:#ababab;stroke-width:1.00157475;stroke-linecap:square;stroke-linejoin:miter;stroke-miterlimit:4;stroke-dasharray:none;stroke-dashoffset:0;stroke-opacity:1;paint-order:markers fill stroke"
       d="m 75.791043,1071.3494 c -10.158426,-14.4657 -18.414705,-26.3572 -18.347287,-26.4257 0.686396,-0.6965 135.246134,-88.66645 136.045114,-88.94102 0.92578,-0.31815 35.83798,48.47482 37.17203,51.95132 0.38206,0.9956 -62.88702,42.6281 -134.24728,88.3377 -2.074018,1.3286 -2.8279,0.4175 -20.622577,-24.9223 z"
       id="path837"
       inkscape:connector-curvature="0"
       transform="matrix(0.93750001,0,0,0.93750001,0,-7.6377767)" />
  </g>
</svg>
