<?xml version="1.0" encoding="UTF-8" standalone="no"?>
<!-- Created with Inkscape (http://www.inkscape.org/) -->

<svg
   xmlns:dc="http://purl.org/dc/elements/1.1/"
   xmlns:cc="http://creativecommons.org/ns#"
   xmlns:rdf="http://www.w3.org/1999/02/22-rdf-syntax-ns#"
   xmlns:svg="http://www.w3.org/2000/svg"
   xmlns="http://www.w3.org/2000/svg"
   xmlns:sodipodi="http://sodipodi.sourceforge.net/DTD/sodipodi-0.dtd"
   xmlns:inkscape="http://www.inkscape.org/namespaces/inkscape"
   width="744.09448"
   height="1052.3622"
   viewBox="0 0 744.09449 1052.3622"
   id="svg2"
   version="1.1"
   inkscape:version="0.91 r13725"
   sodipodi:docname="speaking-listening.svg">
  <defs
     id="defs4" />
  <sodipodi:namedview
     id="base"
     pagecolor="#ffffff"
     bordercolor="#666666"
     borderopacity="1.0"
     inkscape:pageopacity="0.0"
     inkscape:pageshadow="2"
     inkscape:zoom="0.49497475"
     inkscape:cx="-193.65039"
     inkscape:cy="508.79756"
     inkscape:document-units="px"
     inkscape:current-layer="layer1"
     showgrid="false"
     units="px"
     borderlayer="true"
     inkscape:window-width="1920"
     inkscape:window-height="1018"
     inkscape:window-x="-8"
     inkscape:window-y="-8"
     inkscape:window-maximized="1" />
  <metadata
     id="metadata7">
    <rdf:RDF>
      <cc:Work
         rdf:about="">
        <dc:format>image/svg+xml</dc:format>
        <dc:type
           rdf:resource="http://purl.org/dc/dcmitype/StillImage" />
        <dc:title />
      </cc:Work>
    </rdf:RDF>
  </metadata>
  <g
     inkscape:label="Layer 1"
     inkscape:groupmode="layer"
     id="layer1">
    <rect
       style="fill:#000000;fill-opacity:1;fill-rule:evenodd;stroke:none;stroke-width:3;stroke-linecap:round;stroke-linejoin:miter;stroke-miterlimit:4;stroke-dasharray:none;stroke-opacity:1"
       id="rect4254"
       width="929.5069"
       height="1197.9592"
       x="-83.144409"
       y="-48.529919"
       ry="82.221931" />
    <path
       style="fill:#ffffff;fill-opacity:1;fill-rule:evenodd;stroke:#000000;stroke-width:2.14299989;stroke-linecap:round;stroke-linejoin:miter;stroke-miterlimit:4;stroke-dasharray:none;stroke-opacity:1"
       d="M 88.500648,621.72613 C 84.59207,617.4072 75.05652,611.20863 57.843298,601.79735 44.670443,594.59514 39.760693,591.139 34.088888,585.07583 c -5.335446,-5.70362 -8.924155,-12.8512 -10.436775,-20.78679 -0.599066,-3.14286 -1.612092,-8.40228 -2.25117,-11.68761 -1.621713,-8.33679 -5.62975,-20.1025 -14.6487153,-43.0017 -12.9417229,-32.8591 -17.0709567,-47.00428 -18.5106567,-63.41043 -1.205931,-13.74225 0.962326,-28.37047 5.8818095,-39.68182 1.9208007,-4.41649 2.23634,-6.0495 2.4299222,-12.57558 0.1223593,-4.125 0.70495,-21.48215 1.2946464,-38.57143 1.86849214,-54.14852 1.34554214,-86.24088 -1.8200886,-111.69504 -1.1783485,-9.47485 -1.2754985,-12.11055 -0.5912228,-16.03995 1.017655,-5.84381 0.396905,-16.22218 -1.4598807,-24.40787 -0.7574615,-3.33928 -3.6539029,-13.29192 -6.436538,-22.11696 -2.782635,-8.82505 -5.540293,-18.37399 -6.128128,-21.21989 -2.218798,-10.74188 -0.871936,-23.04673 3.192136,-29.16315 2.6371,-3.96883 9.35979,-10.14377 13.9944721,-12.85423 2.5309586,-1.48016 4.5969914,-3.05063 4.5911843,-3.48991 C 3.1602191,112.12918 0.49998981,102.88012 -4.6333852,87.17359 -12.848527,62.037804 -13.533983,54.33989 -8.4773516,44.004511 -5.9873223,38.915072 1.3309691,31.619586 8.2979077,27.281523 12.441196,24.701646 14.727429,22.6123 17.807791,18.590616 28.915827,4.0880921 43.726978,-5.3872394 62.946963,-10.286856 c 12.222114,-3.115698 21.309085,-4.25269 52.039197,-6.511308 20.26972,-1.489795 31.66455,-2.80622 40.7007,-4.702084 12.29445,-2.579481 26.65784,-3.921746 46.44215,-4.340039 22.59142,-0.477642 34.40194,0.08564 77.85715,3.713284 16.10714,1.344624 33.66082,2.661757 39.00819,2.926961 l 9.72248,0.482189 0.47344,-2.523642 c 0.26039,-1.388003 1.31224,-3.362435 2.33742,-4.387627 4.43135,-4.43135 12.02224,-4.212396 32.86891,0.948083 7.78854,1.928012 25.73241,5.952553 39.87527,8.943425 43.49702,9.1985682 63.59214,14.93623393 80.2472,22.9126089 14.4562,6.9233071 22.66466,13.5575381 26.99264,21.8159551 1.73963,3.319471 2.0267,4.681796 2.01947,9.583804 -0.007,4.894722 -0.32452,6.380179 -2.21231,10.357143 -1.21214,2.553572 -3.71328,6.677014 -5.55809,9.163207 -3.25565,4.387507 -3.43175,4.508543 -5.99299,4.118793 -5.51081,-0.8386 -23.01609,-1.909628 -42.10933,-2.576386 -57.66036,-2.013564 -117.39307,4.436593 -175.03973,18.901436 -34.98315,8.778057 -83.48981,25.131783 -90.12092,30.383723 -3.97665,3.14956 -7.66861,9.01772 -9.07621,14.42608 -1.08168,4.15611 -1.1288,5.43702 -0.36407,9.89658 1.65315,9.64045 7.06738,19.80702 17.47868,32.82064 2.36109,2.95126 13.05013,14.05174 23.75341,24.66774 l 19.46051,19.30182 -5.67978,7.12675 c -13.87651,17.41167 -24.57352,25.78087 -38.79848,30.3554 -4.01476,1.29109 -7.21067,1.67587 -16.21891,1.95277 l -11.21892,0.34483 -0.38598,2.95117 c -0.21228,1.62314 -1.99526,23.84402 -3.96215,49.37973 -3.92404,50.94467 -4.13878,53.21429 -5.03468,53.21429 -1.02388,0 -8.45898,-10.24947 -18.65349,-25.71429 -6.02511,-9.13993 -11.69458,-16.81225 -15.08604,-20.41544 -11.30358,-12.00926 -21.60383,-14.27005 -34.43983,-7.55915 -5.461543,2.8554 -17.889622,14.27081 -24.91025,22.88052 -30.106127,36.92044 -35.57867,83.23669 -16.046579,135.80836 4.080007,10.98156 12.8444,29.28919 18.789629,39.249 l 4.028628,6.749 3.55095,24.67957 c 4.264429,29.63837 8.029836,59.09879 9.544979,74.67957 0.61125,6.28572 1.292386,12.79464 1.513629,14.46429 0.444514,3.35455 -0.201343,3.79936 -2.242208,1.54423 z"
       id="path4264"
       inkscape:connector-curvature="0" />
    <path
       style="fill:#ffffff;fill-opacity:1;fill-rule:evenodd;stroke:#000000;stroke-width:3;stroke-linecap:round;stroke-linejoin:miter;stroke-miterlimit:4;stroke-dasharray:none;stroke-opacity:1"
       d="M 7.1428572,833.07647 -14.285714,833.79075 -28.571429,1113.7908 797.85714,1119.505 771.42857,836.6479 453.57143,785.93361"
       id="path4260"
       inkscape:connector-curvature="0" />
    <path
       style="fill:#ffffff;fill-opacity:1;fill-rule:evenodd;stroke:#000000;stroke-width:3;stroke-linecap:butt;stroke-linejoin:miter;stroke-miterlimit:4;stroke-dasharray:none;stroke-opacity:1"
       d="m 451.42857,786.64789 295.71428,47.14282"
       id="path4142"
       inkscape:connector-curvature="0" />
    <path
       style="fill:#ffffff;fill-opacity:1;fill-rule:evenodd;stroke:#000000;stroke-width:4.28571415;stroke-linecap:round;stroke-linejoin:miter;stroke-miterlimit:4;stroke-dasharray:none;stroke-opacity:1"
       d="m 608.14759,1117.1822 c -72.67858,-0.5669 -245.28572,-1.813 -383.57143,-2.7691 -138.285718,-0.9562 -251.545451,-1.84 -251.6883,-1.9642 -0.142849,-0.1241 2.895795,-61.6087 6.752544,-136.63255 3.856748,-75.02382 7.027197,-137.6289 7.04544,-139.12241 0.03096,-2.53389 0.918197,-2.65732 13.26949969,-1.846 17.74765731,1.1658 30.96238431,-0.87112 43.19580431,-6.65821 l 10.003561,-4.73224 11.42501,7.73622 c 32.019585,21.68142 72.849341,35.71073 124.282151,42.70397 25.51784,3.46962 92.1252,3.49743 123.57143,0.0516 40.62571,-4.45173 92.14663,-14.02695 130,-24.16066 l 12.14286,-3.25076 -0.0516,-28.92136 c -0.0345,-19.31153 0.4476,-28.92137 1.45094,-28.92137 0.82644,0 61.92111,9.66888 135.76591,21.48641 73.84482,11.81752 139.72757,22.15744 146.40615,22.9776 23.475,2.88284 31.6354,4.41506 32.16415,6.03922 0.29359,0.9018 6.05027,61.42534 12.79262,134.49677 6.74234,73.07137 12.63687,135.58927 13.09894,138.92857 l 0.84013,6.0714 -28.3765,-0.2411 c -15.60707,-0.1326 -87.84077,-0.7049 -160.51934,-1.2718 z"
       id="path4262"
       inkscape:connector-curvature="0" />
    <path
       style="fill:#ffffff;fill-opacity:1;fill-rule:evenodd;stroke:#000000;stroke-width:3;stroke-linecap:butt;stroke-linejoin:miter;stroke-miterlimit:4;stroke-dasharray:none;stroke-opacity:1"
       d="m 502.85714,63.790754 c -108.27237,-10.76758 -210.29677,5.53942 -307.14286,44.285706 -32.40364,23.99546 7.85945,62.52428 50,101.42858 -17.02879,22.27593 -33.56748,45.12365 -72.85714,41.42857 l -8.57143,108.57143 c -24.28705,-22.8518 -39.25155,-82.99381 -77.142853,-51.42858 -87.51126464,77.31507 -22.621714,183.09376 5.714286,220 32.599567,6.07453 37.521967,-7.62036 44.285707,-20 0.55703,22.18328 -2.46333,42.57786 20,75.71429 173.27443,47.80839 359.0705,183.72536 475.71429,85.71428 7.00617,-29.22913 -12.38027,-62.85703 -27.14286,-95.71428 -7.08204,-56.48717 15.1841,-109.76646 11.42857,-182.85714 -12.16987,-38.97726 -30.69054,-80.07146 -54.28571,-122.85715 -8.867,-19.80295 -31.82566,-30.21146 -51.42857,-42.85714 11.90476,-20.37453 13.80952,-24.97567 25.71428,-55.71428 -4.35892,-30.18835 -4.38927,-57.28486 -34.28571,-105.714286 z"
       id="path4136"
       inkscape:connector-curvature="0"
       sodipodi:nodetypes="cccccccccccccccc" />
    <path
       style="fill:none;fill-opacity:1;fill-rule:evenodd;stroke:#000000;stroke-width:3;stroke-linecap:round;stroke-linejoin:miter;stroke-miterlimit:4;stroke-dasharray:none;stroke-opacity:1"
       d="m 445.47727,238.17923 c 0,0 51.51778,-33.33503 65.65992,-13.13198"
       id="path4218"
       inkscape:connector-curvature="0" />
    <path
       style="fill:none;fill-opacity:1;fill-rule:evenodd;stroke:#000000;stroke-width:3;stroke-linecap:butt;stroke-linejoin:miter;stroke-miterlimit:4;stroke-dasharray:none;stroke-opacity:1"
       d="M 77.142857,503.79075 C 89.285756,592.83868 136.3314,845.23491 2.8571429,833.79071"
       id="path4138"
       inkscape:connector-curvature="0"
       sodipodi:nodetypes="cc" />
    <path
       style="fill:none;fill-opacity:1;fill-rule:evenodd;stroke:#000000;stroke-width:3;stroke-linecap:butt;stroke-linejoin:miter;stroke-miterlimit:4;stroke-dasharray:none;stroke-opacity:1"
       d="m 468.57143,696.64789 c -36.13678,-13.22593 -9.52948,99.03628 -14.28572,148.57142 0,0 -265.71428,82.8571 -399.999996,-22.8572"
       id="path4140"
       inkscape:connector-curvature="0"
       sodipodi:nodetypes="ccc" />
    <path
       sodipodi:type="spiral"
       style="fill:none;fill-rule:evenodd;stroke:#000000;stroke-width:1.61386991;stroke-linecap:butt;stroke-linejoin:miter;stroke-miterlimit:4;stroke-dasharray:none;stroke-opacity:1"
       id="path4144"
       sodipodi:cx="104.28571"
       sodipodi:cy="622.36218"
       sodipodi:expansion="1"
       sodipodi:revolution="2.9849701"
       sodipodi:radius="48.592434"
       sodipodi:argument="-19.901722"
       sodipodi:t0="0"
       d="m 104.28571,622.36218 c 1.21376,-2.12662 3.46547,0.58692 3.53458,2.01735 0.18731,3.87635 -4.33324,5.74311 -7.56926,5.05182 -5.788494,-1.23657 -8.243781,-7.8845 -6.569061,-13.1212 2.45772,-7.68506 11.477661,-10.80125 18.673111,-8.08629 9.59041,3.61861 13.3819,15.08489 9.60354,24.22504 -4.75468,11.50194 -18.69863,15.9743 -29.776964,11.12077 -13.417348,-5.87828 -18.573496,-22.31599 -12.638012,-35.32889 6.994763,-15.33525 25.935596,-21.17693 40.880816,-14.15525 17.25484,8.10682 23.78321,29.55671 15.67248,46.43274 -9.21591,19.17562 -33.17887,26.39147 -51.984656,17.18973 C 63.015034,647.38503 55.111112,620.90618 65.405319,600.17141 76.045736,578.7393 102.22469,569.49629 124.28572,578.07647"
       transform="matrix(0.99695289,0,0,1.5404524,3.1625744,-543.44073)" />
    <path
       style="fill:none;fill-opacity:1;fill-rule:evenodd;stroke:#000000;stroke-width:3;stroke-linecap:round;stroke-linejoin:miter;stroke-miterlimit:4;stroke-dasharray:none;stroke-opacity:1"
       d="m 510.90259,224.87393 c 0,0 15.38689,29.46774 -65.42532,14.31545"
       id="path4220"
       inkscape:connector-curvature="0"
       sodipodi:nodetypes="cc" />
    <path
       style="fill:#ffffff;fill-opacity:1;fill-rule:evenodd;stroke:#000000;stroke-width:2;stroke-linecap:butt;stroke-linejoin:miter;stroke-miterlimit:4;stroke-dasharray:none;stroke-opacity:1"
       d="m 438.57142,170.93361 c -15.88062,59.18846 120.45791,138.39557 131.42857,241.42857 8.12759,41.0034 -53.9536,37.03592 -77.14285,47.14286"
       id="path4163"
       inkscape:connector-curvature="0"
       sodipodi:nodetypes="ccc" />
    <path
       style="fill:#ffffff;fill-opacity:1;fill-rule:evenodd;stroke:#ffffff;stroke-width:2;stroke-linecap:butt;stroke-linejoin:miter;stroke-miterlimit:4;stroke-dasharray:none;stroke-opacity:1"
       id="path4167"
       sodipodi:type="arc"
       sodipodi:cx="427.31619"
       sodipodi:cy="252.41295"
       sodipodi:rx="35.714287"
       sodipodi:ry="36.42857"
       sodipodi:start="0.091009496"
       sodipodi:end="0.083407016"
       sodipodi:open="true"
       d="m 462.88268,255.72372 a 35.714287,36.42857 0 0 1 -38.74474,32.97327 35.714287,36.42857 0 0 1 -32.40031,-39.45689 35.714287,36.42857 0 0 1 38.62157,-33.12325 35.714287,36.42857 0 0 1 32.54712,39.33098" />
    <path
       style="fill:none;fill-opacity:1;fill-rule:evenodd;stroke:#000000;stroke-width:3;stroke-linecap:round;stroke-linejoin:miter;stroke-miterlimit:4;stroke-dasharray:none;stroke-opacity:1"
       d="m 484.28572,220.93361 c 0.21433,0.0919 -7.83668,12.45775 6.42857,21.78571"
       id="path4222"
       inkscape:connector-curvature="0"
       sodipodi:nodetypes="cc" />
    <path
       style="fill:#000000;fill-opacity:1;fill-rule:evenodd;stroke:#000000;stroke-width:2;stroke-linecap:butt;stroke-linejoin:miter;stroke-miterlimit:4;stroke-dasharray:none;stroke-opacity:1"
       d="m 602.85714,562.36218 c 0,0 -72.85714,-22.85714 -145.71428,17.14286"
       id="path4169"
       inkscape:connector-curvature="0" />
    <path
       style="fill:#000000;fill-opacity:1;fill-rule:evenodd;stroke:#000000;stroke-width:2;stroke-linecap:butt;stroke-linejoin:miter;stroke-miterlimit:4;stroke-dasharray:none;stroke-opacity:1"
       d="m 457.5991,578.60064 c 0,0 125.76399,52.02286 145.46197,-17.17259"
       id="path4175"
       inkscape:connector-curvature="0"
       sodipodi:nodetypes="cc" />
    <path
       style="fill:#ffffff;fill-opacity:1;fill-rule:evenodd;stroke:#ffffff;stroke-width:2;stroke-linecap:butt;stroke-linejoin:miter;stroke-miterlimit:4;stroke-dasharray:none;stroke-opacity:1"
       d="m 460.62956,578.60064 c 50.77369,0.56745 106.76921,8.96765 142.43151,-13.13198"
       id="path4177"
       inkscape:connector-curvature="0"
       sodipodi:nodetypes="cc" />
    <g
       id="g4189">
      <path
         inkscape:connector-curvature="0"
         id="path4179"
         d="m 301.42857,266.6479 c 0,0 110,4.28571 111.42857,-18.57143 1.42857,-22.85714 -115.71428,7.14286 -111.42857,18.57143 z"
         style="fill:#ffffff;fill-opacity:1;fill-rule:evenodd;stroke:#000000;stroke-width:2;stroke-linecap:butt;stroke-linejoin:miter;stroke-miterlimit:4;stroke-dasharray:none;stroke-opacity:1" />
      <path
         sodipodi:nodetypes="cc"
         inkscape:connector-curvature="0"
         id="path4181"
         d="m 346.9874,246.76553 c 0,0 -8.71256,11.99556 4.9245,19.5717"
         style="fill:none;fill-opacity:1;fill-rule:evenodd;stroke:#000000;stroke-width:2;stroke-linecap:round;stroke-linejoin:miter;stroke-miterlimit:4;stroke-dasharray:none;stroke-opacity:1" />
      <path
         sodipodi:nodetypes="cc"
         inkscape:connector-curvature="0"
         id="path4183"
         d="m 388.90873,239.94699 c 0,0 9.59645,8.83884 5.55584,19.95052"
         style="fill:none;fill-opacity:1;fill-rule:evenodd;stroke:#000000;stroke-width:2;stroke-linecap:round;stroke-linejoin:miter;stroke-miterlimit:4;stroke-dasharray:none;stroke-opacity:1" />
    </g>
    <path
       style="fill:none;fill-opacity:1;fill-rule:evenodd;stroke:#000000;stroke-width:3;stroke-linecap:round;stroke-linejoin:miter;stroke-miterlimit:4;stroke-dasharray:none;stroke-opacity:1"
       d="m 282.84271,208.88481 c 0,0 87.88327,-41.41626 123.23861,-23.23351"
       id="path4185"
       inkscape:connector-curvature="0" />
    <path
       style="fill:none;fill-opacity:1;fill-rule:evenodd;stroke:#000000;stroke-width:3;stroke-linecap:round;stroke-linejoin:miter;stroke-miterlimit:4;stroke-dasharray:none;stroke-opacity:1"
       d="m 535.38085,168.47871 c 0,0 2.0203,-20.20306 -66.67007,6.06091"
       id="path4187"
       inkscape:connector-curvature="0" />
    <path
       style="fill:#ffffff;fill-opacity:1;fill-rule:evenodd;stroke:none;stroke-width:3;stroke-linecap:round;stroke-linejoin:miter;stroke-miterlimit:4;stroke-dasharray:none;stroke-opacity:1"
       d="m 215.08745,873.9672 c -56.71863,-4.27753 -99.91896,-15.90733 -135.865518,-36.57588 -9.455386,-5.43666 -21.720517,-13.70708 -22.715659,-15.31725 -0.280244,-0.45345 2.146939,-3.53929 5.39374,-6.85743 18.965934,-19.38267 30.008754,-52.82057 33.437514,-101.24956 3.021718,-42.67977 -1.014447,-100.44067 -12.553311,-179.64841 -1.403673,-9.63541 -2.552131,-17.93129 -2.552131,-18.43529 0,-2.23128 1.942395,-0.42449 6.604999,6.14389 5.777222,8.13859 6.829206,8.56575 20.847136,8.46503 7.39848,-0.0532 9.63512,-0.48903 14.35216,-2.79686 3.1854,-1.55847 6.94554,-4.44811 8.7457,-6.72099 1.73682,-2.19292 3.51567,-3.98712 3.953,-3.98712 0.43732,0 1.11321,4.65933 1.50197,10.35407 1.23228,18.05118 3.84295,27.85083 11.36988,42.67894 6.44836,12.70332 8.51296,15.05041 14.59945,16.59704 21.95768,5.57963 72.89377,24.08725 122.5816,44.54001 87.3195,35.9429 119.27726,48.13266 150.51272,57.41059 9.44493,2.80543 18.45316,5.40644 20.0183,5.78002 l 2.84569,0.67922 -2.53957,2.6514 c -8.00469,8.35717 -9.39129,29.53493 -5.20019,79.42299 2.42919,28.91551 3.72874,55.26105 3.02636,61.35306 l -0.6681,5.79466 -6.757,2.01233 c -9.97149,2.96963 -42.1339,10.60255 -57.1925,13.57315 -27.79173,5.48247 -52.73417,9.15784 -83.33759,12.28015 -14.75298,1.50516 -77.86574,2.79819 -90.40865,1.85224 z"
       id="path4258"
       inkscape:connector-curvature="0" />
    <path
       style="fill:#000000;fill-opacity:1;fill-rule:evenodd;stroke:#000000;stroke-width:1.51522887;stroke-linecap:round;stroke-linejoin:miter;stroke-miterlimit:4;stroke-dasharray:none;stroke-opacity:1"
       d="m 349.6826,263.66907 c -3.23061,-2.46955 -4.64002,-5.45702 -4.35566,-9.2325 0.12615,-1.67492 0.69731,-3.96254 1.26923,-5.0836 1.0202,-1.99976 1.12887,-2.0587 5.74921,-3.11786 10.31137,-2.36377 24.28323,-4.60264 33.20832,-5.32134 2.55081,-0.20541 2.84001,-0.11179 4.18663,1.3552 3.5338,3.84969 5.4695,10.34218 4.48244,15.03444 l -0.59995,2.85199 -6.91982,1.30147 c -8.46895,1.59283 -12.53857,2.12696 -23.58735,3.09575 -11.28574,0.98958 -10.95415,1.01139 -13.43305,-0.88355 z"
       id="path4266"
       inkscape:connector-curvature="0" />
    <path
       style="fill:#000000;fill-opacity:1;fill-rule:evenodd;stroke:#000000;stroke-width:1.51522887;stroke-linecap:round;stroke-linejoin:miter;stroke-miterlimit:4;stroke-dasharray:none;stroke-opacity:1"
       d="m 488.99793,239.55837 c -4.83896,-4.27569 -6.40795,-9.29152 -4.65238,-14.87294 0.49437,-1.57172 1.2665,-3.05443 1.71585,-3.29492 1.53636,-0.82223 9.25231,-1.67161 12.46227,-1.37186 6.55962,0.61254 11.36078,4.09218 12.05757,8.73871 0.93887,6.26082 -6.00712,11.70102 -16.14576,12.64558 -2.99771,0.27929 -3.05647,0.25935 -5.43755,-1.84457 z"
       id="path4268"
       inkscape:connector-curvature="0" />
    <path
       style="fill:none;fill-rule:evenodd;stroke:#000000;stroke-width:3;stroke-linecap:butt;stroke-linejoin:miter;stroke-miterlimit:4;stroke-dasharray:none;stroke-opacity:1"
       d="M 503.57143,63.076468 C 553.40312,6.4719192 428.88924,-11.221561 392.03488,-19.659363 360.68241,-25.445212 330.72813,-39.923389 327.3742,-20.072395 268.68837,-22.521495 210.35905,-34.369456 151.67231,-22.060182 102.67956,-12.84076 44.736965,-25.762845 13.026423,22.889301 -33.398797,48.064017 -5.0086464,77.037078 1.8577153,114.37404 c -52.6702543,27.74038 2.4577434,75.48498 -8.5990504,117.90807 8.382633,53.64252 2.814812,110.84411 1.87125,168.22775 -26.0757399,53.51488 14.0138617,103.8167 25.6046611,153.86608 2.871766,47.48757 44.919044,43.70544 70.693995,72.27196"
       id="path4224"
       inkscape:connector-curvature="0"
       sodipodi:nodetypes="cccccccccc" />
  </g>
</svg>
