<?xml version="1.0" encoding="UTF-8" standalone="no"?>
<!-- Created with Inkscape (http://www.inkscape.org/) -->

<svg
   xmlns:dc="http://purl.org/dc/elements/1.1/"
   xmlns:cc="http://creativecommons.org/ns#"
   xmlns:rdf="http://www.w3.org/1999/02/22-rdf-syntax-ns#"
   xmlns:svg="http://www.w3.org/2000/svg"
   xmlns="http://www.w3.org/2000/svg"
   xmlns:sodipodi="http://sodipodi.sourceforge.net/DTD/sodipodi-0.dtd"
   xmlns:inkscape="http://www.inkscape.org/namespaces/inkscape"
   width="720"
   height="1060"
   viewBox="0 0 719.99999 1060"
   id="svg2"
   version="1.1"
   inkscape:version="0.91 r13725"
   sodipodi:docname="truth-honesty.svg">
  <defs
     id="defs4">
    <inkscape:path-effect
       effect="powerstroke"
       id="path-effect4186"
       is_visible="true"
       offset_points="0,0.5"
       sort_points="true"
       interpolator_type="CubicBezierJohan"
       interpolator_beta="0.2"
       start_linecap_type="zerowidth"
       linejoin_type="round"
       miter_limit="4"
       end_linecap_type="zerowidth"
       cusp_linecap_type="round" />
  </defs>
  <sodipodi:namedview
     id="base"
     pagecolor="#ffffff"
     bordercolor="#666666"
     borderopacity="1.0"
     inkscape:pageopacity="0.0"
     inkscape:pageshadow="2"
     inkscape:zoom="0.35"
     inkscape:cx="1352.0294"
     inkscape:cy="900.83447"
     inkscape:document-units="px"
     inkscape:current-layer="layer1"
     showgrid="false"
     units="px"
     inkscape:window-width="1920"
     inkscape:window-height="1018"
     inkscape:window-x="-8"
     inkscape:window-y="-8"
     inkscape:window-maximized="1" />
  <metadata
     id="metadata7">
    <rdf:RDF>
      <cc:Work
         rdf:about="">
        <dc:format>image/svg+xml</dc:format>
        <dc:type
           rdf:resource="http://purl.org/dc/dcmitype/StillImage" />
        <dc:title />
      </cc:Work>
    </rdf:RDF>
  </metadata>
  <g
     inkscape:label="Layer 1"
     inkscape:groupmode="layer"
     id="layer1"
     transform="translate(0,7.6377767)">
    <rect
       style="fill:#000000;fill-opacity:1;fill-rule:evenodd;stroke:#000000;stroke-width:1.66299999;stroke-linecap:butt;stroke-linejoin:miter;stroke-miterlimit:4;stroke-dasharray:none;stroke-opacity:1"
       id="rect4746"
       width="899.03577"
       height="1361.6857"
       x="-91.409401"
       y="-142.21959" />
    <g
       id="g4729"
       transform="matrix(0.6472779,0.7622541,-0.7622541,0.6472779,485.7063,-268.20583)"
       style="fill:#ffffff">
      <path
         sodipodi:nodetypes="ccccc"
         inkscape:connector-curvature="0"
         id="rect4692"
         d="m 354.06667,366.09808 123.22219,-4.67196 82.85714,858.49598 -122.71711,0 z"
         style="fill:#ffffff;fill-opacity:1;fill-rule:evenodd;stroke:#000000;stroke-width:1.67941475;stroke-linecap:butt;stroke-linejoin:miter;stroke-miterlimit:4;stroke-dasharray:none;stroke-opacity:1" />
      <g
         transform="translate(33.787948,-147.14285)"
         id="g4634"
         style="fill:#ffffff">
        <path
           style="fill:#ffffff;fill-opacity:1;stroke:#000000;stroke-width:1.66299999;stroke-linecap:square;stroke-linejoin:miter;stroke-miterlimit:4;stroke-dasharray:none;stroke-opacity:1"
           d="m 321.66061,276.31674 c 15.50911,3.50762 26.2364,-3.93727 31.90909,-8.29465"
           id="path4780-4-5"
           inkscape:connector-curvature="0"
           sodipodi:nodetypes="cc" />
        <path
           style="fill:#ffffff;fill-opacity:1;stroke:#000000;stroke-width:1.66299999;stroke-linecap:square;stroke-linejoin:miter;stroke-miterlimit:4;stroke-dasharray:none;stroke-opacity:1"
           d="m 300.63297,324.84749 c 38.45004,-129.28421 55.64618,-135.31803 55.64618,-135.31803 11.05146,-7.07481 17.90506,3.50891 10.66522,27.24163 l -36.63674,117.14142"
           id="path4769"
           inkscape:connector-curvature="0"
           sodipodi:nodetypes="cccc" />
        <path
           style="fill:#ffffff;fill-opacity:1;stroke:#000000;stroke-width:1.66299999;stroke-linecap:square;stroke-linejoin:miter;stroke-miterlimit:4;stroke-dasharray:none;stroke-opacity:1"
           d="M 342.49477,334.39401 C 291.80681,195.7863 304.37829,182.51819 304.37829,182.51819 c 5.48156,-14.2197 18.85883,-10.2889 27.99609,15.28995 L 378.964,331.33782"
           id="path4769-0"
           inkscape:connector-curvature="0"
           sodipodi:nodetypes="cccc" />
        <path
           style="fill:#ffffff;fill-opacity:1;stroke:#000000;stroke-width:1.66299999;stroke-linecap:square;stroke-linejoin:miter;stroke-miterlimit:4;stroke-dasharray:none;stroke-opacity:1"
           d="m 417.60727,335.33275 c -13.76193,-8.08698 -25.07986,-5.13182 -32.21195,-3.26143"
           id="path4780-4-7-9"
           inkscape:connector-curvature="0"
           sodipodi:nodetypes="cc" />
        <path
           style="fill:#ffffff;fill-opacity:1;stroke:#000000;stroke-width:1.66299999;stroke-linecap:square;stroke-linejoin:miter;stroke-miterlimit:4;stroke-dasharray:none;stroke-opacity:1"
           d="M 447.38635,349.9952 C 444.8829,338.67816 429.57891,337.2978 423.93193,338.75883"
           id="path4780-4-7-3"
           inkscape:connector-curvature="0"
           sodipodi:nodetypes="cc" />
        <path
           style="fill:#ffffff;fill-rule:evenodd;stroke:#000000;stroke-width:1.66299999;stroke-linecap:round;stroke-linejoin:miter;stroke-miterlimit:4;stroke-dasharray:none;stroke-opacity:1"
           d="m 379.30061,331.7807 5.81087,0.42226"
           id="path4888"
           inkscape:connector-curvature="0" />
        <path
           style="fill:#ffffff;fill-rule:evenodd;stroke:#000000;stroke-width:1.66299999;stroke-linecap:round;stroke-linejoin:miter;stroke-miterlimit:4;stroke-dasharray:none;stroke-opacity:1"
           d="m 417.79036,335.44678 5.17829,3.56882"
           id="path4890"
           inkscape:connector-curvature="0" />
        <path
           style="fill:#ffffff;fill-opacity:1;stroke:#000000;stroke-width:1.66299999;stroke-linecap:round;stroke-linejoin:miter;stroke-miterlimit:4;stroke-dasharray:none;stroke-opacity:1"
           d="m 447.55931,350.76488 c 1.99211,37.18675 -9.35605,155.77837 -4.08742,157.15809"
           id="path4892"
           inkscape:connector-curvature="0"
           sodipodi:nodetypes="cc" />
        <path
           style="fill:#ffffff;fill-opacity:1;stroke:#000000;stroke-width:1.66299999;stroke-linecap:round;stroke-linejoin:miter;stroke-miterlimit:4;stroke-dasharray:none;stroke-opacity:1"
           d="m 300.15911,325.4231 c -9.78881,20.70286 8.10618,116.91853 12.31594,177.46154"
           id="path4894"
           inkscape:connector-curvature="0"
           sodipodi:nodetypes="cc" />
        <path
           style="fill:#ffffff;fill-opacity:1;stroke:#000000;stroke-width:1.66299999;stroke-linecap:round;stroke-linejoin:miter;stroke-miterlimit:4;stroke-dasharray:none;stroke-opacity:1"
           d="m 303.45299,412.83631 c -1.50339,5.87675 -4.06083,6.86773 -7.16166,5.08928 -18.94256,-10.54106 -30.74749,-29.80315 -45.6759,-44.35835 -15.28314,-6.88591 -20.15828,-3.36381 -30.23005,-5.03834 -21.97472,3.54549 -14.5552,10.63649 -14.5552,10.63649 26.40095,5.9429 42.21623,42.60965 50.10349,50.38341 33.85398,37.87726 51.79281,83.24308 63.81898,83.69243"
           id="path4896"
           inkscape:connector-curvature="0"
           sodipodi:nodetypes="ccccccc" />
        <path
           style="fill:#ffffff;fill-rule:evenodd;stroke:#000000;stroke-width:1.66299999;stroke-linecap:round;stroke-linejoin:miter;stroke-miterlimit:4;stroke-dasharray:none;stroke-opacity:1"
           d="m 330.35767,333.74652 11.83348,1.14827"
           id="path4888-0"
           inkscape:connector-curvature="0"
           sodipodi:nodetypes="cc" />
        <path
           transform="matrix(0.93507688,-0.35444496,0.28928133,0.95724412,0,0)"
           style="fill:#ffffff;fill-opacity:1;fill-rule:evenodd;stroke:#000000;stroke-width:1.66497326;stroke-linecap:butt;stroke-linejoin:miter;stroke-miterlimit:4;stroke-dasharray:none;stroke-opacity:1"
           d="m 258.91552,293.04687 c -0.59622,9.31314 -5.41472,11.7845 -11.94888,10.95227 -6.53415,-0.83224 -12.31657,-4.65379 -11.74519,-13.97009 0.57138,-9.3163 6.32616,-16.21414 12.86249,-15.41732 6.53633,0.79682 11.38599,8.98739 10.83946,18.30672"
           id="path4515"
           inkscape:connector-curvature="0"
           sodipodi:nodetypes="csssc" />
        <path
           style="fill:#ffffff;fill-opacity:1;fill-rule:evenodd;stroke:#000000;stroke-width:1.57591188;stroke-linecap:butt;stroke-linejoin:miter;stroke-miterlimit:4;stroke-dasharray:none;stroke-opacity:1"
           d="m 368.67738,208.36989 c -3.38786,8.58494 -8.30361,9.56446 -13.67861,6.96169 -5.37499,-2.60279 -9.17956,-7.80501 -5.81215,-16.39981 3.36742,-8.59484 10.45614,-13.47278 15.84393,-10.90269 5.38781,2.5701 7.0402,11.61774 3.69324,20.22234"
           id="path4515-8"
           inkscape:connector-curvature="0"
           sodipodi:nodetypes="csssc" />
      </g>
    </g>
    <g
       id="g4710"
       transform="matrix(0.6472779,0.7622541,-0.7622541,0.6472779,608.94491,97.469379)"
       style="fill:#ffffff">
      <g
         transform="translate(-68.302008,88.571429)"
         id="g4617"
         style="fill:#ffffff">
        <path
           style="fill:#ffffff;fill-opacity:1;stroke:#000000;stroke-width:1.66299999;stroke-linecap:square;stroke-linejoin:miter;stroke-miterlimit:4;stroke-dasharray:none;stroke-opacity:1"
           d="m 457.26397,783.67091 c -2.10864,136.10003 -17.65985,143.3811 -17.65985,143.3811 -9.62635,10.43922 -20.08498,2.64129 -19.5049,-22.4033 l 3.82191,-123.91824"
           id="path4769-9"
           inkscape:connector-curvature="0"
           sodipodi:nodetypes="cccc" />
        <path
           style="fill:#ffffff;fill-opacity:1;stroke:#000000;stroke-width:1.66299999;stroke-linecap:square;stroke-linejoin:miter;stroke-miterlimit:4;stroke-dasharray:none;stroke-opacity:1"
           d="m 414.01232,781.02163 c -2.23527,147.56818 -18.72042,155.46278 -18.72042,155.46278 -10.20447,11.31885 -21.2912,2.86385 -20.67628,-24.29106 l 4.05143,-134.35992"
           id="path4769-0-3"
           inkscape:connector-curvature="0"
           sodipodi:nodetypes="cccc" />
        <path
           style="fill:#ffffff;fill-opacity:1;stroke:#000000;stroke-width:1.66299999;stroke-linecap:square;stroke-linejoin:miter;stroke-miterlimit:4;stroke-dasharray:none;stroke-opacity:1"
           d="m 372.93269,777.28265 c -2.08814,136.08859 -17.48821,143.36905 -17.48821,143.36905 -9.53279,10.43834 -19.88978,2.64107 -19.31534,-22.40141 l 3.78476,-123.90783"
           id="path4769-1-5"
           inkscape:connector-curvature="0"
           sodipodi:nodetypes="cccc" />
        <path
           style="fill:#ffffff;fill-opacity:1;stroke:#000000;stroke-width:1.66299999;stroke-linecap:square;stroke-linejoin:miter;stroke-miterlimit:4;stroke-dasharray:none;stroke-opacity:1"
           d="m 334.71932,770.64412 c -1.81709,108.57923 -15.21813,114.38799 -15.21813,114.38799 -8.29538,8.3283 -17.30797,2.10719 -16.80809,-17.87312 l 3.29348,-98.86071"
           id="path4769-19-4"
           inkscape:connector-curvature="0"
           sodipodi:nodetypes="cccc" />
        <path
           style="fill:#ffffff;fill-rule:evenodd;stroke:#000000;stroke-width:1.66299999;stroke-linecap:round;stroke-linejoin:miter;stroke-miterlimit:4;stroke-dasharray:none;stroke-opacity:1"
           d="m 424.05406,780.5279 -10.34744,-0.22278"
           id="path4886-9"
           inkscape:connector-curvature="0" />
        <path
           style="fill:#ffffff;fill-rule:evenodd;stroke:#000000;stroke-width:1.66299999;stroke-linecap:round;stroke-linejoin:miter;stroke-miterlimit:4;stroke-dasharray:none;stroke-opacity:1"
           d="m 378.36611,777.34782 -5.81087,-0.42225"
           id="path4888-5"
           inkscape:connector-curvature="0" />
        <path
           style="fill:#ffffff;fill-rule:evenodd;stroke:#000000;stroke-width:1.66299999;stroke-linecap:round;stroke-linejoin:miter;stroke-miterlimit:4;stroke-dasharray:none;stroke-opacity:1"
           d="m 339.87636,773.68175 -5.17829,-3.56883"
           id="path4890-8"
           inkscape:connector-curvature="0" />
        <path
           style="fill:#ffffff;fill-opacity:1;stroke:#000000;stroke-width:1.66299999;stroke-linecap:round;stroke-linejoin:miter;stroke-miterlimit:4;stroke-dasharray:none;stroke-opacity:1"
           d="m 306.35741,767.47078 c -1.99211,-37.18675 13.10605,-164.88551 7.83742,-166.26523"
           id="path4892-0"
           inkscape:connector-curvature="0"
           sodipodi:nodetypes="cc" />
        <path
           style="fill:#ffffff;fill-opacity:1;stroke:#000000;stroke-width:1.66299999;stroke-linecap:round;stroke-linejoin:miter;stroke-miterlimit:4;stroke-dasharray:none;stroke-opacity:1"
           d="m 457.50761,783.70543 c 9.78881,-20.70286 -8.10618,-116.91854 -12.31594,-177.46154"
           id="path4894-1"
           inkscape:connector-curvature="0"
           sodipodi:nodetypes="cc" />
        <path
           style="fill:#ffffff;fill-opacity:1;fill-rule:evenodd;stroke:#000000;stroke-width:1.66299999;stroke-linecap:butt;stroke-linejoin:miter;stroke-miterlimit:4;stroke-dasharray:none;stroke-opacity:1"
           d="m 540.15015,725.8688 c -4.32467,-0.59077 -5.39229,-1.19227 -5.93528,0.82751 -0.54301,2.01978 2.4847,4.00409 4.53443,4.35001 8.08904,1.36512 14.57396,2.74057 15.1478,0.72547 0.57382,-2.01511 -5.52664,-4.64856 -13.63515,-5.88603"
           id="path4515-87-2"
           inkscape:connector-curvature="0"
           sodipodi:nodetypes="csssc" />
        <path
           style="fill:#ffffff;fill-opacity:1;stroke:#000000;stroke-width:1.66299999;stroke-linecap:round;stroke-linejoin:miter;stroke-miterlimit:4;stroke-dasharray:none;stroke-opacity:1"
           d="m 454.21373,696.29221 c 1.50339,-5.87675 4.06083,-6.86772 7.16166,-5.08928 18.94256,10.54106 30.74749,29.80315 45.6759,44.35836 15.28314,6.8859 20.15828,3.3638 30.23005,5.03834 21.97472,-3.5455 14.5552,-10.6365 14.5552,-10.6365 -26.40095,-5.9429 -42.21623,-42.60964 -50.10349,-50.3834 -33.85398,-37.87727 -51.79281,-83.24309 -63.81898,-83.69244"
           id="path4896-9"
           inkscape:connector-curvature="0"
           sodipodi:nodetypes="ccccccc" />
        <path
           style="fill:#ffffff;fill-opacity:1;fill-rule:evenodd;stroke:#000000;stroke-width:1.66299999;stroke-linecap:butt;stroke-linejoin:miter;stroke-miterlimit:4;stroke-dasharray:none;stroke-opacity:1"
           d="m 445.02152,916.9255 c 1.32305,-9.27919 -2.81233,-13.00243 -9.27231,-13.95552 -6.45997,-0.95309 -12.80515,1.22389 -14.15276,10.49942 -1.3476,9.27558 2.7875,17.58581 9.24235,18.57416 6.45486,0.98835 12.792,-5.71838 14.16415,-14.99019"
           id="path4515-87"
           inkscape:connector-curvature="0"
           sodipodi:nodetypes="csssc" />
        <path
           style="fill:#ffffff;fill-opacity:1;fill-rule:evenodd;stroke:#000000;stroke-width:1.66299999;stroke-linecap:butt;stroke-linejoin:miter;stroke-miterlimit:4;stroke-dasharray:none;stroke-opacity:1"
           d="m 399.91893,925.6466 c 1.32161,-9.77864 -2.80928,-13.70229 -9.26224,-14.70668 -6.45295,-1.00439 -12.79123,1.28977 -14.13738,11.06455 -1.34613,9.77484 2.78447,18.53236 9.23231,19.57391 6.44784,1.04155 12.7781,-6.02617 14.14876,-15.79703"
           id="path4515-87-3"
           inkscape:connector-curvature="0"
           sodipodi:nodetypes="csssc" />
        <path
           style="fill:#ffffff;fill-opacity:1;fill-rule:evenodd;stroke:#000000;stroke-width:1.66299999;stroke-linecap:butt;stroke-linejoin:miter;stroke-miterlimit:4;stroke-dasharray:none;stroke-opacity:1"
           d="m 360.64594,910.04993 c 1.32305,-9.27919 -2.81233,-13.00243 -9.27231,-13.95552 -6.45997,-0.95309 -12.80515,1.22389 -14.15276,10.49942 -1.3476,9.27558 2.7875,17.58581 9.24235,18.57416 6.45486,0.98835 12.792,-5.71838 14.16415,-14.99019"
           id="path4515-87-6"
           inkscape:connector-curvature="0"
           sodipodi:nodetypes="csssc" />
        <path
           style="fill:#ffffff;fill-opacity:1;fill-rule:evenodd;stroke:#000000;stroke-width:1.66299999;stroke-linecap:butt;stroke-linejoin:miter;stroke-miterlimit:4;stroke-dasharray:none;stroke-opacity:1"
           d="m 324.30228,874.7357 c 1.15117,-8.52298 -2.44698,-11.94279 -8.06773,-12.81821 -5.62074,-0.87542 -11.1416,1.12415 -12.31414,9.64377 -1.17253,8.51966 2.42537,16.15265 8.04166,17.06046 5.61629,0.9078 11.13016,-5.25236 12.32405,-13.76857"
           id="path4515-87-7"
           inkscape:connector-curvature="0"
           sodipodi:nodetypes="csssc" />
      </g>
      <path
         sodipodi:nodetypes="ccccc"
         inkscape:connector-curvature="0"
         id="rect4692-5"
         d="m 369.46708,684.81007 -123.22219,4.672 -82.8572,-858.49596 122.7171,0 z"
         style="fill:#ffffff;fill-opacity:1;fill-rule:evenodd;stroke:#000000;stroke-width:1.67941475;stroke-linecap:butt;stroke-linejoin:miter;stroke-miterlimit:4;stroke-dasharray:none;stroke-opacity:1" />
    </g>
    <path
       style="fill:#ffffff;fill-opacity:1;fill-rule:evenodd;stroke:none;stroke-width:0.59392858;stroke-linecap:butt;stroke-linejoin:miter;stroke-miterlimit:4;stroke-dasharray:none;stroke-opacity:1"
       d="m 477.39564,290.33691 c -22.64478,-24.71605 -41.43244,-45.40801 -41.75035,-45.98214 -0.42752,-0.77205 -0.57476,-1.97384 -0.56544,-4.61529 0.0205,-5.82017 1.29574,-10.95607 8.55039,-34.43697 8.33547,-26.97918 12.11515,-42.05427 14.64731,-58.42018 1.20003,-7.75609 1.24017,-7.93189 3.75086,-16.42857 3.12784,-10.58523 4.88175,-17.55462 5.97693,-23.75 0.87846,-4.96948 0.97836,-6.37593 0.97659,-13.749998 -0.002,-9.218161 -0.45462,-12.026929 -2.89635,-17.981704 -0.71904,-1.753539 -1.13263,-3.265307 -1.00411,-3.670228 0.38231,-1.204564 1.79229,-1.857447 3.44177,-1.593682 3.58177,0.572746 11.11454,5.605832 13.30454,8.889553 0.68083,1.020832 2.66843,3.570736 4.4169,5.666454 5.13961,6.160318 7.06476,9.497025 9.16982,15.893285 l 0.96032,2.91796 -0.58337,5.11775 c -0.32086,2.81477 -1.29836,9.88602 -2.17222,15.7139 -0.87387,5.82787 -1.84416,12.81894 -2.15621,15.53571 -0.78197,6.80802 -0.77487,18.38992 0.0144,23.49392 0.71099,4.59775 1.17691,5.86157 2.56441,6.95596 0.86714,0.68396 1.35617,0.78753 3.16828,0.67103 2.48195,-0.15957 4.99818,-1.24489 5.00384,-2.1583 0.002,-0.34091 2.57195,-3.39448 5.71075,-6.78572 8.73383,-9.43625 33.00675,-33.5941 38.15812,-37.97724 8.61118,-7.32699 14.82411,-11.59202 18.67211,-12.81797 1.15392,-0.36763 7.08018,-2.79782 13.16946,-5.40042 20.63422,-8.81918 42.62762,-17.81883 42.89424,-17.552212 0.0801,0.08012 -1.80731,3.265268 -4.1943,7.0781 -2.38699,3.812836 -7.55379,12.316352 -11.48177,18.896712 -3.92798,6.58036 -7.72147,12.90335 -8.42998,14.05109 l -1.28818,2.08681 -6.96428,2.94079 c -3.83036,1.61744 -7.72768,3.23146 -8.66072,3.58672 -1.85667,0.70693 -2.10356,1.31795 -1.00618,2.49014 0.37964,0.40552 2.0282,2.66588 3.66348,5.02302 1.94921,2.80966 3.22726,4.32217 3.71081,4.39155 0.62052,0.089 1.49548,-1.21472 5.51266,-8.21428 28.47569,-49.61632 52.74647,-86.327272 69.81915,-105.605474 3.03708,-3.429422 4.15276,-4.366411 3.5513,-2.98251 -0.1494,0.34375 -0.34173,1.669643 -0.4274,2.946429 -0.23463,3.496857 0.79776,5.917376 3.79597,8.899964 1.36976,1.362619 3.26272,2.800219 4.50521,3.421465 1.85264,0.926318 2.52982,1.070276 5,1.062921 3.14658,-0.0094 4.22269,-0.411418 6.89458,-2.575917 0.84558,-0.685012 1.62764,-1.155263 1.7379,-1.045002 0.37474,0.374743 -3.3445,6.811121 -39.30505,68.019684 -33.16054,56.44268 -35.90659,61.23838 -35.49155,61.98253 1.40971,2.52759 3.52068,4.90102 5.61997,6.31871 1.28143,0.86537 4.01737,3.26559 6.07987,5.33381 6.3499,6.36752 9.25673,12.55298 10.34791,22.01935 0.51892,4.50183 0.51895,4.50193 1.81165,5.26554 2.81972,1.66565 7.1926,8.61067 8.20618,13.03308 0.64296,2.80533 0.2848,6.40694 -0.87234,8.77203 -2.20602,4.50895 -18.04811,17.29876 -73.2434,59.13167 -30.39077,23.03338 -42.72914,32.85115 -48.11859,38.28848 -1.51878,1.53228 -2.82041,2.78597 -2.8925,2.78597 -0.0721,0 -18.65861,-20.22223 -41.30338,-44.93828 z"
       id="path4752"
       inkscape:connector-curvature="0"
       transform="translate(0,-7.6377767)" />
    <path
       style="fill:#ffffff;fill-opacity:1;fill-rule:evenodd;stroke:none;stroke-width:0.59392858;stroke-linecap:butt;stroke-linejoin:miter;stroke-miterlimit:4;stroke-dasharray:none;stroke-opacity:1"
       d="m 675.06725,45.910183 c -1.72574,-0.612137 -4.73255,-2.739042 -6.05296,-4.281638 -2.00622,-2.34382 -2.51902,-3.71271 -2.51383,-6.710497 0.004,-2.33882 0.15177,-2.950373 1.16464,-4.821429 1.57501,-2.909497 3.62809,-5.227605 6.35049,-7.17027 7.31014,-5.216406 15.11502,-3.493454 16.60105,3.664736 1.33991,6.454301 -3.30153,15.98137 -9.26907,19.02578 -1.57602,0.804026 -4.4607,0.938753 -6.28032,0.293318 z"
       id="path4754"
       inkscape:connector-curvature="0"
       transform="translate(0,-7.6377767)" />
    <path
       style="fill:#ffffff;fill-opacity:1;fill-rule:evenodd;stroke:none;stroke-width:0.59392858;stroke-linecap:butt;stroke-linejoin:miter;stroke-miterlimit:4;stroke-dasharray:none;stroke-opacity:1"
       d="m 690.41775,85.491773 c -3.79426,-1.653264 -5.88815,-8.95115 -3.86072,-13.45582 2.0002,-4.444156 8.14203,-7.475048 15.14749,-7.475048 4.8004,0 8.21221,1.540474 9.64889,4.356588 2.81213,5.512237 -3.7656,13.718962 -13.22598,16.501444 -2.32922,0.685067 -6.22024,0.721827 -7.70968,0.07284 z"
       id="path4756"
       inkscape:connector-curvature="0"
       transform="translate(0,-7.6377767)" />
    <path
       style="fill:#ffffff;fill-opacity:1;fill-rule:evenodd;stroke:none;stroke-width:0.59392858;stroke-linecap:butt;stroke-linejoin:miter;stroke-miterlimit:4;stroke-dasharray:none;stroke-opacity:1"
       d="m 653.84147,104.54372 c 0.3069,-0.48162 5.09908,-8.619191 10.64929,-18.083491 l 10.09129,-17.20782 5.95689,-1.437695 c 3.27628,-0.790732 6.68009,-1.54764 7.56402,-1.682018 l 1.60715,-0.244322 -1.61918,1.441477 c -0.89055,0.792813 -2.09591,2.302168 -2.67857,3.354123 -0.98573,1.779649 -1.0594,2.173403 -1.0594,5.662645 0,3.388589 0.10034,3.967304 1.04106,6.004742 1.61029,3.487606 4.33253,5.39769 7.75038,5.438129 l 1.20856,0.0143 -0.94475,0.513232 c -0.71265,0.387142 -36.70125,15.740368 -39.58999,16.889628 -0.46306,0.18422 -0.45995,0.0954 0.0232,-0.66293 z"
       id="path4758"
       inkscape:connector-curvature="0"
       transform="translate(0,-7.6377767)" />
    <path
       style="fill:#ffffff;fill-opacity:1;fill-rule:evenodd;stroke:none;stroke-width:1.66299999;stroke-linecap:butt;stroke-linejoin:miter;stroke-miterlimit:4;stroke-dasharray:none;stroke-opacity:1"
       d="m 93.196617,1037.0268 c 2.093849,-5.0113 -1.069282,-12.4582 -6.696741,-15.7661 -2.030326,-1.1934 -2.969853,-1.4181 -5.829671,-1.3944 -1.875096,0.016 -3.409265,-0.1398 -3.409265,-0.3453 0,-0.2725 94.8626,-76.25985 99.91852,-80.03728 0.61523,-0.45966 0.15536,-1.28405 -2.74388,-4.91884 -1.91564,-2.40164 -3.75539,-4.36917 -4.08832,-4.37228 -0.33292,-0.003 -1.24206,0.59033 -2.0203,1.31875 -2.36285,2.21161 -30.58414,24.74321 -40.81093,32.58304 -21.23066,16.27538 -41.626407,30.53535 -56.063467,39.19761 -7.671068,4.6026 -14.851167,8.4292 -15.186737,8.0936 -0.100905,-0.1009 0.376957,-1.2904 1.061915,-2.6434 2.207383,-4.3601 1.354935,-8.9294 -2.556393,-13.70266 -0.959076,-1.17042 -2.726987,-2.60401 -3.928692,-3.18574 -2.384042,-1.1541 -6.443327,-1.40473 -8.721685,-0.5385 -2.169011,0.82466 -2.153331,0.0333 0.03717,-1.87589 1.111168,-0.96847 25.94198,-20.86452 55.179582,-44.21344 29.237598,-23.34892 53.159278,-42.71615 53.159278,-43.03829 0,-0.67266 -3.62269,-5.80353 -4.11346,-5.82597 -0.17897,-0.008 -1.08811,0.70193 -2.02031,1.57803 -2.26792,2.13143 -26.37695,21.39377 -36.79771,29.40017 -24.183121,18.58021 -48.837279,35.28556 -61.53502,41.69536 -3.267524,1.64944 -3.534495,1.59705 -2.357132,-0.46253 0.397001,-0.69448 0.729873,-2.45841 0.739717,-3.91985 0.04928,-7.3155 -7.550323,-14.61508 -14.121766,-13.56426 -1.112527,0.1779 -2.02277,0.15031 -2.022762,-0.0613 8e-6,-0.21163 0.849676,-1.06663 1.888152,-1.90001 1.038475,-0.83337 23.482795,-18.75563 49.876267,-39.82724 l 47.988134,-38.31202 -0.10673,-3.56452 c -0.0587,-1.96049 -0.31704,-3.77483 -0.57409,-4.03187 -0.28642,-0.28643 -4.84018,3.03619 -11.76256,8.58246 -19.472455,15.6015 -35.664821,27.59942 -49.428468,36.62458 -7.473216,4.90037 -19.732007,12.12613 -20.043686,11.81445 -0.09494,-0.0949 0.171286,-0.99572 0.59162,-2.00172 1.080163,-2.58519 0.942043,-5.24746 -0.424124,-8.17499 -2.189645,-4.69214 -6.847589,-7.73366 -10.99235,-7.17773 -1.078779,0.14469 -1.961417,0.10158 -1.961417,-0.0958 0,-0.33833 71.635135,-57.37989 76.812645,-61.16429 1.33018,-0.97228 5.10391,-4.04939 8.38606,-6.83805 11.28274,-9.58626 24.00633,-19.16347 65.06149,-48.97265 40.38172,-29.32021 50.48116,-36.94377 56.46037,-42.61909 2.87112,-2.72519 2.9384,-2.75663 3.8429,-1.79573 1.10088,1.16953 78.14623,85.36886 81.01744,88.54025 l 1.99568,2.20432 -0.25904,5.11928 c -0.30488,6.02515 -1.50556,10.85373 -7.61546,30.62563 -9.29251,30.07102 -13.08774,45.26412 -15.70878,62.88555 -0.41348,2.77987 -2.24543,10.27054 -4.07099,16.64593 -7.82597,27.33055 -8.53246,40.14385 -2.99953,54.40076 0.78983,2.0352 0.81868,2.477 0.20969,3.2107 -1.83541,2.2116 -9.1874,-0.8264 -14.11074,-5.83072 -3.30196,-3.3563 -9.95168,-11.71122 -11.91193,-14.96654 -0.92399,-1.53443 -2.39607,-4.75918 -3.2713,-7.16611 -1.88165,-5.17463 -1.96277,-3.61005 1.36619,-26.34706 2.1077,-14.39571 2.33436,-16.84726 2.38155,-25.75889 0.0639,-12.07443 -0.62072,-16.66047 -2.81476,-18.85451 -1.34177,-1.34177 -1.6953,-1.44897 -3.81876,-1.15792 -2.47321,0.339 -4.67856,1.47655 -4.67856,2.41328 0,1.20567 -27.19623,29.37694 -37.88072,39.23882 -10.958,10.11435 -20.80788,17.36558 -24.72532,18.20215 -0.81476,0.17399 -5.32713,3.45704 -10.2118,7.42976 -32.60323,26.51637 -62.81743,48.58764 -82.07446,59.95484 -5.278746,3.1159 -11.448207,6.4157 -11.99523,6.4157 -0.132643,0 0.08816,-0.7882 0.490677,-1.7515 z"
       id="path4760"
       inkscape:connector-curvature="0"
       transform="translate(0,-7.6377767)" />
    <path
       style="fill:#ffffff;fill-opacity:1;fill-rule:evenodd;stroke:none;stroke-width:1.66299999;stroke-linecap:butt;stroke-linejoin:miter;stroke-miterlimit:4;stroke-dasharray:none;stroke-opacity:1"
       d="m 25.299449,925.31483 c -5.316754,-2.71934 -4.574412,-9.90034 1.626199,-15.73093 4.57315,-4.30025 9.361503,-5.75383 12.909755,-3.91896 2.044182,1.05709 4.335134,3.85575 5.366108,6.55532 0.76018,1.9905 0.80311,2.64805 0.285644,4.37519 -1.381155,4.60989 -8.389593,9.04879 -14.83473,9.39581 -2.757481,0.14847 -4.062622,-0.0164 -5.352976,-0.67643 z"
       id="path4762"
       inkscape:connector-curvature="0"
       transform="translate(0,-7.6377767)" />
    <path
       style="fill:#ffffff;fill-opacity:1;fill-rule:evenodd;stroke:none;stroke-width:1.66299999;stroke-linecap:butt;stroke-linejoin:miter;stroke-miterlimit:4;stroke-dasharray:none;stroke-opacity:1"
       d="m 20.198877,975.55263 c -2.868058,-1.48587 -4.155221,-3.66821 -4.129403,-7.00126 0.05585,-7.21033 8.34283,-15.636 15.378632,-15.636 1.361882,0 3.255148,0.36966 4.207258,0.82147 3.519251,1.66999 7.26039,7.41946 7.26039,11.15792 0,3.26252 -3.927476,7.63295 -9.072548,10.09578 -4.082146,1.95402 -10.451134,2.2164 -13.644329,0.56209 z"
       id="path4764"
       inkscape:connector-curvature="0"
       transform="translate(0,-7.6377767)" />
    <path
       style="fill:#ffffff;fill-opacity:1;fill-rule:evenodd;stroke:none;stroke-width:1.66299999;stroke-linecap:butt;stroke-linejoin:miter;stroke-miterlimit:4;stroke-dasharray:none;stroke-opacity:1"
       d="m 36.854839,1017.1956 c -4.191731,-0.6368 -7.236954,-3.1172 -7.851991,-6.3956 -0.799314,-4.2607 2.613009,-10.5036 7.971579,-14.58414 7.197856,-5.48114 13.929045,-4.76513 17.83329,1.89696 2.900693,4.94968 2.596737,8.44868 -1.074909,12.37398 -4.022414,4.3003 -11.960882,7.4557 -16.877969,6.7088 z"
       id="path4766"
       inkscape:connector-curvature="0"
       transform="translate(0,-7.6377767)" />
    <path
       style="fill:#ffffff;fill-opacity:1;fill-rule:evenodd;stroke:none;stroke-width:1.66299999;stroke-linecap:butt;stroke-linejoin:miter;stroke-miterlimit:4;stroke-dasharray:none;stroke-opacity:1"
       d="m 71.555518,1045.1543 c -8.588411,-2.3959 -8.145969,-13.2221 0.816905,-19.9892 5.265519,-3.9755 9.780397,-4.6032 13.793342,-1.9179 4.217203,2.8221 6.768269,8.2993 5.687907,12.212 -1.744975,6.3198 -13.046796,11.7179 -20.298154,9.6951 z"
       id="path4768"
       inkscape:connector-curvature="0"
       transform="translate(0,-7.6377767)" />
  </g>
</svg>
