<?xml version="1.0" encoding="UTF-8" standalone="no"?>
<!-- Created with Inkscape (http://www.inkscape.org/) -->

<svg
   xmlns:dc="http://purl.org/dc/elements/1.1/"
   xmlns:cc="http://creativecommons.org/ns#"
   xmlns:rdf="http://www.w3.org/1999/02/22-rdf-syntax-ns#"
   xmlns:svg="http://www.w3.org/2000/svg"
   xmlns="http://www.w3.org/2000/svg"
   xmlns:sodipodi="http://sodipodi.sourceforge.net/DTD/sodipodi-0.dtd"
   xmlns:inkscape="http://www.inkscape.org/namespaces/inkscape"
   sodipodi:docname="like_past-future.svg"
   inkscape:version="0.92.4 (5da689c313, 2019-01-14)"
   version="1.1"
   id="svg2"
   viewBox="0 0 719.99999 1060"
   height="11.777778in"
   width="8in"
   inkscape:export-filename="C:\Users\Giltwist\Dropbox\Tarot\Minors\export\like-past_future.png"
   inkscape:export-xdpi="300"
   inkscape:export-ydpi="300">
  <sodipodi:namedview
     inkscape:window-maximized="1"
     inkscape:window-y="-8"
     inkscape:window-x="-8"
     inkscape:window-height="1377"
     inkscape:window-width="2560"
     units="in"
     showgrid="false"
     inkscape:current-layer="layer1"
     inkscape:document-units="px"
     inkscape:cy="592.60754"
     inkscape:cx="-392.18818"
     inkscape:zoom="0.7"
     inkscape:pageshadow="2"
     inkscape:pageopacity="0"
     borderopacity="1.0"
     bordercolor="#666666"
     pagecolor="#000000"
     id="base"
     showguides="true"
     inkscape:guide-bbox="true">
    <sodipodi:guide
       position="359.10924,747.00782"
       orientation="1,0"
       id="guide4140"
       inkscape:locked="false" />
    <sodipodi:guide
       position="-77.781746,526.28949"
       orientation="0,1"
       id="guide4149"
       inkscape:locked="false" />
  </sodipodi:namedview>
  <defs
     id="defs4">
    <inkscape:path-effect
       effect="powerstroke"
       id="path-effect4186"
       is_visible="true"
       offset_points="0,0.5"
       sort_points="true"
       interpolator_type="CubicBezierJohan"
       interpolator_beta="0.2"
       start_linecap_type="zerowidth"
       linejoin_type="round"
       miter_limit="4"
       end_linecap_type="zerowidth"
       cusp_linecap_type="round" />
    <inkscape:path-effect
       effect="skeletal"
       id="path-effect5834-8"
       is_visible="true"
       pattern="m -2.144262,-2.6377767 c 0,-2.76 2.23999996,-5 5,-5 2.76,0 5,2.24 5,5 0,2.76 -2.24,5 -5,5 -2.76000004,0 -5,-2.24 -5,-5 z"
       copytype="single_stretched"
       prop_scale="1"
       scale_y_rel="false"
       spacing="0"
       normal_offset="0"
       tang_offset="0"
       prop_units="false"
       vertical_pattern="false"
       fuse_tolerance="0" />
    <inkscape:path-effect
       effect="skeletal"
       id="path-effect5834-8-0"
       is_visible="true"
       pattern="m -2.144262,-2.6377767 c 0,-2.76 2.23999996,-5 5,-5 2.76,0 5,2.24 5,5 0,2.76 -2.24,5 -5,5 -2.76000004,0 -5,-2.24 -5,-5 z"
       copytype="single_stretched"
       prop_scale="1"
       scale_y_rel="false"
       spacing="0"
       normal_offset="0"
       tang_offset="0"
       prop_units="false"
       vertical_pattern="false"
       fuse_tolerance="0" />
    <inkscape:path-effect
       effect="skeletal"
       id="path-effect5834-8-3"
       is_visible="true"
       pattern="m -2.144262,-2.6377767 c 0,-2.76 2.23999996,-5 5,-5 2.76,0 5,2.24 5,5 0,2.76 -2.24,5 -5,5 -2.76000004,0 -5,-2.24 -5,-5 z"
       copytype="single_stretched"
       prop_scale="1"
       scale_y_rel="false"
       spacing="0"
       normal_offset="0"
       tang_offset="0"
       prop_units="false"
       vertical_pattern="false"
       fuse_tolerance="0" />
    <inkscape:path-effect
       effect="skeletal"
       id="path-effect5834-8-2"
       is_visible="true"
       pattern="m -2.144262,-2.6377767 c 0,-2.76 2.23999996,-5 5,-5 2.76,0 5,2.24 5,5 0,2.76 -2.24,5 -5,5 -2.76000004,0 -5,-2.24 -5,-5 z"
       copytype="single_stretched"
       prop_scale="1"
       scale_y_rel="false"
       spacing="0"
       normal_offset="0"
       tang_offset="0"
       prop_units="false"
       vertical_pattern="false"
       fuse_tolerance="0" />
    <inkscape:path-effect
       effect="skeletal"
       id="path-effect5834-8-4"
       is_visible="true"
       pattern="m -2.144262,-2.6377767 c 0,-2.76 2.23999996,-5 5,-5 2.76,0 5,2.24 5,5 0,2.76 -2.24,5 -5,5 -2.76000004,0 -5,-2.24 -5,-5 z"
       copytype="single_stretched"
       prop_scale="1"
       scale_y_rel="false"
       spacing="0"
       normal_offset="0"
       tang_offset="0"
       prop_units="false"
       vertical_pattern="false"
       fuse_tolerance="0" />
  </defs>
  <metadata
     id="metadata7">
    <rdf:RDF>
      <cc:Work
         rdf:about="">
        <dc:format>image/svg+xml</dc:format>
        <dc:type
           rdf:resource="http://purl.org/dc/dcmitype/StillImage" />
        <dc:title></dc:title>
      </cc:Work>
    </rdf:RDF>
  </metadata>
  <g
     inkscape:label="Layer 1"
     inkscape:groupmode="layer"
     id="layer1"
     transform="translate(0,7.6377767)">
    <ellipse
       style="opacity:1;fill:#808080;fill-opacity:1;fill-rule:evenodd;stroke:#000000;stroke-width:4.6875;stroke-linecap:butt;stroke-linejoin:miter;stroke-miterlimit:4;stroke-dasharray:none;stroke-dashoffset:0;stroke-opacity:1;paint-order:markers stroke fill"
       id="path3015"
       cx="360"
       cy="522.36224"
       r="154.19852" />
    <g
       id="g1076"
       transform="translate(4.455951e-6,-1.4179518e-5)">
      <path
         sodipodi:nodetypes="sssss"
         inkscape:connector-curvature="0"
         id="path5728-1-5"
         d="M 290.04095,597.74351 C 413.50186,476.92074 579.47037,443.45032 660.74196,522.98527 742.01356,602.52024 704.31942,768.36055 580.85849,889.18333 457.39757,1010.0061 361.53956,1105.2523 213.65039,960.52328 61.784064,811.90207 166.58002,718.56629 290.04095,597.74351 Z"
         style="fill:#ffffff;fill-opacity:1;stroke:#000000;stroke-width:6.32213163;stroke-linecap:round;stroke-linejoin:miter;stroke-miterlimit:4;stroke-dasharray:none;stroke-opacity:1" />
      <ellipse
         transform="matrix(-0.7147015,-0.6994296,0.7147015,-0.6994296,0,0)"
         ry="30.137854"
         rx="46.605171"
         cy="-293.77298"
         cx="-739.45892"
         id="path5731-7-4"
         style="fill:#000000;fill-opacity:1;stroke:#000000;stroke-width:6.32286882;stroke-linecap:round;stroke-linejoin:miter;stroke-miterlimit:4;stroke-dasharray:none;stroke-opacity:1" />
      <ellipse
         transform="matrix(-0.7147015,-0.6994296,0.7147015,-0.6994296,0,0)"
         ry="30.137854"
         rx="46.605171"
         cy="-293.77298"
         cx="-932.57141"
         id="path5731-5-8-1"
         style="fill:#000000;fill-opacity:1;stroke:#000000;stroke-width:6.32286882;stroke-linecap:round;stroke-linejoin:miter;stroke-miterlimit:4;stroke-dasharray:none;stroke-opacity:1" />
      <path
         sodipodi:nodetypes="cc"
         inkscape:connector-curvature="0"
         id="path5827-6-6"
         d="m 531.02343,689.81915 c 4.25577,-28.17977 -7.12163,-43.32857 -40.77809,-39.90674"
         style="fill:none;fill-opacity:1;stroke:#000000;stroke-width:6.32213163;stroke-linecap:round;stroke-linejoin:miter;stroke-miterlimit:4;stroke-dasharray:none;stroke-opacity:1" />
      <path
         sodipodi:nodetypes="cc"
         inkscape:connector-curvature="0"
         inkscape:original-d="m 457.87407,764.00697 c -24.71459,-2.57327 -49.09303,-3.1296 -72.85714,0"
         inkscape:path-effect="#path-effect5834-8-4"
         id="path5832-3-3"
         d="m 457.87407,764.00697 c -0.29458,2.82922 -16.71137,3.00308 -36.49139,2.86297 -19.67723,-0.13938 -36.02038,-0.24041 -36.36575,-2.86297 -0.37097,-2.81688 15.75839,-7.27023 36.43326,-7.13728 20.61747,0.13258 36.69862,4.49858 36.42388,7.13728 z"
         style="fill:#000000;fill-rule:evenodd;stroke:none;stroke-width:1px;stroke-linecap:butt;stroke-linejoin:miter;stroke-opacity:1"
         transform="matrix(1.3920089,1.3622641,-1.6300213,1.5951907,1240.2528,-1192.3992)" />
    </g>
    <path
       style="fill:#ffffff;fill-opacity:1;stroke:#000000;stroke-width:6.32213163;stroke-linecap:round;stroke-linejoin:miter;stroke-miterlimit:4;stroke-dasharray:none;stroke-opacity:1"
       d="M 429.95905,446.98097 C 306.49814,567.80375 140.52963,601.27416 59.258044,521.73921 -22.013556,442.20424 15.680582,276.36394 139.1415,155.54115 262.60243,34.718358 358.46044,-60.527843 506.34961,84.201196 658.21593,232.82241 553.41998,326.15819 429.95905,446.98097 Z"
       id="path5728-1-2"
       inkscape:connector-curvature="0"
       sodipodi:nodetypes="sssss" />
    <ellipse
       style="fill:#000000;fill-opacity:1;stroke:#000000;stroke-width:6.32286882;stroke-linecap:round;stroke-linejoin:miter;stroke-miterlimit:4;stroke-dasharray:none;stroke-opacity:1"
       id="path5731-7-1"
       cx="511.0881"
       cy="-50.639473"
       rx="46.605171"
       ry="30.137854"
       transform="matrix(0.7147015,0.6994296,-0.7147015,0.6994296,0,0)" />
    <ellipse
       style="fill:#000000;fill-opacity:1;stroke:#000000;stroke-width:6.32286882;stroke-linecap:round;stroke-linejoin:miter;stroke-miterlimit:4;stroke-dasharray:none;stroke-opacity:1"
       id="path5731-5-8-71"
       cx="317.97565"
       cy="-50.639473"
       rx="46.605171"
       ry="30.137854"
       transform="matrix(0.7147015,0.6994296,-0.7147015,0.6994296,0,0)" />
    <path
       style="fill:none;fill-opacity:1;stroke:#000000;stroke-width:6.32213163;stroke-linecap:round;stroke-linejoin:miter;stroke-miterlimit:4;stroke-dasharray:none;stroke-opacity:1"
       d="m 188.97657,354.90533 c -4.25577,28.17977 7.12163,43.32857 40.77809,39.90674"
       id="path5827-6-70"
       inkscape:connector-curvature="0"
       sodipodi:nodetypes="cc" />
    <path
       transform="matrix(-1.3920089,-1.3622641,1.6300213,-1.5951907,-520.25278,2237.1237)"
       style="fill:#000000;fill-rule:evenodd;stroke:none;stroke-width:1px;stroke-linecap:butt;stroke-linejoin:miter;stroke-opacity:1"
       d="m 457.87407,764.00697 c -0.29458,2.82922 -16.71137,3.00308 -36.49139,2.86297 -19.67723,-0.13938 -36.02038,-0.24041 -36.36575,-2.86297 -0.37097,-2.81688 15.75839,-7.27023 36.43326,-7.13728 20.61747,0.13258 36.69862,4.49858 36.42388,7.13728 z"
       id="path5832-3-7"
       inkscape:path-effect="#path-effect5834-8-2"
       inkscape:original-d="m 457.87407,764.00697 c -24.71459,-2.57327 -49.09303,-3.1296 -72.85714,0"
       inkscape:connector-curvature="0"
       sodipodi:nodetypes="cc" />
    <path
       sodipodi:type="star"
       style="fill:#ffffff;fill-opacity:1;fill-rule:evenodd;stroke:#000000;stroke-width:3;stroke-linecap:round;stroke-linejoin:miter;stroke-miterlimit:4;stroke-dasharray:none;stroke-dashoffset:0;stroke-opacity:1"
       id="path4199"
       sodipodi:sides="3"
       sodipodi:cx="359.56781"
       sodipodi:cy="403.84427"
       sodipodi:r1="122.23263"
       sodipodi:r2="61.116314"
       sodipodi:arg1="1.5790606"
       sodipodi:arg2="2.6262582"
       inkscape:flatsided="true"
       inkscape:rounded="0.15"
       inkscape:randomized="0"
       d="M 358.55766,526.07272 C 326.80177,525.81028 238.11471,369.2254 254.21994,341.85522 c 16.10523,-27.37018 196.05523,-25.88299 211.70589,1.74964 15.65066,27.63262 -75.61229,182.73031 -107.36817,182.46786 z"
       inkscape:transform-center-x="-0.50507627"
       inkscape:transform-center-y="30.119705"
       inkscape:export-xdpi="300"
       inkscape:export-ydpi="300"
       transform="matrix(-0.30486926,-0.30486926,0.30700464,-0.30700464,243.76779,1150.8869)" />
    <rect
       style="fill:#ababab;fill-opacity:1;fill-rule:evenodd;stroke:#000000;stroke-width:1.29797268;stroke-linecap:round;stroke-linejoin:miter;stroke-miterlimit:4;stroke-dasharray:none;stroke-dashoffset:0;stroke-opacity:1"
       id="rect4182"
       width="185.97025"
       height="14.034498"
       x="-923.94086"
       y="-508.19644"
       inkscape:export-xdpi="300"
       inkscape:export-ydpi="300"
       transform="rotate(-135)" />
    <path
       sodipodi:type="star"
       style="fill:#ffffff;fill-opacity:1;fill-rule:evenodd;stroke:#000000;stroke-width:3;stroke-linecap:round;stroke-linejoin:miter;stroke-miterlimit:4;stroke-dasharray:none;stroke-dashoffset:0;stroke-opacity:1"
       id="path4199-5"
       sodipodi:sides="3"
       sodipodi:cx="-358.43219"
       sodipodi:cy="-651.74951"
       sodipodi:r1="122.23263"
       sodipodi:r2="61.116314"
       sodipodi:arg1="1.5790606"
       sodipodi:arg2="2.6262582"
       inkscape:flatsided="true"
       inkscape:rounded="0.15"
       inkscape:randomized="0"
       d="m -359.44234,-529.52106 c -31.75589,-0.26244 -120.44295,-156.84732 -104.33772,-184.2175 16.10523,-27.37018 196.05523,-25.88299 211.70589,1.74964 15.65066,27.63262 -75.61229,182.73031 -107.36817,182.46786 z"
       inkscape:transform-center-x="0.50507366"
       inkscape:transform-center-y="-30.119692"
       transform="matrix(0.30486926,0.30486926,-0.30700464,0.30700464,243.76779,1150.8869)"
       inkscape:export-xdpi="300"
       inkscape:export-ydpi="300" />
    <rect
       style="fill:#ababab;fill-opacity:1;fill-rule:evenodd;stroke:#000000;stroke-width:1.29797268;stroke-linecap:round;stroke-linejoin:miter;stroke-miterlimit:4;stroke-dasharray:none;stroke-dashoffset:0;stroke-opacity:1"
       id="rect4182-3"
       width="185.97025"
       height="14.034498"
       x="-923.94086"
       y="-336.71243"
       inkscape:export-xdpi="300"
       inkscape:export-ydpi="300"
       transform="rotate(-135)" />
    <path
       style="fill:none;fill-rule:evenodd;stroke:#000000;stroke-width:0.52266455px;stroke-linecap:butt;stroke-linejoin:miter;stroke-opacity:1"
       d="m 284.35055,949.02744 c -13.82052,-9.33048 -23.29585,-23.69787 -34.64817,-35.72205 -4.02875,-4.40533 -8.59612,-8.27015 -13.20122,-11.9318 -3.61525,-3.47222 -7.39066,-6.80797 -11.41444,-9.67341"
       id="path4227"
       inkscape:connector-curvature="0"
       inkscape:export-xdpi="300"
       inkscape:export-ydpi="300" />
    <path
       style="fill:none;fill-rule:evenodd;stroke:#000000;stroke-width:0.60634458px;stroke-linecap:butt;stroke-linejoin:miter;stroke-opacity:1"
       d="m 372.0739,848.47772 c -10.15355,-9.33393 -30.4338,-6.97168 -34.64592,-22.60015 -3.13525,-7.60143 -4.66134,-16.35067 -9.81143,-22.57084"
       id="path4308"
       inkscape:connector-curvature="0"
       inkscape:export-xdpi="300"
       inkscape:export-ydpi="300" />
    <path
       style="fill:none;fill-rule:evenodd;stroke:#808080;stroke-width:1.44683397;stroke-linecap:butt;stroke-linejoin:miter;stroke-miterlimit:4;stroke-dasharray:1.4468339, 1.4468339;stroke-dashoffset:0;stroke-opacity:1"
       d="m 300.56588,875.89409 c 6.02364,-7.87482 11.74121,-16.60458 20.68416,-21.45218 5.71966,-4.06934 7.0443,-12.21524 13.58912,-15.37702 2.79679,-1.53281 6.00398,-2.68483 7.93987,-5.38395"
       id="path4327"
       inkscape:connector-curvature="0"
       inkscape:export-xdpi="300"
       inkscape:export-ydpi="300" />
    <ellipse
       style="fill:#ffffff;fill-opacity:1;fill-rule:evenodd;stroke:#000000;stroke-width:1.05562592;stroke-linecap:round;stroke-linejoin:miter;stroke-miterlimit:4;stroke-dasharray:none;stroke-dashoffset:0;stroke-opacity:1"
       id="path4154"
       cx="-831.34064"
       cy="-413.00784"
       rx="9.2826948"
       ry="3.998116"
       inkscape:export-xdpi="300"
       inkscape:export-ydpi="300"
       transform="rotate(-135)" />
    <path
       style="opacity:1;fill:#808080;fill-opacity:1;fill-rule:nonzero;stroke:#000000;stroke-width:0.40973452;stroke-linecap:round;stroke-linejoin:round;stroke-miterlimit:4;stroke-dasharray:none;stroke-dashoffset:0;stroke-opacity:1;paint-order:stroke markers fill"
       d="m 297.61318,888.17361 c 0.41448,7.5701 -1.27608,19.40241 -4.71978,33.03399 -2.06193,8.16193 -5.00242,17.3853 -7.85046,24.62433 -1.12426,2.8576 -0.99186,2.63938 -1.41557,2.3332 -4.52561,-3.27027 -7.43924,-5.82058 -11.99943,-10.50319 -3.71765,-3.81743 -5.01694,-5.2842 -12.54466,-14.16163 -5.68306,-6.70203 -8.11333,-9.4074 -11.44241,-12.73761 -3.12939,-3.13055 -4.95286,-4.75508 -9.73362,-8.67207 -0.85099,-0.69724 -2.47456,-2.12686 -3.60792,-3.17692 -2.86804,-2.65725 -6.35712,-5.56443 -8.4472,-7.03841 l -0.31933,-0.2252 0.45549,-0.18187 c 6.07884,-2.42705 11.23742,-4.19805 17.78924,-6.10724 16.28483,-4.74538 33.10615,-7.57209 42.58971,-7.15691 2.86835,0.12557 2.62207,0.0736 2.90865,0.61443 0.1339,0.25273 0.5271,0.89045 0.87377,1.41715 0.55828,0.84821 0.84081,1.16774 2.47262,2.79645 1.95965,1.95619 2.58174,2.45155 4.1718,3.32351 l 0.74184,0.40681 z"
       id="path831"
       inkscape:connector-curvature="0" />
    <path
       style="opacity:1;fill:#808080;fill-opacity:1;fill-rule:nonzero;stroke:#000000;stroke-width:0.20486726;stroke-linecap:round;stroke-linejoin:round;stroke-miterlimit:4;stroke-dasharray:none;stroke-dashoffset:0;stroke-opacity:1;paint-order:stroke markers fill"
       d="m 367.89868,845.11356 c -0.72223,-0.39399 -2.61763,-1.3006 -3.49099,-1.66981 -1.82804,-0.77279 -3.48678,-1.3781 -7.35055,-2.68236 -5.62799,-1.89979 -8.00952,-2.85694 -10.40027,-4.17992 -1.95679,-1.08284 -3.35715,-2.11472 -4.71673,-3.47561 -1.9267,-1.92843 -3.18395,-4.02227 -3.99448,-6.65195 -0.11224,-0.36414 -0.33701,-1.0001 -0.4995,-1.41324 -0.58283,-1.4819 -1.03284,-2.75504 -2.18662,-6.18617 -1.91161,-5.68478 -2.58054,-7.46157 -3.6917,-9.80579 l -0.31335,-0.66108 18.40396,18.40742 c 12.59522,12.59752 18.35223,18.3794 18.24037,18.31838 z"
       id="path833"
       inkscape:connector-curvature="0" />
    <path
       sodipodi:type="star"
       style="fill:#ffffff;fill-opacity:1;fill-rule:evenodd;stroke:#000000;stroke-width:3;stroke-linecap:round;stroke-linejoin:miter;stroke-miterlimit:4;stroke-dasharray:none;stroke-dashoffset:0;stroke-opacity:1"
       id="path4199-8"
       sodipodi:sides="3"
       sodipodi:cx="-300.43219"
       sodipodi:cy="316.1813"
       sodipodi:r1="122.23263"
       sodipodi:r2="61.116314"
       sodipodi:arg1="1.5790606"
       sodipodi:arg2="2.6262582"
       inkscape:flatsided="true"
       inkscape:rounded="0.15"
       inkscape:randomized="0"
       d="m -301.44234,438.40976 c -31.75589,-0.26245 -120.44295,-156.84732 -104.33772,-184.2175 16.10523,-27.37018 196.05523,-25.88299 211.70589,1.74964 15.65066,27.63262 -75.61229,182.7303 -107.36817,182.46786 z"
       inkscape:transform-center-x="-0.50507627"
       inkscape:transform-center-y="30.119705"
       inkscape:export-xdpi="300"
       inkscape:export-ydpi="300"
       transform="matrix(0.30486926,0.30486926,-0.30700465,0.30700465,650.53296,121.96413)" />
    <rect
       style="fill:#ababab;fill-opacity:1;fill-rule:evenodd;stroke:#000000;stroke-width:1.29797268;stroke-linecap:round;stroke-linejoin:miter;stroke-miterlimit:4;stroke-dasharray:none;stroke-dashoffset:0;stroke-opacity:1"
       id="rect4182-8"
       width="185.97025"
       height="14.0345"
       x="323.90775"
       y="-278.58163"
       inkscape:export-xdpi="300"
       inkscape:export-ydpi="300"
       transform="rotate(45)" />
    <path
       sodipodi:type="star"
       style="fill:#ffffff;fill-opacity:1;fill-rule:evenodd;stroke:#000000;stroke-width:3;stroke-linecap:round;stroke-linejoin:miter;stroke-miterlimit:4;stroke-dasharray:none;stroke-dashoffset:0;stroke-opacity:1"
       id="path4199-5-0"
       sodipodi:sides="3"
       sodipodi:cx="301.56781"
       sodipodi:cy="-564.08655"
       sodipodi:r1="122.23263"
       sodipodi:r2="61.116314"
       sodipodi:arg1="1.5790606"
       sodipodi:arg2="2.6262582"
       inkscape:flatsided="true"
       inkscape:rounded="0.15"
       inkscape:randomized="0"
       d="m 300.55766,-441.85809 c -31.75589,-0.26245 -120.44295,-156.84732 -104.33772,-184.2175 16.10523,-27.37018 196.05523,-25.88299 211.70589,1.74963 15.65066,27.63263 -75.61229,182.73031 -107.36817,182.46787 z"
       inkscape:transform-center-x="0.50507366"
       inkscape:transform-center-y="-30.119692"
       transform="matrix(-0.30486926,-0.30486926,0.30700465,-0.30700465,650.53296,121.96413)"
       inkscape:export-xdpi="300"
       inkscape:export-ydpi="300" />
    <rect
       style="fill:#ababab;fill-opacity:1;fill-rule:evenodd;stroke:#000000;stroke-width:1.29797268;stroke-linecap:round;stroke-linejoin:miter;stroke-miterlimit:4;stroke-dasharray:none;stroke-dashoffset:0;stroke-opacity:1"
       id="rect4182-3-6"
       width="185.97025"
       height="14.0345"
       x="323.90775"
       y="-107.09761"
       inkscape:export-xdpi="300"
       inkscape:export-ydpi="300"
       transform="rotate(45)" />
    <path
       style="fill:none;fill-rule:evenodd;stroke:#808080;stroke-width:1.44683397;stroke-linecap:butt;stroke-linejoin:miter;stroke-miterlimit:4;stroke-dasharray:1.44683399, 1.44683399;stroke-dashoffset:0;stroke-opacity:1"
       d="m 388.65249,204.17577 c 6.02364,-7.87482 11.74121,-16.60458 20.68415,-21.45217 5.71967,-4.06935 7.04431,-12.21526 13.58915,-15.37705 2.79676,-1.53279 6.00396,-2.68481 7.93987,-5.38394"
       id="path4327-6"
       inkscape:connector-curvature="0"
       inkscape:export-xdpi="300"
       inkscape:export-ydpi="300" />
    <ellipse
       style="fill:#ffffff;fill-opacity:1;fill-rule:evenodd;stroke:#000000;stroke-width:1.05562592;stroke-linecap:round;stroke-linejoin:miter;stroke-miterlimit:4;stroke-dasharray:none;stroke-dashoffset:0;stroke-opacity:1"
       id="path4154-8"
       cx="416.5079"
       cy="-183.39301"
       rx="9.2826958"
       ry="3.9981165"
       inkscape:export-xdpi="300"
       inkscape:export-ydpi="300"
       transform="rotate(45)" />
    <path
       style="fill:none;stroke:#000000;stroke-width:0.40990546px;stroke-linecap:butt;stroke-linejoin:miter;stroke-opacity:1"
       d="m 422.46506,144.94106 c 2.24753,0.49339 3.99806,2.12092 5.52936,3.75169 1.356,1.27188 2.28051,2.89478 3.20032,4.48296 1.04278,1.54594 2.62467,2.60299 3.76781,4.06571 1.68601,1.98848 3.35386,4.00053 5.27783,5.76846 0.8595,0.99867 1.82703,1.75636 3.03056,2.26641 0.45746,0.2931 0.89021,0.62265 1.33473,0.93476"
       id="path920"
       inkscape:connector-curvature="0" />
    <path
       style="fill:none;stroke:#000000;stroke-width:0.40561646px;stroke-linecap:butt;stroke-linejoin:miter;stroke-opacity:1"
       d="m 354.46771,175.79608 c 7.38966,-1.10747 14.30511,2.5006 21.56569,2.99559 7.04843,2.26401 13.0358,6.83369 18.49903,11.68326 2.49061,3.61522 5.40401,6.97216 8.91768,9.61616 3.74781,4.21496 3.98872,10.16531 5.59735,15.33509 1.42367,6.02006 2.4782,12.12503 3.30794,18.25758"
       id="path930-6"
       inkscape:connector-curvature="0" />
    <path
       style="opacity:1;fill:#808080;fill-opacity:1;fill-rule:nonzero;stroke:#808080;stroke-width:0.0645908;stroke-linecap:round;stroke-linejoin:round;stroke-miterlimit:4;stroke-dasharray:0.0322954, 0.0322954;stroke-dashoffset:0;stroke-opacity:1;paint-order:stroke markers fill"
       d="m 422.42753,157.87896 c -0.11536,-1.37249 -0.15364,-2.23893 -0.15643,-3.54089 -0.006,-2.57723 0.15598,-5.23353 0.51235,-8.4262 0.0578,-0.51785 0.0779,-0.64211 0.10322,-0.63774 0.0173,0.003 0.13774,0.0421 0.26768,0.087 0.76716,0.26486 1.5316,0.68603 2.30429,1.26956 0.71682,0.54135 1.23159,1.01807 2.33186,2.15952 0.45123,0.4681 0.86926,0.91134 0.92899,0.98494 0.6562,0.80886 1.16288,1.57332 2.04459,3.08478 0.54293,0.93072 0.90467,1.35394 2.33438,2.73117 0.93783,0.90341 1.2063,1.18437 1.68346,1.76164 0.28123,0.34024 0.94072,1.11793 1.49891,1.76754 1.43106,1.66547 1.99952,2.27486 3.63327,3.89489 0.95449,0.94649 1.17506,1.15855 1.35316,1.30084 0.55049,0.43991 1.10062,0.78355 1.68139,1.05028 0.13615,0.0625 0.31681,0.16295 0.42966,0.23883 0.28934,0.19455 0.6527,0.45428 0.66217,0.47331 0.0132,0.0265 -1.69524,0.19214 -3.0975,0.30042 -2.92757,0.22608 -5.66431,0.28586 -7.96578,0.17399 -0.74141,-0.036 -2.0101,-0.13976 -2.03686,-0.16652 -0.007,-0.007 -0.0766,-0.13469 -0.15502,-0.28421 -0.57233,-1.09062 -1.39015,-2.25474 -2.42975,-3.45863 -0.2768,-0.32055 -1.31547,-1.37568 -1.67116,-1.69764 -1.34042,-1.21335 -2.73506,-2.19879 -3.99178,-2.82052 -0.12637,-0.0625 -0.23571,-0.11969 -0.24297,-0.12705 -0.007,-0.007 -0.0172,-0.061 -0.0221,-0.1193 z"
       id="path955"
       inkscape:connector-curvature="0" />
    <path
       style="opacity:1;fill:#808080;fill-opacity:1;fill-rule:nonzero;stroke:#808080;stroke-width:0.25836322;stroke-linecap:round;stroke-linejoin:round;stroke-miterlimit:4;stroke-dasharray:0.12918161, 0.12918161;stroke-dashoffset:0;stroke-opacity:1;paint-order:stroke markers fill"
       d="m 338.2695,185.48354 c 3.1439,-2.61355 8.65639,-5.54872 15.87777,-8.45425 3.23711,-1.30247 3.02382,-1.2452 4.34194,-1.16577 2.5807,0.15551 4.20256,0.44549 9.1279,1.63202 3.70897,0.8935 5.57584,1.25392 7.55567,1.4587 0.99749,0.10318 1.85526,0.37272 3.72638,1.17098 4.56251,1.94644 9.18693,5.03158 14.49363,9.66927 0.92734,0.81043 0.97187,0.85903 1.63752,1.78737 2.19702,3.06404 4.88686,5.98634 7.28717,7.91695 1.03121,0.82942 1.2723,1.07643 1.84794,1.89324 0.89824,1.27457 1.5671,2.67917 2.20941,4.63979 0.42475,1.29655 0.62868,2.07944 1.35535,5.20317 0.28608,1.22976 0.67025,2.78526 0.85372,3.45665 0.97601,3.57166 2.31031,10.50077 3.17507,16.48835 l 0.2217,1.53508 -0.55713,1.33705 c -2.99726,7.19301 -5.96253,12.74426 -8.47063,15.85784 l -0.28663,0.35582 -32.30364,-32.30363 -32.30364,-32.30364 z"
       id="path959"
       inkscape:connector-curvature="0" />
  </g>
</svg>
