<?xml version="1.0" encoding="UTF-8" standalone="no"?>
<!-- Created with Inkscape (http://www.inkscape.org/) -->

<svg
   xmlns:dc="http://purl.org/dc/elements/1.1/"
   xmlns:cc="http://creativecommons.org/ns#"
   xmlns:rdf="http://www.w3.org/1999/02/22-rdf-syntax-ns#"
   xmlns:svg="http://www.w3.org/2000/svg"
   xmlns="http://www.w3.org/2000/svg"
   xmlns:sodipodi="http://sodipodi.sourceforge.net/DTD/sodipodi-0.dtd"
   xmlns:inkscape="http://www.inkscape.org/namespaces/inkscape"
   sodipodi:docname="toward_past-future.svg"
   inkscape:version="0.92.4 (5da689c313, 2019-01-14)"
   version="1.1"
   id="svg2"
   viewBox="0 0 719.99999 1060"
   height="11.777778in"
   width="8in"
   inkscape:export-filename="C:\Users\Giltwist\Dropbox\Tarot\Minors\export\toward-past_future.png"
   inkscape:export-xdpi="300"
   inkscape:export-ydpi="300">
  <sodipodi:namedview
     inkscape:window-maximized="1"
     inkscape:window-y="-8"
     inkscape:window-x="-8"
     inkscape:window-height="1377"
     inkscape:window-width="2560"
     units="in"
     showgrid="false"
     inkscape:current-layer="layer1"
     inkscape:document-units="px"
     inkscape:cy="681.58219"
     inkscape:cx="212.3846"
     inkscape:zoom="0.98994949"
     inkscape:pageshadow="2"
     inkscape:pageopacity="0"
     borderopacity="1.0"
     bordercolor="#666666"
     pagecolor="#000000"
     id="base"
     showguides="true"
     inkscape:guide-bbox="true">
    <sodipodi:guide
       position="359.86685,633.67343"
       orientation="1,0"
       id="guide4140"
       inkscape:locked="false" />
    <sodipodi:guide
       position="179.46429,530.02233"
       orientation="0,1"
       id="guide4149"
       inkscape:locked="false" />
  </sodipodi:namedview>
  <defs
     id="defs4">
    <inkscape:path-effect
       effect="powerstroke"
       id="path-effect4186"
       is_visible="true"
       offset_points="0,0.5"
       sort_points="true"
       interpolator_type="CubicBezierJohan"
       interpolator_beta="0.2"
       start_linecap_type="zerowidth"
       linejoin_type="round"
       miter_limit="4"
       end_linecap_type="zerowidth"
       cusp_linecap_type="round" />
  </defs>
  <metadata
     id="metadata7">
    <rdf:RDF>
      <cc:Work
         rdf:about="">
        <dc:format>image/svg+xml</dc:format>
        <dc:type
           rdf:resource="http://purl.org/dc/dcmitype/StillImage" />
        <dc:title></dc:title>
      </cc:Work>
    </rdf:RDF>
  </metadata>
  <g
     inkscape:label="Layer 1"
     inkscape:groupmode="layer"
     id="layer1"
     transform="translate(0,7.6377767)">
    <circle
       style="opacity:1;fill:#545454;fill-opacity:1;fill-rule:nonzero;stroke:#000000;stroke-width:0.9375;stroke-linecap:square;stroke-linejoin:miter;stroke-miterlimit:4;stroke-dasharray:none;stroke-dashoffset:0;stroke-opacity:1;paint-order:markers fill stroke"
       id="path872"
       cx="360"
       cy="522.36224"
       r="341.69852" />
    <circle
       style="opacity:1;fill:#ffffff;fill-opacity:1;fill-rule:nonzero;stroke:#000000;stroke-width:0.9375;stroke-linecap:square;stroke-linejoin:miter;stroke-miterlimit:4;stroke-dasharray:none;stroke-dashoffset:0;stroke-opacity:1;paint-order:markers fill stroke"
       id="path930"
       cx="360"
       cy="522.36224"
       r="312.76846" />
    <ellipse
       style="opacity:1;fill:#808080;fill-opacity:1;fill-rule:evenodd;stroke:#000000;stroke-width:4.6875;stroke-linecap:butt;stroke-linejoin:miter;stroke-miterlimit:4;stroke-dasharray:none;stroke-dashoffset:0;stroke-opacity:1;paint-order:markers stroke fill"
       id="path3015"
       cx="360"
       cy="522.36224"
       r="154.19852" />
    <path
       style="fill:#000000;fill-opacity:1;stroke:#000000;stroke-width:0.9375px;stroke-linecap:butt;stroke-linejoin:miter;stroke-opacity:1"
       d="M 340.70735,452.58324 379.29265,592.14119 527.49153,451.4521 Z"
       id="path904"
       inkscape:connector-curvature="0"
       sodipodi:nodetypes="cccc" />
    <path
       style="fill:#ffffff;fill-opacity:1;stroke:#000000;stroke-width:0.9375px;stroke-linecap:butt;stroke-linejoin:miter;stroke-opacity:1"
       d="M 379.29266,592.14119 340.70735,452.58324 192.50847,593.27233 Z"
       id="path904-4"
       inkscape:connector-curvature="0"
       sodipodi:nodetypes="cccc" />
    <circle
       style="opacity:1;fill:#ababab;fill-opacity:1;fill-rule:nonzero;stroke:#000000;stroke-width:0.9375;stroke-linecap:square;stroke-linejoin:miter;stroke-miterlimit:4;stroke-dasharray:none;stroke-dashoffset:0;stroke-opacity:1;paint-order:markers fill stroke"
       id="path925"
       cx="360"
       cy="522.36224"
       r="28.410542" />
    <g
       id="g1130"
       transform="translate(-46.280156,-0.60266561)">
      <path
         style="fill:none;stroke:#000000;stroke-width:0.9375px;stroke-linecap:butt;stroke-linejoin:miter;stroke-opacity:1"
         d="m 104.17198,523.29972 c 40.72177,0 46.40388,0 46.40388,0"
         id="use1050"
         inkscape:connector-curvature="0"
         inkscape:transform-center-x="278.90625"
         inkscape:transform-center-y="0.33482143"
         inkscape:tile-x0="57.768098"
         inkscape:tile-y0="529.53123" />
      <path
         style="fill:none;stroke:#000000;stroke-width:0.9375px;stroke-linecap:butt;stroke-linejoin:miter;stroke-opacity:1"
         d="m 127.04046,407.66243 c 37.62201,15.58355 42.87159,17.758 42.87159,17.758"
         id="use1052"
         inkscape:connector-curvature="0"
         inkscape:transform-center-x="278.90625"
         inkscape:transform-center-y="0.33482143"
         inkscape:tile-x0="57.768098"
         inkscape:tile-y0="529.53123" />
      <path
         style="fill:none;stroke:#000000;stroke-width:0.9375px;stroke-linecap:butt;stroke-linejoin:miter;stroke-opacity:1"
         d="m 192.42065,309.5789 c 28.79464,28.79464 32.8125,32.8125 32.8125,32.8125"
         id="use1054"
         inkscape:connector-curvature="0"
         inkscape:transform-center-x="278.90625"
         inkscape:transform-center-y="0.33482143"
         inkscape:tile-x0="57.768098"
         inkscape:tile-y0="529.53123" />
      <path
         style="fill:none;stroke:#000000;stroke-width:0.9375px;stroke-linecap:butt;stroke-linejoin:miter;stroke-opacity:1"
         d="m 290.35902,243.98145 c 15.58354,37.62201 17.75799,42.8716 17.75799,42.8716"
         id="use1056"
         inkscape:connector-curvature="0"
         inkscape:transform-center-x="278.90625"
         inkscape:transform-center-y="0.33482143"
         inkscape:tile-x0="57.768098"
         inkscape:tile-y0="529.53123" />
      <path
         style="fill:none;stroke:#000000;stroke-width:0.9375px;stroke-linecap:butt;stroke-linejoin:miter;stroke-opacity:1"
         d="m 405.94533,220.85671 c 0,40.72177 0,46.40388 0,46.40388"
         id="use1058"
         inkscape:connector-curvature="0"
         inkscape:transform-center-x="278.90625"
         inkscape:transform-center-y="0.33482143"
         inkscape:tile-x0="57.768098"
         inkscape:tile-y0="529.53123" />
      <path
         style="fill:none;stroke:#000000;stroke-width:0.9375px;stroke-linecap:butt;stroke-linejoin:miter;stroke-opacity:1"
         d="m 521.58261,243.72519 c -15.58355,37.62201 -17.758,42.8716 -17.758,42.8716"
         id="use1060"
         inkscape:connector-curvature="0"
         inkscape:transform-center-x="278.90625"
         inkscape:transform-center-y="0.33482143"
         inkscape:tile-x0="57.768098"
         inkscape:tile-y0="529.53123" />
      <path
         style="fill:none;stroke:#000000;stroke-width:0.9375px;stroke-linecap:butt;stroke-linejoin:miter;stroke-opacity:1"
         d="m 619.66614,309.10537 c -28.79464,28.79464 -32.8125,32.8125 -32.8125,32.8125"
         id="use1062"
         inkscape:connector-curvature="0"
         inkscape:transform-center-x="278.90625"
         inkscape:transform-center-y="0.33482143"
         inkscape:tile-x0="57.768098"
         inkscape:tile-y0="529.53123" />
      <path
         style="fill:none;stroke:#000000;stroke-width:0.9375px;stroke-linecap:butt;stroke-linejoin:miter;stroke-opacity:1"
         d="m 685.26359,407.04375 c -37.62201,15.58354 -42.8716,17.75799 -42.8716,17.75799"
         id="use1064"
         inkscape:connector-curvature="0"
         inkscape:transform-center-x="278.90625"
         inkscape:transform-center-y="0.33482143"
         inkscape:tile-x0="57.768098"
         inkscape:tile-y0="529.53123" />
      <path
         style="fill:none;stroke:#000000;stroke-width:0.9375px;stroke-linecap:butt;stroke-linejoin:miter;stroke-opacity:1"
         d="m 708.38834,522.63006 c -40.72177,0 -46.40388,0 -46.40388,0"
         id="use1066"
         inkscape:connector-curvature="0"
         inkscape:transform-center-x="278.90625"
         inkscape:transform-center-y="0.33482143"
         inkscape:tile-x0="57.768098"
         inkscape:tile-y0="529.53123" />
      <path
         style="fill:none;stroke:#000000;stroke-width:0.9375px;stroke-linecap:butt;stroke-linejoin:miter;stroke-opacity:1"
         d="m 685.51986,638.26733 c -37.62201,-15.58355 -42.87159,-17.758 -42.87159,-17.758"
         id="use1068"
         inkscape:connector-curvature="0"
         inkscape:transform-center-x="278.90625"
         inkscape:transform-center-y="0.33482143"
         inkscape:tile-x0="57.768098"
         inkscape:tile-y0="529.53123" />
      <path
         style="fill:none;stroke:#000000;stroke-width:0.9375px;stroke-linecap:butt;stroke-linejoin:miter;stroke-opacity:1"
         d="m 620.13966,736.35087 c -28.79464,-28.79464 -32.8125,-32.8125 -32.8125,-32.8125"
         id="use1070"
         inkscape:connector-curvature="0"
         inkscape:transform-center-x="278.90625"
         inkscape:transform-center-y="0.33482143"
         inkscape:tile-x0="57.768098"
         inkscape:tile-y0="529.53123" />
      <path
         style="fill:none;stroke:#000000;stroke-width:0.9375px;stroke-linecap:butt;stroke-linejoin:miter;stroke-opacity:1"
         d="m 522.20131,801.94831 c -15.58355,-37.62201 -17.758,-42.8716 -17.758,-42.8716"
         id="use1072"
         inkscape:connector-curvature="0"
         inkscape:transform-center-x="278.90625"
         inkscape:transform-center-y="0.33482143"
         inkscape:tile-x0="57.768098"
         inkscape:tile-y0="529.53123" />
      <path
         style="fill:none;stroke:#000000;stroke-width:0.9375px;stroke-linecap:butt;stroke-linejoin:miter;stroke-opacity:1"
         d="m 406.61499,825.07307 c 0,-40.72177 0,-46.40388 0,-46.40388"
         id="use1074"
         inkscape:connector-curvature="0"
         inkscape:transform-center-x="278.90625"
         inkscape:transform-center-y="0.33482143"
         inkscape:tile-x0="57.768098"
         inkscape:tile-y0="529.53123" />
      <path
         style="fill:none;stroke:#000000;stroke-width:0.9375px;stroke-linecap:butt;stroke-linejoin:miter;stroke-opacity:1"
         d="m 290.97771,802.20458 c 15.58354,-37.62201 17.75799,-42.87159 17.75799,-42.87159"
         id="use1076"
         inkscape:connector-curvature="0"
         inkscape:transform-center-x="278.90625"
         inkscape:transform-center-y="0.33482143"
         inkscape:tile-x0="57.768098"
         inkscape:tile-y0="529.53123" />
      <path
         style="fill:none;stroke:#000000;stroke-width:0.9375px;stroke-linecap:butt;stroke-linejoin:miter;stroke-opacity:1"
         d="m 192.89418,736.82439 c 28.79464,-28.79464 32.8125,-32.8125 32.8125,-32.8125"
         id="use1078"
         inkscape:connector-curvature="0"
         inkscape:transform-center-x="278.90625"
         inkscape:transform-center-y="0.33482143"
         inkscape:tile-x0="57.768098"
         inkscape:tile-y0="529.53123" />
      <path
         style="fill:none;stroke:#000000;stroke-width:0.9375px;stroke-linecap:butt;stroke-linejoin:miter;stroke-opacity:1"
         d="m 127.29673,638.88603 c 37.62201,-15.58355 42.8716,-17.758 42.8716,-17.758"
         id="use1080"
         inkscape:connector-curvature="0"
         inkscape:transform-center-x="278.90625"
         inkscape:transform-center-y="0.33482143"
         inkscape:tile-x0="57.768098"
         inkscape:tile-y0="529.53123" />
    </g>
    <path
       sodipodi:type="star"
       style="fill:#ffffff;fill-opacity:1;fill-rule:evenodd;stroke:#000000;stroke-width:3;stroke-linecap:round;stroke-linejoin:miter;stroke-miterlimit:4;stroke-dasharray:none;stroke-dashoffset:0;stroke-opacity:1"
       id="path4199"
       sodipodi:sides="3"
       sodipodi:cx="359.56781"
       sodipodi:cy="403.84427"
       sodipodi:r1="122.23263"
       sodipodi:r2="61.116314"
       sodipodi:arg1="1.5790606"
       sodipodi:arg2="2.6262582"
       inkscape:flatsided="true"
       inkscape:rounded="0.15"
       inkscape:randomized="0"
       d="M 358.55766,526.07272 C 326.80177,525.81028 238.11471,369.2254 254.21994,341.85522 c 16.10523,-27.37018 196.05523,-25.88299 211.70589,1.74964 15.65066,27.63262 -75.61229,182.73031 -107.36817,182.46786 z"
       inkscape:transform-center-x="-0.50507627"
       inkscape:transform-center-y="30.119705"
       inkscape:export-xdpi="300"
       inkscape:export-ydpi="300"
       transform="matrix(-0.43115024,0,0,-0.43417012,515.21409,946.9625)" />
    <rect
       style="fill:#ababab;fill-opacity:1;fill-rule:evenodd;stroke:#000000;stroke-width:1.29797268;stroke-linecap:round;stroke-linejoin:miter;stroke-miterlimit:4;stroke-dasharray:none;stroke-dashoffset:0;stroke-opacity:1"
       id="rect4182"
       width="185.97025"
       height="14.034498"
       x="-452.98514"
       y="-813.72888"
       inkscape:export-xdpi="300"
       inkscape:export-ydpi="300"
       transform="scale(-1)" />
    <path
       sodipodi:type="star"
       style="fill:#ffffff;fill-opacity:1;fill-rule:evenodd;stroke:#000000;stroke-width:3;stroke-linecap:round;stroke-linejoin:miter;stroke-miterlimit:4;stroke-dasharray:none;stroke-dashoffset:0;stroke-opacity:1"
       id="path4199-5"
       sodipodi:sides="3"
       sodipodi:cx="-358.43219"
       sodipodi:cy="-651.74951"
       sodipodi:r1="122.23263"
       sodipodi:r2="61.116314"
       sodipodi:arg1="1.5790606"
       sodipodi:arg2="2.6262582"
       inkscape:flatsided="true"
       inkscape:rounded="0.15"
       inkscape:randomized="0"
       d="m -359.44234,-529.52106 c -31.75589,-0.26244 -120.44295,-156.84732 -104.33772,-184.2175 16.10523,-27.37018 196.05523,-25.88299 211.70589,1.74964 15.65066,27.63262 -75.61229,182.73031 -107.36817,182.46786 z"
       inkscape:transform-center-x="0.50507366"
       inkscape:transform-center-y="-30.119692"
       transform="matrix(0.43115024,0,0,0.43417012,515.21409,946.9625)"
       inkscape:export-xdpi="300"
       inkscape:export-ydpi="300" />
    <rect
       style="fill:#ababab;fill-opacity:1;fill-rule:evenodd;stroke:#000000;stroke-width:1.29797268;stroke-linecap:round;stroke-linejoin:miter;stroke-miterlimit:4;stroke-dasharray:none;stroke-dashoffset:0;stroke-opacity:1"
       id="rect4182-3"
       width="185.97025"
       height="14.034498"
       x="-452.98514"
       y="-642.24487"
       inkscape:export-xdpi="300"
       inkscape:export-ydpi="300"
       transform="scale(-1)" />
    <path
       style="fill:none;fill-rule:evenodd;stroke:#000000;stroke-width:0.52266455px;stroke-linecap:butt;stroke-linejoin:miter;stroke-opacity:1"
       d="m 401.17424,775.52996 c -16.37023,3.17494 -33.22957,-0.28426 -49.75926,-0.75934 -5.96379,-0.26628 -11.92625,0.23049 -17.77173,0.89762 -5.0116,0.10113 -10.03995,0.41202 -14.91135,1.23109"
       id="path4227"
       inkscape:connector-curvature="0"
       inkscape:export-xdpi="300"
       inkscape:export-ydpi="300" />
    <path
       style="fill:none;fill-rule:evenodd;stroke:#000000;stroke-width:0.60634458px;stroke-linecap:butt;stroke-linejoin:miter;stroke-opacity:1"
       d="m 392.10462,642.4008 c -13.77972,0.57956 -26.44966,16.59022 -40.47908,8.51765 -7.59197,-3.15807 -14.85773,-8.26561 -22.89772,-9.02227"
       id="path4308"
       inkscape:connector-curvature="0"
       inkscape:export-xdpi="300"
       inkscape:export-ydpi="300" />
    <path
       style="fill:none;fill-rule:evenodd;stroke:#808080;stroke-width:1.44683385;stroke-linecap:butt;stroke-linejoin:miter;stroke-miterlimit:4;stroke-dasharray:1.44683389, 1.44683389;stroke-dashoffset:0;stroke-opacity:1"
       d="m 360.92713,712.3509 c -1.30899,-9.82768 -3.43893,-20.04349 -0.54308,-29.79488 1.16696,-6.92187 -3.65641,-13.61855 -1.26424,-20.48216 0.89377,-3.06148 2.347,-6.14392 1.80732,-9.42136"
       id="path4327"
       inkscape:connector-curvature="0"
       inkscape:export-xdpi="300"
       inkscape:export-ydpi="300" />
    <ellipse
       style="fill:#ffffff;fill-opacity:1;fill-rule:evenodd;stroke:#000000;stroke-width:1.05562592;stroke-linecap:round;stroke-linejoin:miter;stroke-miterlimit:4;stroke-dasharray:none;stroke-dashoffset:0;stroke-opacity:1"
       id="path4154"
       cx="-360.38495"
       cy="-718.54028"
       rx="9.2826948"
       ry="3.998116"
       inkscape:export-xdpi="300"
       inkscape:export-ydpi="300"
       transform="scale(-1)" />
    <path
       style="opacity:1;fill:#808080;fill-opacity:1;fill-rule:nonzero;stroke:#000000;stroke-width:0.40973452;stroke-linecap:round;stroke-linejoin:round;stroke-miterlimit:4;stroke-dasharray:none;stroke-dashoffset:0;stroke-opacity:1;paint-order:stroke markers fill"
       d="m 367.52221,723.12173 c 5.64595,5.05979 12.81724,14.6219 20.02116,26.69595 4.31335,7.22936 8.75602,15.83051 11.86092,22.96315 1.22566,2.81559 1.16497,2.56767 0.64886,2.65077 -5.51252,0.88767 -9.37611,1.14457 -15.91175,1.05801 -5.32811,-0.0706 -7.28401,-0.18899 -18.8842,-1.14338 -8.75759,-0.72052 -12.38903,-0.91504 -17.09786,-0.91584 -4.42644,-8.2e-4 -6.86455,0.13986 -13.01478,0.75063 -1.09478,0.10872 -3.2537,0.24586 -4.79761,0.30476 -3.90697,0.14905 -8.42981,0.56052 -10.94999,0.99617 l -0.38504,0.0666 0.19349,-0.45068 c 2.5822,-6.01458 4.97759,-10.91453 8.26042,-16.89736 8.15962,-14.87061 18.05531,-28.76387 25.05477,-35.17618 2.11702,-1.93944 1.90609,-1.80207 2.49119,-1.62225 0.2734,0.084 1.00236,0.25692 1.61993,0.38422 0.99454,0.20501 1.42026,0.23117 3.7258,0.22898 2.76891,-0.002 3.55906,-0.092 5.29998,-0.59983 l 0.81221,-0.2369 z"
       id="path831"
       inkscape:connector-curvature="0" />
    <path
       style="opacity:1;fill:#808080;fill-opacity:1;fill-rule:nonzero;stroke:#000000;stroke-width:0.20486726;stroke-linecap:round;stroke-linejoin:round;stroke-miterlimit:4;stroke-dasharray:none;stroke-dashoffset:0;stroke-opacity:1;paint-order:stroke markers fill"
       d="m 386.77351,642.97433 c -0.7893,0.2321 -2.77062,0.93128 -3.64925,1.28776 -1.83906,0.74618 -3.43998,1.49107 -7.09433,3.30092 -5.32295,2.63623 -7.68375,3.64342 -10.30975,4.39844 -2.14935,0.61798 -3.8692,0.87854 -5.79286,0.87761 -2.72599,-10e-4 -5.09557,-0.59279 -7.52816,-1.87911 -0.33685,-0.17813 -0.94549,-0.46888 -1.35252,-0.64612 -1.45998,-0.63574 -2.67843,-1.21777 -5.92045,-2.8281 -5.37147,-2.66804 -7.10085,-3.45142 -9.54418,-4.32332 l -0.68902,-0.24588 26.02958,0.002 c 17.81396,0.002 25.97319,0.0192 25.85094,0.0552 z"
       id="path833"
       inkscape:connector-curvature="0" />
    <path
       sodipodi:type="star"
       style="fill:#ffffff;fill-opacity:1;fill-rule:evenodd;stroke:#000000;stroke-width:3;stroke-linecap:round;stroke-linejoin:miter;stroke-miterlimit:4;stroke-dasharray:none;stroke-dashoffset:0;stroke-opacity:1"
       id="path4199-8"
       sodipodi:sides="3"
       sodipodi:cx="-300.43219"
       sodipodi:cy="316.1813"
       sodipodi:r1="122.23263"
       sodipodi:r2="61.116314"
       sodipodi:arg1="1.5790606"
       sodipodi:arg2="2.6262582"
       inkscape:flatsided="true"
       inkscape:rounded="0.15"
       inkscape:randomized="0"
       d="m -301.44234,438.40976 c -31.75589,-0.26245 -120.44295,-156.84732 -104.33772,-184.2175 16.10523,-27.37018 196.05523,-25.88299 211.70589,1.74964 15.65066,27.63262 -75.61229,182.7303 -107.36817,182.46786 z"
       inkscape:transform-center-x="-0.50507627"
       inkscape:transform-center-y="30.119705"
       inkscape:export-xdpi="300"
       inkscape:export-ydpi="300"
       transform="matrix(0.43115024,0,0,0.43417014,489.34506,135.8226)" />
    <rect
       style="fill:#ababab;fill-opacity:1;fill-rule:evenodd;stroke:#000000;stroke-width:1.29797268;stroke-linecap:round;stroke-linejoin:miter;stroke-miterlimit:4;stroke-dasharray:none;stroke-dashoffset:0;stroke-opacity:1"
       id="rect4182-8"
       width="185.97025"
       height="14.0345"
       x="267.01486"
       y="230.99557"
       inkscape:export-xdpi="300"
       inkscape:export-ydpi="300" />
    <path
       sodipodi:type="star"
       style="fill:#ffffff;fill-opacity:1;fill-rule:evenodd;stroke:#000000;stroke-width:3;stroke-linecap:round;stroke-linejoin:miter;stroke-miterlimit:4;stroke-dasharray:none;stroke-dashoffset:0;stroke-opacity:1"
       id="path4199-5-0"
       sodipodi:sides="3"
       sodipodi:cx="301.56781"
       sodipodi:cy="-564.08655"
       sodipodi:r1="122.23263"
       sodipodi:r2="61.116314"
       sodipodi:arg1="1.5790606"
       sodipodi:arg2="2.6262582"
       inkscape:flatsided="true"
       inkscape:rounded="0.15"
       inkscape:randomized="0"
       d="m 300.55766,-441.85809 c -31.75589,-0.26245 -120.44295,-156.84732 -104.33772,-184.2175 16.10523,-27.37018 196.05523,-25.88299 211.70589,1.74963 15.65066,27.63263 -75.61229,182.73031 -107.36817,182.46787 z"
       inkscape:transform-center-x="0.50507366"
       inkscape:transform-center-y="-30.119692"
       transform="matrix(-0.43115024,0,0,-0.43417014,489.34506,135.8226)"
       inkscape:export-xdpi="300"
       inkscape:export-ydpi="300" />
    <rect
       style="fill:#ababab;fill-opacity:1;fill-rule:evenodd;stroke:#000000;stroke-width:1.29797268;stroke-linecap:round;stroke-linejoin:miter;stroke-miterlimit:4;stroke-dasharray:none;stroke-dashoffset:0;stroke-opacity:1"
       id="rect4182-3-6"
       width="185.97025"
       height="14.0345"
       x="267.01486"
       y="402.47958"
       inkscape:export-xdpi="300"
       inkscape:export-ydpi="300" />
    <path
       style="fill:none;fill-rule:evenodd;stroke:#808080;stroke-width:1.44683397;stroke-linecap:butt;stroke-linejoin:miter;stroke-miterlimit:4;stroke-dasharray:1.44683398, 1.44683398;stroke-dashoffset:0;stroke-opacity:1"
       d="m 362.30002,379.13246 c -1.30899,-9.82769 -3.43893,-20.0435 -0.54308,-29.79487 1.16695,-6.92189 -3.65641,-13.61857 -1.26424,-20.48219 0.89377,-3.06147 2.347,-6.1439 1.80732,-9.42137"
       id="path4327-6"
       inkscape:connector-curvature="0"
       inkscape:export-xdpi="300"
       inkscape:export-ydpi="300" />
    <ellipse
       style="fill:#ffffff;fill-opacity:1;fill-rule:evenodd;stroke:#000000;stroke-width:1.05562592;stroke-linecap:round;stroke-linejoin:miter;stroke-miterlimit:4;stroke-dasharray:none;stroke-dashoffset:0;stroke-opacity:1"
       id="path4154-8"
       cx="359.61505"
       cy="326.1842"
       rx="9.2826958"
       ry="3.9981165"
       inkscape:export-xdpi="300"
       inkscape:export-ydpi="300" />
    <path
       style="fill:none;stroke:#000000;stroke-width:0.40990546px;stroke-linecap:butt;stroke-linejoin:miter;stroke-opacity:1"
       d="m 344.32385,313.3381 c 1.93811,-1.24036 4.32677,-1.32734 6.56269,-1.257 1.85819,-0.0595 3.65948,0.43435 5.4329,0.90696 1.8305,0.35579 3.69651,-0.0153 5.53914,0.21065 2.59825,0.21388 5.20034,0.45727 7.8109,0.34693 1.31392,0.0984 2.53384,-0.05 3.74552,-0.54033 0.53073,-0.11623 1.06976,-0.1892 1.60477,-0.28283"
       id="path920"
       inkscape:connector-curvature="0" />
    <path
       style="fill:none;stroke:#000000;stroke-width:0.40561646px;stroke-linecap:butt;stroke-linejoin:miter;stroke-opacity:1"
       d="m 318.06025,383.23728 c 4.44218,-6.00838 11.88343,-8.34705 17.36746,-13.13104 6.58488,-3.3831 14.04984,-4.38555 21.34209,-4.81948 4.31748,0.79522 8.75128,1.10885 13.1054,0.49391 5.63054,0.33031 10.00842,4.36751 14.80147,6.88561 5.26352,3.25014 10.32605,6.82134 15.24913,10.57099"
       id="path930-6"
       inkscape:connector-curvature="0" />
    <path
       style="opacity:1;fill:#808080;fill-opacity:1;fill-rule:nonzero;stroke:#808080;stroke-width:0.0645908;stroke-linecap:round;stroke-linejoin:round;stroke-miterlimit:4;stroke-dasharray:0.0322954, 0.0322954;stroke-dashoffset:0;stroke-opacity:1;paint-order:stroke markers fill"
       d="m 353.44578,322.51311 c -1.05206,-0.88892 -1.6918,-1.47452 -2.6144,-2.39317 -1.82629,-1.81846 -3.59037,-3.81096 -5.59593,-6.3205 -0.32531,-0.40705 -0.39895,-0.50913 -0.37797,-0.52395 0.0143,-0.0101 0.12718,-0.0676 0.25079,-0.12777 0.72974,-0.35518 1.5681,-0.5979 2.52709,-0.73166 0.88966,-0.12408 1.59075,-0.15098 3.17589,-0.12187 0.65006,0.0119 1.25907,0.0298 1.35335,0.0396 1.03596,0.10794 1.93478,0.29022 3.627,0.73552 1.04204,0.27421 1.59708,0.31768 3.5819,0.28058 1.30195,-0.0243 1.69045,-0.0155 2.43605,0.0553 0.43944,0.0417 1.45568,0.1253 2.30973,0.18995 2.18958,0.16575 3.02244,0.19469 5.32321,0.18499 1.34419,-0.006 1.65011,-0.0117 1.87666,-0.037 0.70032,-0.0782 1.33231,-0.2242 1.93158,-0.44626 0.14049,-0.0521 0.33925,-0.10879 0.47269,-0.13493 0.34217,-0.067 0.78276,-0.14031 0.80291,-0.13355 0.028,0.009 -1.06285,1.33458 -1.97783,2.40269 -1.91024,2.22997 -3.80314,4.20741 -5.50963,5.75569 -0.54973,0.49877 -1.52018,1.32253 -1.55803,1.32253 -0.01,0 -0.14937,-0.0411 -0.31058,-0.0914 -1.17587,-0.36649 -2.57732,-0.61136 -4.16371,-0.72753 -0.42238,-0.0309 -1.90293,-0.0426 -2.38211,-0.0187 -1.80577,0.0899 -3.48875,0.3792 -4.81701,0.8282 -0.13357,0.0452 -0.25131,0.082 -0.26165,0.082 -0.0103,-7e-5 -0.0553,-0.031 -0.1,-0.0687 z"
       id="path955"
       inkscape:connector-curvature="0" />
    <path
       style="opacity:1;fill:#808080;fill-opacity:1;fill-rule:nonzero;stroke:#808080;stroke-width:0.25836322;stroke-linecap:round;stroke-linejoin:round;stroke-miterlimit:4;stroke-dasharray:0.12918161, 0.12918161;stroke-dashoffset:0;stroke-opacity:1;paint-order:stroke markers fill"
       d="m 313.45645,401.54122 c 0.37502,-4.07113 2.19746,-10.04453 5.24922,-17.20534 1.36801,-3.20996 1.25768,-3.01865 2.2459,-3.89454 1.93479,-1.71486 3.28666,-2.65664 7.60841,-5.30039 3.25444,-1.99083 4.82937,-3.05606 6.37413,-4.3112 0.77828,-0.63238 1.57542,-1.04832 3.46295,-1.80695 4.60252,-1.84983 10.05401,-2.93827 17.08575,-3.41133 1.22879,-0.0827 1.29464,-0.0798 2.42177,0.10596 3.72013,0.61307 7.6885,0.77745 10.75093,0.44532 1.31566,-0.14268 1.66081,-0.1385 2.64541,0.032 1.53642,0.2661 3.00257,0.78635 4.84312,1.71853 1.21714,0.61645 1.91493,1.02584 4.63757,2.72082 1.07186,0.66729 2.44342,1.49554 3.0479,1.84055 3.21569,1.8354 9.05879,5.79153 13.90413,9.41391 l 1.24223,0.9287 0.55149,1.33939 c 2.96684,7.20561 4.79541,13.22769 5.22355,17.20283 l 0.0489,0.45428 h -45.68424 -45.68425 z"
       id="path959"
       inkscape:connector-curvature="0" />
  </g>
</svg>
