<?xml version="1.0" encoding="UTF-8" standalone="no"?>
<!-- Created with Inkscape (http://www.inkscape.org/) -->

<svg
   xmlns:dc="http://purl.org/dc/elements/1.1/"
   xmlns:cc="http://creativecommons.org/ns#"
   xmlns:rdf="http://www.w3.org/1999/02/22-rdf-syntax-ns#"
   xmlns:svg="http://www.w3.org/2000/svg"
   xmlns="http://www.w3.org/2000/svg"
   xmlns:sodipodi="http://sodipodi.sourceforge.net/DTD/sodipodi-0.dtd"
   xmlns:inkscape="http://www.inkscape.org/namespaces/inkscape"
   sodipodi:docname="upon_risk-reward.svg"
   inkscape:version="0.92.4 (5da689c313, 2019-01-14)"
   version="1.1"
   id="svg2"
   viewBox="0 0 719.99999 1060"
   height="11.777778in"
   width="8in"
   inkscape:export-filename="C:\Users\Giltwist\Dropbox\Tarot\Minors\export\upon-risk_reward.png"
   inkscape:export-xdpi="300"
   inkscape:export-ydpi="300">
  <sodipodi:namedview
     inkscape:window-maximized="1"
     inkscape:window-y="-8"
     inkscape:window-x="-8"
     inkscape:window-height="1377"
     inkscape:window-width="2560"
     units="in"
     showgrid="false"
     inkscape:current-layer="layer1"
     inkscape:document-units="px"
     inkscape:cy="866.97242"
     inkscape:cx="-627.7458"
     inkscape:zoom="0.6940532"
     inkscape:pageshadow="2"
     inkscape:pageopacity="0"
     borderopacity="1.0"
     bordercolor="#666666"
     pagecolor="#000000"
     id="base"
     showguides="true"
     inkscape:guide-bbox="true">
    <sodipodi:guide
       position="359.10924,747.00782"
       orientation="1,0"
       id="guide4140"
       inkscape:locked="false" />
    <sodipodi:guide
       position="-77.781746,526.28949"
       orientation="0,1"
       id="guide4149"
       inkscape:locked="false" />
  </sodipodi:namedview>
  <defs
     id="defs4">
    <inkscape:path-effect
       effect="powerstroke"
       id="path-effect4186"
       is_visible="true"
       offset_points="0,0.5"
       sort_points="true"
       interpolator_type="CubicBezierJohan"
       interpolator_beta="0.2"
       start_linecap_type="zerowidth"
       linejoin_type="round"
       miter_limit="4"
       end_linecap_type="zerowidth"
       cusp_linecap_type="round" />
  </defs>
  <metadata
     id="metadata7">
    <rdf:RDF>
      <cc:Work
         rdf:about="">
        <dc:format>image/svg+xml</dc:format>
        <dc:type
           rdf:resource="http://purl.org/dc/dcmitype/StillImage" />
        <dc:title></dc:title>
      </cc:Work>
    </rdf:RDF>
  </metadata>
  <g
     inkscape:label="Layer 1"
     inkscape:groupmode="layer"
     id="layer1"
     transform="translate(0,7.6377767)">
    <path
       inkscape:connector-curvature="0"
       style="fill:#000000;fill-opacity:1;stroke:#000000;stroke-width:1.30849493;stroke-miterlimit:4;stroke-dasharray:none;stroke-opacity:1"
       d="m 429.58464,749.22296 7.56565,-0.10233 4.88504,1.14792 12.14602,7.39223 -0.96261,7.88575 -13.56236,4.2105 -5.01571,-0.0774 -7.31583,-1.94411 -5.15211,13.61857 6.74629,3.44961 3.79566,3.30231 7.34301,12.22907 -4.49188,6.53205 -13.95216,-2.6181 -4.40546,-2.41557 -5.58055,-5.14478 -10.8474,9.64779 4.38144,6.2113 1.83675,4.70018 0.85781,14.26435 -6.99212,3.68194 -11.14567,-8.84694 -2.78596,-4.20034 -2.56687,-7.16683 -14.05766,3.46681 1.01287,7.55007 -0.54292,5.02129 -5.82391,13.03186 -7.89056,-0.0116 -5.78586,-13.04902 -0.52825,-5.02289 1.03488,-7.54703 -14.04749,-3.50839 -2.58777,7.15922 -2.79821,4.19208 -11.17144,8.81391 -6.98134,-3.7026 0.89941,-14.26177 1.85047,-4.69472 4.39955,-6.19829 -10.81919,-9.67984 -5.59557,5.12823 -4.41246,2.40254 -13.95975,2.57681 -4.4728,-6.54533 7.37866,-12.20728 3.80529,-3.29105 6.75633,-3.42964 -5.11238,-13.63377 -7.32147,1.92247 -5.01589,0.0626 -13.55002,-4.25062 -0.93958,-7.88856 12.16752,-7.35628 4.88837,-1.13347 7.56529,0.12473 1.76565,-14.46433 -7.37011,-1.72371 -4.47025,-2.29172 -10.03614,-10.10426 2.80885,-7.42465 14.16899,-0.82004 4.85154,1.2838 6.64118,3.65053 8.23918,-11.98133 -5.73037,-4.97503 -2.90051,-4.12098 -4.22311,-13.64316 5.91383,-5.25984 12.92449,5.90407 3.70331,3.40697 4.19565,6.34002 12.82521,-6.75354 -2.77788,-7.0866 -0.66629,-5.00621 2.55737,-14.05656 7.66405,-1.89006 8.71912,11.27564 1.70671,4.74961 0.78891,7.57712 14.47314,0.0214 0.81103,-7.57474 1.72054,-4.74457 8.752,-11.24977 7.65849,1.91271 2.51634,14.06407 -0.68089,5.00422 -2.79853,7.07836 12.80543,6.79147 4.21413,-6.3276 3.71324,-3.39599 12.94164,-5.86583 5.89848,5.27733 -4.26292,13.63059 -2.91251,4.11239 -5.74487,4.95805 8.20419,12.00566 6.65179,-3.63087 4.85529,-1.26943 14.16651,0.86193 2.7872,7.43294 -10.06559,10.07453 -4.47691,2.27847 -7.37513,1.70191 z"
       id="path4258" />
    <ellipse
       style="opacity:1;fill:#808080;fill-opacity:1;fill-rule:evenodd;stroke:#000000;stroke-width:4.6875;stroke-linecap:butt;stroke-linejoin:miter;stroke-miterlimit:4;stroke-dasharray:none;stroke-dashoffset:0;stroke-opacity:1;paint-order:markers stroke fill"
       id="path3015"
       cx="360"
       cy="522.36224"
       r="154.19852" />
    <path
       sodipodi:type="star"
       style="opacity:1;fill:#ffffff;fill-opacity:1;fill-rule:nonzero;stroke:#808080;stroke-width:3.75;stroke-linecap:round;stroke-linejoin:round;stroke-miterlimit:4;stroke-dasharray:none;stroke-dashoffset:0;stroke-opacity:1;paint-order:stroke markers fill"
       id="path1678"
       sodipodi:sides="4"
       sodipodi:cx="416.03439"
       sodipodi:cy="322.59369"
       sodipodi:r1="287.76285"
       sodipodi:r2="203.47903"
       sodipodi:arg1="2.3561945"
       sodipodi:arg2="3.1415927"
       inkscape:flatsided="true"
       inkscape:rounded="0.11"
       inkscape:randomized="0"
       d="m 212.55533,526.07275 c -31.65391,-31.65392 -31.65391,-375.30421 0,-406.95812 31.65392,-31.653917 375.30421,-31.653914 406.95813,0 31.65391,31.65391 31.65391,375.30421 -10e-6,406.95812 -31.65391,31.65392 -375.30421,31.65391 -406.95812,0 z"
       transform="matrix(0.77709232,0,0,1.9162479,36.702872,-95.807255)" />
    <g
       id="g1516"
       transform="matrix(2.0493634,0,0,2.0884151,-1043.5222,-571.71965)"
       style="fill:#ababab;fill-opacity:1">
      <rect
         transform="scale(-1)"
         y="-337.03375"
         x="-773.42505"
         height="38.9533"
         width="177.1347"
         id="rect1430-1"
         style="opacity:1;fill:#ababab;fill-opacity:1;fill-rule:nonzero;stroke:#000000;stroke-width:6.79438639;stroke-linecap:round;stroke-linejoin:round;stroke-miterlimit:4;stroke-dasharray:none;stroke-dashoffset:0;stroke-opacity:1;paint-order:stroke markers fill" />
      <rect
         transform="scale(-1)"
         y="-749.68237"
         x="-773.42505"
         height="38.953304"
         width="177.13472"
         id="rect1430-1-3"
         style="opacity:1;fill:#ababab;fill-opacity:1;fill-rule:nonzero;stroke:#000000;stroke-width:6.79438686;stroke-linecap:round;stroke-linejoin:round;stroke-miterlimit:4;stroke-dasharray:none;stroke-dashoffset:0;stroke-opacity:1;paint-order:stroke markers fill" />
    </g>
    <path
       style="opacity:1;fill:#ffffff;fill-opacity:1;fill-rule:nonzero;stroke:#000000;stroke-width:14.48858643;stroke-linecap:round;stroke-linejoin:round;stroke-miterlimit:4;stroke-dasharray:none;stroke-dashoffset:0;stroke-opacity:1;paint-order:stroke markers fill"
       d="m 624.34461,1010.214 v -0.1414 a 58.098395,59.20549 0 0 0 53.67572,-36.54982 58.098395,59.20549 0 0 0 -12.59338,-64.5224 58.098395,59.20549 0 0 0 -63.31586,-12.83335 58.098395,59.20549 0 0 0 -35.86636,54.69852 h -412.4932 a 58.098391,59.205486 0 0 0 -35.86261,-54.69852 58.098391,59.205486 0 0 0 -63.315862,12.83335 58.098391,59.205486 0 0 0 -12.593379,64.5224 58.098391,59.205486 0 0 0 53.675721,36.54982 v 0.1414 z"
       id="rect1430-9-7"
       inkscape:connector-curvature="0" />
    <ellipse
       style="opacity:1;fill:#ababab;fill-opacity:1;fill-rule:nonzero;stroke:#000000;stroke-width:7.75798893;stroke-linecap:round;stroke-linejoin:round;stroke-miterlimit:4;stroke-dasharray:none;stroke-dashoffset:0;stroke-opacity:1;paint-order:stroke markers fill"
       id="path960-9"
       cx="-624.3446"
       cy="-950.86603"
       transform="scale(-1)"
       rx="18.326969"
       ry="18.676201" />
    <ellipse
       style="opacity:1;fill:#ababab;fill-opacity:1;fill-rule:nonzero;stroke:#000000;stroke-width:7.75798893;stroke-linecap:round;stroke-linejoin:round;stroke-miterlimit:4;stroke-dasharray:none;stroke-dashoffset:0;stroke-opacity:1;paint-order:stroke markers fill"
       id="path960-2-3"
       cx="-95.654968"
       cy="-950.86694"
       transform="scale(-1)"
       rx="18.326971"
       ry="18.676203" />
    <path
       style="opacity:1;fill:#ffffff;fill-opacity:1;fill-rule:nonzero;stroke:#000000;stroke-width:14.48858643;stroke-linecap:round;stroke-linejoin:round;stroke-miterlimit:4;stroke-dasharray:none;stroke-dashoffset:0;stroke-opacity:1;paint-order:stroke markers fill"
       d="m 95.6554,34.510432 v 0.141386 a 58.098395,59.20549 0 0 0 -53.675721,36.549812 58.098395,59.20549 0 0 0 12.593379,64.5224 58.098395,59.20549 0 0 0 63.315862,12.83335 58.098395,59.20549 0 0 0 35.86636,-54.698513 h 412.4932 a 58.098391,59.205486 0 0 0 35.86261,54.698513 58.098391,59.205486 0 0 0 63.31586,-12.83335 58.098391,59.205486 0 0 0 12.59338,-64.5224 58.098391,59.205486 0 0 0 -53.67572,-36.549812 v -0.141386 z"
       id="rect1430-9"
       inkscape:connector-curvature="0" />
    <ellipse
       style="opacity:1;fill:#ababab;fill-opacity:1;fill-rule:nonzero;stroke:#000000;stroke-width:7.75798893;stroke-linecap:round;stroke-linejoin:round;stroke-miterlimit:4;stroke-dasharray:none;stroke-dashoffset:0;stroke-opacity:1;paint-order:stroke markers fill"
       id="path960"
       cx="95.65538"
       cy="93.858315"
       rx="18.326969"
       ry="18.676201" />
    <ellipse
       style="opacity:1;fill:#ababab;fill-opacity:1;fill-rule:nonzero;stroke:#000000;stroke-width:7.75798893;stroke-linecap:round;stroke-linejoin:round;stroke-miterlimit:4;stroke-dasharray:none;stroke-dashoffset:0;stroke-opacity:1;paint-order:stroke markers fill"
       id="path960-2"
       cx="624.34509"
       cy="93.85743"
       rx="18.326971"
       ry="18.676203" />
    <g
       transform="rotate(180,171.32917,701.66369)"
       id="g1724">
      <ellipse
         ry="90.218399"
         rx="88.082397"
         cy="637.74176"
         cx="-12.448187"
         id="path826"
         style="opacity:1;fill:#e7e7e7;fill-opacity:1;fill-rule:nonzero;stroke:#000000;stroke-width:3.75;stroke-linecap:round;stroke-linejoin:round;stroke-miterlimit:4;stroke-dasharray:none;stroke-dashoffset:0;stroke-opacity:1;paint-order:stroke markers fill" />
      <ellipse
         ry="90.218399"
         rx="88.082397"
         cy="632.72961"
         cx="-22.235117"
         id="path826-3"
         style="opacity:1;fill:#ffffff;fill-opacity:1;fill-rule:nonzero;stroke:#000000;stroke-width:3.75;stroke-linecap:round;stroke-linejoin:round;stroke-miterlimit:4;stroke-dasharray:none;stroke-dashoffset:0;stroke-opacity:1;paint-order:stroke markers fill" />
      <path
         inkscape:connector-curvature="0"
         id="path843"
         d="m -63.360193,696.20278 c 12.146684,-2.08495 21.182426,-12.84343 25.842811,-23.94 3.343973,-7.7081 3.422307,-18.51495 -4.091837,-23.72226 -6.080339,-2.74548 -13.09562,-4.64071 -17.478288,-10.31996 -10.432495,-12.37512 -9.607904,-30.78692 -4.091527,-45.21687 3.479842,-11.73727 11.809848,-21.70873 22.583745,-27.06499 16.009326,-8.46509 37.7628722,-7.68561 50.89776,5.92815 10.942358,10.98862 12.030928,28.17798 9.189826,42.77798 -2.405867,15.76636 -9.093856,31.52833 -5.509223,47.66614 1.921213,10.06466 6.891436,19.93218 15.390188,25.74035"
         style="fill:#f3f3f3;fill-opacity:1;stroke:#000000;stroke-width:0.93750006;stroke-linecap:butt;stroke-linejoin:miter;stroke-miterlimit:4;stroke-dasharray:none;stroke-opacity:1" />
    </g>
    <g
       id="g1708"
       transform="matrix(0.43115024,0,0,0.43417015,204.29892,50.934629)">
      <rect
         ry="40"
         y="306.86963"
         x="145.46196"
         height="427.29453"
         width="431.33514"
         id="rect4146"
         style="fill:#ffffff;fill-opacity:1;fill-rule:evenodd;stroke:#000000;stroke-width:3;stroke-linecap:round;stroke-linejoin:miter;stroke-miterlimit:4;stroke-dasharray:none;stroke-dashoffset:0;stroke-opacity:1" />
      <circle
         r="39.726036"
         cy="522.36224"
         cx="360"
         id="path4148"
         style="fill:#000000;fill-opacity:1;fill-rule:evenodd;stroke:#000000;stroke-width:3;stroke-linecap:round;stroke-linejoin:miter;stroke-miterlimit:4;stroke-dasharray:none;stroke-dashoffset:0;stroke-opacity:1" />
      <g
         transform="translate(1.3958435,-7.2460836)"
         id="g4183">
        <circle
           style="fill:#000000;fill-opacity:1;fill-rule:evenodd;stroke:#000000;stroke-width:3;stroke-linecap:round;stroke-linejoin:miter;stroke-miterlimit:4;stroke-dasharray:none;stroke-dashoffset:0;stroke-opacity:1"
           id="path4148-9"
           cx="491.94431"
           cy="385.66156"
           r="39.726036" />
        <circle
           style="fill:#000000;fill-opacity:1;fill-rule:evenodd;stroke:#000000;stroke-width:3;stroke-linecap:round;stroke-linejoin:miter;stroke-miterlimit:4;stroke-dasharray:none;stroke-dashoffset:0;stroke-opacity:1"
           id="path4148-0"
           cx="225.26401"
           cy="385.66156"
           r="39.726036" />
        <circle
           style="fill:#000000;fill-opacity:1;fill-rule:evenodd;stroke:#000000;stroke-width:3;stroke-linecap:round;stroke-linejoin:miter;stroke-miterlimit:4;stroke-dasharray:none;stroke-dashoffset:0;stroke-opacity:1"
           id="path4148-3"
           cx="225.26401"
           cy="673.55505"
           r="39.726036" />
        <circle
           style="fill:#000000;fill-opacity:1;fill-rule:evenodd;stroke:#000000;stroke-width:3;stroke-linecap:round;stroke-linejoin:miter;stroke-miterlimit:4;stroke-dasharray:none;stroke-dashoffset:0;stroke-opacity:1"
           id="path4148-92"
           cx="491.94431"
           cy="673.55505"
           r="39.726036" />
      </g>
    </g>
  </g>
</svg>
