<?xml version="1.0" encoding="UTF-8" standalone="no"?>
<!-- Created with Inkscape (http://www.inkscape.org/) -->

<svg
   xmlns:dc="http://purl.org/dc/elements/1.1/"
   xmlns:cc="http://creativecommons.org/ns#"
   xmlns:rdf="http://www.w3.org/1999/02/22-rdf-syntax-ns#"
   xmlns:svg="http://www.w3.org/2000/svg"
   xmlns="http://www.w3.org/2000/svg"
   xmlns:sodipodi="http://sodipodi.sourceforge.net/DTD/sodipodi-0.dtd"
   xmlns:inkscape="http://www.inkscape.org/namespaces/inkscape"
   sodipodi:docname="upon_sci-mag.svg"
   inkscape:version="0.92.4 (5da689c313, 2019-01-14)"
   version="1.1"
   id="svg2"
   viewBox="0 0 719.99999 1060"
   height="11.777778in"
   width="8in"
   inkscape:export-filename="C:\Users\Giltwist\Dropbox\Tarot\Minors\export\upon-sci_mag.png"
   inkscape:export-xdpi="300"
   inkscape:export-ydpi="300">
  <sodipodi:namedview
     inkscape:window-maximized="1"
     inkscape:window-y="-8"
     inkscape:window-x="-8"
     inkscape:window-height="1377"
     inkscape:window-width="2560"
     units="in"
     showgrid="false"
     inkscape:current-layer="layer1"
     inkscape:document-units="px"
     inkscape:cy="707.04232"
     inkscape:cx="-114.81682"
     inkscape:zoom="0.6940532"
     inkscape:pageshadow="2"
     inkscape:pageopacity="0"
     borderopacity="1.0"
     bordercolor="#666666"
     pagecolor="#000000"
     id="base"
     showguides="true"
     inkscape:guide-bbox="true">
    <sodipodi:guide
       position="359.10924,747.00782"
       orientation="1,0"
       id="guide4140"
       inkscape:locked="false" />
    <sodipodi:guide
       position="-77.781746,526.28949"
       orientation="0,1"
       id="guide4149"
       inkscape:locked="false" />
  </sodipodi:namedview>
  <defs
     id="defs4">
    <inkscape:path-effect
       effect="powerstroke"
       id="path-effect4186"
       is_visible="true"
       offset_points="0,0.5"
       sort_points="true"
       interpolator_type="CubicBezierJohan"
       interpolator_beta="0.2"
       start_linecap_type="zerowidth"
       linejoin_type="round"
       miter_limit="4"
       end_linecap_type="zerowidth"
       cusp_linecap_type="round" />
  </defs>
  <metadata
     id="metadata7">
    <rdf:RDF>
      <cc:Work
         rdf:about="">
        <dc:format>image/svg+xml</dc:format>
        <dc:type
           rdf:resource="http://purl.org/dc/dcmitype/StillImage" />
        <dc:title></dc:title>
      </cc:Work>
    </rdf:RDF>
  </metadata>
  <g
     inkscape:label="Layer 1"
     inkscape:groupmode="layer"
     id="layer1"
     transform="translate(0,7.6377767)">
    <path
       inkscape:connector-curvature="0"
       style="fill:#000000;fill-opacity:1;stroke:#000000;stroke-width:1.30849493;stroke-miterlimit:4;stroke-dasharray:none;stroke-opacity:1"
       d="m 429.58464,749.22296 7.56565,-0.10233 4.88504,1.14792 12.14602,7.39223 -0.96261,7.88575 -13.56236,4.2105 -5.01571,-0.0774 -7.31583,-1.94411 -5.15211,13.61857 6.74629,3.44961 3.79566,3.30231 7.34301,12.22907 -4.49188,6.53205 -13.95216,-2.6181 -4.40546,-2.41557 -5.58055,-5.14478 -10.8474,9.64779 4.38144,6.2113 1.83675,4.70018 0.85781,14.26435 -6.99212,3.68194 -11.14567,-8.84694 -2.78596,-4.20034 -2.56687,-7.16683 -14.05766,3.46681 1.01287,7.55007 -0.54292,5.02129 -5.82391,13.03186 -7.89056,-0.0116 -5.78586,-13.04902 -0.52825,-5.02289 1.03488,-7.54703 -14.04749,-3.50839 -2.58777,7.15922 -2.79821,4.19208 -11.17144,8.81391 -6.98134,-3.7026 0.89941,-14.26177 1.85047,-4.69472 4.39955,-6.19829 -10.81919,-9.67984 -5.59557,5.12823 -4.41246,2.40254 -13.95975,2.57681 -4.4728,-6.54533 7.37866,-12.20728 3.80529,-3.29105 6.75633,-3.42964 -5.11238,-13.63377 -7.32147,1.92247 -5.01589,0.0626 -13.55002,-4.25062 -0.93958,-7.88856 12.16752,-7.35628 4.88837,-1.13347 7.56529,0.12473 1.76565,-14.46433 -7.37011,-1.72371 -4.47025,-2.29172 -10.03614,-10.10426 2.80885,-7.42465 14.16899,-0.82004 4.85154,1.2838 6.64118,3.65053 8.23918,-11.98133 -5.73037,-4.97503 -2.90051,-4.12098 -4.22311,-13.64316 5.91383,-5.25984 12.92449,5.90407 3.70331,3.40697 4.19565,6.34002 12.82521,-6.75354 -2.77788,-7.0866 -0.66629,-5.00621 2.55737,-14.05656 7.66405,-1.89006 8.71912,11.27564 1.70671,4.74961 0.78891,7.57712 14.47314,0.0214 0.81103,-7.57474 1.72054,-4.74457 8.752,-11.24977 7.65849,1.91271 2.51634,14.06407 -0.68089,5.00422 -2.79853,7.07836 12.80543,6.79147 4.21413,-6.3276 3.71324,-3.39599 12.94164,-5.86583 5.89848,5.27733 -4.26292,13.63059 -2.91251,4.11239 -5.74487,4.95805 8.20419,12.00566 6.65179,-3.63087 4.85529,-1.26943 14.16651,0.86193 2.7872,7.43294 -10.06559,10.07453 -4.47691,2.27847 -7.37513,1.70191 z"
       id="path4258" />
    <ellipse
       style="opacity:1;fill:#808080;fill-opacity:1;fill-rule:evenodd;stroke:#000000;stroke-width:4.6875;stroke-linecap:butt;stroke-linejoin:miter;stroke-miterlimit:4;stroke-dasharray:none;stroke-dashoffset:0;stroke-opacity:1;paint-order:markers stroke fill"
       id="path3015"
       cx="360"
       cy="522.36224"
       r="154.19852" />
    <path
       sodipodi:type="star"
       style="opacity:1;fill:#ffffff;fill-opacity:1;fill-rule:nonzero;stroke:#808080;stroke-width:3.75;stroke-linecap:round;stroke-linejoin:round;stroke-miterlimit:4;stroke-dasharray:none;stroke-dashoffset:0;stroke-opacity:1;paint-order:stroke markers fill"
       id="path1678"
       sodipodi:sides="4"
       sodipodi:cx="416.03439"
       sodipodi:cy="322.59369"
       sodipodi:r1="287.76285"
       sodipodi:r2="203.47903"
       sodipodi:arg1="2.3561945"
       sodipodi:arg2="3.1415927"
       inkscape:flatsided="true"
       inkscape:rounded="0.11"
       inkscape:randomized="0"
       d="m 212.55533,526.07275 c -31.65391,-31.65392 -31.65391,-375.30421 0,-406.95812 31.65392,-31.653917 375.30421,-31.653914 406.95813,0 31.65391,31.65391 31.65391,375.30421 -10e-6,406.95812 -31.65391,31.65392 -375.30421,31.65391 -406.95812,0 z"
       transform="matrix(0.77709232,0,0,1.9162479,36.702872,-95.807255)" />
    <rect
       style="opacity:1;fill:#ababab;fill-opacity:1;fill-rule:nonzero;stroke:#000000;stroke-width:14.0562067;stroke-linecap:round;stroke-linejoin:round;stroke-miterlimit:4;stroke-dasharray:none;stroke-dashoffset:0;stroke-opacity:1;paint-order:stroke markers fill"
       id="rect1430-1"
       width="363.01337"
       height="81.350662"
       x="-541.50677"
       y="-132.14673"
       transform="scale(-1)" />
    <rect
       style="opacity:1;fill:#ababab;fill-opacity:1;fill-rule:nonzero;stroke:#000000;stroke-width:14.05620766;stroke-linecap:round;stroke-linejoin:round;stroke-miterlimit:4;stroke-dasharray:none;stroke-dashoffset:0;stroke-opacity:1;paint-order:stroke markers fill"
       id="rect1430-1-3"
       width="363.0134"
       height="81.35067"
       x="-541.50677"
       y="-993.92834"
       transform="scale(-1)" />
    <path
       style="opacity:1;fill:#ffffff;fill-opacity:1;fill-rule:nonzero;stroke:#000000;stroke-width:14.48858643;stroke-linecap:round;stroke-linejoin:round;stroke-miterlimit:4;stroke-dasharray:none;stroke-dashoffset:0;stroke-opacity:1;paint-order:stroke markers fill"
       d="m 624.34461,1010.214 v -0.1414 a 58.098395,59.20549 0 0 0 53.67572,-36.54982 58.098395,59.20549 0 0 0 -12.59338,-64.5224 58.098395,59.20549 0 0 0 -63.31586,-12.83335 58.098395,59.20549 0 0 0 -35.86636,54.69852 h -412.4932 a 58.098391,59.205486 0 0 0 -35.86261,-54.69852 58.098391,59.205486 0 0 0 -63.315862,12.83335 58.098391,59.205486 0 0 0 -12.593379,64.5224 58.098391,59.205486 0 0 0 53.675721,36.54982 v 0.1414 z"
       id="rect1430-9-7"
       inkscape:connector-curvature="0" />
    <ellipse
       style="opacity:1;fill:#ababab;fill-opacity:1;fill-rule:nonzero;stroke:#000000;stroke-width:7.75798893;stroke-linecap:round;stroke-linejoin:round;stroke-miterlimit:4;stroke-dasharray:none;stroke-dashoffset:0;stroke-opacity:1;paint-order:stroke markers fill"
       id="path960-9"
       cx="-624.3446"
       cy="-950.86603"
       transform="scale(-1)"
       rx="18.326969"
       ry="18.676201" />
    <ellipse
       style="opacity:1;fill:#ababab;fill-opacity:1;fill-rule:nonzero;stroke:#000000;stroke-width:7.75798893;stroke-linecap:round;stroke-linejoin:round;stroke-miterlimit:4;stroke-dasharray:none;stroke-dashoffset:0;stroke-opacity:1;paint-order:stroke markers fill"
       id="path960-2-3"
       cx="-95.654968"
       cy="-950.86694"
       transform="scale(-1)"
       rx="18.326971"
       ry="18.676203" />
    <path
       style="opacity:1;fill:#ffffff;fill-opacity:1;fill-rule:nonzero;stroke:#000000;stroke-width:14.48858643;stroke-linecap:round;stroke-linejoin:round;stroke-miterlimit:4;stroke-dasharray:none;stroke-dashoffset:0;stroke-opacity:1;paint-order:stroke markers fill"
       d="m 95.6554,34.510432 v 0.141386 a 58.098395,59.20549 0 0 0 -53.675721,36.549812 58.098395,59.20549 0 0 0 12.593379,64.5224 58.098395,59.20549 0 0 0 63.315862,12.83335 58.098395,59.20549 0 0 0 35.86636,-54.698513 h 412.4932 a 58.098391,59.205486 0 0 0 35.86261,54.698513 58.098391,59.205486 0 0 0 63.31586,-12.83335 58.098391,59.205486 0 0 0 12.59338,-64.5224 58.098391,59.205486 0 0 0 -53.67572,-36.549812 v -0.141386 z"
       id="rect1430-9"
       inkscape:connector-curvature="0" />
    <ellipse
       style="opacity:1;fill:#ababab;fill-opacity:1;fill-rule:nonzero;stroke:#000000;stroke-width:7.75798893;stroke-linecap:round;stroke-linejoin:round;stroke-miterlimit:4;stroke-dasharray:none;stroke-dashoffset:0;stroke-opacity:1;paint-order:stroke markers fill"
       id="path960"
       cx="95.65538"
       cy="93.858315"
       rx="18.326969"
       ry="18.676201" />
    <ellipse
       style="opacity:1;fill:#ababab;fill-opacity:1;fill-rule:nonzero;stroke:#000000;stroke-width:7.75798893;stroke-linecap:round;stroke-linejoin:round;stroke-miterlimit:4;stroke-dasharray:none;stroke-dashoffset:0;stroke-opacity:1;paint-order:stroke markers fill"
       id="path960-2"
       cx="624.34509"
       cy="93.85743"
       rx="18.326971"
       ry="18.676203" />
    <g
       id="g1676"
       transform="translate(4.8372459e-7,2.6362279)">
      <g
         style="fill:#000000;fill-opacity:1;stroke:#000000;stroke-width:2.98635888;stroke-miterlimit:4;stroke-dasharray:none;stroke-opacity:1"
         id="g929"
         transform="matrix(0.84818202,0,0,0.84702661,75.308971,-35.183809)">
        <g
           style="fill:#000000;fill-opacity:1;stroke:#000000;stroke-width:3.77132869;stroke-miterlimit:4;stroke-dasharray:none;stroke-opacity:1"
           id="use889"
           inkscape:transform-center-y="-50.765436"
           inkscape:tile-x0="250.4754"
           inkscape:tile-y0="159.17572"
           transform="matrix(1.0200979,0,0,0.61468605,24.966507,81.005903)">
          <rect
             y="332.20465"
             x="293.95438"
             height="117.1777"
             width="21.213203"
             id="rect897"
             style="fill:#000000;fill-opacity:1;fill-rule:evenodd;stroke:#000000;stroke-width:3.77132869;stroke-linecap:square;stroke-linejoin:miter;stroke-miterlimit:4;stroke-dasharray:none;stroke-dashoffset:0;stroke-opacity:1" />
          <path
             inkscape:transform-center-y="-7.2843136"
             d="m 329.79458,329.51946 -50.46721,0 25.2336,-43.70588 z"
             inkscape:randomized="0"
             inkscape:rounded="-3.46945e-18"
             inkscape:flatsided="true"
             sodipodi:arg2="1.5707963"
             sodipodi:arg1="0.52359878"
             sodipodi:r2="14.568627"
             sodipodi:r1="29.137255"
             sodipodi:cy="314.95084"
             sodipodi:cx="304.56097"
             sodipodi:sides="3"
             id="path899"
             style="fill:#000000;fill-opacity:1;fill-rule:evenodd;stroke:#000000;stroke-width:3.77132869;stroke-linecap:square;stroke-linejoin:miter;stroke-miterlimit:4;stroke-dasharray:none;stroke-dashoffset:0;stroke-opacity:1"
             sodipodi:type="star" />
        </g>
        <g
           style="fill:#000000;fill-opacity:1;stroke:#000000;stroke-width:3.77132869;stroke-miterlimit:4;stroke-dasharray:none;stroke-opacity:1"
           id="use891"
           inkscape:transform-center-y="-50.765436"
           inkscape:tile-x0="250.4754"
           inkscape:tile-y0="159.17572"
           transform="matrix(0.72131814,0.72131814,-0.43464867,0.43464867,317.03643,-55.392173)">
          <rect
             y="332.20465"
             x="293.95438"
             height="117.1777"
             width="21.213203"
             id="rect903"
             style="fill:#000000;fill-opacity:1;fill-rule:evenodd;stroke:#000000;stroke-width:3.77132869;stroke-linecap:square;stroke-linejoin:miter;stroke-miterlimit:4;stroke-dasharray:none;stroke-dashoffset:0;stroke-opacity:1" />
          <path
             inkscape:transform-center-y="-7.2843136"
             d="m 329.79458,329.51946 -50.46721,0 25.2336,-43.70588 z"
             inkscape:randomized="0"
             inkscape:rounded="-3.46945e-18"
             inkscape:flatsided="true"
             sodipodi:arg2="1.5707963"
             sodipodi:arg1="0.52359878"
             sodipodi:r2="14.568627"
             sodipodi:r1="29.137255"
             sodipodi:cy="314.95084"
             sodipodi:cx="304.56097"
             sodipodi:sides="3"
             id="path905"
             style="fill:#000000;fill-opacity:1;fill-rule:evenodd;stroke:#000000;stroke-width:3.77132869;stroke-linecap:square;stroke-linejoin:miter;stroke-miterlimit:4;stroke-dasharray:none;stroke-dashoffset:0;stroke-opacity:1"
             sodipodi:type="star" />
        </g>
        <g
           style="fill:#000000;fill-opacity:1;stroke:#000000;stroke-width:3.77132869;stroke-miterlimit:4;stroke-dasharray:none;stroke-opacity:1"
           id="use893"
           inkscape:transform-center-y="-50.765436"
           inkscape:tile-x0="250.4754"
           inkscape:tile-y0="159.17572"
           transform="matrix(0,1.0200979,-0.61468605,0,620.00905,54.684444)">
          <rect
             y="332.20465"
             x="293.95438"
             height="117.1777"
             width="21.213203"
             id="rect909"
             style="fill:#000000;fill-opacity:1;fill-rule:evenodd;stroke:#000000;stroke-width:3.77132869;stroke-linecap:square;stroke-linejoin:miter;stroke-miterlimit:4;stroke-dasharray:none;stroke-dashoffset:0;stroke-opacity:1" />
          <path
             inkscape:transform-center-y="-7.2843136"
             d="m 329.79458,329.51946 -50.46721,0 25.2336,-43.70588 z"
             inkscape:randomized="0"
             inkscape:rounded="-3.46945e-18"
             inkscape:flatsided="true"
             sodipodi:arg2="1.5707963"
             sodipodi:arg1="0.52359878"
             sodipodi:r2="14.568627"
             sodipodi:r1="29.137255"
             sodipodi:cy="314.95084"
             sodipodi:cx="304.56097"
             sodipodi:sides="3"
             id="path911"
             style="fill:#000000;fill-opacity:1;fill-rule:evenodd;stroke:#000000;stroke-width:3.77132869;stroke-linecap:square;stroke-linejoin:miter;stroke-miterlimit:4;stroke-dasharray:none;stroke-dashoffset:0;stroke-opacity:1"
             sodipodi:type="star" />
        </g>
        <g
           style="fill:#000000;fill-opacity:1;stroke:#000000;stroke-width:3.77132869;stroke-miterlimit:4;stroke-dasharray:none;stroke-opacity:1"
           id="use895"
           inkscape:transform-center-y="-50.765436"
           inkscape:tile-x0="250.4754"
           inkscape:tile-y0="159.17572"
           transform="matrix(-0.72131814,0.72131814,-0.43464867,-0.43464867,756.40713,346.75437)">
          <rect
             y="332.20465"
             x="293.95438"
             height="117.1777"
             width="21.213203"
             id="rect915"
             style="fill:#000000;fill-opacity:1;fill-rule:evenodd;stroke:#000000;stroke-width:3.77132869;stroke-linecap:square;stroke-linejoin:miter;stroke-miterlimit:4;stroke-dasharray:none;stroke-dashoffset:0;stroke-opacity:1" />
          <path
             inkscape:transform-center-y="-7.2843136"
             d="m 329.79458,329.51946 -50.46721,0 25.2336,-43.70588 z"
             inkscape:randomized="0"
             inkscape:rounded="-3.46945e-18"
             inkscape:flatsided="true"
             sodipodi:arg2="1.5707963"
             sodipodi:arg1="0.52359878"
             sodipodi:r2="14.568627"
             sodipodi:r1="29.137255"
             sodipodi:cy="314.95084"
             sodipodi:cx="304.56097"
             sodipodi:sides="3"
             id="path917"
             style="fill:#000000;fill-opacity:1;fill-rule:evenodd;stroke:#000000;stroke-width:3.77132869;stroke-linecap:square;stroke-linejoin:miter;stroke-miterlimit:4;stroke-dasharray:none;stroke-dashoffset:0;stroke-opacity:1"
             sodipodi:type="star" />
        </g>
        <g
           style="fill:#000000;fill-opacity:1;stroke:#000000;stroke-width:3.77132869;stroke-miterlimit:4;stroke-dasharray:none;stroke-opacity:1"
           id="use897"
           inkscape:transform-center-y="-50.765436"
           inkscape:tile-x0="250.4754"
           inkscape:tile-y0="159.17572"
           transform="matrix(-1.0200979,0,0,-0.61468605,646.33051,649.727)">
          <rect
             y="332.20465"
             x="293.95438"
             height="117.1777"
             width="21.213203"
             id="rect921"
             style="fill:#000000;fill-opacity:1;fill-rule:evenodd;stroke:#000000;stroke-width:3.77132869;stroke-linecap:square;stroke-linejoin:miter;stroke-miterlimit:4;stroke-dasharray:none;stroke-dashoffset:0;stroke-opacity:1" />
          <path
             inkscape:transform-center-y="-7.2843136"
             d="m 329.79458,329.51946 -50.46721,0 25.2336,-43.70588 z"
             inkscape:randomized="0"
             inkscape:rounded="-3.46945e-18"
             inkscape:flatsided="true"
             sodipodi:arg2="1.5707963"
             sodipodi:arg1="0.52359878"
             sodipodi:r2="14.568627"
             sodipodi:r1="29.137255"
             sodipodi:cy="314.95084"
             sodipodi:cx="304.56097"
             sodipodi:sides="3"
             id="path923"
             style="fill:#000000;fill-opacity:1;fill-rule:evenodd;stroke:#000000;stroke-width:3.77132869;stroke-linecap:square;stroke-linejoin:miter;stroke-miterlimit:4;stroke-dasharray:none;stroke-dashoffset:0;stroke-opacity:1"
             sodipodi:type="star" />
        </g>
        <g
           style="fill:#000000;fill-opacity:1;stroke:#000000;stroke-width:3.77132869;stroke-miterlimit:4;stroke-dasharray:none;stroke-opacity:1"
           id="use899"
           inkscape:transform-center-y="-50.765436"
           inkscape:tile-x0="250.4754"
           inkscape:tile-y0="159.17572"
           transform="matrix(-0.72131814,-0.72131814,0.43464867,-0.43464867,354.2606,786.12506)">
          <rect
             y="332.20465"
             x="293.95438"
             height="117.1777"
             width="21.213203"
             id="rect927"
             style="fill:#000000;fill-opacity:1;fill-rule:evenodd;stroke:#000000;stroke-width:3.77132869;stroke-linecap:square;stroke-linejoin:miter;stroke-miterlimit:4;stroke-dasharray:none;stroke-dashoffset:0;stroke-opacity:1" />
          <path
             inkscape:transform-center-y="-7.2843136"
             d="m 329.79458,329.51946 -50.46721,0 25.2336,-43.70588 z"
             inkscape:randomized="0"
             inkscape:rounded="-3.46945e-18"
             inkscape:flatsided="true"
             sodipodi:arg2="1.5707963"
             sodipodi:arg1="0.52359878"
             sodipodi:r2="14.568627"
             sodipodi:r1="29.137255"
             sodipodi:cy="314.95084"
             sodipodi:cx="304.56097"
             sodipodi:sides="3"
             id="path929"
             style="fill:#000000;fill-opacity:1;fill-rule:evenodd;stroke:#000000;stroke-width:3.77132869;stroke-linecap:square;stroke-linejoin:miter;stroke-miterlimit:4;stroke-dasharray:none;stroke-dashoffset:0;stroke-opacity:1"
             sodipodi:type="star" />
        </g>
        <g
           style="fill:#000000;fill-opacity:1;stroke:#000000;stroke-width:3.77132869;stroke-miterlimit:4;stroke-dasharray:none;stroke-opacity:1"
           id="use901"
           inkscape:transform-center-y="-50.765436"
           inkscape:tile-x0="250.4754"
           inkscape:tile-y0="159.17572"
           transform="matrix(0,-1.0200979,0.61468605,0,51.287973,676.04846)">
          <rect
             y="332.20465"
             x="293.95438"
             height="117.1777"
             width="21.213203"
             id="rect933"
             style="fill:#000000;fill-opacity:1;fill-rule:evenodd;stroke:#000000;stroke-width:3.77132869;stroke-linecap:square;stroke-linejoin:miter;stroke-miterlimit:4;stroke-dasharray:none;stroke-dashoffset:0;stroke-opacity:1" />
          <path
             inkscape:transform-center-y="-7.2843136"
             d="m 329.79458,329.51946 -50.46721,0 25.2336,-43.70588 z"
             inkscape:randomized="0"
             inkscape:rounded="-3.46945e-18"
             inkscape:flatsided="true"
             sodipodi:arg2="1.5707963"
             sodipodi:arg1="0.52359878"
             sodipodi:r2="14.568627"
             sodipodi:r1="29.137255"
             sodipodi:cy="314.95084"
             sodipodi:cx="304.56097"
             sodipodi:sides="3"
             id="path935"
             style="fill:#000000;fill-opacity:1;fill-rule:evenodd;stroke:#000000;stroke-width:3.77132869;stroke-linecap:square;stroke-linejoin:miter;stroke-miterlimit:4;stroke-dasharray:none;stroke-dashoffset:0;stroke-opacity:1"
             sodipodi:type="star" />
        </g>
        <g
           style="fill:#000000;fill-opacity:1;stroke:#000000;stroke-width:3.77132869;stroke-miterlimit:4;stroke-dasharray:none;stroke-opacity:1"
           id="use903"
           inkscape:transform-center-y="-50.765436"
           inkscape:tile-x0="250.4754"
           inkscape:tile-y0="159.17572"
           transform="matrix(0.72131814,-0.72131814,0.43464867,0.43464867,-85.110108,383.97853)">
          <rect
             y="332.20465"
             x="293.95438"
             height="117.1777"
             width="21.213203"
             id="rect939"
             style="fill:#000000;fill-opacity:1;fill-rule:evenodd;stroke:#000000;stroke-width:3.77132869;stroke-linecap:square;stroke-linejoin:miter;stroke-miterlimit:4;stroke-dasharray:none;stroke-dashoffset:0;stroke-opacity:1" />
          <path
             inkscape:transform-center-y="-7.2843136"
             d="m 329.79458,329.51946 -50.46721,0 25.2336,-43.70588 z"
             inkscape:randomized="0"
             inkscape:rounded="-3.46945e-18"
             inkscape:flatsided="true"
             sodipodi:arg2="1.5707963"
             sodipodi:arg1="0.52359878"
             sodipodi:r2="14.568627"
             sodipodi:r1="29.137255"
             sodipodi:cy="314.95084"
             sodipodi:cx="304.56097"
             sodipodi:sides="3"
             id="path941"
             style="fill:#000000;fill-opacity:1;fill-rule:evenodd;stroke:#000000;stroke-width:3.77132869;stroke-linecap:square;stroke-linejoin:miter;stroke-miterlimit:4;stroke-dasharray:none;stroke-dashoffset:0;stroke-opacity:1"
             sodipodi:type="star" />
        </g>
      </g>
      <path
         id="path4258-9"
         d="m 428.44921,763.69275 7.5656,-0.10233 4.8851,1.14792 12.146,7.39224 -0.9626,7.88575 -13.5624,4.2105 -5.0157,-0.0774 -7.3158,-1.94411 -5.15213,13.61857 6.74633,3.44961 3.7956,3.30231 7.343,12.22911 -4.4919,6.532 -13.95212,-2.6181 -4.40545,-2.4155 -5.58056,-5.1448 -10.8474,9.6478 4.38145,6.2113 1.83675,4.7001 0.8578,14.2644 -6.99212,3.6819 -11.14567,-8.8469 -2.78595,-4.2004 -2.56688,-7.1668 -14.05766,3.4668 1.01287,7.5501 -0.54292,5.0213 -5.82391,13.0318 -7.89056,-0.012 -5.78586,-13.049 -0.52825,-5.0229 1.03488,-7.547 -14.04749,-3.5084 -2.58777,7.1592 -2.79821,4.1921 -11.17144,8.8139 -6.98134,-3.7026 0.89941,-14.2618 1.85047,-4.6947 4.39955,-6.1983 -10.81919,-9.6798 -5.59557,5.1282 -4.41246,2.4026 -13.95975,2.5768 -4.4728,-6.5454 7.37866,-12.20724 3.80529,-3.29104 6.75633,-3.42965 -5.11238,-13.63376 -7.32147,1.92246 -5.01589,0.0626 -13.55002,-4.25062 -0.93958,-7.88857 12.16752,-7.35627 4.88837,-1.13347 7.56529,0.12473 1.76565,-14.46433 -7.37011,-1.72371 -4.47025,-2.29173 -10.03614,-10.10426 2.80885,-7.42465 14.16899,-0.82004 4.85154,1.2838 6.64118,3.65053 8.23918,-11.98133 -5.73037,-4.97503 -2.90051,-4.12098 -4.22311,-13.64316 5.91383,-5.25984 12.92449,5.90407 3.70331,3.40697 4.19565,6.34002 12.82521,-6.75354 -2.77788,-7.0866 -0.66629,-5.00621 2.55737,-14.05656 7.66405,-1.89006 8.71912,11.27564 1.70671,4.74961 0.78891,7.57712 14.47314,0.0214 0.81103,-7.57474 1.72054,-4.74457 8.752,-11.24977 7.6585,1.91271 2.51633,14.06407 -0.68089,5.00422 -2.79853,7.07836 12.80544,6.79147 4.21412,-6.3276 3.71325,-3.39599 12.94163,-5.86583 5.89849,5.27733 -4.26293,13.63059 -2.91251,4.11239 -5.74487,4.95805 8.20419,12.00567 6.65182,-3.63087 4.8553,-1.26944 14.1665,0.86193 2.7872,7.43295 -10.0656,10.07453 -4.4769,2.27847 -7.3752,1.70191 z"
         style="fill:#000000;fill-opacity:1;stroke:#000000;stroke-width:1.30849504;stroke-miterlimit:4;stroke-dasharray:none;stroke-opacity:1"
         inkscape:connector-curvature="0" />
    </g>
  </g>
</svg>
