<?xml version="1.0" encoding="UTF-8" standalone="no"?>
<!-- Created with Inkscape (http://www.inkscape.org/) -->

<svg
   xmlns:dc="http://purl.org/dc/elements/1.1/"
   xmlns:cc="http://creativecommons.org/ns#"
   xmlns:rdf="http://www.w3.org/1999/02/22-rdf-syntax-ns#"
   xmlns:svg="http://www.w3.org/2000/svg"
   xmlns="http://www.w3.org/2000/svg"
   xmlns:sodipodi="http://sodipodi.sourceforge.net/DTD/sodipodi-0.dtd"
   xmlns:inkscape="http://www.inkscape.org/namespaces/inkscape"
   sodipodi:docname="upon_past-future.svg"
   inkscape:version="0.92.4 (5da689c313, 2019-01-14)"
   version="1.1"
   id="svg2"
   viewBox="0 0 719.99999 1060"
   height="11.777778in"
   width="8in"
   inkscape:export-filename="C:\Users\Giltwist\Dropbox\Tarot\Minors\export\upon-past_future.png"
   inkscape:export-xdpi="300"
   inkscape:export-ydpi="300">
  <sodipodi:namedview
     inkscape:window-maximized="1"
     inkscape:window-y="-8"
     inkscape:window-x="-8"
     inkscape:window-height="1377"
     inkscape:window-width="2560"
     units="in"
     showgrid="false"
     inkscape:current-layer="layer1"
     inkscape:document-units="px"
     inkscape:cy="622.03443"
     inkscape:cx="-140.03103"
     inkscape:zoom="0.6940532"
     inkscape:pageshadow="2"
     inkscape:pageopacity="0"
     borderopacity="1.0"
     bordercolor="#666666"
     pagecolor="#000000"
     id="base"
     showguides="true"
     inkscape:guide-bbox="true">
    <sodipodi:guide
       position="359.10924,747.00782"
       orientation="1,0"
       id="guide4140"
       inkscape:locked="false" />
    <sodipodi:guide
       position="-77.781746,526.28949"
       orientation="0,1"
       id="guide4149"
       inkscape:locked="false" />
  </sodipodi:namedview>
  <defs
     id="defs4">
    <inkscape:path-effect
       effect="powerstroke"
       id="path-effect4186"
       is_visible="true"
       offset_points="0,0.5"
       sort_points="true"
       interpolator_type="CubicBezierJohan"
       interpolator_beta="0.2"
       start_linecap_type="zerowidth"
       linejoin_type="round"
       miter_limit="4"
       end_linecap_type="zerowidth"
       cusp_linecap_type="round" />
  </defs>
  <metadata
     id="metadata7">
    <rdf:RDF>
      <cc:Work
         rdf:about="">
        <dc:format>image/svg+xml</dc:format>
        <dc:type
           rdf:resource="http://purl.org/dc/dcmitype/StillImage" />
        <dc:title></dc:title>
      </cc:Work>
    </rdf:RDF>
  </metadata>
  <g
     inkscape:label="Layer 1"
     inkscape:groupmode="layer"
     id="layer1"
     transform="translate(0,7.6377767)">
    <path
       inkscape:connector-curvature="0"
       style="fill:#000000;fill-opacity:1;stroke:#000000;stroke-width:1.30849493;stroke-miterlimit:4;stroke-dasharray:none;stroke-opacity:1"
       d="m 429.58464,749.22296 7.56565,-0.10233 4.88504,1.14792 12.14602,7.39223 -0.96261,7.88575 -13.56236,4.2105 -5.01571,-0.0774 -7.31583,-1.94411 -5.15211,13.61857 6.74629,3.44961 3.79566,3.30231 7.34301,12.22907 -4.49188,6.53205 -13.95216,-2.6181 -4.40546,-2.41557 -5.58055,-5.14478 -10.8474,9.64779 4.38144,6.2113 1.83675,4.70018 0.85781,14.26435 -6.99212,3.68194 -11.14567,-8.84694 -2.78596,-4.20034 -2.56687,-7.16683 -14.05766,3.46681 1.01287,7.55007 -0.54292,5.02129 -5.82391,13.03186 -7.89056,-0.0116 -5.78586,-13.04902 -0.52825,-5.02289 1.03488,-7.54703 -14.04749,-3.50839 -2.58777,7.15922 -2.79821,4.19208 -11.17144,8.81391 -6.98134,-3.7026 0.89941,-14.26177 1.85047,-4.69472 4.39955,-6.19829 -10.81919,-9.67984 -5.59557,5.12823 -4.41246,2.40254 -13.95975,2.57681 -4.4728,-6.54533 7.37866,-12.20728 3.80529,-3.29105 6.75633,-3.42964 -5.11238,-13.63377 -7.32147,1.92247 -5.01589,0.0626 -13.55002,-4.25062 -0.93958,-7.88856 12.16752,-7.35628 4.88837,-1.13347 7.56529,0.12473 1.76565,-14.46433 -7.37011,-1.72371 -4.47025,-2.29172 -10.03614,-10.10426 2.80885,-7.42465 14.16899,-0.82004 4.85154,1.2838 6.64118,3.65053 8.23918,-11.98133 -5.73037,-4.97503 -2.90051,-4.12098 -4.22311,-13.64316 5.91383,-5.25984 12.92449,5.90407 3.70331,3.40697 4.19565,6.34002 12.82521,-6.75354 -2.77788,-7.0866 -0.66629,-5.00621 2.55737,-14.05656 7.66405,-1.89006 8.71912,11.27564 1.70671,4.74961 0.78891,7.57712 14.47314,0.0214 0.81103,-7.57474 1.72054,-4.74457 8.752,-11.24977 7.65849,1.91271 2.51634,14.06407 -0.68089,5.00422 -2.79853,7.07836 12.80543,6.79147 4.21413,-6.3276 3.71324,-3.39599 12.94164,-5.86583 5.89848,5.27733 -4.26292,13.63059 -2.91251,4.11239 -5.74487,4.95805 8.20419,12.00566 6.65179,-3.63087 4.85529,-1.26943 14.16651,0.86193 2.7872,7.43294 -10.06559,10.07453 -4.47691,2.27847 -7.37513,1.70191 z"
       id="path4258" />
    <ellipse
       style="opacity:1;fill:#808080;fill-opacity:1;fill-rule:evenodd;stroke:#000000;stroke-width:4.6875;stroke-linecap:butt;stroke-linejoin:miter;stroke-miterlimit:4;stroke-dasharray:none;stroke-dashoffset:0;stroke-opacity:1;paint-order:markers stroke fill"
       id="path3015"
       cx="360"
       cy="522.36224"
       r="154.19852" />
    <path
       sodipodi:type="star"
       style="opacity:1;fill:#ffffff;fill-opacity:1;fill-rule:nonzero;stroke:#808080;stroke-width:3.75;stroke-linecap:round;stroke-linejoin:round;stroke-miterlimit:4;stroke-dasharray:none;stroke-dashoffset:0;stroke-opacity:1;paint-order:stroke markers fill"
       id="path1678"
       sodipodi:sides="4"
       sodipodi:cx="416.03439"
       sodipodi:cy="322.59369"
       sodipodi:r1="287.76285"
       sodipodi:r2="203.47903"
       sodipodi:arg1="2.3561945"
       sodipodi:arg2="3.1415927"
       inkscape:flatsided="true"
       inkscape:rounded="0.11"
       inkscape:randomized="0"
       d="m 212.55533,526.07275 c -31.65391,-31.65392 -31.65391,-375.30421 0,-406.95812 31.65392,-31.653917 375.30421,-31.653914 406.95813,0 31.65391,31.65391 31.65391,375.30421 -10e-6,406.95812 -31.65391,31.65392 -375.30421,31.65391 -406.95812,0 z"
       transform="matrix(0.77709232,0,0,1.9162479,36.702872,-95.807255)" />
    <g
       id="g1516"
       transform="matrix(2.0493634,0,0,2.0884151,-1043.5223,-571.71963)"
       style="fill:#ababab;fill-opacity:1">
      <rect
         transform="scale(-1)"
         y="-337.03375"
         x="-773.42505"
         height="38.9533"
         width="177.1347"
         id="rect1430-1"
         style="opacity:1;fill:#ababab;fill-opacity:1;fill-rule:nonzero;stroke:#000000;stroke-width:6.79438639;stroke-linecap:round;stroke-linejoin:round;stroke-miterlimit:4;stroke-dasharray:none;stroke-dashoffset:0;stroke-opacity:1;paint-order:stroke markers fill" />
      <rect
         transform="scale(-1)"
         y="-749.68237"
         x="-773.42505"
         height="38.953304"
         width="177.13472"
         id="rect1430-1-3"
         style="opacity:1;fill:#ababab;fill-opacity:1;fill-rule:nonzero;stroke:#000000;stroke-width:6.79438686;stroke-linecap:round;stroke-linejoin:round;stroke-miterlimit:4;stroke-dasharray:none;stroke-dashoffset:0;stroke-opacity:1;paint-order:stroke markers fill" />
    </g>
    <path
       style="opacity:1;fill:#ffffff;fill-opacity:1;fill-rule:nonzero;stroke:#000000;stroke-width:14.48858643;stroke-linecap:round;stroke-linejoin:round;stroke-miterlimit:4;stroke-dasharray:none;stroke-dashoffset:0;stroke-opacity:1;paint-order:stroke markers fill"
       d="m 624.34461,1010.214 v -0.1414 a 58.098395,59.20549 0 0 0 53.67572,-36.54982 58.098395,59.20549 0 0 0 -12.59338,-64.5224 58.098395,59.20549 0 0 0 -63.31586,-12.83335 58.098395,59.20549 0 0 0 -35.86636,54.69852 h -412.4932 a 58.098391,59.205486 0 0 0 -35.86261,-54.69852 58.098391,59.205486 0 0 0 -63.315862,12.83335 58.098391,59.205486 0 0 0 -12.593379,64.5224 58.098391,59.205486 0 0 0 53.675721,36.54982 v 0.1414 z"
       id="rect1430-9-7"
       inkscape:connector-curvature="0" />
    <ellipse
       style="opacity:1;fill:#ababab;fill-opacity:1;fill-rule:nonzero;stroke:#000000;stroke-width:7.75798893;stroke-linecap:round;stroke-linejoin:round;stroke-miterlimit:4;stroke-dasharray:none;stroke-dashoffset:0;stroke-opacity:1;paint-order:stroke markers fill"
       id="path960-9"
       cx="-624.3446"
       cy="-950.86603"
       transform="scale(-1)"
       rx="18.326969"
       ry="18.676201" />
    <ellipse
       style="opacity:1;fill:#ababab;fill-opacity:1;fill-rule:nonzero;stroke:#000000;stroke-width:7.75798893;stroke-linecap:round;stroke-linejoin:round;stroke-miterlimit:4;stroke-dasharray:none;stroke-dashoffset:0;stroke-opacity:1;paint-order:stroke markers fill"
       id="path960-2-3"
       cx="-95.654968"
       cy="-950.86694"
       transform="scale(-1)"
       rx="18.326971"
       ry="18.676203" />
    <path
       style="opacity:1;fill:#ffffff;fill-opacity:1;fill-rule:nonzero;stroke:#000000;stroke-width:14.48858643;stroke-linecap:round;stroke-linejoin:round;stroke-miterlimit:4;stroke-dasharray:none;stroke-dashoffset:0;stroke-opacity:1;paint-order:stroke markers fill"
       d="m 95.6554,34.510432 v 0.141386 a 58.098395,59.20549 0 0 0 -53.675721,36.549812 58.098395,59.20549 0 0 0 12.593379,64.5224 58.098395,59.20549 0 0 0 63.315862,12.83335 58.098395,59.20549 0 0 0 35.86636,-54.698513 h 412.4932 a 58.098391,59.205486 0 0 0 35.86261,54.698513 58.098391,59.205486 0 0 0 63.31586,-12.83335 58.098391,59.205486 0 0 0 12.59338,-64.5224 58.098391,59.205486 0 0 0 -53.67572,-36.549812 v -0.141386 z"
       id="rect1430-9"
       inkscape:connector-curvature="0" />
    <ellipse
       style="opacity:1;fill:#ababab;fill-opacity:1;fill-rule:nonzero;stroke:#000000;stroke-width:7.75798893;stroke-linecap:round;stroke-linejoin:round;stroke-miterlimit:4;stroke-dasharray:none;stroke-dashoffset:0;stroke-opacity:1;paint-order:stroke markers fill"
       id="path960"
       cx="95.65538"
       cy="93.858315"
       rx="18.326969"
       ry="18.676201" />
    <ellipse
       style="opacity:1;fill:#ababab;fill-opacity:1;fill-rule:nonzero;stroke:#000000;stroke-width:7.75798893;stroke-linecap:round;stroke-linejoin:round;stroke-miterlimit:4;stroke-dasharray:none;stroke-dashoffset:0;stroke-opacity:1;paint-order:stroke markers fill"
       id="path960-2"
       cx="624.34509"
       cy="93.85743"
       rx="18.326971"
       ry="18.676203" />
    <path
       sodipodi:type="star"
       style="fill:#ffffff;fill-opacity:1;fill-rule:evenodd;stroke:#000000;stroke-width:3;stroke-linecap:round;stroke-linejoin:miter;stroke-miterlimit:4;stroke-dasharray:none;stroke-dashoffset:0;stroke-opacity:1"
       id="path4199"
       sodipodi:sides="3"
       sodipodi:cx="359.56781"
       sodipodi:cy="403.84427"
       sodipodi:r1="122.23263"
       sodipodi:r2="61.116314"
       sodipodi:arg1="1.5790606"
       sodipodi:arg2="2.6262582"
       inkscape:flatsided="true"
       inkscape:rounded="0.15"
       inkscape:randomized="0"
       d="M 358.55766,526.07272 C 326.80177,525.81028 238.11471,369.2254 254.21994,341.85522 c 16.10523,-27.37018 196.05523,-25.88299 211.70589,1.74964 15.65066,27.63262 -75.61229,182.73031 -107.36817,182.46786 z"
       inkscape:transform-center-x="-0.50507627"
       inkscape:transform-center-y="30.119705"
       inkscape:export-xdpi="300"
       inkscape:export-ydpi="300"
       transform="matrix(-0.43115024,0,0,-0.43417012,515.21409,994.08459)" />
    <rect
       style="fill:#ababab;fill-opacity:1;fill-rule:evenodd;stroke:#000000;stroke-width:1.29797268;stroke-linecap:round;stroke-linejoin:miter;stroke-miterlimit:4;stroke-dasharray:none;stroke-dashoffset:0;stroke-opacity:1"
       id="rect4182"
       width="185.97025"
       height="14.034498"
       x="-452.98514"
       y="-860.85095"
       inkscape:export-xdpi="300"
       inkscape:export-ydpi="300"
       transform="scale(-1)" />
    <path
       sodipodi:type="star"
       style="fill:#ffffff;fill-opacity:1;fill-rule:evenodd;stroke:#000000;stroke-width:3;stroke-linecap:round;stroke-linejoin:miter;stroke-miterlimit:4;stroke-dasharray:none;stroke-dashoffset:0;stroke-opacity:1"
       id="path4199-5"
       sodipodi:sides="3"
       sodipodi:cx="-358.43219"
       sodipodi:cy="-651.74951"
       sodipodi:r1="122.23263"
       sodipodi:r2="61.116314"
       sodipodi:arg1="1.5790606"
       sodipodi:arg2="2.6262582"
       inkscape:flatsided="true"
       inkscape:rounded="0.15"
       inkscape:randomized="0"
       d="m -359.44234,-529.52106 c -31.75589,-0.26244 -120.44295,-156.84732 -104.33772,-184.2175 16.10523,-27.37018 196.05523,-25.88299 211.70589,1.74964 15.65066,27.63262 -75.61229,182.73031 -107.36817,182.46786 z"
       inkscape:transform-center-x="0.50507366"
       inkscape:transform-center-y="-30.119692"
       transform="matrix(0.43115024,0,0,0.43417012,515.21409,994.08459)"
       inkscape:export-xdpi="300"
       inkscape:export-ydpi="300" />
    <rect
       style="fill:#ababab;fill-opacity:1;fill-rule:evenodd;stroke:#000000;stroke-width:1.29797268;stroke-linecap:round;stroke-linejoin:miter;stroke-miterlimit:4;stroke-dasharray:none;stroke-dashoffset:0;stroke-opacity:1"
       id="rect4182-3"
       width="185.97025"
       height="14.034498"
       x="-452.98514"
       y="-689.36694"
       inkscape:export-xdpi="300"
       inkscape:export-ydpi="300"
       transform="scale(-1)" />
    <path
       style="fill:none;fill-rule:evenodd;stroke:#000000;stroke-width:0.52266455px;stroke-linecap:butt;stroke-linejoin:miter;stroke-opacity:1"
       d="m 401.17424,822.65205 c -16.37023,3.17494 -33.22957,-0.28426 -49.75926,-0.75934 -5.96379,-0.26628 -11.92625,0.23049 -17.77173,0.89762 -5.0116,0.10113 -10.03995,0.41202 -14.91135,1.23109"
       id="path4227"
       inkscape:connector-curvature="0"
       inkscape:export-xdpi="300"
       inkscape:export-ydpi="300" />
    <path
       style="fill:none;fill-rule:evenodd;stroke:#000000;stroke-width:0.60634458px;stroke-linecap:butt;stroke-linejoin:miter;stroke-opacity:1"
       d="m 392.10462,689.52289 c -13.77972,0.57956 -26.44966,16.59022 -40.47908,8.51765 -7.59197,-3.15807 -14.85773,-8.26561 -22.89772,-9.02227"
       id="path4308"
       inkscape:connector-curvature="0"
       inkscape:export-xdpi="300"
       inkscape:export-ydpi="300" />
    <path
       style="fill:none;fill-rule:evenodd;stroke:#808080;stroke-width:1.44683385;stroke-linecap:butt;stroke-linejoin:miter;stroke-miterlimit:4;stroke-dasharray:1.44683389, 1.44683389;stroke-dashoffset:0;stroke-opacity:1"
       d="m 360.92713,759.47299 c -1.30899,-9.82768 -3.43893,-20.04349 -0.54308,-29.79488 1.16696,-6.92187 -3.65641,-13.61855 -1.26424,-20.48216 0.89377,-3.06148 2.347,-6.14392 1.80732,-9.42136"
       id="path4327"
       inkscape:connector-curvature="0"
       inkscape:export-xdpi="300"
       inkscape:export-ydpi="300" />
    <ellipse
       style="fill:#ffffff;fill-opacity:1;fill-rule:evenodd;stroke:#000000;stroke-width:1.05562592;stroke-linecap:round;stroke-linejoin:miter;stroke-miterlimit:4;stroke-dasharray:none;stroke-dashoffset:0;stroke-opacity:1"
       id="path4154"
       cx="-360.38495"
       cy="-765.66235"
       rx="9.2826948"
       ry="3.998116"
       inkscape:export-xdpi="300"
       inkscape:export-ydpi="300"
       transform="scale(-1)" />
    <path
       style="opacity:1;fill:#808080;fill-opacity:1;fill-rule:nonzero;stroke:#000000;stroke-width:0.40973452;stroke-linecap:round;stroke-linejoin:round;stroke-miterlimit:4;stroke-dasharray:none;stroke-dashoffset:0;stroke-opacity:1;paint-order:stroke markers fill"
       d="m 367.52221,770.24382 c 5.64595,5.05979 12.81724,14.6219 20.02116,26.69595 4.31335,7.22936 8.75602,15.83051 11.86092,22.96315 1.22566,2.81559 1.16497,2.56767 0.64886,2.65077 -5.51252,0.88767 -9.37611,1.14457 -15.91175,1.05801 -5.32811,-0.0706 -7.28401,-0.18899 -18.8842,-1.14338 -8.75759,-0.72052 -12.38903,-0.91504 -17.09786,-0.91584 -4.42644,-8.2e-4 -6.86455,0.13986 -13.01478,0.75063 -1.09478,0.10872 -3.2537,0.24586 -4.79761,0.30476 -3.90697,0.14905 -8.42981,0.56052 -10.94999,0.99617 l -0.38504,0.0666 0.19349,-0.45068 c 2.5822,-6.01458 4.97759,-10.91453 8.26042,-16.89736 8.15962,-14.87061 18.05531,-28.76387 25.05477,-35.17618 2.11702,-1.93944 1.90609,-1.80207 2.49119,-1.62225 0.2734,0.084 1.00236,0.25692 1.61993,0.38422 0.99454,0.20501 1.42026,0.23117 3.7258,0.22898 2.76891,-0.002 3.55906,-0.092 5.29998,-0.59983 l 0.81221,-0.2369 z"
       id="path831"
       inkscape:connector-curvature="0" />
    <path
       style="opacity:1;fill:#808080;fill-opacity:1;fill-rule:nonzero;stroke:#000000;stroke-width:0.20486726;stroke-linecap:round;stroke-linejoin:round;stroke-miterlimit:4;stroke-dasharray:none;stroke-dashoffset:0;stroke-opacity:1;paint-order:stroke markers fill"
       d="m 386.77351,690.09642 c -0.7893,0.2321 -2.77062,0.93128 -3.64925,1.28776 -1.83906,0.74618 -3.43998,1.49107 -7.09433,3.30092 -5.32295,2.63623 -7.68375,3.64342 -10.30975,4.39844 -2.14935,0.61798 -3.8692,0.87854 -5.79286,0.87761 -2.72599,-10e-4 -5.09557,-0.59279 -7.52816,-1.87911 -0.33685,-0.17813 -0.94549,-0.46888 -1.35252,-0.64612 -1.45998,-0.63574 -2.67843,-1.21777 -5.92045,-2.8281 -5.37147,-2.66804 -7.10085,-3.45142 -9.54418,-4.32332 l -0.68902,-0.24588 26.02958,0.002 c 17.81396,0.002 25.97319,0.0192 25.85094,0.0552 z"
       id="path833"
       inkscape:connector-curvature="0" />
    <path
       sodipodi:type="star"
       style="fill:#ffffff;fill-opacity:1;fill-rule:evenodd;stroke:#000000;stroke-width:3;stroke-linecap:round;stroke-linejoin:miter;stroke-miterlimit:4;stroke-dasharray:none;stroke-dashoffset:0;stroke-opacity:1"
       id="path4199-8"
       sodipodi:sides="3"
       sodipodi:cx="-300.43219"
       sodipodi:cy="316.1813"
       sodipodi:r1="122.23263"
       sodipodi:r2="61.116314"
       sodipodi:arg1="1.5790606"
       sodipodi:arg2="2.6262582"
       inkscape:flatsided="true"
       inkscape:rounded="0.15"
       inkscape:randomized="0"
       d="m -301.44234,438.40976 c -31.75589,-0.26245 -120.44295,-156.84732 -104.33772,-184.2175 16.10523,-27.37018 196.05523,-25.88299 211.70589,1.74964 15.65066,27.63262 -75.61229,182.7303 -107.36817,182.46786 z"
       inkscape:transform-center-x="-0.50507627"
       inkscape:transform-center-y="30.119705"
       inkscape:export-xdpi="300"
       inkscape:export-ydpi="300"
       transform="matrix(0.43115024,0,0,0.43417014,489.34506,88.995293)" />
    <rect
       style="fill:#ababab;fill-opacity:1;fill-rule:evenodd;stroke:#000000;stroke-width:1.29797268;stroke-linecap:round;stroke-linejoin:miter;stroke-miterlimit:4;stroke-dasharray:none;stroke-dashoffset:0;stroke-opacity:1"
       id="rect4182-8"
       width="185.97025"
       height="14.0345"
       x="267.01486"
       y="184.16826"
       inkscape:export-xdpi="300"
       inkscape:export-ydpi="300" />
    <path
       sodipodi:type="star"
       style="fill:#ffffff;fill-opacity:1;fill-rule:evenodd;stroke:#000000;stroke-width:3;stroke-linecap:round;stroke-linejoin:miter;stroke-miterlimit:4;stroke-dasharray:none;stroke-dashoffset:0;stroke-opacity:1"
       id="path4199-5-0"
       sodipodi:sides="3"
       sodipodi:cx="301.56781"
       sodipodi:cy="-564.08655"
       sodipodi:r1="122.23263"
       sodipodi:r2="61.116314"
       sodipodi:arg1="1.5790606"
       sodipodi:arg2="2.6262582"
       inkscape:flatsided="true"
       inkscape:rounded="0.15"
       inkscape:randomized="0"
       d="m 300.55766,-441.85809 c -31.75589,-0.26245 -120.44295,-156.84732 -104.33772,-184.2175 16.10523,-27.37018 196.05523,-25.88299 211.70589,1.74963 15.65066,27.63263 -75.61229,182.73031 -107.36817,182.46787 z"
       inkscape:transform-center-x="0.50507366"
       inkscape:transform-center-y="-30.119692"
       transform="matrix(-0.43115024,0,0,-0.43417014,489.34506,88.995293)"
       inkscape:export-xdpi="300"
       inkscape:export-ydpi="300" />
    <rect
       style="fill:#ababab;fill-opacity:1;fill-rule:evenodd;stroke:#000000;stroke-width:1.29797268;stroke-linecap:round;stroke-linejoin:miter;stroke-miterlimit:4;stroke-dasharray:none;stroke-dashoffset:0;stroke-opacity:1"
       id="rect4182-3-6"
       width="185.97025"
       height="14.0345"
       x="267.01486"
       y="355.65228"
       inkscape:export-xdpi="300"
       inkscape:export-ydpi="300" />
    <path
       style="fill:none;fill-rule:evenodd;stroke:#808080;stroke-width:1.44683397;stroke-linecap:butt;stroke-linejoin:miter;stroke-miterlimit:4;stroke-dasharray:1.44683398, 1.44683398;stroke-dashoffset:0;stroke-opacity:1"
       d="m 362.30002,332.30516 c -1.30899,-9.8277 -3.43893,-20.0435 -0.54308,-29.79488 1.16695,-6.92189 -3.65641,-13.61857 -1.26424,-20.48219 0.89377,-3.06147 2.347,-6.1439 1.80732,-9.42136"
       id="path4327-6"
       inkscape:connector-curvature="0"
       inkscape:export-xdpi="300"
       inkscape:export-ydpi="300" />
    <ellipse
       style="fill:#ffffff;fill-opacity:1;fill-rule:evenodd;stroke:#000000;stroke-width:1.05562592;stroke-linecap:round;stroke-linejoin:miter;stroke-miterlimit:4;stroke-dasharray:none;stroke-dashoffset:0;stroke-opacity:1"
       id="path4154-8"
       cx="359.61505"
       cy="279.3569"
       rx="9.2826958"
       ry="3.9981165"
       inkscape:export-xdpi="300"
       inkscape:export-ydpi="300" />
    <path
       style="fill:none;stroke:#000000;stroke-width:0.40990546px;stroke-linecap:butt;stroke-linejoin:miter;stroke-opacity:1"
       d="m 344.32385,266.51079 c 1.93811,-1.24036 4.32677,-1.32734 6.56269,-1.257 1.85819,-0.0595 3.65948,0.43435 5.4329,0.90696 1.8305,0.35579 3.69651,-0.0153 5.53914,0.21066 2.59825,0.21387 5.20034,0.45726 7.8109,0.34692 1.31392,0.0984 2.53384,-0.05 3.74552,-0.54033 0.53073,-0.11623 1.06976,-0.1892 1.60477,-0.28283"
       id="path920"
       inkscape:connector-curvature="0" />
    <path
       style="fill:none;stroke:#000000;stroke-width:0.40561646px;stroke-linecap:butt;stroke-linejoin:miter;stroke-opacity:1"
       d="m 318.06025,336.40997 c 4.44218,-6.00837 11.88343,-8.34704 17.36746,-13.13104 6.58488,-3.3831 14.04984,-4.38555 21.34209,-4.81947 4.31748,0.79521 8.75128,1.10885 13.1054,0.4939 5.63054,0.33032 10.00842,4.36751 14.80147,6.88562 5.26352,3.25013 10.32605,6.82134 15.24913,10.57099"
       id="path930-6"
       inkscape:connector-curvature="0" />
    <path
       style="opacity:1;fill:#808080;fill-opacity:1;fill-rule:nonzero;stroke:#808080;stroke-width:0.0645908;stroke-linecap:round;stroke-linejoin:round;stroke-miterlimit:4;stroke-dasharray:0.0322954, 0.0322954;stroke-dashoffset:0;stroke-opacity:1;paint-order:stroke markers fill"
       d="m 353.44578,275.6858 c -1.05206,-0.88892 -1.6918,-1.47452 -2.6144,-2.39317 -1.82629,-1.81846 -3.59037,-3.81096 -5.59593,-6.32051 -0.32531,-0.40704 -0.39895,-0.50913 -0.37797,-0.52394 0.0143,-0.0101 0.12718,-0.0676 0.25079,-0.12777 0.72974,-0.35518 1.5681,-0.59791 2.52709,-0.73166 0.88966,-0.12408 1.59075,-0.15099 3.17589,-0.12187 0.65006,0.0119 1.25907,0.0298 1.35335,0.0396 1.03596,0.10794 1.93478,0.29022 3.627,0.73552 1.04204,0.27421 1.59708,0.31768 3.5819,0.28058 1.30195,-0.0243 1.69045,-0.0155 2.43605,0.0553 0.43944,0.0417 1.45568,0.1253 2.30973,0.18995 2.18958,0.16575 3.02244,0.19469 5.32321,0.18499 1.34419,-0.006 1.65011,-0.0117 1.87666,-0.037 0.70032,-0.0782 1.33231,-0.2242 1.93158,-0.44626 0.14049,-0.0521 0.33925,-0.1088 0.47269,-0.13494 0.34217,-0.067 0.78276,-0.1403 0.80291,-0.13354 0.028,0.009 -1.06285,1.33458 -1.97783,2.40269 -1.91024,2.22997 -3.80314,4.20741 -5.50963,5.75569 -0.54973,0.49877 -1.52018,1.32253 -1.55803,1.32253 -0.01,0 -0.14937,-0.0411 -0.31058,-0.0913 -1.17587,-0.36649 -2.57732,-0.61136 -4.16371,-0.72753 -0.42238,-0.0309 -1.90293,-0.0426 -2.38211,-0.0187 -1.80577,0.0899 -3.48875,0.37921 -4.81701,0.82821 -0.13357,0.0451 -0.25131,0.082 -0.26165,0.082 -0.0103,-7e-5 -0.0553,-0.031 -0.1,-0.0687 z"
       id="path955"
       inkscape:connector-curvature="0" />
    <path
       style="opacity:1;fill:#808080;fill-opacity:1;fill-rule:nonzero;stroke:#808080;stroke-width:0.25836322;stroke-linecap:round;stroke-linejoin:round;stroke-miterlimit:4;stroke-dasharray:0.12918161, 0.12918161;stroke-dashoffset:0;stroke-opacity:1;paint-order:stroke markers fill"
       d="m 313.45645,354.7139 c 0.37502,-4.07112 2.19746,-10.04452 5.24922,-17.20533 1.36801,-3.20997 1.25768,-3.01865 2.2459,-3.89454 1.93479,-1.71486 3.28666,-2.65665 7.60841,-5.30039 3.25444,-1.99083 4.82937,-3.05606 6.37413,-4.3112 0.77828,-0.63238 1.57542,-1.04832 3.46295,-1.80695 4.60252,-1.84983 10.05401,-2.93828 17.08575,-3.41134 1.22879,-0.0827 1.29464,-0.0798 2.42177,0.10597 3.72013,0.61307 7.6885,0.77745 10.75093,0.44532 1.31566,-0.14268 1.66081,-0.1385 2.64541,0.032 1.53642,0.2661 3.00257,0.78635 4.84312,1.71854 1.21714,0.61645 1.91493,1.02584 4.63757,2.72082 1.07186,0.66728 2.44342,1.49553 3.0479,1.84055 3.21569,1.8354 9.05879,5.79153 13.90413,9.41391 l 1.24223,0.9287 0.55149,1.33938 c 2.96684,7.20561 4.79541,13.2277 5.22355,17.20283 l 0.0489,0.45429 h -45.68424 -45.68425 z"
       id="path959"
       inkscape:connector-curvature="0" />
  </g>
</svg>
