<?xml version="1.0" encoding="UTF-8" standalone="no"?>
<!-- Created with Inkscape (http://www.inkscape.org/) -->

<svg
   xmlns:dc="http://purl.org/dc/elements/1.1/"
   xmlns:cc="http://creativecommons.org/ns#"
   xmlns:rdf="http://www.w3.org/1999/02/22-rdf-syntax-ns#"
   xmlns:svg="http://www.w3.org/2000/svg"
   xmlns="http://www.w3.org/2000/svg"
   xmlns:sodipodi="http://sodipodi.sourceforge.net/DTD/sodipodi-0.dtd"
   xmlns:inkscape="http://www.inkscape.org/namespaces/inkscape"
   sodipodi:docname="without_sci-mag.svg"
   inkscape:version="0.92.4 (5da689c313, 2019-01-14)"
   version="1.1"
   id="svg2"
   viewBox="0 0 719.99999 1060"
   height="11.777778in"
   width="8in"
   inkscape:export-filename="C:\Users\Giltwist\Dropbox\Tarot\Minors\export\without-sci_mag.png"
   inkscape:export-xdpi="300"
   inkscape:export-ydpi="300">
  <sodipodi:namedview
     inkscape:window-maximized="1"
     inkscape:window-y="-8"
     inkscape:window-x="-8"
     inkscape:window-height="1377"
     inkscape:window-width="2560"
     units="in"
     showgrid="false"
     inkscape:current-layer="layer1"
     inkscape:document-units="px"
     inkscape:cy="613.48597"
     inkscape:cx="200.8159"
     inkscape:zoom="0.98994949"
     inkscape:pageshadow="2"
     inkscape:pageopacity="0"
     borderopacity="1.0"
     bordercolor="#666666"
     pagecolor="#000000"
     id="base"
     showguides="false"
     inkscape:guide-bbox="true">
    <sodipodi:guide
       position="359.10924,747.00782"
       orientation="1,0"
       id="guide4140"
       inkscape:locked="false" />
    <sodipodi:guide
       position="-77.781746,526.28949"
       orientation="0,1"
       id="guide4149"
       inkscape:locked="false" />
  </sodipodi:namedview>
  <defs
     id="defs4">
    <inkscape:path-effect
       effect="powerstroke"
       id="path-effect4186"
       is_visible="true"
       offset_points="0,0.5"
       sort_points="true"
       interpolator_type="CubicBezierJohan"
       interpolator_beta="0.2"
       start_linecap_type="zerowidth"
       linejoin_type="round"
       miter_limit="4"
       end_linecap_type="zerowidth"
       cusp_linecap_type="round" />
  </defs>
  <metadata
     id="metadata7">
    <rdf:RDF>
      <cc:Work
         rdf:about="">
        <dc:format>image/svg+xml</dc:format>
        <dc:type
           rdf:resource="http://purl.org/dc/dcmitype/StillImage" />
        <dc:title></dc:title>
      </cc:Work>
    </rdf:RDF>
  </metadata>
  <g
     inkscape:label="Layer 1"
     inkscape:groupmode="layer"
     id="layer1"
     transform="translate(0,7.6377767)">
    <path
       style="fill:#ababab;fill-opacity:1;fill-rule:evenodd;stroke:#000000;stroke-width:2.36324406;stroke-linecap:butt;stroke-linejoin:miter;stroke-miterlimit:4;stroke-dasharray:none;stroke-opacity:1"
       d="m 459.71856,253.28112 -15.87029,203.87442 -1076.70648,-7.60644 15.5652,-193.6425 z"
       id="rect4692"
       inkscape:connector-curvature="0"
       sodipodi:nodetypes="ccccc" />
    <path
       style="fill:#ffffff;fill-opacity:1;fill-rule:evenodd;stroke:#000000;stroke-width:1.31923413;stroke-linecap:butt;stroke-linejoin:miter;stroke-miterlimit:4;stroke-dasharray:none;stroke-opacity:1"
       d="m 670.0418,386.36783 c 17.04201,-34.27212 -2.35649,-51.52519 1.80823,-68.98872 4.30932,-18.06984 9.78487,-45.24332 -9.20788,-58.13718 -6.46556,-8.84812 -29.76444,-2.35158 -44.74599,-4.7723 -14.07696,-1.96807 -28.8511,3.81937 -42.31962,-2.86177 25.02784,-1.6343 30.69675,-1.74509 40.44957,2.30329 16.45666,2.72926 18.81267,0.1684 27.65128,0.52065 7.27998,-9.40002 6.35001,-30.20291 -0.96332,-39.54433 -4.4914,-5.73688 -12.76373,-4.45299 -33.92595,-11.52405 -22.62594,-7.56015 -63.8513,-4.78628 -80.61683,4.71008 -30.27052,17.14591 -39.87587,23.93394 -68.45273,45.20762 -12.01293,18.10072 -5.35882,43.3873 -8.92081,64.76422 -2.41872,46.36168 -4.75997,92.73006 -6.94948,139.1102 63.18831,5.54161 125.4081,43.86373 188.03431,32.22525 37.65977,-6.99871 20.00601,-33.63015 26.06298,-41.03439 24.1816,-29.56041 7.87282,-53.4851 12.09624,-61.97857 z"
       id="path893"
       inkscape:connector-curvature="0"
       sodipodi:nodetypes="sscccccssscccsss" />
    <g
       transform="matrix(0.84818202,0,0,0.84702661,272.96716,54.626535)"
       id="g929"
       style="fill:#000000;fill-opacity:1;stroke:#000000;stroke-width:2.99078298;stroke-miterlimit:4;stroke-dasharray:none;stroke-opacity:1">
      <g
         transform="matrix(1.0200979,0,0,0.61468605,24.966507,81.005903)"
         inkscape:tile-y0="159.17572"
         inkscape:tile-x0="250.4754"
         inkscape:transform-center-y="-50.765436"
         id="use889"
         style="fill:#000000;fill-opacity:1;stroke:#000000;stroke-width:3.77691579;stroke-miterlimit:4;stroke-dasharray:none;stroke-opacity:1">
        <rect
           style="fill:#000000;fill-opacity:1;fill-rule:evenodd;stroke:#000000;stroke-width:3.77691579;stroke-linecap:square;stroke-linejoin:miter;stroke-miterlimit:4;stroke-dasharray:none;stroke-dashoffset:0;stroke-opacity:1"
           id="rect897"
           width="21.213203"
           height="117.1777"
           x="293.95438"
           y="332.20465" />
        <path
           sodipodi:type="star"
           style="fill:#000000;fill-opacity:1;fill-rule:evenodd;stroke:#000000;stroke-width:3.77691579;stroke-linecap:square;stroke-linejoin:miter;stroke-miterlimit:4;stroke-dasharray:none;stroke-dashoffset:0;stroke-opacity:1"
           id="path899"
           sodipodi:sides="3"
           sodipodi:cx="304.56097"
           sodipodi:cy="314.95084"
           sodipodi:r1="29.137255"
           sodipodi:r2="14.568627"
           sodipodi:arg1="0.52359878"
           sodipodi:arg2="1.5707963"
           inkscape:flatsided="true"
           inkscape:rounded="-3.46945e-18"
           inkscape:randomized="0"
           d="m 329.79458,329.51946 -50.46721,0 25.2336,-43.70588 z"
           inkscape:transform-center-y="-7.2843136" />
      </g>
      <g
         transform="matrix(0.72131814,0.72131814,-0.43464867,0.43464867,317.03643,-55.392173)"
         inkscape:tile-y0="159.17572"
         inkscape:tile-x0="250.4754"
         inkscape:transform-center-y="-50.765436"
         id="use891"
         style="fill:#000000;fill-opacity:1;stroke:#000000;stroke-width:3.77691579;stroke-miterlimit:4;stroke-dasharray:none;stroke-opacity:1">
        <rect
           style="fill:#000000;fill-opacity:1;fill-rule:evenodd;stroke:#000000;stroke-width:3.77691579;stroke-linecap:square;stroke-linejoin:miter;stroke-miterlimit:4;stroke-dasharray:none;stroke-dashoffset:0;stroke-opacity:1"
           id="rect903"
           width="21.213203"
           height="117.1777"
           x="293.95438"
           y="332.20465" />
        <path
           sodipodi:type="star"
           style="fill:#000000;fill-opacity:1;fill-rule:evenodd;stroke:#000000;stroke-width:3.77691579;stroke-linecap:square;stroke-linejoin:miter;stroke-miterlimit:4;stroke-dasharray:none;stroke-dashoffset:0;stroke-opacity:1"
           id="path905"
           sodipodi:sides="3"
           sodipodi:cx="304.56097"
           sodipodi:cy="314.95084"
           sodipodi:r1="29.137255"
           sodipodi:r2="14.568627"
           sodipodi:arg1="0.52359878"
           sodipodi:arg2="1.5707963"
           inkscape:flatsided="true"
           inkscape:rounded="-3.46945e-18"
           inkscape:randomized="0"
           d="m 329.79458,329.51946 -50.46721,0 25.2336,-43.70588 z"
           inkscape:transform-center-y="-7.2843136" />
      </g>
      <g
         transform="matrix(0,1.0200979,-0.61468605,0,620.00905,54.684444)"
         inkscape:tile-y0="159.17572"
         inkscape:tile-x0="250.4754"
         inkscape:transform-center-y="-50.765436"
         id="use893"
         style="fill:#000000;fill-opacity:1;stroke:#000000;stroke-width:3.77691579;stroke-miterlimit:4;stroke-dasharray:none;stroke-opacity:1">
        <rect
           style="fill:#000000;fill-opacity:1;fill-rule:evenodd;stroke:#000000;stroke-width:3.77691579;stroke-linecap:square;stroke-linejoin:miter;stroke-miterlimit:4;stroke-dasharray:none;stroke-dashoffset:0;stroke-opacity:1"
           id="rect909"
           width="21.213203"
           height="117.1777"
           x="293.95438"
           y="332.20465" />
        <path
           sodipodi:type="star"
           style="fill:#000000;fill-opacity:1;fill-rule:evenodd;stroke:#000000;stroke-width:3.77691579;stroke-linecap:square;stroke-linejoin:miter;stroke-miterlimit:4;stroke-dasharray:none;stroke-dashoffset:0;stroke-opacity:1"
           id="path911"
           sodipodi:sides="3"
           sodipodi:cx="304.56097"
           sodipodi:cy="314.95084"
           sodipodi:r1="29.137255"
           sodipodi:r2="14.568627"
           sodipodi:arg1="0.52359878"
           sodipodi:arg2="1.5707963"
           inkscape:flatsided="true"
           inkscape:rounded="-3.46945e-18"
           inkscape:randomized="0"
           d="m 329.79458,329.51946 -50.46721,0 25.2336,-43.70588 z"
           inkscape:transform-center-y="-7.2843136" />
      </g>
      <g
         transform="matrix(-0.72131814,0.72131814,-0.43464867,-0.43464867,756.40713,346.75437)"
         inkscape:tile-y0="159.17572"
         inkscape:tile-x0="250.4754"
         inkscape:transform-center-y="-50.765436"
         id="use895"
         style="fill:#000000;fill-opacity:1;stroke:#000000;stroke-width:3.77691579;stroke-miterlimit:4;stroke-dasharray:none;stroke-opacity:1">
        <rect
           style="fill:#000000;fill-opacity:1;fill-rule:evenodd;stroke:#000000;stroke-width:3.77691579;stroke-linecap:square;stroke-linejoin:miter;stroke-miterlimit:4;stroke-dasharray:none;stroke-dashoffset:0;stroke-opacity:1"
           id="rect915"
           width="21.213203"
           height="117.1777"
           x="293.95438"
           y="332.20465" />
        <path
           sodipodi:type="star"
           style="fill:#000000;fill-opacity:1;fill-rule:evenodd;stroke:#000000;stroke-width:3.77691579;stroke-linecap:square;stroke-linejoin:miter;stroke-miterlimit:4;stroke-dasharray:none;stroke-dashoffset:0;stroke-opacity:1"
           id="path917"
           sodipodi:sides="3"
           sodipodi:cx="304.56097"
           sodipodi:cy="314.95084"
           sodipodi:r1="29.137255"
           sodipodi:r2="14.568627"
           sodipodi:arg1="0.52359878"
           sodipodi:arg2="1.5707963"
           inkscape:flatsided="true"
           inkscape:rounded="-3.46945e-18"
           inkscape:randomized="0"
           d="m 329.79458,329.51946 -50.46721,0 25.2336,-43.70588 z"
           inkscape:transform-center-y="-7.2843136" />
      </g>
      <g
         transform="matrix(-1.0200979,0,0,-0.61468605,646.33051,649.727)"
         inkscape:tile-y0="159.17572"
         inkscape:tile-x0="250.4754"
         inkscape:transform-center-y="-50.765436"
         id="use897"
         style="fill:#000000;fill-opacity:1;stroke:#000000;stroke-width:3.77691579;stroke-miterlimit:4;stroke-dasharray:none;stroke-opacity:1">
        <rect
           style="fill:#000000;fill-opacity:1;fill-rule:evenodd;stroke:#000000;stroke-width:3.77691579;stroke-linecap:square;stroke-linejoin:miter;stroke-miterlimit:4;stroke-dasharray:none;stroke-dashoffset:0;stroke-opacity:1"
           id="rect921"
           width="21.213203"
           height="117.1777"
           x="293.95438"
           y="332.20465" />
        <path
           sodipodi:type="star"
           style="fill:#000000;fill-opacity:1;fill-rule:evenodd;stroke:#000000;stroke-width:3.77691579;stroke-linecap:square;stroke-linejoin:miter;stroke-miterlimit:4;stroke-dasharray:none;stroke-dashoffset:0;stroke-opacity:1"
           id="path923"
           sodipodi:sides="3"
           sodipodi:cx="304.56097"
           sodipodi:cy="314.95084"
           sodipodi:r1="29.137255"
           sodipodi:r2="14.568627"
           sodipodi:arg1="0.52359878"
           sodipodi:arg2="1.5707963"
           inkscape:flatsided="true"
           inkscape:rounded="-3.46945e-18"
           inkscape:randomized="0"
           d="m 329.79458,329.51946 -50.46721,0 25.2336,-43.70588 z"
           inkscape:transform-center-y="-7.2843136" />
      </g>
      <g
         transform="matrix(-0.72131814,-0.72131814,0.43464867,-0.43464867,354.2606,786.12506)"
         inkscape:tile-y0="159.17572"
         inkscape:tile-x0="250.4754"
         inkscape:transform-center-y="-50.765436"
         id="use899"
         style="fill:#000000;fill-opacity:1;stroke:#000000;stroke-width:3.77691579;stroke-miterlimit:4;stroke-dasharray:none;stroke-opacity:1">
        <rect
           style="fill:#000000;fill-opacity:1;fill-rule:evenodd;stroke:#000000;stroke-width:3.77691579;stroke-linecap:square;stroke-linejoin:miter;stroke-miterlimit:4;stroke-dasharray:none;stroke-dashoffset:0;stroke-opacity:1"
           id="rect927"
           width="21.213203"
           height="117.1777"
           x="293.95438"
           y="332.20465" />
        <path
           sodipodi:type="star"
           style="fill:#000000;fill-opacity:1;fill-rule:evenodd;stroke:#000000;stroke-width:3.77691579;stroke-linecap:square;stroke-linejoin:miter;stroke-miterlimit:4;stroke-dasharray:none;stroke-dashoffset:0;stroke-opacity:1"
           id="path929"
           sodipodi:sides="3"
           sodipodi:cx="304.56097"
           sodipodi:cy="314.95084"
           sodipodi:r1="29.137255"
           sodipodi:r2="14.568627"
           sodipodi:arg1="0.52359878"
           sodipodi:arg2="1.5707963"
           inkscape:flatsided="true"
           inkscape:rounded="-3.46945e-18"
           inkscape:randomized="0"
           d="m 329.79458,329.51946 -50.46721,0 25.2336,-43.70588 z"
           inkscape:transform-center-y="-7.2843136" />
      </g>
      <g
         transform="matrix(0,-1.0200979,0.61468605,0,51.287973,676.04846)"
         inkscape:tile-y0="159.17572"
         inkscape:tile-x0="250.4754"
         inkscape:transform-center-y="-50.765436"
         id="use901"
         style="fill:#000000;fill-opacity:1;stroke:#000000;stroke-width:3.77691579;stroke-miterlimit:4;stroke-dasharray:none;stroke-opacity:1">
        <rect
           style="fill:#000000;fill-opacity:1;fill-rule:evenodd;stroke:#000000;stroke-width:3.77691579;stroke-linecap:square;stroke-linejoin:miter;stroke-miterlimit:4;stroke-dasharray:none;stroke-dashoffset:0;stroke-opacity:1"
           id="rect933"
           width="21.213203"
           height="117.1777"
           x="293.95438"
           y="332.20465" />
        <path
           sodipodi:type="star"
           style="fill:#000000;fill-opacity:1;fill-rule:evenodd;stroke:#000000;stroke-width:3.77691579;stroke-linecap:square;stroke-linejoin:miter;stroke-miterlimit:4;stroke-dasharray:none;stroke-dashoffset:0;stroke-opacity:1"
           id="path935"
           sodipodi:sides="3"
           sodipodi:cx="304.56097"
           sodipodi:cy="314.95084"
           sodipodi:r1="29.137255"
           sodipodi:r2="14.568627"
           sodipodi:arg1="0.52359878"
           sodipodi:arg2="1.5707963"
           inkscape:flatsided="true"
           inkscape:rounded="-3.46945e-18"
           inkscape:randomized="0"
           d="m 329.79458,329.51946 -50.46721,0 25.2336,-43.70588 z"
           inkscape:transform-center-y="-7.2843136" />
      </g>
      <g
         transform="matrix(0.72131814,-0.72131814,0.43464867,0.43464867,-85.110108,383.97853)"
         inkscape:tile-y0="159.17572"
         inkscape:tile-x0="250.4754"
         inkscape:transform-center-y="-50.765436"
         id="use903"
         style="fill:#000000;fill-opacity:1;stroke:#000000;stroke-width:3.77691579;stroke-miterlimit:4;stroke-dasharray:none;stroke-opacity:1">
        <rect
           style="fill:#000000;fill-opacity:1;fill-rule:evenodd;stroke:#000000;stroke-width:3.77691579;stroke-linecap:square;stroke-linejoin:miter;stroke-miterlimit:4;stroke-dasharray:none;stroke-dashoffset:0;stroke-opacity:1"
           id="rect939"
           width="21.213203"
           height="117.1777"
           x="293.95438"
           y="332.20465" />
        <path
           sodipodi:type="star"
           style="fill:#000000;fill-opacity:1;fill-rule:evenodd;stroke:#000000;stroke-width:3.77691579;stroke-linecap:square;stroke-linejoin:miter;stroke-miterlimit:4;stroke-dasharray:none;stroke-dashoffset:0;stroke-opacity:1"
           id="path941"
           sodipodi:sides="3"
           sodipodi:cx="304.56097"
           sodipodi:cy="314.95084"
           sodipodi:r1="29.137255"
           sodipodi:r2="14.568627"
           sodipodi:arg1="0.52359878"
           sodipodi:arg2="1.5707963"
           inkscape:flatsided="true"
           inkscape:rounded="-3.46945e-18"
           inkscape:randomized="0"
           d="m 329.79458,329.51946 -50.46721,0 25.2336,-43.70588 z"
           inkscape:transform-center-y="-7.2843136" />
      </g>
    </g>
    <path
       style="fill:#ababab;fill-opacity:1;fill-rule:evenodd;stroke:#000000;stroke-width:2.36324406;stroke-linecap:butt;stroke-linejoin:miter;stroke-miterlimit:4;stroke-dasharray:none;stroke-opacity:1"
       d="m 260.16193,791.52694 15.87029,-203.87442 1076.70648,7.60644 -15.5652,193.6425 z"
       id="rect4692-8"
       inkscape:connector-curvature="0"
       sodipodi:nodetypes="ccccc" />
    <path
       style="fill:#ffffff;fill-opacity:1;fill-rule:evenodd;stroke:#000000;stroke-width:1.31923413;stroke-linecap:butt;stroke-linejoin:miter;stroke-miterlimit:4;stroke-dasharray:none;stroke-opacity:1"
       d="m 49.838681,658.44023 c -17.042008,34.27212 2.356498,51.52519 -1.808224,68.98872 -4.309319,18.06984 -9.784867,45.24332 9.207881,58.13718 6.465554,8.84812 29.76444,2.35158 44.745992,4.7723 14.07696,1.96807 28.8511,-3.81937 42.31962,2.86177 -25.02784,1.6343 -30.69675,1.74509 -40.44957,-2.30329 -16.456669,-2.72926 -18.812672,-0.16839 -27.651286,-0.52065 -7.279979,9.40003 -6.350013,30.20291 0.963319,39.54433 4.491402,5.73688 12.763735,4.45299 33.925957,11.52406 22.62594,7.56014 63.8513,4.78627 80.61683,-4.71009 30.27052,-17.1459 39.87587,-23.93394 68.45273,-45.20762 12.01293,-18.10072 5.35882,-43.3873 8.92081,-64.76422 2.41872,-46.36168 4.75997,-92.73006 6.94948,-139.1102 -63.18831,-5.54161 -125.4081,-43.86373 -188.034313,-32.22525 -37.659775,6.99871 -20.006016,33.63016 -26.06298,41.0344 -24.181602,29.56041 -7.872818,53.48509 -12.096246,61.97856 z"
       id="path893-7"
       inkscape:connector-curvature="0"
       sodipodi:nodetypes="sscccccssscccsss" />
    <path
       inkscape:connector-curvature="0"
       style="fill:#000000;fill-opacity:1;stroke:#000000;stroke-width:1.30849493;stroke-miterlimit:4;stroke-dasharray:none;stroke-opacity:1"
       d="m 163.8368,757.01537 0.10233,7.56565 -1.14792,4.88504 -7.39223,12.14602 -7.88575,-0.96261 -4.2105,-13.56236 0.0774,-5.01571 1.94411,-7.31583 -13.61857,-5.15211 -3.44961,6.74629 -3.30231,3.79566 -12.22907,7.34301 -6.53205,-4.49188 2.6181,-13.95216 2.41557,-4.40546 5.14478,-5.58055 -9.64779,-10.8474 -6.2113,4.38144 -4.700185,1.83675 -14.26435,0.85781 -3.68194,-6.99212 8.84694,-11.14567 4.20034,-2.78596 7.16683,-2.56687 -3.46681,-14.05766 -7.55007,1.01287 -5.02129,-0.54292 -13.03186,-5.82391 0.0116,-7.89056 13.04902,-5.78586 5.02289,-0.52825 7.54703,1.03488 3.50839,-14.04749 -7.15922,-2.58777 -4.19208,-2.79821 -8.81391,-11.17144 3.7026,-6.98134 14.26177,0.89941 4.694725,1.85047 6.19829,4.39955 9.67984,-10.81919 -5.12823,-5.59557 -2.40254,-4.41246 -2.57681,-13.95975 6.54533,-4.4728 12.20728,7.37866 3.29105,3.80529 3.42964,6.75633 13.63377,-5.11238 -1.92247,-7.32147 -0.0626,-5.01589 4.25062,-13.55002 7.88856,-0.93958 7.35628,12.16752 1.13347,4.88837 -0.12473,7.56529 14.46433,1.76565 1.72371,-7.37011 2.29172,-4.47025 10.10426,-10.03614 7.42465,2.80885 0.82004,14.16899 -1.2838,4.85154 -3.65053,6.64118 11.98133,8.23918 4.97503,-5.73037 4.12098,-2.90051 13.64316,-4.22311 5.25984,5.91383 -5.90407,12.92449 -3.40697,3.70331 -6.34002,4.19565 6.75354,12.82521 7.0866,-2.77788 5.00621,-0.66629 14.05656,2.55737 1.89006,7.66405 -11.27564,8.71912 -4.74961,1.70671 -7.57712,0.78891 -0.0214,14.47314 7.57474,0.81103 4.74457,1.72054 11.24977,8.752 -1.91271,7.65849 -14.06407,2.51634 -5.00422,-0.68089 -7.07836,-2.79853 -6.79147,12.80543 6.3276,4.21413 3.39599,3.71324 5.86583,12.94164 -5.27733,5.89848 -13.63059,-4.26292 -4.11239,-2.91251 -4.95805,-5.74487 -12.00566,8.20419 3.63087,6.65179 1.26943,4.85529 -0.86193,14.16651 -7.43294,2.7872 -10.07453,-10.06559 -2.27847,-4.47691 -1.70191,-7.37513 z"
       id="path4258" />
    <path
       inkscape:connector-curvature="0"
       style="opacity:1;fill:#545454;fill-opacity:1;fill-rule:evenodd;stroke:#000000;stroke-width:2.40979242;stroke-linecap:butt;stroke-linejoin:miter;stroke-miterlimit:4;stroke-dasharray:none;stroke-dashoffset:0;stroke-opacity:1;paint-order:markers stroke fill"
       d="m 360.3946,473.61203 c -0.13346,-0.002 -0.26203,-0.0367 -0.39551,-0.0367 -8.9706,0 -17.9394,3.30135 -21.60644,9.90234 -3.74732,6.74549 -5.55322,23.44795 -5.47119,39.94446 h 9.54712 c -0.0891,-10.12361 1.06834,-20.45871 3.53027,-24.60022 2.37603,-3.99698 8.18782,-5.9967 14.00024,-5.9967 0.13346,0 0.2621,0.0327 0.39551,0.0348 z"
       id="path1070" />
    <path
       inkscape:connector-curvature="0"
       style="opacity:1;fill:#545454;fill-opacity:1;fill-rule:evenodd;stroke:#000000;stroke-width:2.40979242;stroke-linecap:butt;stroke-linejoin:miter;stroke-miterlimit:4;stroke-dasharray:none;stroke-dashoffset:0;stroke-opacity:1;paint-order:markers stroke fill"
       d="m 360.3946,551.8878 v 19.24805 c 8.83554,-0.0968 17.60029,-3.36296 21.21277,-9.86573 3.58675,-6.45649 5.39268,-22.05819 5.47119,-37.8479 h -9.54711 c -0.0828,9.41707 -1.24016,18.65302 -3.53028,22.50549 -2.32169,3.90559 -7.92866,5.87078 -13.60657,5.96009 z"
       id="path1050" />
    <g
       id="g1079"
       transform="translate(1.4777878e-6,0.9374982)"
       style="fill:#545454;fill-opacity:1">
      <path
         inkscape:connector-curvature="0"
         id="path984"
         d="m 359.99947,524.72836 c -8.9706,0 -17.94032,3.69437 -21.60736,11.08301 -7.33408,14.77726 -7.33408,72.29786 0,87.07513 7.33407,14.77727 35.88172,14.77727 43.2158,0 7.33406,-14.77727 7.33406,-72.29787 0,-87.07513 -3.66704,-7.38864 -12.63785,-11.08301 -21.60844,-11.08301 z m 0,21.54683 c 5.81242,0 11.62491,2.23668 14.00094,6.71059 4.75206,8.94784 4.75206,43.77847 0,52.7263 -4.75205,8.94782 -23.24875,8.94782 -28.00081,0 -4.75205,-8.94783 -4.75205,-43.77846 0,-52.7263 2.37603,-4.47391 8.18744,-6.71059 13.99987,-6.71059 z"
         style="opacity:1;fill:#545454;fill-opacity:1;fill-rule:evenodd;stroke:#000000;stroke-width:2.54951262;stroke-linecap:butt;stroke-linejoin:miter;stroke-miterlimit:4;stroke-dasharray:none;stroke-dashoffset:0;stroke-opacity:1;paint-order:markers stroke fill" />
      <path
         inkscape:connector-curvature="0"
         id="path984-9"
         d="m 359.99947,408.88 c -8.9706,0 -17.94032,3.69437 -21.60736,11.08301 -7.33408,14.77726 -7.33408,72.29786 0,87.07513 7.33407,14.77727 35.88172,14.77727 43.2158,0 7.33406,-14.77727 7.33406,-72.29787 0,-87.07513 C 377.94087,412.57437 368.97006,408.88 359.99947,408.88 Z m 0,21.54683 c 5.81242,0 11.62491,2.23668 14.00094,6.71059 4.75206,8.94784 4.75206,43.77847 0,52.7263 -4.75205,8.94782 -23.24875,8.94782 -28.00081,0 -4.75205,-8.94783 -4.75205,-43.77846 0,-52.7263 2.37603,-4.47391 8.18744,-6.71059 13.99987,-6.71059 z"
         style="opacity:1;fill:#545454;fill-opacity:1;fill-rule:evenodd;stroke:#000000;stroke-width:2.54951286;stroke-linecap:butt;stroke-linejoin:miter;stroke-miterlimit:4;stroke-dasharray:none;stroke-dashoffset:0;stroke-opacity:1;paint-order:markers stroke fill" />
    </g>
    <path
       sodipodi:type="star"
       style="opacity:1;fill:#545454;fill-opacity:1;fill-rule:evenodd;stroke:#000000;stroke-width:4.62941599;stroke-linecap:butt;stroke-linejoin:miter;stroke-miterlimit:4;stroke-dasharray:none;stroke-dashoffset:0;stroke-opacity:1;paint-order:markers stroke fill"
       id="path972"
       sodipodi:sides="4"
       sodipodi:cx="-554.46429"
       sodipodi:cy="110.84433"
       sodipodi:r1="89.200851"
       sodipodi:r2="63.074528"
       sodipodi:arg1="0.78539816"
       sodipodi:arg2="1.5707963"
       inkscape:flatsided="true"
       inkscape:rounded="0"
       inkscape:randomized="0"
       d="m -491.38977,173.91886 -126.14905,0 0,-126.149057 126.14905,0 z"
       transform="matrix(0.72207635,0,0,1.7994019,760.36556,155.6601)" />
    <path
       sodipodi:type="star"
       style="opacity:1;fill:#545454;fill-opacity:1;fill-rule:evenodd;stroke:#000000;stroke-width:4.62941599;stroke-linecap:butt;stroke-linejoin:miter;stroke-miterlimit:4;stroke-dasharray:none;stroke-dashoffset:0;stroke-opacity:1;paint-order:markers stroke fill"
       id="path972-7"
       sodipodi:sides="4"
       sodipodi:cx="-554.46429"
       sodipodi:cy="110.84433"
       sodipodi:r1="89.200851"
       sodipodi:r2="63.074528"
       sodipodi:arg1="0.78539816"
       sodipodi:arg2="1.5707963"
       inkscape:flatsided="true"
       inkscape:rounded="0"
       inkscape:randomized="0"
       d="m -491.38977,173.91886 -126.14905,0 0,-126.149057 126.14905,0 z"
       transform="matrix(-0.72207635,0,0,-1.7994019,-40.365551,889.06435)" />
    <path
       inkscape:connector-curvature="0"
       style="opacity:1;fill:#545454;fill-opacity:1;fill-rule:evenodd;stroke:#000000;stroke-width:2.40979242;stroke-linecap:butt;stroke-linejoin:miter;stroke-miterlimit:4;stroke-dasharray:none;stroke-dashoffset:0;stroke-opacity:1;paint-order:markers stroke fill"
       d="m 360.3946,551.8878 c -5.94363,0.0935 -11.96538,-1.87171 -14.39575,-5.96009 -2.29012,-3.85247 -3.44747,-13.08842 -3.53027,-22.50549 h -9.54712 c 0.0786,15.78971 1.88443,31.39141 5.47119,37.8479 3.7216,6.69921 12.89951,9.9654 22.00195,9.86573 z"
       id="path1073" />
    <path
       inkscape:connector-curvature="0"
       style="opacity:1;fill:#545454;fill-opacity:1;fill-rule:evenodd;stroke:#000000;stroke-width:2.40979242;stroke-linecap:butt;stroke-linejoin:miter;stroke-miterlimit:4;stroke-dasharray:none;stroke-dashoffset:0;stroke-opacity:1;paint-order:markers stroke fill"
       d="m 360.3946,473.61203 v 19.24806 c 5.67725,0.0897 11.28509,2.0567 13.60657,5.96191 2.46194,4.14151 3.61929,14.47661 3.53028,24.60022 h 9.54711 c 0.082,-16.49652 -1.72388,-33.19897 -5.47119,-39.94446 -3.61248,-6.50277 -12.37681,-9.76894 -21.21277,-9.86573 z"
       id="path984-3" />
  </g>
</svg>
