<?xml version="1.0" encoding="UTF-8" standalone="no"?>
<!-- Created with Inkscape (http://www.inkscape.org/) -->

<svg
   xmlns:dc="http://purl.org/dc/elements/1.1/"
   xmlns:cc="http://creativecommons.org/ns#"
   xmlns:rdf="http://www.w3.org/1999/02/22-rdf-syntax-ns#"
   xmlns:svg="http://www.w3.org/2000/svg"
   xmlns="http://www.w3.org/2000/svg"
   xmlns:sodipodi="http://sodipodi.sourceforge.net/DTD/sodipodi-0.dtd"
   xmlns:inkscape="http://www.inkscape.org/namespaces/inkscape"
   sodipodi:docname="without_risk-reward.svg"
   inkscape:version="0.92.4 (5da689c313, 2019-01-14)"
   version="1.1"
   id="svg2"
   viewBox="0 0 719.99999 1060"
   height="11.777778in"
   width="8in"
   inkscape:export-filename="C:\Users\Giltwist\Dropbox\Tarot\Minors\export\without-risk_reward.png"
   inkscape:export-xdpi="300"
   inkscape:export-ydpi="300">
  <sodipodi:namedview
     inkscape:window-maximized="1"
     inkscape:window-y="-8"
     inkscape:window-x="-8"
     inkscape:window-height="1377"
     inkscape:window-width="2560"
     units="in"
     showgrid="false"
     inkscape:current-layer="layer1"
     inkscape:document-units="px"
     inkscape:cy="582.95778"
     inkscape:cx="-503.33003"
     inkscape:zoom="0.7"
     inkscape:pageshadow="2"
     inkscape:pageopacity="0"
     borderopacity="1.0"
     bordercolor="#666666"
     pagecolor="#000000"
     id="base"
     showguides="false"
     inkscape:guide-bbox="true">
    <sodipodi:guide
       position="359.10924,747.00782"
       orientation="1,0"
       id="guide4140"
       inkscape:locked="false" />
    <sodipodi:guide
       position="-77.781746,526.28949"
       orientation="0,1"
       id="guide4149"
       inkscape:locked="false" />
  </sodipodi:namedview>
  <defs
     id="defs4">
    <inkscape:path-effect
       effect="powerstroke"
       id="path-effect4186"
       is_visible="true"
       offset_points="0,0.5"
       sort_points="true"
       interpolator_type="CubicBezierJohan"
       interpolator_beta="0.2"
       start_linecap_type="zerowidth"
       linejoin_type="round"
       miter_limit="4"
       end_linecap_type="zerowidth"
       cusp_linecap_type="round" />
  </defs>
  <metadata
     id="metadata7">
    <rdf:RDF>
      <cc:Work
         rdf:about="">
        <dc:format>image/svg+xml</dc:format>
        <dc:type
           rdf:resource="http://purl.org/dc/dcmitype/StillImage" />
        <dc:title></dc:title>
      </cc:Work>
    </rdf:RDF>
  </metadata>
  <g
     inkscape:label="Layer 1"
     inkscape:groupmode="layer"
     id="layer1"
     transform="translate(0,7.6377767)">
    <path
       style="fill:#ababab;fill-opacity:1;fill-rule:evenodd;stroke:#000000;stroke-width:2.36324406;stroke-linecap:butt;stroke-linejoin:miter;stroke-miterlimit:4;stroke-dasharray:none;stroke-opacity:1"
       d="m 459.71856,253.28112 -15.87029,203.87442 -1076.70648,-7.60644 15.5652,-193.6425 z"
       id="rect4692"
       inkscape:connector-curvature="0"
       sodipodi:nodetypes="ccccc" />
    <path
       style="fill:#ffffff;fill-opacity:1;fill-rule:evenodd;stroke:#000000;stroke-width:1.31923413;stroke-linecap:butt;stroke-linejoin:miter;stroke-miterlimit:4;stroke-dasharray:none;stroke-opacity:1"
       d="m 670.0418,386.36783 c 17.04201,-34.27212 -2.35649,-51.52519 1.80823,-68.98872 4.30932,-18.06984 9.78487,-45.24332 -9.20788,-58.13718 -6.46556,-8.84812 -29.76444,-2.35158 -44.74599,-4.7723 -14.07696,-1.96807 -28.8511,3.81937 -42.31962,-2.86177 25.02784,-1.6343 30.69675,-1.74509 40.44957,2.30329 16.45666,2.72926 18.81267,0.1684 27.65128,0.52065 7.27998,-9.40002 6.35001,-30.20291 -0.96332,-39.54433 -4.4914,-5.73688 -12.76373,-4.45299 -33.92595,-11.52405 -22.62594,-7.56015 -63.8513,-4.78628 -80.61683,4.71008 -30.27052,17.14591 -39.87587,23.93394 -68.45273,45.20762 -12.01293,18.10072 -5.35882,43.3873 -8.92081,64.76422 -2.41872,46.36168 -4.75997,92.73006 -6.94948,139.1102 63.18831,5.54161 125.4081,43.86373 188.03431,32.22525 37.65977,-6.99871 20.00601,-33.63015 26.06298,-41.03439 24.1816,-29.56041 7.87282,-53.4851 12.09624,-61.97857 z"
       id="path893"
       inkscape:connector-curvature="0"
       sodipodi:nodetypes="sscccccssscccsss" />
    <g
       id="g1708"
       transform="matrix(0,0.43115024,-0.43417015,0,783.65109,208.40056)">
      <rect
         ry="40"
         y="306.86963"
         x="145.46196"
         height="427.29453"
         width="431.33514"
         id="rect4146"
         style="fill:#ffffff;fill-opacity:1;fill-rule:evenodd;stroke:#000000;stroke-width:3;stroke-linecap:round;stroke-linejoin:miter;stroke-miterlimit:4;stroke-dasharray:none;stroke-dashoffset:0;stroke-opacity:1" />
      <circle
         r="39.726036"
         cy="522.36224"
         cx="360"
         id="path4148"
         style="fill:#000000;fill-opacity:1;fill-rule:evenodd;stroke:#000000;stroke-width:3;stroke-linecap:round;stroke-linejoin:miter;stroke-miterlimit:4;stroke-dasharray:none;stroke-dashoffset:0;stroke-opacity:1" />
      <g
         transform="translate(1.3958435,-7.2460836)"
         id="g4183">
        <circle
           style="fill:#000000;fill-opacity:1;fill-rule:evenodd;stroke:#000000;stroke-width:3;stroke-linecap:round;stroke-linejoin:miter;stroke-miterlimit:4;stroke-dasharray:none;stroke-dashoffset:0;stroke-opacity:1"
           id="path4148-9"
           cx="491.94431"
           cy="385.66156"
           r="39.726036" />
        <circle
           style="fill:#000000;fill-opacity:1;fill-rule:evenodd;stroke:#000000;stroke-width:3;stroke-linecap:round;stroke-linejoin:miter;stroke-miterlimit:4;stroke-dasharray:none;stroke-dashoffset:0;stroke-opacity:1"
           id="path4148-0"
           cx="225.26401"
           cy="385.66156"
           r="39.726036" />
        <circle
           style="fill:#000000;fill-opacity:1;fill-rule:evenodd;stroke:#000000;stroke-width:3;stroke-linecap:round;stroke-linejoin:miter;stroke-miterlimit:4;stroke-dasharray:none;stroke-dashoffset:0;stroke-opacity:1"
           id="path4148-3"
           cx="225.26401"
           cy="673.55505"
           r="39.726036" />
        <circle
           style="fill:#000000;fill-opacity:1;fill-rule:evenodd;stroke:#000000;stroke-width:3;stroke-linecap:round;stroke-linejoin:miter;stroke-miterlimit:4;stroke-dasharray:none;stroke-dashoffset:0;stroke-opacity:1"
           id="path4148-92"
           cx="491.94431"
           cy="673.55505"
           r="39.726036" />
      </g>
    </g>
    <path
       style="fill:#ababab;fill-opacity:1;fill-rule:evenodd;stroke:#000000;stroke-width:2.36324406;stroke-linecap:butt;stroke-linejoin:miter;stroke-miterlimit:4;stroke-dasharray:none;stroke-opacity:1"
       d="m 260.16193,791.52694 15.87029,-203.87442 1076.70648,7.60644 -15.5652,193.6425 z"
       id="rect4692-8"
       inkscape:connector-curvature="0"
       sodipodi:nodetypes="ccccc" />
    <path
       style="fill:#ffffff;fill-opacity:1;fill-rule:evenodd;stroke:#000000;stroke-width:1.31923413;stroke-linecap:butt;stroke-linejoin:miter;stroke-miterlimit:4;stroke-dasharray:none;stroke-opacity:1"
       d="m 49.838681,658.44023 c -17.042008,34.27212 2.356498,51.52519 -1.808224,68.98872 -4.309319,18.06984 -9.784867,45.24332 9.207881,58.13718 6.465554,8.84812 29.76444,2.35158 44.745992,4.7723 14.07696,1.96807 28.8511,-3.81937 42.31962,2.86177 -25.02784,1.6343 -30.69675,1.74509 -40.44957,-2.30329 -16.456669,-2.72926 -18.812672,-0.16839 -27.651286,-0.52065 -7.279979,9.40003 -6.350013,30.20291 0.963319,39.54433 4.491402,5.73688 12.763735,4.45299 33.925957,11.52406 22.62594,7.56014 63.8513,4.78627 80.61683,-4.71009 30.27052,-17.1459 39.87587,-23.93394 68.45273,-45.20762 12.01293,-18.10072 5.35882,-43.3873 8.92081,-64.76422 2.41872,-46.36168 4.75997,-92.73006 6.94948,-139.1102 -63.18831,-5.54161 -125.4081,-43.86373 -188.034313,-32.22525 -37.659775,6.99871 -20.006016,33.63016 -26.06298,41.0344 -24.181602,29.56041 -7.872818,53.48509 -12.096246,61.97856 z"
       id="path893-7"
       inkscape:connector-curvature="0"
       sodipodi:nodetypes="sscccccssscccsss" />
    <g
       transform="rotate(-90,99.031351,572.19317)"
       id="g1724">
      <ellipse
         ry="90.218399"
         rx="88.082397"
         cy="637.74176"
         cx="-12.448187"
         id="path826"
         style="opacity:1;fill:#e7e7e7;fill-opacity:1;fill-rule:nonzero;stroke:#000000;stroke-width:3.75;stroke-linecap:round;stroke-linejoin:round;stroke-miterlimit:4;stroke-dasharray:none;stroke-dashoffset:0;stroke-opacity:1;paint-order:stroke markers fill" />
      <ellipse
         ry="90.218399"
         rx="88.082397"
         cy="632.72961"
         cx="-22.235117"
         id="path826-3"
         style="opacity:1;fill:#ffffff;fill-opacity:1;fill-rule:nonzero;stroke:#000000;stroke-width:3.75;stroke-linecap:round;stroke-linejoin:round;stroke-miterlimit:4;stroke-dasharray:none;stroke-dashoffset:0;stroke-opacity:1;paint-order:stroke markers fill" />
      <path
         inkscape:connector-curvature="0"
         id="path843"
         d="m -63.360193,696.20278 c 12.146684,-2.08495 21.182426,-12.84343 25.842811,-23.94 3.343973,-7.7081 3.422307,-18.51495 -4.091837,-23.72226 -6.080339,-2.74548 -13.09562,-4.64071 -17.478288,-10.31996 -10.432495,-12.37512 -9.607904,-30.78692 -4.091527,-45.21687 3.479842,-11.73727 11.809848,-21.70873 22.583745,-27.06499 16.009326,-8.46509 37.7628722,-7.68561 50.89776,5.92815 10.942358,10.98862 12.030928,28.17798 9.189826,42.77798 -2.405867,15.76636 -9.093856,31.52833 -5.509223,47.66614 1.921213,10.06466 6.891436,19.93218 15.390188,25.74035"
         style="fill:#f3f3f3;fill-opacity:1;stroke:#000000;stroke-width:0.93750006;stroke-linecap:butt;stroke-linejoin:miter;stroke-miterlimit:4;stroke-dasharray:none;stroke-opacity:1" />
    </g>
    <path
       inkscape:connector-curvature="0"
       style="opacity:1;fill:#545454;fill-opacity:1;fill-rule:evenodd;stroke:#000000;stroke-width:2.40979242;stroke-linecap:butt;stroke-linejoin:miter;stroke-miterlimit:4;stroke-dasharray:none;stroke-dashoffset:0;stroke-opacity:1;paint-order:markers stroke fill"
       d="m 360.3946,551.8878 v 19.24805 c 8.83554,-0.0968 17.60029,-3.36296 21.21277,-9.86573 3.58675,-6.45649 5.39268,-22.05819 5.47119,-37.8479 h -9.54711 c -0.0828,9.41707 -1.24016,18.65302 -3.53028,22.50549 -2.32169,3.90559 -7.92866,5.87078 -13.60657,5.96009 z"
       id="path1050" />
    <path
       inkscape:connector-curvature="0"
       style="opacity:1;fill:#545454;fill-opacity:1;fill-rule:evenodd;stroke:#000000;stroke-width:2.40979242;stroke-linecap:butt;stroke-linejoin:miter;stroke-miterlimit:4;stroke-dasharray:none;stroke-dashoffset:0;stroke-opacity:1;paint-order:markers stroke fill"
       d="m 360.3946,473.61203 c -0.13346,-0.002 -0.26203,-0.0367 -0.39551,-0.0367 -8.9706,0 -17.9394,3.30135 -21.60644,9.90234 -3.74732,6.74549 -5.55322,23.44795 -5.47119,39.94446 h 9.54712 c -0.0891,-10.12361 1.06834,-20.45871 3.53027,-24.60022 2.37603,-3.99698 8.18782,-5.9967 14.00024,-5.9967 0.13346,0 0.2621,0.0327 0.39551,0.0348 z"
       id="path1070" />
    <g
       id="g1079"
       transform="translate(0,0.9374982)"
       style="fill:#545454;fill-opacity:1">
      <path
         inkscape:connector-curvature="0"
         id="path984"
         d="m 359.99947,524.72836 c -8.9706,0 -17.94032,3.69437 -21.60736,11.08301 -7.33408,14.77726 -7.33408,72.29786 0,87.07513 7.33407,14.77727 35.88172,14.77727 43.2158,0 7.33406,-14.77727 7.33406,-72.29787 0,-87.07513 -3.66704,-7.38864 -12.63785,-11.08301 -21.60844,-11.08301 z m 0,21.54683 c 5.81242,0 11.62491,2.23668 14.00094,6.71059 4.75206,8.94784 4.75206,43.77847 0,52.7263 -4.75205,8.94782 -23.24875,8.94782 -28.00081,0 -4.75205,-8.94783 -4.75205,-43.77846 0,-52.7263 2.37603,-4.47391 8.18744,-6.71059 13.99987,-6.71059 z"
         style="opacity:1;fill:#545454;fill-opacity:1;fill-rule:evenodd;stroke:#000000;stroke-width:2.54951262;stroke-linecap:butt;stroke-linejoin:miter;stroke-miterlimit:4;stroke-dasharray:none;stroke-dashoffset:0;stroke-opacity:1;paint-order:markers stroke fill" />
      <path
         inkscape:connector-curvature="0"
         id="path984-9"
         d="m 359.99947,408.88 c -8.9706,0 -17.94032,3.69437 -21.60736,11.08301 -7.33408,14.77726 -7.33408,72.29786 0,87.07513 7.33407,14.77727 35.88172,14.77727 43.2158,0 7.33406,-14.77727 7.33406,-72.29787 0,-87.07513 C 377.94087,412.57437 368.97006,408.88 359.99947,408.88 Z m 0,21.54683 c 5.81242,0 11.62491,2.23668 14.00094,6.71059 4.75206,8.94784 4.75206,43.77847 0,52.7263 -4.75205,8.94782 -23.24875,8.94782 -28.00081,0 -4.75205,-8.94783 -4.75205,-43.77846 0,-52.7263 2.37603,-4.47391 8.18744,-6.71059 13.99987,-6.71059 z"
         style="opacity:1;fill:#545454;fill-opacity:1;fill-rule:evenodd;stroke:#000000;stroke-width:2.54951286;stroke-linecap:butt;stroke-linejoin:miter;stroke-miterlimit:4;stroke-dasharray:none;stroke-dashoffset:0;stroke-opacity:1;paint-order:markers stroke fill" />
    </g>
    <g
       id="g982"
       transform="translate(0,3.7600894)"
       style="fill:#545454;fill-opacity:1">
      <path
         transform="matrix(0.72207635,0,0,1.7994019,760.36556,151.90001)"
         d="m -491.38977,173.91886 -126.14905,0 0,-126.149057 126.14905,0 z"
         inkscape:randomized="0"
         inkscape:rounded="0"
         inkscape:flatsided="true"
         sodipodi:arg2="1.5707963"
         sodipodi:arg1="0.78539816"
         sodipodi:r2="63.074528"
         sodipodi:r1="89.200851"
         sodipodi:cy="110.84433"
         sodipodi:cx="-554.46429"
         sodipodi:sides="4"
         id="path972"
         style="opacity:1;fill:#545454;fill-opacity:1;fill-rule:evenodd;stroke:#000000;stroke-width:4.62941599;stroke-linecap:butt;stroke-linejoin:miter;stroke-miterlimit:4;stroke-dasharray:none;stroke-dashoffset:0;stroke-opacity:1;paint-order:markers stroke fill"
         sodipodi:type="star" />
      <path
         transform="matrix(-0.72207635,0,0,-1.7994019,-40.36555,885.30426)"
         d="m -491.38977,173.91886 -126.14905,0 0,-126.149057 126.14905,0 z"
         inkscape:randomized="0"
         inkscape:rounded="0"
         inkscape:flatsided="true"
         sodipodi:arg2="1.5707963"
         sodipodi:arg1="0.78539816"
         sodipodi:r2="63.074528"
         sodipodi:r1="89.200851"
         sodipodi:cy="110.84433"
         sodipodi:cx="-554.46429"
         sodipodi:sides="4"
         id="path972-7"
         style="opacity:1;fill:#545454;fill-opacity:1;fill-rule:evenodd;stroke:#000000;stroke-width:4.62941599;stroke-linecap:butt;stroke-linejoin:miter;stroke-miterlimit:4;stroke-dasharray:none;stroke-dashoffset:0;stroke-opacity:1;paint-order:markers stroke fill"
         sodipodi:type="star" />
    </g>
    <path
       inkscape:connector-curvature="0"
       style="opacity:1;fill:#545454;fill-opacity:1;fill-rule:evenodd;stroke:#000000;stroke-width:2.40979242;stroke-linecap:butt;stroke-linejoin:miter;stroke-miterlimit:4;stroke-dasharray:none;stroke-dashoffset:0;stroke-opacity:1;paint-order:markers stroke fill"
       d="m 360.3946,551.8878 c -5.94363,0.0935 -11.96538,-1.87171 -14.39575,-5.96009 -2.29012,-3.85247 -3.44747,-13.08842 -3.53027,-22.50549 h -9.54712 c 0.0786,15.78971 1.88443,31.39141 5.47119,37.8479 3.7216,6.69921 12.89951,9.9654 22.00195,9.86573 z"
       id="path1073" />
    <path
       inkscape:connector-curvature="0"
       style="opacity:1;fill:#545454;fill-opacity:1;fill-rule:evenodd;stroke:#000000;stroke-width:2.40979242;stroke-linecap:butt;stroke-linejoin:miter;stroke-miterlimit:4;stroke-dasharray:none;stroke-dashoffset:0;stroke-opacity:1;paint-order:markers stroke fill"
       d="m 360.3946,473.61203 v 19.24806 c 5.67725,0.0897 11.28509,2.0567 13.60657,5.96191 2.46194,4.14151 3.61929,14.47661 3.53028,24.60022 h 9.54711 c 0.082,-16.49652 -1.72388,-33.19897 -5.47119,-39.94446 -3.61248,-6.50277 -12.37681,-9.76894 -21.21277,-9.86573 z"
       id="path984-3" />
  </g>
</svg>
